<svg xmlns="http://www.w3.org/2000/svg" width="1630" height="738"><defs><style>.cls-2{fill:#56829c}.cls-3{fill:#fff}.cls-5{opacity:.1}.cls-6{clip-path:url(#clip-path)}.cls-7{fill:#f2675e}.cls-8{fill:#43455a}.cls-9{fill:#e9f4f4}.cls-10{fill:#cbbca7}.cls-11{clip-path:url(#clip-path-3)}.cls-12{fill:#e4e4e4}</style><clipPath id="clip-path"><path id="Rectangle_1722" d="M0 0h124.23v18.987H0z"/></clipPath><clipPath id="clip-path-3"><path id="Rectangle_1722-2" d="M0 0h86.795v13.266H0z"/></clipPath></defs><path id="canvas_background" fill="none" d="M-1-1h1632v740H-1z"/><g id="Say_hello_to_integrity"><g id="Group_7487"><g id="svg_1"><g id="Group_7377"><path id="Path_4467" d="M1099.518 82.425s23.587 5.816 36.835 27.788c0 0 24.557-7.755 49.76.323 0 0-17.125-13.894-45.882-7.755-.001-.323-11.313-18.417-40.713-20.356" class="cls-2"/><path id="Path_4468" d="M1294.033 1s17.125 4.2 26.819 20.033c0 0 17.77-5.493 36.189 0 0 0-12.6-10.017-33.281-5.493 0 0-8.078-12.925-29.727-14.54" class="cls-2"/></g><path id="Path_4887" d="M1626.024 147.462l-214.237 2.456s2.811-16.931 38.07-5.776c0 0-3.762-34.36 43.44-9.994 0 0 37.745-84.451 96.459 1.587.014.133 55.01-23.386 36.265 11.726" class="cls-3"/><path id="Path_4888" d="M973.983 268.138l251.848 2.888s-3.305-19.904-44.758-6.79c0 0 4.421-40.393-51.068-11.748 0 0-44.373-99.28-113.395 1.865-.016.157-64.668-27.492-42.632 13.784" class="cls-3"/><g id="Group_7378"><path id="Path_4877" fill="#729cc1" d="M236.272 569.844c-66.033 4.76-42.356 4.458-208.567 18.459-76.606 9.458 30.717 30.94 82.87 32.175 276.158 6.547-250.215 36.209 139.297 35.449 44.219-.095-78.26 35.004-18.62 36.819 59.424 1.79 116.486-26.404 171.66-32.042 69.244-7.089 61.136 33.47 137.35 34.776 70.361 1.205 133.528-25.102 105.338-32.05-27.97-6.875-143.737-26.903-.462-27.166 152.58 1.007 109.346-7.393 83.927-10.8-165.515-16.86 219.367-36.752 50.796-45.203-44.8-2.245-70.85-10.176-268.119-9.873-65.073-2.683-128.16-3.047-128.16-3.047s4.3-.065-45.51.773a558573553705536800 558573553705536800 0 0 1-58.26-1.149" opacity=".1"/><g id="Group_6992" transform="rotate(34 -2384.645 1829.904)"><g id="Group_6991" class="cls-5" transform="rotate(-35.02 381.66 -4.64)"><g id="Group_6990"><g id="Group_6989" class="cls-6"><g id="Group_6988" class="cls-6"><path id="Path_4469" d="M29.399-1192.065c-.27 4.3-28.161 5.374-62.52 2.329s-61.98-8.957-61.712-13.256 28.163-5.374 62.52-2.33 61.98 8.957 61.712 13.256"/></g></g></g></g><path id="Path_4470" d="M-638.097-753.448a1.557 1.557 0 0 0-.943-.179c-4.312.358-13.743 1.433-17.92 5.553-.674-3.045-2.695-5.732-4.581-7.882s-3.907-4.3-5.794-6.449a10.94 10.94 0 0 0-2.698-2.149c-.808-.358-2.156-.537-2.695.538 0 .18-.135.18-.135.358a5.173 5.173 0 0 0-.134 1.433c0 .18 0 .18.135.358.135.358.539.716.674 1.075a7.606 7.606 0 0 1 .943 1.254 30.494 30.494 0 0 0 1.886 2.507 56.454 56.454 0 0 0 3.907 4.657 53.3 53.3 0 0 0 4.312 4.12 12.619 12.619 0 0 0 2.29 1.791c.136.18.27.18.4.358a14.93 14.93 0 0 0-3.637 7.344 9.463 9.463 0 0 0 4.59-2.506 5.814 5.814 0 0 0 1.342-3.764c4.85.537 12.666-3.4 16.708-5.016.943-.9 2.156-2.508 1.347-3.4" class="cls-7"/><path id="Path_4471" d="M-622.872-773.152a1.557 1.557 0 0 0-.943-.179c-4.312.358-13.743 1.433-17.92 5.553-.674-3.045-2.695-5.732-4.581-7.882s-3.907-4.3-5.794-6.448a10.939 10.939 0 0 0-2.698-2.15c-.808-.358-2.156-.537-2.695.538a.706.706 0 0 0-.135.358 5.173 5.173 0 0 0-.134 1.433c0 .18 0 .18.135.358.135.358.539.717.674 1.075a7.6 7.6 0 0 1 .943 1.254 30.5 30.5 0 0 0 1.886 2.507 56.46 56.46 0 0 0 3.907 4.657 53.3 53.3 0 0 0 4.312 4.12 12.619 12.619 0 0 0 2.29 1.791c.136.18.27.18.4.358a14.93 14.93 0 0 0-3.637 7.344 9.463 9.463 0 0 0 4.59-2.506 5.814 5.814 0 0 0 1.342-3.764c4.85.537 12.666-3.4 16.708-5.016 1.078-1.075 2.29-2.687 1.347-3.4" class="cls-7"/><path id="Path_4472" d="M-680.408-775.48c-.808 4.656 1.213 9.134 3.368 12.9 1.348 2.141 2.965 4.474 4.986 4.653 1.752.18 3.369-1.075 4.716-2.687 3.5-4.3 4.716-10.748 5.524-17.017a8.759 8.759 0 0 0-.135-3.762 3.327 3.327 0 0 0-2.425-1.79c-5.255-1.256-10.375 2.328-14.96 5.911-.94.716-2.017 1.97-1.613 3.403l.539-1.612z" class="cls-8"/><path id="Path_4473" d="M-665.183-791.244c-.808 4.657 1.213 9.135 3.368 12.9 1.348 2.142 2.965 4.475 4.986 4.654 1.752.18 3.368-1.075 4.716-2.687 3.5-4.3 4.716-10.748 5.524-17.017a8.759 8.759 0 0 0-.135-3.762 3.327 3.327 0 0 0-2.425-1.79c-5.255-1.256-10.375 2.328-14.96 5.911-.94.716-2.017 1.97-1.613 3.403l.539-1.612z" class="cls-8"/><path id="Path_4474" d="M-770.01-758.105a2.534 2.534 0 0 0-.54 1.433c0 .717.54 1.075.944 1.433 5.257 4.478 12.127 4.3 18.057 1.612s10.914-7.882 15.765-13.076a310.542 310.542 0 0 0 25.194-31.343c.943-1.254 1.886-3.045 1.482-4.836a3.413 3.413 0 0 0-2.291-2.329c-4.446-2.149-9.3-1.254-14.013-.9-4.037.358-9.161-2.508-13.07-.535-4.041 2.15-7.14 9.494-9.835 13.793-7.141 11.641-14.417 23.107-21.693 34.748" class="cls-8"/><path id="Path_4475" d="M-688.762-891.554c.269-6.628-.27-13.434.674-20.062 1.482-10.748 7.815-20.776 15.899-22.39s16.977 7.522 16.3 18.45c-.135 3.044-.943 5.91-1.347 8.776-1.886 13.614 4.716 26.511 11.857 36.721 6.2 8.956 13.07 22.75 15.765 34.571 4.58 19.525-4.581 41.378-17.651 52.126-13.2 10.748-29.24 12.54-44.734 12-16.977-.716-35.3-4.657-46.89-21.137a13.2 13.2 0 0 1-2.83-6.449c-.4-3.224.809-6.448 2.022-9.314a130.238 130.238 0 0 1 18.459-29.2c7.41-8.956 13.2-15.763 21.828-22.212 8.084-6.09 10.24-20.24 10.644-31.884" class="cls-9"/><path id="Path_4476" d="M-690.513-866.835a34.976 34.976 0 0 0 18.459 3.4c8.623-.716 16.977-4.12 24.657-9.494-6.2-9.673-11.453-21.5-9.836-33.676.4-2.866 1.213-5.732 1.347-8.777.678-11.102-8.222-20.237-16.437-18.625-8.085 1.615-14.285 11.643-15.9 22.391-.943 6.628-.4 13.434-.674 20.062-.27 7.702-1.211 16.48-4.311 23.462.943.358 1.886.9 2.695 1.254" class="cls-8"/><path id="Path_4477" d="M-750.337-827.248a5.837 5.837 0 0 0-4.043 2.508 9.649 9.649 0 0 0-.808 2.866c-.81 6.811 1.75 14.151 6.197 17.911 5.255 4.3 11.992 3.4 18.055 1.97 14.148-3.4 28.3-9.135 40.018-20.24 3.773-3.584 7.68-9.136 6.333-15.048-.943-4.12-4.042-6.628-7.141-8.06-10.511-4.835-17.517.36-27.083 5.554a145.5 145.5 0 0 1-31.528 12.54" class="cls-8"/><path id="Path_4478" d="M-658.311-925.588c4.58-.9 9.3 1.612 12.127 6.45a15.928 15.928 0 0 0-11.453 3.044 50.289 50.289 0 0 1-1.213-10.927l.539 1.433z" class="cls-10"/><path id="Path_4479" d="M-651.574-867.372a8.063 8.063 0 0 0 2.156 2.866c.539.358.943-.717.4-1.075a7.392 7.392 0 0 1-1.747-2.504c-.27-.72-1.078 0-.81.713" class="cls-10"/><path id="Path_4480" d="M-648.475-867.91a6.365 6.365 0 0 0 1.617 2.33c.539.357.943-.718.4-1.076a4.343 4.343 0 0 1-1.208-1.967c-.27-.72-1.078 0-.81.713" class="cls-10"/><path id="Path_4481" d="M-646.05-868.626l.944 1.254c.4.537 1.078-.358.674-.9a7.629 7.629 0 0 1-.943-1.249c-.54-.537-1.078.358-.674.9" class="cls-10"/><path id="Path_4482" d="M-648.34-861.282a12.136 12.136 0 0 0 1.482 2.328c.4.537 1.078-.358.674-.9a18.807 18.807 0 0 1-1.347-2.145c-.27-.537-1.078.18-.81.717" class="cls-10"/><path id="Path_4483" d="M-644.028-855.55a6.872 6.872 0 0 0 .674 1.433c.269.358.539.9.943 1.075.539.358.943-.716.4-1.075l-.132-.182-.4-.537a1.017 1.017 0 0 1-.272-.535c0-.179-.135-.179-.135-.358v-.179c-.404-.717-1.213-.359-1.078.358" class="cls-10"/><path id="Path_4484" d="M-639.447-849.639a2.03 2.03 0 0 0 .539.537c.135.18.269.18.269.358l.135.18c.135.357.269.536.539.357s.4-.537.269-.717a3.558 3.558 0 0 0-1.212-1.43c-.404-.718-.943.178-.54.715" class="cls-10"/><path id="Path_4485" d="M-635.54-845.16c.674.537 1.483 1.253 2.156 1.791.539.358.943-.717.4-1.075-.804-.537-1.478-1.254-2.151-1.79-.54-.359-.943.716-.405 1.074" class="cls-10"/><path id="Path_4486" d="M-645.375-862.356l1.213 2.15c.269.717 1.078 0 .808-.717l-1.213-2.15a.5.5 0 0 0-.673-.179.977.977 0 0 0-.135.9" class="cls-10"/><path id="Path_4487" d="M-642.546-862.894a8.68 8.68 0 0 0 1.213 2.15c.4.537 1.078-.358.674-.9.135.18 0 0 0-.179s-.135-.179-.135-.358a1.017 1.017 0 0 1-.27-.537c-.134-.358-.4-.537-.538-.9-.54-.709-1.348.011-.944.724" class="cls-10"/><path id="Path_4488" d="M-640.794-857.34a15.742 15.742 0 0 1 1.078 1.79c.269.717 1.078 0 .808-.716a12.633 12.633 0 0 0-1.078-1.792.5.5 0 0 0-.673-.179.977.977 0 0 0-.135.9" class="cls-10"/><path id="Path_4489" d="M-637.56-853.759l.81 1.612c.27.717 1.079 0 .809-.716l-.808-1.609c-.138-.36-.407-.36-.677-.182s-.27.537-.135.9" class="cls-10"/><path id="Path_4490" d="M-636.214-849.28a7.618 7.618 0 0 1 .809 1.253c.4.716 1.078 0 .808-.717a9.938 9.938 0 0 0-.943-1.432c-.54-.537-1.078.358-.674.9" class="cls-10"/></g><g id="Group_7328" transform="rotate(-42 183.133 530.22)"><g id="Group_6991-2" class="cls-5" transform="rotate(-137 246.61 697.681)"><g id="Group_6990-2"><g id="Group_6989-2" class="cls-11"><g id="Group_6988-2" class="cls-11"><path id="Path_4469-2" d="M333.41 700.434c-.188-3-19.675-3.754-43.68-1.627s-43.307 6.257-43.12 9.261 19.675 3.754 43.68 1.627 43.305-6.257 43.12-9.261"/></g></g></g></g><path id="Path_4470-2" d="M216.336 656.499a1.087 1.087 0 0 1 .659-.125c3.012.25 9.6 1 12.52 3.88a13.11 13.11 0 0 1 3.2-5.507c1.318-1.5 2.73-3 4.048-4.505a7.643 7.643 0 0 1 1.888-1.502c.565-.25 1.506-.375 1.883.375 0 .125.094.125.094.25a3.614 3.614 0 0 1 .094 1c0 .125 0 .125-.094.25-.094.25-.377.5-.471.751a5.314 5.314 0 0 0-.66.876 21.3 21.3 0 0 1-1.321 1.754 39.44 39.44 0 0 1-2.725 3.25 37.242 37.242 0 0 1-3.012 2.878 8.816 8.816 0 0 1-1.6 1.251c-.094.125-.188.125-.282.25a10.431 10.431 0 0 1 2.542 5.131 6.611 6.611 0 0 1-3.2-1.752 4.062 4.062 0 0 1-.941-2.628c-3.39.375-8.85-2.378-11.673-3.5-.666-.625-1.514-1.751-.95-2.377" class="cls-7"/><path id="Path_4471-2" d="M205.699 642.733a1.088 1.088 0 0 1 .663-.125c3.012.25 9.6 1 12.52 3.88a13.11 13.11 0 0 1 3.2-5.507c1.318-1.5 2.73-3 4.048-4.505a7.643 7.643 0 0 1 1.883-1.5c.565-.25 1.506-.375 1.883.375a.493.493 0 0 1 .094.25 3.614 3.614 0 0 1 .094 1c0 .125 0 .125-.094.25-.094.25-.377.5-.471.751a5.314 5.314 0 0 0-.66.876 21.307 21.307 0 0 1-1.32 1.752 39.445 39.445 0 0 1-2.73 3.25 37.239 37.239 0 0 1-3.012 2.878 8.816 8.816 0 0 1-1.6 1.251c-.094.125-.188.125-.282.25a10.431 10.431 0 0 1 2.542 5.131 6.611 6.611 0 0 1-3.2-1.752 4.062 4.062 0 0 1-.941-2.628c-3.392.38-8.854-2.373-11.676-3.499-.753-.751-1.6-1.877-.941-2.378" class="cls-7"/><path id="Path_4472-2" d="M245.895 641.106c.565 3.254-.847 6.383-2.353 9.011-.941 1.5-2.071 3.129-3.483 3.254-1.224.125-2.353-.751-3.295-1.877-2.448-3.004-3.295-7.51-3.86-11.89a6.119 6.119 0 0 1 .094-2.628 2.325 2.325 0 0 1 1.695-1.251c3.67-.879 7.248 1.626 10.449 4.129a2.368 2.368 0 0 1 1.13 2.378l-.377-1.126z" class="cls-8"/><path id="Path_4473-2" d="M235.258 630.093c.565 3.254-.847 6.383-2.353 9.011-.941 1.5-2.071 3.129-3.483 3.254-1.224.125-2.353-.751-3.295-1.877-2.448-3.004-3.295-7.51-3.86-11.89a6.12 6.12 0 0 1 .094-2.628 2.325 2.325 0 0 1 1.695-1.251c3.67-.879 7.248 1.626 10.449 4.129a2.368 2.368 0 0 1 1.13 2.378l-.377-1.126z" class="cls-8"/><path id="Path_4474-2" d="M308.497 653.242a1.771 1.771 0 0 1 .377 1c0 .5-.377.751-.66 1-3.67 3.129-8.471 3-12.613 1.126s-7.621-5.501-11.015-9.126a216.963 216.963 0 0 1-17.606-21.905 4.31 4.31 0 0 1-1.033-3.379 2.384 2.384 0 0 1 1.6-1.627c3.107-1.5 6.5-.876 9.79-.626 2.824.25 6.4-1.752 9.13-.375 2.825 1.5 4.99 6.633 6.873 9.636 4.99 8.135 10.074 16.144 15.157 24.276" class="cls-8"/><path id="Path_4475-2" d="M251.732 560.01c-.188-4.63.188-9.386-.471-14.017-1.036-7.509-5.46-14.517-11.108-15.643s-11.862 5.256-11.391 12.89c.094 2.128.659 4.13.94 6.132 1.319 9.511-3.294 18.522-8.283 25.655-4.33 6.258-9.131 15.893-11.014 24.154-3.2 13.641 3.2 28.909 12.332 36.418 9.225 7.509 20.428 8.76 31.254 8.385 11.86-.5 24.664-3.254 32.76-14.767a9.22 9.22 0 0 0 1.977-4.505c.282-2.253-.565-4.505-1.412-6.508a90.992 90.992 0 0 0-12.9-20.4c-5.178-6.257-9.225-11.013-15.25-15.518-5.648-4.255-7.154-14.142-7.437-22.276" class="cls-9"/><path id="Path_4476-2" d="M252.956 577.28a24.437 24.437 0 0 1-12.9 2.378 35.3 35.3 0 0 1-17.224-6.638c4.33-6.758 8-15.018 6.872-23.528-.282-2-.847-4-.941-6.132-.471-7.754 5.742-14.14 11.484-13.011 5.648 1.126 9.979 8.135 11.108 15.644.659 4.63.282 9.386.47 14.017.189 5.381.848 11.514 3.013 16.394-.66.25-1.318.626-1.883.876" class="cls-8"/><path id="Path_4477-2" d="M294.753 604.938a4.078 4.078 0 0 1 2.824 1.752 6.741 6.741 0 0 1 .565 2c.565 4.756-1.224 9.887-4.33 12.515-3.671 3-8.378 2.378-12.614 1.377-9.885-2.376-19.774-6.381-27.96-14.14-2.635-2.503-5.365-6.383-4.424-10.512a8.387 8.387 0 0 1 4.989-5.632c7.343-3.379 12.238.25 18.922 3.88a101.658 101.658 0 0 0 22.028 8.76" class="cls-8"/><path id="Path_4478-2" d="M230.457 536.23c-3.2-.625-6.495 1.128-8.472 4.507a11.128 11.128 0 0 1 8 2.127 35.135 35.135 0 0 0 .849-7.634l-.377 1z" class="cls-10"/><path id="Path_4479-2" d="M225.75 576.905a5.634 5.634 0 0 1-1.506 2c-.377.25-.66-.5-.282-.751a5.164 5.164 0 0 0 1.222-1.75c.188-.5.753 0 .565.5" class="cls-10"/><path id="Path_4480-2" d="M223.585 576.529a4.447 4.447 0 0 1-1.13 1.627c-.377.25-.66-.5-.282-.751a3.034 3.034 0 0 0 .847-1.377c.188-.5.753 0 .565.5" class="cls-10"/><path id="Path_4481-2" d="M221.89 576.029l-.658.876c-.283.375-.758-.251-.471-.626a5.33 5.33 0 0 0 .659-.876c.377-.375.753.25.47.626" class="cls-10"/><path id="Path_4482-2" d="M223.49 581.16a8.479 8.479 0 0 1-1.034 1.626c-.283.376-.758-.25-.471-.625a13.139 13.139 0 0 0 .94-1.5c.189-.375.754.125.566.5" class="cls-10"/><path id="Path_4483-2" d="M220.479 585.164a4.8 4.8 0 0 1-.471 1c-.188.25-.377.626-.66.751-.376.25-.658-.5-.281-.751l.094-.123.282-.375a.711.711 0 0 0 .189-.377c0-.125.094-.125.094-.248v-.127c.282-.5.847-.25.753.25" class="cls-10"/><path id="Path_4484-2" d="M217.278 589.294a1.418 1.418 0 0 1-.377.375c-.094.125-.184.125-.184.251l-.1.125c-.094.25-.188.375-.377.25s-.282-.375-.188-.5a2.486 2.486 0 0 1 .847-1c.282-.5.659.125.377.5" class="cls-10"/><path id="Path_4485-2" d="M214.547 592.422c-.466.377-1.035.877-1.506 1.253-.376.247-.66-.501-.282-.753.565-.374 1.035-.874 1.506-1.25.377-.25.659.5.282.751" class="cls-10"/><path id="Path_4486-2" d="M221.42 580.409l-.85 1.501c-.188.5-.753 0-.565-.5l.85-1.502a.347.347 0 0 1 .47-.125.683.683 0 0 1 .095.626" class="cls-10"/><path id="Path_4487-2" d="M219.443 580.033a6.065 6.065 0 0 1-.847 1.5c-.282.375-.753-.25-.471-.626-.094.125 0 0 0-.125s.094-.125.094-.25a.711.711 0 0 0 .188-.374c.095-.25.283-.375.377-.626.377-.5.94 0 .659.5" class="cls-10"/><path id="Path_4488-2" d="M218.219 583.913a11 11 0 0 0-.756 1.251c-.188.5-.753 0-.565-.5a8.825 8.825 0 0 1 .756-1.252.347.347 0 0 1 .47-.125.683.683 0 0 1 .095.626" class="cls-10"/><path id="Path_4489-2" d="M215.96 586.416l-.568 1.126c-.188.5-.753 0-.565-.5l.565-1.127c.094-.25.282-.25.47-.125s.189.375.095.626" class="cls-10"/><path id="Path_4490-2" d="M215.019 589.545a5.323 5.323 0 0 0-.565.876c-.282.5-.753 0-.565-.5a6.944 6.944 0 0 1 .657-1.002c.377-.375.753.25.47.626" class="cls-10"/></g><ellipse id="Ellipse_142" cx="335.428" cy="644.818" class="cls-12" rx="8" ry="2"/><ellipse id="Ellipse_145" cx="388.428" cy="706.818" class="cls-12" rx="8" ry="2"/><ellipse id="Ellipse_143" cx="675.428" cy="611.818" class="cls-12" rx="4" ry="1"/><ellipse id="Ellipse_144" cx="689.428" cy="695.818" class="cls-12" rx="4" ry="1"/></g></g></g></g></svg>