<svg xmlns="http://www.w3.org/2000/svg" viewBox="0 0 122.8 123.449"><defs><style>.a{fill:#ffec66}.b{fill:none}.c{fill:#87b1ca}.d{fill:#ccaa92}.e{fill:#fb9f8d}.f{fill:#98c8e5}.g{fill:#300833}.h{fill:#8cbad1}.i{fill:#d3f6eb}.j{fill:#c18456}.k{fill:#757475}.l{fill:#fff}</style></defs><path class="a" d="M119.963 61.389c9.93 34.3-5.529 61.835-57.209 61.835-49.536 0-71.313-33.513-59.691-76.391C10.962 17.495 35.109-1.687 72.571.118c37.575 1.918 37.462 27.871 47.392 61.271"/><path class="b" d="M60.273 32.502c-.113.339-.451 1.918-.79 3.385l.79-3.159c0-.113.113-.226.113-.339-.113 0-.113 0-.113.113z"/><path class="c" d="M20.215 84.182a15.468 15.468 0 0 1 4.514-1.918c-1.58.451-11.509 2.821-14.33 13.2-.451 1.58-.9 3.159-1.241 4.739a45.964 45.964 0 0 0 4.626 5.868c.902-9.707 3.046-19.519 6.431-21.889zm84.516 10.719c.226 5.529.451 11.058.677 16.474 0 .564.113 1.241.113 1.805a41.78 41.78 0 0 0 9.027-8.124c-5.751-10.38-11.284-20.31-12.751-23.018a76.893 76.893 0 0 1 2.934 12.863z"/><path class="d" d="M67.043 79.104c1.58-.677 3.272-1.241 4.852-1.918-.113-.113-.113-.226-.226-.451-2.6.9-6.432 1.016-12.3-.79a6.434 6.434 0 0 1-.113 1.467c.451.113 1.016.339 1.467.451a41.2 41.2 0 0 1 6.32 1.241z"/><path class="e" d="M71.669 90.388a26.579 26.579 0 0 1 1.128-4.288c-.677-.79-1.354-1.467-2.031-2.257a33.643 33.643 0 0 1-4.513 2.257c.226 1.354.564 2.708.79 3.949.451 1.467 2.708 16.926 10.043 32.723a92.374 92.374 0 0 0 8.35-1.354c-3.724-7.109-7.334-14.218-10.607-21.326-1.576-3.498-3.611-6.319-3.16-9.704zm-7.786-.903a30.749 30.749 0 0 1 1.354-3.159 8.118 8.118 0 0 1-6.319-1.016c-1.693 2.257-3.611 4.739-4.852 6.206-.339 2.37-1.016 5.529-1.467 10.494a126.792 126.792 0 0 1-3.836 20.424 96.257 96.257 0 0 0 14.33 1.016c1.693 0 3.385 0 5.078-.113-1.808-7.227-4.626-26.292-4.288-33.852z"/><path class="f" d="M101.346 81.361c-.113 0-.113-.113 0 0z"/><path class="f" d="M105.408 111.375c-.226-5.529-.451-11.058-.677-16.474a60.233 60.233 0 0 0-3.047-12.863 1.819 1.819 0 0 0-.451-.79c-1.016-1.467-3.272-5.98-4.852-6.883-1.241-.677-3.272 0-4.626.113-4.4.564-8.914 1.016-13.315 1.58-.113 1.918-.226 3.724-.451 5.642-.226 2.37-.339 4.739-.564 7a12.434 12.434 0 0 1-.226 2.031c-1.58-1.58-3.047-3.272-4.514-4.852a34.584 34.584 0 0 0-1.128 4.288c-.564 3.385 1.58 6.319 3.047 9.478 3.272 7.109 6.883 14.218 10.607 21.326a62.213 62.213 0 0 0 8.8-2.482 51.787 51.787 0 0 0 10.043-4.858c.339-.226.79-.451 1.128-.677a3.346 3.346 0 0 0 .226-1.579zm-4.175-30.127z"/><path class="g" d="M67.043 89.937c-.339-1.354-.564-2.708-.79-3.949a18.724 18.724 0 0 0 4.514-2.257c-.9-.9-1.693-1.918-2.6-2.821l-.226-.226c-.113-.113-.226-.226-.226-.339-.339-.339-.677-.79-1.016-1.128.113 0 .226-.113.339-.113a30.389 30.389 0 0 0-6.201-1.128 26.407 26.407 0 0 1 2.708 1.016c-.113.113-.564.79-1.354 1.805a2.992 2.992 0 0 1-.564.677c-.79 1.128-1.805 2.482-2.821 3.836a7.671 7.671 0 0 0 6.319 1.016 17.857 17.857 0 0 1-1.354 3.159c-.339 7.56 2.6 26.742 4.4 33.851 3.159-.113 6.093-.339 8.914-.677-7.221-15.797-9.591-31.255-10.042-32.722z"/><path class="h" d="M53.164 89.147c-1.467-3.949-2.821-8.011-4.175-11.961-.113-.226-.113-.339-.226-.564l-.79.113c-10.72 2.934-18.393 4.062-23.357 5.416a15.468 15.468 0 0 0-4.514 1.918c-3.384 2.37-5.531 12.187-6.431 21.891a49.221 49.221 0 0 0 15.233 10.72c.451.226.9.451 1.467.677a74.8 74.8 0 0 0 18.167 4.965 164.88 164.88 0 0 0 3.833-20.424c.451-4.965 1.128-8.124 1.467-10.494a8.6 8.6 0 0 0-.674-2.257z"/><path class="i" d="M60.723 77.862c-.451-.113-1.016-.339-1.467-.451-3.272-1.016-6.432-1.918-9.591-3.159-.677-.226-1.354-.564-1.918-.79.339 1.128.79 2.144 1.128 3.272.113.226.113.339.226.564 1.354 3.949 2.821 8.011 4.175 11.961.226.79.564 1.467.79 2.257 1.241-1.467 3.159-3.836 4.852-6.206 1.016-1.354 2.031-2.708 2.821-3.836.226-.226.339-.451.564-.677a16.49 16.49 0 0 1 1.354-1.805 133.563 133.563 0 0 0-2.934-1.13zm16.362-2.82c-1.805.677-3.5 1.467-5.3 2.144-1.58.677-3.159 1.241-4.852 1.918-.113 0-.226.113-.339.113.339.339.677.79 1.016 1.128.113.113.226.226.226.339l.226.226c.79.9 1.693 1.918 2.6 2.821.677.79 1.354 1.467 2.031 2.257 1.467 1.58 3.047 3.272 4.514 4.852.113-.677.113-1.354.226-2.031.226-2.37.339-4.739.564-7 .113-1.918.226-3.724.451-5.642 0-.564.113-1.128.113-1.693a12.655 12.655 0 0 0-1.476.568z"/><path class="j" d="M54.405 56.988s3.047-3.611 7.334-1.805c7 2.934 7.56 8.463 10.832 9.591 2.37.79 4.965-2.482 6.432-7l.677-3.385c-.113-.79 1.693-9.591 1.354-12.751s-6.657-3.5-9.93-3.836-5.755-1.918-9.14-6.206a2.944 2.944 0 0 0-1.467.79c0 .113-.113.226-.113.339 0 0-.226 1.241-.79 3.159a89.704 89.704 0 0 1-.451 2.482.873.873 0 0 0-.113-.339 55.492 55.492 0 0 1-2.6 6.77 30.088 30.088 0 0 0-1.693 7z"/><path class="g" d="M59.483 35.887c-.226.677-.339 1.354-.677 2.144a.873.873 0 0 1 .113.339 11.4 11.4 0 0 0 .564-2.483z"/><path class="g" d="M82.276 34.985c-4.514-2.482-4.739-1.241-6.657-3.949s-5.078-8.463-6.319-9.478c-2.031-1.693-5.416-2.257-6.545 2.934a7.049 7.049 0 0 1-2.821 4.739 6.087 6.087 0 0 0-2.144 3.835 18.766 18.766 0 0 0 1.241 4.965c.226-.79.451-1.467.677-2.144.339-1.467.677-3.047.79-3.385a.111.111 0 0 1 .113-.113 5.692 5.692 0 0 1 1.467-.79c3.385 4.288 5.755 5.868 9.14 6.206s9.7.677 9.93 3.836c.342 3.16-1.468 11.962-1.358 12.752.226.79 1.016.677 1.693.451.113 0 4.175-9.591 4.062-12.751-.223-3.272-.223-5.529-3.269-7.108z"/><path class="k" d="M79.004 57.89c-1.467 4.514-4.062 7.786-6.432 7-3.272-1.128-3.836-6.77-10.832-9.591-4.288-1.805-7.334 1.805-7.334 1.805l.113-5.3c-1.241.79-3.611 6.77-4.288 8.8-.677 2.6-3.836 10.607 5.868 14.33 1.128.451 2.257.79 3.385 1.128 5.868 1.805 9.7 1.693 12.3.79a7.23 7.23 0 0 0 4.739-5.642c.9-3.611 3.047-14.443 2.934-14.443a3.379 3.379 0 0 0-.453 1.123zm-20.991 3.607a1.473 1.473 0 0 1-.79-1.805c.113-.226.113-.564.226-.79 2.37 1.016 4.739 1.918 7.222 2.934-.113.226-.113.564-.226.79a1.2 1.2 0 0 1-1.58.9 182.518 182.518 0 0 1-4.852-2.029z"/><path class="l" d="M58.018 61.501a86.36 86.36 0 0 0 4.852 1.918 1.2 1.2 0 0 0 1.58-.9c.113-.226.113-.564.226-.79-2.482-1.016-4.852-1.918-7.222-2.934-.113.226-.113.564-.226.79a1.508 1.508 0 0 0 .79 1.916z"/></svg>