<svg xmlns="http://www.w3.org/2000/svg" viewBox="0 0 725 725"><defs><style>.b{fill:#ffdc40}.f{fill:#fff}.g{opacity:.6}.h{fill:#e0f7fa}.k{fill:#00458c}</style></defs><g transform="translate(-.036)"><path fill="#ffe366" d="M106.219 269.259C47.965 303.009-19.386 356.42 5.265 390.316c22.891 31.548 77.476 15.7 92.737 13.206 15.26-2.641 33.309 1.027 40.792 14.527 7.924 14.38-.147 32.869-12.179 44.021s-27.439 18.2-39.619 29.2-20.69 29.2-13.206 43.874c6.6 12.913 23.037 17.755 37.417 15.847s27.293-8.951 40.646-14.38a184.769 184.769 0 0 1 39.325-11.152c19.663-3.228 31.988 20.4 18.2 34.776-2.054 2.054-4.109 4.109-6.31 6.016-12.766 11.152-27.586 23.624-27.586 40.5-.147 12.179 8.217 23.331 18.929 29.054s23.331 6.9 35.363 5.869c38-3.228 71.313-25.385 105.062-43.14a484.914 484.914 0 0 1 144.534-48.863c39.912-6.75 83.2-9.538 115.187-34.336 12.326-9.538 22.891-23.918 20.983-39.472-2.2-18.048-20.543-29.934-38.3-33.6a102.7 102.7 0 0 0-11.74-1.617c-17.021-1.614-25.092-22.01-13.353-34.63 9.244-10.125 18.489-20.1 27.88-30.227 10.858-11.739 21.864-23.771 28.467-38.3s8.217-32.282.147-46.222c-13.059-22.451-44.461-25.385-70.139-21.13-9.538 1.614-19.222 3.815-29.054 5.576-22.3 3.962-33.9-25.825-14.674-37.858 1.761-1.174 3.668-2.2 5.429-3.375 43.287-26.412 106.53-63.1 104.916-113.867-2.2-74.835-83.346-61.042-146.882-29.641-74.837 36.981-150.844 72.051-224.945 110.643-42.407 22.45-85.547 43.58-127.073 67.644z"/><circle cx="31.548" cy="31.548" r="31.548" class="b" transform="rotate(-39.815 592.17 -736.114)"/><circle cx="11.152" cy="11.152" r="11.152" class="b" transform="rotate(-81.84 510.286 -205.807)"/><circle cx="19.369" cy="19.369" r="19.369" fill="#d3f6eb" transform="rotate(-76.832 315.348 211.957)"/><path fill="#2bd69e" d="M374.745 476.302h.293c0 .147-.147.147-.293 0z"/><circle cx="45.781" cy="45.781" r="45.781" fill="#f1f2f2" transform="translate(416.858 126.632)"/><circle cx="29.347" cy="29.347" r="29.347" class="b" transform="rotate(-76.714 177.066 19.842)"/><circle cx="19.663" cy="19.663" r="19.663" class="b" transform="translate(238.868 54.732)"/><ellipse cx="15.114" cy="13.5" class="f" rx="15.114" ry="13.5" transform="translate(445.764 217.315)"/><circle cx="8.804" cy="8.804" r="8.804" class="f" transform="rotate(-45 244.727 -129.934)"/><path d="M240.628 20.543a13.646 13.646 0 1 1-13.646 13.646 13.715 13.715 0 0 1 13.646-13.646zm0-3.962a17.608 17.608 0 1 0 17.608 17.608 17.66 17.66 0 0 0-17.608-17.608zm-24.505 211.446a1.908 1.908 0 1 1-1.908 1.908 1.942 1.942 0 0 1 1.908-1.908zm0-3.962a5.869 5.869 0 1 0 5.869 5.869 5.887 5.887 0 0 0-5.869-5.869z" class="f"/><circle cx="9.831" cy="9.831" r="9.831" class="f" transform="rotate(-45 172.422 -8.358)"/><path d="M501.964 170.359a5.869 5.869 0 1 1-5.869-5.869 5.794 5.794 0 0 1 5.869 5.869zM463.813 69.553a7.777 7.777 0 1 1-7.777-7.777 7.734 7.734 0 0 1 7.777 7.777z" class="f"/><circle cx="8.804" cy="8.804" r="8.804" class="f" transform="rotate(-76.714 427.504 -271.084)"/><circle cx="16.581" cy="16.581" r="16.581" class="f" transform="rotate(-76.714 374.924 -309.148)"/><circle cx="8.804" cy="8.804" r="8.804" class="f" transform="rotate(-76.714 498.12 -188.988)"/><circle cx="10.712" cy="10.712" r="10.712" class="f" transform="rotate(-22.5 916.795 -1336.975)"/><circle cx="15.114" cy="15.114" r="15.114" class="f" transform="rotate(-45 526.278 -509.993)"/><circle cx="20.249" cy="20.249" r="20.249" class="f" transform="rotate(-76.85 243.944 -100.23)"/><path d="M541.142 101.834a16.581 16.581 0 1 1-16.581 16.581 16.564 16.564 0 0 1 16.581-16.581zm0-3.962a20.543 20.543 0 1 0 20.543 20.543 20.6 20.6 0 0 0-20.543-20.543zM389.413 3.962A20.543 20.543 0 1 1 368.875 24.5a20.6 20.6 0 0 1 20.538-20.538zm0-3.962a24.5 24.5 0 1 0 24.5 24.5 24.548 24.548 0 0 0-24.5-24.5z" class="f"/><circle cx="26.412" cy="26.412" r="26.412" class="f" transform="translate(672.177 259.428)"/><path d="M676.139 204.549a7.777 7.777 0 1 1-7.777 7.777 7.828 7.828 0 0 1 7.777-7.777zm0-3.962a11.739 11.739 0 1 0 11.739 11.739 11.773 11.773 0 0 0-11.739-11.739zM623.31 19.516a4.842 4.842 0 1 1-4.842 4.842 4.791 4.791 0 0 1 4.842-4.842zm0-3.815a8.8 8.8 0 1 0 8.8 8.8 8.83 8.83 0 0 0-8.8-8.8zM421.696 143.213a4.842 4.842 0 1 1-4.842 4.842 4.7 4.7 0 0 1 4.842-4.842zm0-3.815a8.8 8.8 0 1 0 8.8 8.8 8.83 8.83 0 0 0-8.8-8.8z" class="f"/><g class="g"><path d="M319.866 148.056c-4.4 1.614-9.685-1.467-11.592-6.75-1.908-5.429 0-11.005 4.549-12.766 4.4-1.614 9.685 1.467 11.592 6.75 1.907 5.429 0 11.005-4.549 12.766z" class="h"/></g><g class="g"><path d="M448.846 206.163c0 2.641-3.228 4.842-7.19 4.842s-7.19-2.2-7.19-4.842 3.228-4.842 7.19-4.842 7.19 2.054 7.19 4.842z" class="h"/></g><g class="g"><path d="M543.05 219.516c0 2.641-3.375 4.842-7.483 4.842s-7.484-2.2-7.484-4.842 3.375-4.842 7.484-4.842 7.483 2.054 7.483 4.842z" class="h"/></g><g class="g"><path d="M538.207 313.866c0 4.109-3.962 7.484-8.8 7.484s-8.8-3.375-8.8-7.484 3.962-7.483 8.8-7.483 8.8 3.375 8.8 7.483z" class="h"/></g><g class="g"><path d="M545.691 317.242c0 3.668-4.255 6.456-9.391 6.456-5.282 0-9.391-2.935-9.391-6.456 0-3.668 4.255-6.456 9.391-6.456 5.283-.147 9.391 2.788 9.391 6.456z" class="h"/></g><circle cx="10.712" cy="10.712" r="10.712" class="f" transform="rotate(-45 128.704 -109.858)"/><path d="M148.185 54.442a6.9 6.9 0 1 1-6.9-6.9 6.984 6.984 0 0 1 6.9 6.9z" class="f"/><g class="g"><path d="M135.566 55.76c0 2.495-2.348 4.549-5.282 4.549s-5.283-2.055-5.283-4.549 2.348-4.549 5.282-4.549 5.283 2.054 5.283 4.549z" class="h"/></g><g class="g" transform="translate(679.514 269.112)"><ellipse cx="12.766" cy="10.271" class="h" rx="12.766" ry="10.271"/></g><g class="g" transform="translate(171.516 130.154)"><ellipse cx="3.522" cy="2.348" class="h" rx="3.522" ry="2.348"/></g><g class="g" transform="translate(63.079 113.867)"><ellipse cx="5.282" cy="4.255" class="h" rx="5.282" ry="4.255"/></g><g class="g"><path d="M458.531 67.498c0 1.761-1.908 3.228-4.255 3.228s-4.255-1.467-4.255-3.228 1.908-3.228 4.255-3.228 4.255 1.467 4.255 3.228z" class="h"/></g><g class="g" transform="translate(492.133 166.398)"><ellipse cx="2.641" cy="2.201" class="h" rx="2.641" ry="2.201"/></g><g class="g"><path d="M608.348 198.972c0 2.348-2.2 4.109-4.842 4.109s-4.843-1.908-4.843-4.109c0-2.348 2.2-4.109 4.842-4.109a4.394 4.394 0 0 1 4.843 4.109z" class="h"/></g><circle cx="78.65" cy="78.65" r="78.65" fill="#ffdc40" opacity=".526" transform="translate(65.133 220.983)"/><path d="M317.665 202.788a13.353 13.353 0 1 1-13.353-13.353 13.4 13.4 0 0 1 13.353 13.353z" class="f"/></g><g transform="translate(278.517 356.195)"><ellipse cx="113.467" cy="31.688" fill="#020202" opacity=".09" rx="113.467" ry="31.688" transform="translate(16.443 304.9)"/><path d="M101.162 306.861c-19.383-1.307-38.766-2.5-58.911-4.356-6.425-.762-7.078-9.365-1.851-9.038 21.234.109 41.6-.544 61.742-1.089-.328 4.791-.654 9.583-.98 14.483zm13.502-2.179c19.383-7.4 38.548-14.483 58.04-20.254 6.207-1.96 6.86-9.691 1.851-8.494-20.363 3.811-40.29 9.038-60.436 14.592.11 4.682.328 9.474.545 14.156z" class="k"/><path d="M117.605 312.74c22 7.949 44.211 16.443 66.643 23.521 5.771 1.633 11.434-5.009 6.969-6.642-24.828-11.434-49.22-24.715-73.394-36.915 0 6.642 0 13.285-.218 20.036zm-19.818 3.267c-22.65 15.354-46.062 31.252-69.147 47.369-5.88 4.029-11.325-1.525-6.751-5.009 25.59-21.561 51.724-42.577 76.334-62.614-.11 6.751-.219 13.5-.436 20.254z" class="k"/><path d="M117.605 312.741c-6.642 1.089-13.394 2.178-20.036 3.267.544-20.908.653-41.162.436-61.089 6.642-.871 13.176-1.742 19.71-2.5.326 19.595.326 39.632-.11 60.322z" class="k"/><path fill="#0570a5" d="M.654 159.201c3.485 74.265 58.911 105.3 107.8 97.35 24.937-3.049 49.546-13.612 68.929-28.421 19.274-15.245 33.43-34.628 34.846-64.138-1.089-2.613-56.3-7.3-105.953-4.465-49.651 3.485-103.989-1.741-105.622-.326z"/><path fill="#0078bf" d="M187.95 154.954c-17.314-39.31 38.222-94.737 21.67-115.318-17.314-19.383-42.686-2.178-103.884-9.038C45.191 19.927 20.8-12.414 3.049 5.117c-16.007 20.907 36.915 107.478 21.234 148.53C18.948 167.042 3.158 142.1.545 159.2c2.831 26.025 23.085 43.666 45.3 52.378 22.323 9.038 46.5 8.929 61.525 7.731 15.027-1.416 38.657-7.4 60.436-15.79 21.561-8.711 41.271-19.819 44.32-39.419-2.726-14.808-18.626 2.288-24.176-9.146z"/><path d="M168.458 203.086c-7.84 3.158-25.154 12.3-61.089 16.116-36.806 3.92-52.269-4.356-64.356-9.038-.109-17.75 28.421-30.6 62.287-32.668 33.975-2.178 62.94 10.018 63.158 25.59z" class="b"/></g></svg>