<svg xmlns="http://www.w3.org/2000/svg" viewBox="0 0 322.838 186.834"><path fill="#a6d6ff" d="M293.038 128.166s31.8 2.9 29.7 32.2c-2.2 29.4-42.7 23-69.5 23s-181.6 12.1-214.2-8.9c-27.5-17.7-24.6-67.1 46.3-71.1 4.2-.2-39.7-81 73.4-101.4 79.2-14.3 89 54.1 89 54.1s42.1-6 56.5 31c11 28-11.2 41.1-11.2 41.1z"/><path fill="#78ceff" d="M11.338 55.866s-12.1 1.1-11.3 12.2c.8 11.2 16.2 8.7 26.4 8.7s69 4.6 81.4-3.4c10.4-6.7 9.3-25.5-17.6-27-1.6-.1 15.1-30.8-27.9-38.5-30-5.4-33.8 20.6-33.8 20.6s-16-2.3-21.5 11.8c-4.1 10.6 4.3 15.6 4.3 15.6z"/></svg>