<svg xmlns="http://www.w3.org/2000/svg" viewBox="0 0 868 541"><defs><style>.cls-1,.cls-36{fill:#fff}.cls-4,.cls-9{fill:#ffcaa0}.cls-5,.cls-7{fill:#260028}.cls-35,.cls-6{fill:#ffdb40}.cls-17,.cls-18,.cls-35,.cls-36,.cls-37,.cls-39,.cls-7,.cls-9{fill-rule:evenodd}.cls-8{fill:#0078bf}.cls-10{fill:#fa6142}.cls-16{fill:#e6b690}.cls-17{fill:#591f00}.cls-18{fill:#fba156}.cls-19{fill:#2bd69e}.cls-20,.cls-39{fill:#e33836}.cls-23{fill:#ffdc40}.cls-24{fill:#843e23}.cls-25{fill:#99471f}.cls-27{fill:#006199}.cls-28{clip-path:url(#clip-path-6)}.cls-29{clip-path:url(#clip-path-8)}.cls-37{fill:#c18456}.cls-42{fill:#300833}</style><clipPath id="clip-path"><path id="Rectangle_2204" d="M0 0h868v541H0z" class="cls-1" data-name="Rectangle 2204" transform="translate(499 3879)"/></clipPath><clipPath id="clip-path-2"><path id="Rectangle_2199" d="M0 0h22.709v50.418H0z" data-name="Rectangle 2199" opacity=".1"/></clipPath><clipPath id="clip-path-3"><path id="Rectangle_2198" d="M0 0h22.709v50.418H0z" data-name="Rectangle 2198"/></clipPath><clipPath id="clip-path-4"><path id="Path_6217" d="M776.679 407.593a7.949 7.949 0 0 1-.833 1.146 6.988 6.988 0 0 0-.938 1.458 3.222 3.222 0 0 0-.208.833c.1.208.208.313.313.521 1.042 1.146 2.708 1.458 3.854 2.083 1.146.521 2.708 1.146 3.333 2.4a7.231 7.231 0 0 1 .521 1.354 12.051 12.051 0 0 1 .521 4.688 5.572 5.572 0 0 1-3.542 4.9s-.521 13.854 8.229 17.6a9.389 9.389 0 0 0 5 .625c7.813-1.25 13.334-13.438 13.334-13.438l-2.708-10-.417-.208c1.458-2.292 1.458-2.4 1.146-2.708 1.042-1.667 7.5-12.188 5.313-20.313-2.187-8.229-12.6-6.771-20.209-10.521-.521 0-1.146-.312-1.667-.208a3.7 3.7 0 0 0-1.771 1.354c-.521.729-.937 1.458-1.458 2.083a12.716 12.716 0 0 1-2.083 2.6 39.224 39.224 0 0 1-4.375 3.229s-2.6 1.25-.625 2.188c1.563.833 2.917 1.667 1.979 3.542-.834 1.563-1.667 3.229-2.709 4.792z" data-name="Path 6217" transform="translate(-774.7 -387.78)"/></clipPath><clipPath id="clip-path-5"><path id="Path_6249" d="M403.727 391.863a10.4 10.4 0 0 0 .833 1.458 14.563 14.563 0 0 1 .938 1.771 1.8 1.8 0 0 1 .1 1.042 1.04 1.04 0 0 1-.417.521c-1.354 1.146-3.229 1.458-4.688 1.979-1.354.521-3.229 1.042-4.167 2.4a5.446 5.446 0 0 0-.729 1.563 15.158 15.158 0 0 0-1.146 5.313c0 2.5 1.563 11.979 3.854 13.125a48.471 48.471 0 0 0-6.667-2.5c-13.438-4.271-16.25-7.188-16.25-7.188l-4.271-6.146.521-.208c-1.354-2.813-1.458-2.917-1.042-3.229-1.042-1.979-4.479-7.813-1.042-16.979s12.5-13.334 21.667-16.875a6.307 6.307 0 0 1 1.979 0 4.38 4.38 0 0 1 1.875 1.771c.521.833.938 1.771 1.354 2.6a17.143 17.143 0 0 0 2.083 3.229 56.107 56.107 0 0 0 4.688 4.167s2.813 1.667.521 2.6c-1.875.729-3.542 1.563-2.6 3.854.835 1.769 1.565 3.752 2.606 5.732z" data-name="Path 6249" transform="translate(-368.068 -367.811)"/></clipPath><clipPath id="clip-path-6"><path id="Rectangle_2201" d="M0 0h41.668v73.544H0z" data-name="Rectangle 2201"/></clipPath><clipPath id="clip-path-8"><path id="Rectangle_2203" d="M0 0h57.189v15.834H0z" data-name="Rectangle 2203"/></clipPath><clipPath id="clip-path-10"><path id="Path_6280" d="M383.9 267.075c.312.417.729.729 1.042 1.146a7.722 7.722 0 0 1 1.25 1.354 1.68 1.68 0 0 1 .313.938.9.9 0 0 1-.312.625c-.938 1.354-2.6 1.979-3.75 2.917-1.042.833-2.708 1.667-3.229 3.125a8.309 8.309 0 0 0-.312 1.563 11.528 11.528 0 0 0 .208 5c1.042 3.958 3.646 6.771 5.1 10.417-15.209 7.5-34.48-10.417-32.813-25.73 1.042-9.063 8.229-14.9 15.625-20.209a11.39 11.39 0 0 1 1.771-.521 3.488 3.488 0 0 1 2.083 1.146c.625.625 1.25 1.354 1.875 2.083a18.69 18.69 0 0 0 2.6 2.4 41.482 41.482 0 0 0 5.208 2.708s2.917.938 1.042 2.292c-1.563 1.146-2.813 2.188-1.563 4.063 1.362 1.558 2.513 3.225 3.862 4.683z" data-name="Path 6280" transform="translate(-351.303 -247.7)"/></clipPath><clipPath id="clip-path-11"><path id="Path_6285" d="M260.305 371.072l.312 1.563a11.062 11.062 0 0 1 .417 1.979 1.878 1.878 0 0 1-.208 1.042 1.04 1.04 0 0 1-.521.417c-1.667.729-3.542.417-5.1.521-1.458.1-3.333 0-4.688 1.042a4.442 4.442 0 0 0-1.146 1.25 14.137 14.137 0 0 0-2.708 4.688 6.128 6.128 0 0 0 1.458 6.563s-.938 1.771-7.4 2.6c-14.063 1.875-13.334-11.771-13.334-11.771l-2.187-7.186h.521c-.417-3.125-.417-3.229 0-3.438-.417-2.292-1.875-8.854 4.167-16.459 6.042-7.709 15.938-8.959 25.73-9.584a9.869 9.869 0 0 1 1.875.521 4.637 4.637 0 0 1 1.25 2.188c.208.938.312 1.979.521 2.917a14.624 14.624 0 0 0 1.042 3.646 39.167 39.167 0 0 0 3.229 5.417s2.188 2.5-.312 2.708c-1.979.1-3.854.417-3.646 2.813.311 2.291.416 4.479.728 6.563z" data-name="Path 6285" transform="translate(-225.2 -344.3)"/></clipPath></defs><g id="Mask_Group_3" clip-path="url(#clip-path)" data-name="Mask Group 3" transform="translate(-499 -3879)"><g id="Group_7989" data-name="Group 7989" transform="translate(391.265 3906.573)"><path id="Path_6197" d="M1038.021 668.063l-4.063-4.063.938 7.083a22.033 22.033 0 0 1-7.4 6.667c2.708 7.917 5 11.875 7.917 19.688 4.688-3.958 8.542-5.313 10.417-6.459 6.042-3.75 22.5 4.792 23.542 4.792 3.229-.208 2.083-20.521 2.083-20.521z" class="cls-4" data-name="Path 6197" transform="translate(42.841 27.688)"/><path id="Path_6198" d="M1044.367 657.8s-10 1.562-14.167 13.438c6.146 1.042 24.375 5.521 33.021 14.375.208.208.729.729.521.625-.312-.208-.208-.208-.208-.208s4.9 4.271-2.187 7.4c0 0-11.667 1.042-9.063 6.667 0 0 16.875-6.354 28.334 4.167 0 0 13.334 12.6 13.126-.521 0 0-8.75-17.813-24.271-26.146.1 0-24.376-18.542-25.1-19.792" class="cls-5" data-name="Path 6198" transform="translate(42.953 27.43)"/><path id="Path_6199" d="M1043.6 658.071l5.1-4.271 13.855 12.4-2.4 2.4s19.376 13.542 21.98 16.042 12.5 12.5 12.292 20.417c0 0 .521 3.542-1.667 3.021a41.408 41.408 0 0 0-10.208-19.375s-2.187-3.438-15.313-11.979c-1.771-1.146-10.417-7.813-13.75-10.938 0 .1-7.709-5.729-9.9-7.709" class="cls-6" data-name="Path 6199" transform="translate(43.512 27.263)"/><path id="Path_6200" d="M791.631 391.676c.208.1.313.208.521.313a3.372 3.372 0 0 1 .938-.833c2.813-1.146 10.625-10.417 16.354-18.438-16.563-10.938-28.959 11.25-33.647 24.376-3.646 6.667-9.792 8.646-14.9 11.875-.521.312 8.75 7.292 9.584 7.813a47.95 47.95 0 0 0 6.563 3.229c1.875.729 5 2.4 7.083 1.979s2.5-2.813 2.813-4.688c1.354-8.542 1.25-17.084 4.688-25.626" class="cls-7" data-name="Path 6200" transform="translate(31.725 15.421)"/><path id="Path_6201" d="M882.088 886.64c-5.208-2.4-13.542-.312-15.834 4.167s-3.854 23.23-3.854 23.23 18.021-18.959 18.959-21.146c.834-2.083.729-6.25.729-6.25" class="cls-5" data-name="Path 6201" transform="translate(35.958 36.929)"/><path id="Path_6202" d="M881.833 889.621c-5.417-21.25-4.9-16.667-23.959-9.688 4.688 13.542-20.209 39.376-16.459 44.168 18.021 2.4 44.376-10.1 40.418-34.48" class="cls-4" data-name="Path 6202" transform="translate(35.066 36.448)"/><path id="Path_6203" d="M873.884 916.284c-14.688 17.6-29.9 26.355-37.084 20.521s2.917-17.709 8.334-23.855c12.188 3.958 24.48-9.9 38.23-26.251 2.708 1.771 1.979 4.063 1.25 9.167-1.458 8.334-6.771 14.688-10.729 20.417" class="cls-5" data-name="Path 6203" transform="translate(34.786 36.973)"/><path id="Path_6204" d="M872.9 903.315c-10.625 5.1-21.875-6.979-24.9-1.354-2.084 3.854-4.167 11.042-4.792 14.063-3.542 15.1 29.688-12.709 29.688-12.709" class="cls-5" data-name="Path 6204" transform="translate(35.146 37.546)"/><path id="Path_6205" d="M834.3 930.943s1.667 5.521 7.5 5.625c10.521.208 21.875-8.75 29.688-19.271 7.708-10.417 13.75-27.4 13.75-27.4l1.563 12.084-5.208 10.729-1.667-4.063a66.877 66.877 0 0 1-14.9 18.855c-2.187 1.875-11.042 10.209-19.9 10.938-3.854.208-10.729 1.146-10.834-7.5" class="cls-6" data-name="Path 6205" transform="translate(34.786 37.107)"/><path id="Path_6206" d="M858.1 749.535c0-1.875-11.771-123.024-11.771-124.9s-6.667-43.855-12.709-45.626c-5.938-1.771-50.522 6.979-50.522 6.979s5 27.709 20.209 95.94c5.729 25.938 14.271 80.94 16.25 90.94 1.563 7.917 22.292 97.294 32.188 125.732l29.272-7.813C874.665 856.516 858.1 751.1 858.1 749.535" class="cls-8" data-name="Path 6206" transform="translate(32.651 24.135)"/><path id="Path_6207" d="M930.457 707.937c-12.6-41.876-23.751-86.773-43.543-125.837-1.562-3.021-3.438-6.146-6.563-7.188-2.708-.833-5.625.1-8.334 1.146-13.646 5.1-27.084 10.625-40.418 16.459 11.458 57.71 48.126 113.128 75.939 164.275 3.438 6.25 7.292 13.021 13.854 15.834 8.854 3.958 19.167-.417 27.6-5.1 30.417-16.771 75.418-41.668 99.065-66.981a2450.256 2450.256 0 0 1-13.333-21.667c-17.6 11.146-53.856 28.334-71.46 39.48-7.5 4.792-17.4 9.583-24.792 4.479-4.167-2.813-5.938-8.021-7.4-12.813-.199-.624-.407-1.358-.615-2.087z" class="cls-8" data-name="Path 6207" transform="translate(34.673 23.96)"/><path id="Path_6208" d="M916.68 420.478c1.667-8.75.938-14.375.625-16.355-.521-3.021-8.854-10.313-10.1-7.4s-.1 12.5-.833 14.375h-.312a.383.383 0 0 0 .1.313.416.416 0 0 1-.417-.208c-1.875-1.771-1.25-2.083-1.979-2.6-2.292 2.5.208 7.292 1.25 10.521h.417c-.1.1-.1.208-.208.312a304.517 304.517 0 0 1-3.021 10c3.438 2.813 6.667 5.938 9.792 8.854a174.72 174.72 0 0 0 4.688-17.813" class="cls-9" data-name="Path 6208" transform="translate(37.617 16.517)"/><path id="Path_6209" d="M746.879 294.79c-2.188 4.9-5.1 11.042-7.917 16.459a69 69 0 0 1-4.271 6.771c-2.083-5.729-2.5-10.313-2.187-16.875a19.081 19.081 0 0 0 3.021-5.729c.208-.521.313-1.042.521-1.771 0-5.625-.1-14.063-.1-15.417.1-.521 1.146-2.708 1.667.1.521 1.875 1.458 4.9 2.188 7.6a34.123 34.123 0 0 0 2.5-5.208 20.817 20.817 0 0 0 .938-11.563c-.625-4.167.417-4.792.833-3.542 10.1 3.75 7.188 19.48 2.813 29.167" class="cls-9" data-name="Path 6209" transform="translate(30.538 11.055)"/><path id="Path_6210" d="M909.959 431.7c-.1.1-.1.208-.208.417 1.146.1-20 62.4-23.647 68.023a3.456 3.456 0 0 1-1.667 1.563c-1.146.313-2.187-.729-2.917-1.667-10.417-12.709-16.979-28.334-24.688-42.814-3.958-7.292-7.813-8.75-15.1-11.354-1.146-.417-17.4-5.313-17.292-5.625-3.542-3.229-7.083-6.667-10.625-10-4.583 6.979-9.271 13.75-14.167 20.313-12.6 1.146-15.938-5.729-16.875-19.584-2.187 2.292-7.188 2.292-9.479 4.479-5.729-4.375-11.355-8.854-16.771-13.646-.729.208-22.709-42.814-22.084-53.022-.208-15.1 7.6-50.418 9.9-65-3.125-3.125-6.146-6.25-9.063-9.479-5 18.542-23.751 62.085-24.167 73.96-.1 7.4 9.584 32.6 21.876 55.939 7.4 14.063 17.084 28.23 23.021 42.918 5.417 13.438.833 28.334 6.563 41.98 3.125 7.4 8.438 13.75 12.709 20.521 9.271 14.792 9.792 28.334 6.146 44.793-2.4 10.729-7.917 30.417 6.771 34.793 7.4 2.188 19.375 4.583 26.98 2.6 9.9-2.5 7.5-8.646 8.23-19.375 2.292 4.688 4.583 9.271 6.875 13.959 9.271 18.542 64.272-13.021 62.71-15.834-16.042-30.313-33.022-56.772-41.668-90.523 9.688 33.855 30.1 40.105 34.584 38.647 22.084-5.729 34.584-90.315 35.834-101.565-5.417-1.563-6.667-3.333-11.771-5.417" class="cls-10" data-name="Path 6210" transform="translate(29.649 12.274)"/><path id="Path_6211" d="M902.125 426.2c-.1.1-.1.208-.208.417 0 0-1.042 4.479-2.917 11.146 3.854 4.271 7.709 8.438 11.667 12.4 1.458-8.854 2.5-15.625 3.125-18.334-5.313-1.771-6.563-3.542-11.667-5.625" class="cls-1" data-name="Path 6211" transform="translate(37.483 17.774)"/><path id="Path_6212" d="M791.457 445.813c2.083.833 15.313 8.646 21.251 20.521 0-14.167-4.9-21.98 2.4-32.813-5.312-3.438.313-3.958.313-3.958-2.4-.417-4.792-.937-7.292-1.563-3.75 5.625-12.709 16.667-15.417 15.521-1.25 1.042-11.771-4.583-12.709-18.021-2.083 2.188-6.875 2.188-9.063 4.271.521 10-1.875 23.23-.417 33.543 7.084-3.958 15.209-19.792 20.938-17.5" class="cls-1" data-name="Path 6212" transform="translate(32.107 17.744)"/><g id="Group_7968" data-name="Group 7968" opacity=".1" transform="translate(768.563 448.453)"><g id="Group_7967" clip-path="url(#clip-path-2)" data-name="Group 7967"><g id="Group_7966" clip-path="url(#clip-path-3)" data-name="Group 7966"><path id="Path_6213" fill="#050505" d="M759.363 461.23c-4.479-11.667-12.917-21.667-21.563-30.73 9.688 18.542 19.063 33.751 19.063 36.459 0 3.542 1.146 8.75 1.042 13.959a27.913 27.913 0 0 0 1.458-19.688" data-name="Path 6213" transform="translate(-737.8 -430.5)"/></g></g></g><path id="Path_6214" d="M743.567 303.879c-3.125-3.125-6.146-6.25-9.063-9.479-1.146 3.75-3.333 9.375-5.1 15 3.542 6.979 6.771 8.646 10.209 15.73 1.563-8.542 3.021-16.146 3.958-21.251" class="cls-1" data-name="Path 6214" transform="translate(30.412 12.278)"/><g id="Group_7970" data-name="Group 7970" transform="translate(807.001 403.951)"><path id="Path_6215" d="M776.679 407.593a7.949 7.949 0 0 1-.833 1.146 6.988 6.988 0 0 0-.938 1.458 3.222 3.222 0 0 0-.208.833c.1.208.208.313.313.521 1.042 1.146 2.708 1.458 3.854 2.083 1.146.521 2.708 1.146 3.333 2.4a7.231 7.231 0 0 1 .521 1.354 12.051 12.051 0 0 1 .521 4.688 5.572 5.572 0 0 1-3.542 4.9s-.521 13.854 8.229 17.6a9.389 9.389 0 0 0 5 .625c7.813-1.25 13.334-13.438 13.334-13.438l-2.708-10-.417-.208c1.458-2.292 1.458-2.4 1.146-2.708 1.042-1.667 7.5-12.188 5.313-20.313-2.187-8.229-12.6-6.771-20.209-10.521-.521 0-1.146-.312-1.667-.208a3.7 3.7 0 0 0-1.771 1.354c-.521.729-.937 1.458-1.458 2.083a12.716 12.716 0 0 1-2.083 2.6 39.224 39.224 0 0 1-4.375 3.229s-2.6 1.25-.625 2.188c1.563.833 2.917 1.667 1.979 3.542-.834 1.563-1.667 3.229-2.709 4.792z" class="cls-4" data-name="Path 6215" transform="translate(-774.7 -387.78)"/><g id="Group_7969" clip-path="url(#clip-path-4)" data-name="Group 7969"><path id="Path_6216" d="M777.2 411.9c.833.417 1.563.729 2.4 1.146a10.494 10.494 0 0 0 4.375 1.146 7.723 7.723 0 0 1 2.188.1c3.854.729 2.813 4.375 1.25 6.667a10.9 10.9 0 0 1-7.6 4.583A699.151 699.151 0 0 1 777.2 411.9z" class="cls-16" data-name="Path 6216" transform="translate(-774.596 -386.774)"/></g></g><path id="Path_6218" d="M782.9 387.042s2.917 6.875 22.084 8.229l1.042-8.646L788.733 381c-.104 0-2.604.938-5.833 6.042z" class="cls-7" data-name="Path 6218" transform="translate(32.643 15.889)"/><path id="Path_6219" d="M822.1 388c-1.146-5.625-4.583-14.9-18.75-17.5-.521-.1-10.834 2.4-11.25 2.083-4.479 5.729-3.333 3.229-7.4 8.334 1.146 4.479 10.938 9.584 18.438 6.667-.833 16.25 1.042 16.146-9.479 27.4-3.958 4.792-6.667 8.438-6.354 14.584 0 .417-.312 1.042 0 1.146 19.271 5.625 23.021 4.479 40.522-1.354.521-1.25-4.063-31.251-5.729-41.355" class="cls-7" data-name="Path 6219" transform="translate(32.718 15.451)"/><path id="Path_6220" d="M388.313 379.713c.208 0 .521-.1.729-.1 3.229 22.4-.208 27.6 5 33.126 2.6 2.708-4.479 14.479-1.979 16.563 3.021 2.5 16.459-4.271 20.417 6.667 3.958 4.688 11.146-2.5 9.9-14.063.417-13.021-13.854-17.813-16.979-30.626-.625-14.271-7.813-41.668-32.4-36.147 4.9 9.479 11.354 21.146 14.375 23.334a4.9 4.9 0 0 1 .938 1.25" class="cls-17" data-name="Path 6220" transform="translate(15.553 14.78)"/><path id="Path_6221" d="M285.549 349.386c-1.979-3.438-1.25-13.23-.938-16.98.313-4.9.625-9.792.729-14.688 0-1.042.1-3.333-1.25-3.542-.833 1.979-1.354 4.063-2.4 6.042-.313.625-.833 1.354-1.458 1.458-.937.208-2.6-1.146-3.125-1.979-3.125-5.729-.417-12.4-1.979-18.646a1.981 1.981 0 0 0-.729-1.146c-1.042-.625-2.083.833-2.4 1.979-4.479 15.417-2.4 31.876-.417 47.814a2.489 2.489 0 0 0 .521 1.458 2.514 2.514 0 0 0 1.771.417c2.083-.1 4.792.625 6.458-.521 1.667-1.042 4.688 1.042 4.583-.937" class="cls-4" data-name="Path 6221" transform="translate(11.231 12.502)"/><path id="Path_6222" d="M399.612 377.121v-.1c.1-.208 0-.312-.208-.417 0 .1-.1.208-.1.312s.208.1.208.313c0-.1 0-.1.1-.1z" class="cls-18" data-name="Path 6222" transform="translate(16.65 15.706)"/><path id="Path_6223" d="M398.9 376.506c0 .1.1.208.208.312a.627.627 0 0 0 .1-.417c-.1-.1-.208 0-.312.1z" class="cls-18" data-name="Path 6223" transform="translate(16.633 15.696)"/><path id="Path_6224" d="M398.4 376.917l.208-.208.1-.1c0-.1 0-.1-.1-.1v.1c0 .1 0 .1-.1.1s-.1 0-.1.208" class="cls-18" data-name="Path 6224" transform="translate(16.612 15.701)"/><path id="Path_6225" d="M399.6 376.6l.208.208h-.1z" class="cls-18" data-name="Path 6225" transform="translate(16.662 15.706)"/><path id="Path_6227" d="M398.6 377.009c.1 0 .1-.1.208-.1v-.1c-.1-.1-.208.1-.208.208" class="cls-18" data-name="Path 6227" transform="translate(16.62 15.713)"/><path id="Path_6228" d="M398.207 377.008c0-.1.1-.208-.1-.208-.1.208-.1.208.1.208" class="cls-18" data-name="Path 6228" transform="translate(16.597 15.714)"/><path id="Path_6229" d="M397.8 376.9c-.1.1-.1.1-.1.208l.1.1v-.308" class="cls-18" data-name="Path 6229" transform="translate(16.583 15.718)"/><path id="Path_6230" d="M398.9 376.5v-.1c-.1.1-.1.1-.1.208a.1.1 0 0 0 .1-.1" class="cls-18" data-name="Path 6230" transform="translate(16.629 15.697)"/><path id="Path_6231" d="M399.1 377.1c-.1 0-.1 0-.1.1a.1.1 0 0 0 .1-.1" class="cls-18" data-name="Path 6231" transform="translate(16.637 15.727)"/><path id="Path_6234" d="M271.038 344.1l.208 3.646-1.146 65h15.625l-.937-65.21c-5.521-.625-8.542-1.667-13.75-3.438" class="cls-4" data-name="Path 6234" transform="translate(11.263 14.351)"/><path id="Path_6235" d="M483.934 366.605a1.44 1.44 0 0 1-.417-.312c-3.229-3.854-1.458-11.771-1.042-16.355A79.354 79.354 0 0 0 478.1 316.5c3.75 4.479 10.1 5.729 15.938 5.313s11.563-2.083 17.4-2.292c-2.708 2.292-5.417 4.479-8.229 6.771a9.55 9.55 0 0 0-2.6 2.813 9.008 9.008 0 0 0-.625 4.063c.1 13.021.1 26.042.208 39.064.096.415-13.55-3.752-16.258-5.627z" class="cls-4" data-name="Path 6235" transform="translate(19.935 13.2)"/><path id="Path_6236" d="M308.677 889.046l2.292-21.563c-1.458-26.251-1.146-51.772 6.354-77.085 7.292-24.584 5.313-62.71 2.083-87.815L352.22 698c-.1 0 .625 45.834.312 50.522-.937 18.855-4.063 49.48-10.1 67.293-10.729 31.876-21.251 64.272-13.021 98.023l8.646 18.542c-12.4 21.459-45.73-22.292-29.376-43.334" class="cls-4" data-name="Path 6236" transform="translate(12.687 29.106)"/><path id="Path_6237" d="M367.7 685.7l25.313 61.877 8.021 25.209c5.833 35.73 39.688 84.481 37.709 121.566-1.979 37.293 18.959 31.459 14.063-3.75-8.229-59.272-35.73-145.941-45.314-204.38z" class="cls-4" data-name="Path 6237" transform="translate(15.332 28.593)"/><path id="Path_6238" d="M399.927 596.825l10.729-64.689 3.644-101.148-20.728-12.188-20.625 1.563-33.647 146.67 12.813 28.855z" class="cls-1" data-name="Path 6238" transform="translate(14.148 17.465)"/><path id="Path_6239" d="M418.855 702.254l.208-.208c3.75-4.271-1.25-22.917-1.771-28.23-1.25-13.021-2.708-26.042-5.729-38.855-5.834-25-8.438-43.439-1.25-68.231-14.9 2.917-35.938 3.646-64.481-11.771l-17.6-6.459c-18.855 23.855-30.417 41.668-27.813 72.814 2.083 24.792 6.979 56.772 9.167 81.877 0 0 6.354 13.646 35.626 7.709 0 0 24.063-10.834 41.772-8.854 5.933.625 26.871 5 31.871.208z" class="cls-10" data-name="Path 6239" transform="translate(12.512 22.873)"/><path id="Path_6240" d="M372.371 426.048a14.258 14.258 0 0 0-3.958-3.021c-7.6-4.063-16.771-.729-25.209 1.146a75.126 75.126 0 0 1-49.272-5.417c-2.813-15.73-5.729-55.626-8.542-71.356-4.167.313-10.625.313-14.48.833-.417 14.375-.312 53.022.313 67.4.208 4.375.521 8.959 2.6 12.813 3.021 5.417 8.959 8.333 14.584 11.042 15 6.979 30 14.063 45 21.042 2.5 1.146 5.208 2.5 6.458 5.1 1.146 2.5.625 5.417 0 8.021-6.458 26.563-17.709 69.168-25.521 94.586 12.4 7.708 34.9 10.938 46.147-.625 4.271-4.375 6.459-10.209 8.646-15.834 11.459-30.522 20-83.752 9.375-114.586-1.453-4.165-3.329-8.227-6.141-11.144z" class="cls-19" data-name="Path 6240" transform="translate(11.286 14.488)"/><path id="Path_6241" d="M395.217 389.7l-17.917 1.042.312 41.355c-2.917 2.813 35 1.146 30-3.438-7.917-7.292-12.5-10.729-13.334-17.4-.833-6.979 1.146-14.584.938-21.563" class="cls-9" data-name="Path 6241" transform="translate(15.732 16.252)"/><path id="Path_6242" d="M324.451 873.8s1.25 18.126 1.563 21.563c.521 5.1-.312 1.667 10.313 28.23 0 0-20.313 3.333-23.126-1.354s-7.292-11.563-7.292-11.563l-5.209-26.563s8.438-4.063 10-18.75 15.938-19.063 15.938-19.063z" class="cls-4" data-name="Path 6242" transform="translate(12.539 35.289)"/><path id="Path_6243" d="M432.5 857.575l3.125 18.75-1.563 22.084-1.562 13.23 21.563 1.146v-16.042l-5.313-24.272a22.762 22.762 0 0 0 .313-9.271c-.937-4.687-5.729-15-5.729-15z" class="cls-4" data-name="Path 6243" transform="translate(18.034 35.368)"/><path id="Path_6244" d="M343.012 930.822a3.207 3.207 0 0 0-.312-1.354c-1.042-4.167-2.708-8.959-6.667-10.313 1.25 2.6-1.875 5.1-4.583 5.833-8.229 2.083-17.6-1.875-22.084-9.271a8.841 8.841 0 0 1-1.458-4.583c.1-1.25.625-2.5.833-3.75.417-2.5-.521-4.9-1.458-7.188-2.292-5.833-4.583-11.563-6.875-17.4-1.771 4.375-3.438 9.167-2.292 13.75a24.375 24.375 0 0 0 2.6 5.833c4.167 8.542 1.667 21.771 8.854 26.876 8.021 5.834 20.521 6.875 29.792 4.9 1.458-.312 3.125-.833 3.542-2.292a3.906 3.906 0 0 0 .108-1.041z" class="cls-20" data-name="Path 6244" transform="translate(12.415 36.81)"/><path id="Path_6245" d="M432.5 905.946a18.563 18.563 0 0 0 11.979 5c7.188.1 9.9-8.646 9.9-8.646l.1 12.084s-2.5 11.355-10.729 11.355c-9.792 0-11.354-12.084-11.354-12.084v-7.708z" class="cls-20" data-name="Path 6245" transform="translate(18.03 37.624)"/><path id="Path_6246" d="M430.806 586.677c-2.188-13.542-3.229-27.4-4.063-41.043-.729-12.292-3.958-44.48-.417-56.251 6.146-20.834 23.751-28.334 40.522-39.48 8.125-5.417 16.25-11.042 23.959-17.084 3.646-2.813 10.313-6.771 12.188-11.25 2.083-5 2.083-69.168 2.083-69.168l-20.1 5.625s-2.813 47.71-6.563 54.481c-3.75 6.667-47.293 20.938-47.293 20.938-5-.833-19.792-5.938-23.959-2.917a9.164 9.164 0 0 0-2.5 3.438c-6.875 14.271-2.917 40.209-6.771 55.314-5.521 22.5-13.23 66.356-12.084 88.336 4.9 5 12.5 3.542 19.167 4.583 8.333 1.25 16.98 7.6 25.834 4.479" class="cls-19" data-name="Path 6246" transform="translate(16.082 14.697)"/><g id="Group_7972" data-name="Group 7972" transform="translate(383.415 383.15)"><path id="Path_6247" d="M403.727 391.863a10.4 10.4 0 0 0 .833 1.458 14.563 14.563 0 0 1 .938 1.771 1.8 1.8 0 0 1 .1 1.042 1.04 1.04 0 0 1-.417.521c-1.354 1.146-3.229 1.458-4.688 1.979-1.354.521-3.229 1.042-4.167 2.4a5.446 5.446 0 0 0-.729 1.563 15.158 15.158 0 0 0-1.146 5.313c0 2.5 1.563 11.979 3.854 13.125a48.471 48.471 0 0 0-6.667-2.5c-13.438-4.271-16.25-7.188-16.25-7.188l-4.271-6.146.521-.208c-1.354-2.813-1.458-2.917-1.042-3.229-1.042-1.979-4.479-7.813-1.042-16.979s12.5-13.334 21.667-16.875a6.307 6.307 0 0 1 1.979 0 4.38 4.38 0 0 1 1.875 1.771c.521.833.938 1.771 1.354 2.6a17.143 17.143 0 0 0 2.083 3.229 56.107 56.107 0 0 0 4.688 4.167s2.813 1.667.521 2.6c-1.875.729-3.542 1.563-2.6 3.854.835 1.769 1.565 3.752 2.606 5.732z" class="cls-4" data-name="Path 6247" transform="translate(-368.068 -367.811)"/><g id="Group_7971" clip-path="url(#clip-path-5)" data-name="Group 7971"><path id="Path_6248" d="M405.267 394.9c-1.25.833-2.292 1.458-3.438 2.188a13.569 13.569 0 0 1-6.667 2.4 18.349 18.349 0 0 0-3.438.312c-5.833 1.563-2.187 7.917.521 12.292 7.709 12.292 9.063 8.333 14.063 8.646-.308-8.129-.729-17.609-1.041-25.838z" class="cls-16" data-name="Path 6248" transform="translate(-367.212 -366.682)"/></g></g><path id="Path_6250" fill="none" stroke="#87199d" stroke-miterlimit="10" stroke-width="1.224" d="M401.053 413.348a7.813 7.813 0 1 1-7.813-7.813 7.8 7.8 0 0 1 7.813 7.813z" data-name="Path 6250"/><path id="Path_6251" d="M380.084 375.027c8.333 5 15 .208 18.021-3.542-3.125-6.563-9.375-9.584-13.021-16.771-.625.1-3.542-.417-4.271-.208-10.834-1.458-23.855 9.167-26.459 14.584-4.688 9.792-2.4 25.417 4.792 41.251.1.208-13.646 31.251-6.667 44.48 8.959 19.063 34.063 6.667 32.6-5.313-1.458-11.771-7.6-14.479-2.292-32.4 1.979-5.938 1.875-10.625-1.354-16.563-9.063-14.375-5-10-1.25-26.355" class="cls-17" data-name="Path 6251" transform="translate(14.615 14.779)"/><path id="Path_6252" d="M509.242 321.087l5.417-4.271s.625-5.313-6.146-1.563c0 0-11.563 5-15.313 10.417" class="cls-4" data-name="Path 6252" transform="translate(20.564 13.092)"/><path id="Path_6253" d="M755.667 34.3L729 42.946c1.146 6.979 4.271 13.855 4.688 21.042 4.063-2.708 8.229-5.313 12.292-7.917z" class="cls-23" data-name="Path 6253" transform="translate(30.396 1.434)"/><path id="Path_6254" d="M745.242 38.117L744.2 59.472s10.73-1.458 15.417.729c0 0 10 2.292 13.959 1.354 0 0 1.146-14.584 4.167-23.646-.1 0-21.146-11.875-32.5.208" class="cls-24" data-name="Path 6254" transform="translate(31.029 1.367)"/><path id="Path_6255" d="M772.1 62.714h8.333c.729 0 .521-.417.521-1.146.1-1.458.208-3.021.417-4.479.313-3.438.521-6.771.833-10.209 0-.521.417-1.458-.208-1.563-1.458-.208-2.917-.313-4.375-.521 1.25-3.229 2.5-6.458 3.646-9.688.938-2.6 2.6-5.417 3.125-8.125a44.108 44.108 0 0 0 .208-13.853 31.857 31.857 0 0 0-2.917-10.209C781.163 1.879 780.642 0 779.392 0a29.275 29.275 0 0 1-3.021-.1c.833 4.167 1.667 8.229 2.5 12.4.521 2.6 1.042 5.313 1.562 7.917.208.833.729 2.083.417 2.917-.833 2.917-1.771 5.833-2.6 8.75a112.536 112.536 0 0 0-3.333 11.563c-.833 4.9-1.667 9.9-2.4 14.9 0 1.563-.312 3.021-.417 4.375" data-name="Path 6255" transform="translate(32.193)"/><path id="Path_6256" d="M742.708 31.45a27.247 27.247 0 0 0 16.25-3.125 24.837 24.837 0 0 0 10.522-11.876 12.283 12.283 0 0 0 .625-2.813 56.672 56.672 0 0 1 1.562-5.625 22.284 22.284 0 0 1 2.6-5.521 6.341 6.341 0 0 1 1.671-1.666c.208-.1 1.771-.833 1.875-.521a37.373 37.373 0 0 1 3.125 8.646 54.011 54.011 0 0 1 1.771 9.271c.1 1.875.1 3.229.1 4.9 0 .938-.833 2.6-1.042 3.542-1.354 4.063-2.4 8.021-3.75 11.979-.417 1.042-.729 2.083-1.146 3.229a24.109 24.109 0 0 0-9.375-4.688 19.886 19.886 0 0 0-9.584 0c-.833.208-1.667.625-2.5.833-3.125.938-7.4 2.292-10.625 1.042-3.125-1.146-2.187-5.1-2.083-7.6" class="cls-25" data-name="Path 6256" transform="translate(30.958 .014)"/><g id="Group_7973" data-name="Group 7973" transform="translate(794.396 236.468)"><path id="Path_6257" d="M770.934 227l-8.334 18.334 11.146 7.188 4.375 4.9 17.188-9.792q-12.188-10.161-24.375-20.63" class="cls-23" data-name="Path 6257" transform="translate(-762.6 -227)"/><path id="Path_6258" d="M786.821 239.2l-18.021 9.688s6.458 8.021 6.979 13.021c0 0 3.021 9.375 5.729 12.084 0 0 12.5-6.25 21.459-8.229 0 0-.625-23.126-16.146-26.563" class="cls-24" data-name="Path 6258" transform="translate(-762.341 -226.491)"/><path id="Path_6259" d="M781 273.392c1.354 2.292 2.708 4.583 4.167 6.875.313.625.625.208 1.146-.1 1.25-.625 2.6-1.25 3.854-1.875l8.75-4.375c.417-.208 1.458-.417 1.146-.938-.625-1.25-1.146-2.6-1.771-3.854 3.229-.625 6.458-1.146 9.792-1.771 2.6-.417 5.729-.521 8.229-1.458a43.092 43.092 0 0 0 11.458-6.563 33.171 33.171 0 0 0 6.875-7.4c.625-.938 1.875-2.292 1.25-3.333-.521-.833-.937-1.667-1.458-2.5-3.021 2.708-5.938 5.417-8.959 8.125-1.875 1.771-3.854 3.438-5.729 5.208-.625.521-1.354 1.563-2.187 1.771-2.813.729-5.625 1.458-8.542 2.188-3.646.938-7.6 1.563-11.146 3.021-4.479 1.771-8.959 3.542-13.334 5.313a35.414 35.414 0 0 0-3.541 1.666" data-name="Path 6259" transform="translate(-761.833 -226.204)"/><path id="Path_6260" d="M791.314 233.3a25.593 25.593 0 0 0 10.625 11.875 23.906 23.906 0 0 0 14.9 2.813 10.87 10.87 0 0 0 2.6-.833 31.959 31.959 0 0 1 5.417-1.458 18.215 18.215 0 0 1 5.833-.521 8.352 8.352 0 0 1 2.188.521c.208.1 1.563 1.042 1.354 1.354a38.271 38.271 0 0 1-5.521 6.771 52.1 52.1 0 0 1-6.667 6.042 42.761 42.761 0 0 1-4.062 2.5 16.611 16.611 0 0 1-3.437.833c-4.063.833-7.709 1.979-11.771 2.813-1.042.208-2.083.417-3.229.625a21.731 21.731 0 0 0-.833-10 18.252 18.252 0 0 0-4.792-7.917c-.625-.521-1.25-1.042-1.875-1.667-2.4-2.083-5.521-5-6.042-8.229-.417-3.125 3.229-4.271 5.313-5.521" class="cls-25" data-name="Path 6260" transform="translate(-761.626 -226.737)"/></g><path id="Path_6261" fill="#fa6142" fill-rule="evenodd" d="M399.016 236.355c.625-16.98-8.959-30.938-23.126-39.688-11.771-7.188-25.313-11.146-37.605-17.4-7.188-3.646-14.063-8.125-21.771-10.417s-16.875-1.875-22.917 3.438c-9.584 8.334-8.646 25.417-19.584 31.667-14.167 8.021-33.855-10-47.293-.729-9.479 6.563-8.021 22.188-17.084 29.376-6.563 5.208-15.938 3.854-24.271 3.229s-18.438.521-22.188 8.021c-2.292 4.583-1.354 10.313-3.75 14.792-2.6 5-8.438 7.292-13.438 9.9s-10.209 7.083-9.688 12.709c.521 6.146 7.5 9.479 13.646 10.313a42.5 42.5 0 0 0 26.876-5.313c6.771-3.854 13.75-9.9 21.355-7.917 7.813 1.979 11.042 11.146 17.084 16.355 8.542 7.292 23.334 5 29.272-4.479 3.542-5.625 5.729-14.167 12.4-14.271 5-.1 8.125 5 11.042 9.063 14.167 20.313 42.709 27.4 66.46 20.73 15.521-4.375 32.6-16.771 43.543-28.542 12.5-13.23 17.5-16.667 21.042-40.834" data-name="Path 6261" transform="translate(5.683 6.989)"/><path id="Path_6262" d="M535.651 305.5c1.979 5.313-8.959 8.021-8.959 8.021L516.9 263s16.771 37.188 18.751 42.5" class="cls-27" data-name="Path 6262" transform="translate(21.553 10.969)"/><path id="Path_6263" d="M431.521 258.18c-.938 5.208-1.979 10.729-3.021 16.667 27.6 8.959 25.521 6.25 25.626-9.271v-8.854c-7.6-1.25-15.417-.1-22.6 1.458" class="cls-27" data-name="Path 6263" transform="translate(17.867 10.685)"/><path id="Path_6264" d="M455.571 163.028c3.542-5.729 9.271-14.271 10.209-15.625.313-.625.313-3.958-2.292-1.771-1.875 1.25-5.1 3.333-7.709 5.208a68.075 68.075 0 0 1 .1-8.021 19.594 19.594 0 0 1 6.151-12.919c3.646-3.438 2.6-5.208 1.25-4.479-16.25-3.854-21.771 12.709-22.084 27.292 0 4.271-.1 9.167-.1 14.167h-.1c-1.563 37.918-4.167 61.147-9.688 96.773 7.188-1.771 15-3.125 22.6-1.667-.208-26.667-1.042-87.919 1.042-96.565a13.311 13.311 0 0 0 .625-2.4" class="cls-4" data-name="Path 6264" transform="translate(17.984 5.21)"/><path id="Path_6265" d="M789.419 227.961c-6.458 7.709-12.813 15.521-19.271 23.23-35.73-16.355-83.544-32.813-119.274-49.168-3.334-1.458-6.774-3.023-10.417-3.023-10.209 0-15.729 10.834-19.688 19.584-11.146 25.1-29.271 47.605-51.251 65.522-12.5 10.1-16.771-5-22.709-12.6-4.271-5.521-8.542-10.938-12.709-16.459 32.084-26.563 51.668-64.064 83.127-91.044 4.271-3.646 8.854-7.188 14.375-8.854 8.125-2.5 16.98-.625 24.9 2.188 24.792 8.75 43.855 23.334 71.148 35.418 18.959 8.438 45.209 23.021 61.772 35.209.101-.107.101-.003-.003-.003z" class="cls-19" data-name="Path 6265" transform="translate(22.27 6.424)"/><path id="Path_6266" d="M737.51 38.1C712.4 49.663 637.195 86.643 611.986 97.893c-21.25 9.479-37.5 14.584-47.4 36.668-13.852 30.626-22.086 63.856-34.586 95.106l-17.6 12.6 29.167 60.939c5.625-1.875 12.084-5.1 20.209-8.959 36.147-16.98 15.834-129.795 62.71-155.421C653.862 122.79 724.905 82.372 747.2 62.059c-1.875-8.438-7.084-15.834-9.688-23.959" class="cls-19" data-name="Path 6266" transform="translate(21.365 1.593)"/><g id="Group_7976" data-name="Group 7976" transform="translate(533.765 231.26)"><g id="Group_7975" class="cls-28" data-name="Group 7975"><g id="Group_7974" class="cls-28" data-name="Group 7974"><path id="Path_6267" d="M530 222l-17.6 12.6 29.167 60.939a106 106 0 0 0 12.5-5.1C554.8 266.064 509.066 231.9 530 222" class="cls-19" data-name="Path 6267" transform="translate(-512.4 -222)"/></g></g></g><path id="Path_6268" d="M514.109 234.7L483.9 268.242s15 40.314 16.042 42.814c4.375 11.042 33.855-15.417 45.105-18.125 11.25-2.6-30.938-58.231-30.938-58.231" class="cls-4" data-name="Path 6268" transform="translate(20.177 9.789)"/><path id="Path_6269" d="M532.664 285.355c.625-16.771-7.709-35.522-12.6-51.355-30.313 31.251-52.189 55.418-101.669 39.063-8.959-3.021-18.646-3.229-27.5 5-5.729 5.417-9.063 14.063-16.875 15.209-9.375 1.354-18.75-9.479-23.855-17.5-3.542 9.063-14.688 14.375-23.959 11.563a177.279 177.279 0 0 0 19.063 30.417c3.958 5.1 8.229 10.1 13.542 13.75s11.354 5.938 17.6 7.813c26.771 7.813 55.418 6.563 82.71.729 27.188-5.833 53.23-16.146 79.064-26.563-6.979 2.813-5.625-26.042-5.521-28.126" class="cls-8" data-name="Path 6269" transform="translate(13.602 9.76)"/><path id="Path_6270" d="M529.9 310.141c.208-.1.521-.1.833-.208 3.229-1.354 1.979-.833-.833.208" class="cls-19" data-name="Path 6270" transform="translate(22.095 12.892)"/><g id="Group_7979" data-name="Group 7979" transform="translate(368.761 292.303)"><g id="Group_7978" class="cls-29" data-name="Group 7978"><g id="Group_7977" class="cls-29" data-name="Group 7977"><path id="Path_6271" fill="#050505" d="M411.085 294.242c-12.4.833-25-.312-35.73-6.146-6.459 3.542-8.125.521-15.521-.312a105.617 105.617 0 0 1-5.833-7.084c5.625 22.5 38.543 14.688 57.085 13.542" data-name="Path 6271" opacity=".1" transform="translate(-354 -280.596)"/></g></g></g><path id="Path_6272" fill="#a6d6ff" d="M529.9 310.141c.208-.1.521-.1.833-.208 3.229-1.354 1.979-.833-.833.208" data-name="Path 6272" transform="translate(22.095 12.892)"/><path id="Path_6273" d="M734.691 318.02c-2.083-5.729-2.5-10.313-2.188-16.875a19.08 19.08 0 0 0 3.021-5.729c.208-.521.312-1.042.521-1.771 0-5.625-.1-14.063-.1-15.417.1-.521 1.146-2.708 1.667.1.521 1.875 1.458 4.9 2.188 7.6a34.111 34.111 0 0 0 2.5-5.208 20.817 20.817 0 0 0 .938-11.563c-.625-4.167.417-4.792.833-3.542 10.1 3.958 7.188 19.688 2.813 29.376" class="cls-9" data-name="Path 6273" transform="translate(30.538 11.055)"/><path id="Path_6274" d="M746.617 293.6c-2.187 4.9-5.1 11.042-7.917 16.459" class="cls-9" data-name="Path 6274" transform="translate(30.8 12.245)"/><path id="Path_6275" d="M734.334 368.881c-.208-15.1 7.6-50.418 9.9-65-3.125-3.125-6.146-6.25-9.063-9.479-5 18.542-23.751 62.085-24.167 73.96" class="cls-10" data-name="Path 6275" transform="translate(29.645 12.278)"/><path id="Path_6276" d="M739.2 324.746c1.563-8.438 3.125-16.146 3.958-21.146" class="cls-1" data-name="Path 6276" transform="translate(30.821 12.662)"/><path id="Path_6277" d="M743.567 303.879c-3.125-3.125-6.146-6.25-9.063-9.479-1.146 3.75-3.333 9.375-5.1 15" class="cls-1" data-name="Path 6277" transform="translate(30.412 12.278)"/><g id="Group_7981" data-name="Group 7981" transform="translate(365.951 258.031)"><path id="Path_6278" d="M383.9 267.075c.312.417.729.729 1.042 1.146a7.722 7.722 0 0 1 1.25 1.354 1.68 1.68 0 0 1 .313.938.9.9 0 0 1-.312.625c-.938 1.354-2.6 1.979-3.75 2.917-1.042.833-2.708 1.667-3.229 3.125a8.309 8.309 0 0 0-.312 1.563 11.528 11.528 0 0 0 .208 5c1.042 3.958 3.646 6.771 5.1 10.417-15.209 7.5-34.48-10.417-32.813-25.73 1.042-9.063 8.229-14.9 15.625-20.209a11.39 11.39 0 0 1 1.771-.521 3.488 3.488 0 0 1 2.083 1.146c.625.625 1.25 1.354 1.875 2.083a18.69 18.69 0 0 0 2.6 2.4 41.482 41.482 0 0 0 5.208 2.708s2.917.938 1.042 2.292c-1.563 1.146-2.813 2.188-1.563 4.063 1.362 1.558 2.513 3.225 3.862 4.683z" class="cls-4" data-name="Path 6278" transform="translate(-351.303 -247.7)"/><g id="Group_7980" clip-path="url(#clip-path-10)" data-name="Group 7980"><path id="Path_6279" d="M383.259 271.9c-.833.625-1.563 1.042-2.292 1.563a11.582 11.582 0 0 1-4.479 1.979 8.86 8.86 0 0 0-2.292.417c-3.958 1.354-2.292 5.1-.208 7.292a11.423 11.423 0 0 0 8.854 3.646c.104-5.105.209-9.897.417-14.897z" class="cls-16" data-name="Path 6279" transform="translate(-350.449 -246.691)"/></g></g><path id="Path_6281" d="M352.529 288.462c5.833-2.813-5.313-15.313-7.4-18.75-4.688-7.5-9.167-15.1-13.646-22.813-9.063-15.625-21.459-33.543-29.688-49.585a241.412 241.412 0 0 1-13.85-32.914c-1.979-6.042-3.75-12.292-5.1-18.438-.833-3.75-.937-11.875-5.729-13.021.312 3.646.521 7.292-1.667 10.521-3.438-1.875-6.667-4.479-7.709-8.438-3.021-11.563-7.292-18.021-7.5-14.584-1.667 5.313-.729 11.042.729 16.459 2.5 9.479 6.354 18.646 10.209 27.709 10.834 25.626 21.355 51.355 32.813 76.669 5.729 12.6 11.667 25.209 18.021 37.605 2.188 4.271 4.792 12.813 8.854 15.417 5.208 3.229 10.834-1.25 15.521-3.229" class="cls-4" data-name="Path 6281" transform="translate(10.815 4.987)"/><path id="Path_6282" d="M203.56 926.857a8.722 8.722 0 0 0-1.458-4.167c-1.563-2.292-4.375-3.333-6.979-4.271a127.214 127.214 0 0 1-25.834-13.542c-5.938-4.063-11.771-8.542-18.646-10.729s-18.23-1.563-23.126 3.646c-2.292 2.4-3.542 5.521-4.583 8.646-1.458 4.792-1.25 14.792 3.021 18.646a19.2 19.2 0 0 0 17.084 4.167c1.25-.312 2.5-.729 3.75-.938 2.292-.312 4.688.313 6.979.833 15.1 3.75 30.834 4.167 46.355 4.688a4.682 4.682 0 0 0 2.4-.417c.938-.625 1.042-1.979 1.146-3.125-.005-1.146-.005-2.394-.109-3.437z" class="cls-1" data-name="Path 6282" transform="translate(5.093 37.234)"/><g id="Group_7987" data-name="Group 7987" transform="translate(221.409 337.81)"><g id="Group_7986" data-name="Group 7986"><g id="Group_7984" data-name="Group 7984"><g id="Group_7983" data-name="Group 7983" transform="translate(13.181 20.849)"><path id="Path_6283" d="M260.305 371.072l.312 1.563a11.062 11.062 0 0 1 .417 1.979 1.878 1.878 0 0 1-.208 1.042 1.04 1.04 0 0 1-.521.417c-1.667.729-3.542.417-5.1.521-1.458.1-3.333 0-4.688 1.042a4.442 4.442 0 0 0-1.146 1.25 14.137 14.137 0 0 0-2.708 4.688 6.128 6.128 0 0 0 1.458 6.563s-.938 1.771-7.4 2.6c-14.063 1.875-13.334-11.771-13.334-11.771l-2.187-7.186h.521c-.417-3.125-.417-3.229 0-3.438-.417-2.292-1.875-8.854 4.167-16.459 6.042-7.709 15.938-8.959 25.73-9.584a9.869 9.869 0 0 1 1.875.521 4.637 4.637 0 0 1 1.25 2.188c.208.938.312 1.979.521 2.917a14.624 14.624 0 0 0 1.042 3.646 39.167 39.167 0 0 0 3.229 5.417s2.188 2.5-.312 2.708c-1.979.1-3.854.417-3.646 2.813.311 2.291.416 4.479.728 6.563z" class="cls-4" data-name="Path 6283" transform="translate(-225.2 -344.3)"/><g id="Group_7982" clip-path="url(#clip-path-11)" data-name="Group 7982"><path id="Path_6284" d="M256.6 375.273a27.3 27.3 0 0 0-3.021.1 11.207 11.207 0 0 1-5.208-.833 15.071 15.071 0 0 0-2.292-.937c-4.375-1.042-5 3.438-4.375 6.563a12.413 12.413 0 0 0 6.042 8.334c2.921-4.373 5.838-8.748 8.854-13.227z" class="cls-16" data-name="Path 6284" transform="translate(-224.52 -343.085)"/></g></g><path id="Path_6286" d="M247.291 348.572c2.917.208 6.458.625 8.854-1.563 1.771-1.563 2.292-4.063 2.813-6.458s1.667-10.417 2.083-12.813a2.328 2.328 0 0 0 0-1.458 2.5 2.5 0 0 0-2.083-1.146c-6.458-.937-17.292-1.667-23.334 1.042-1.979.938-4.583 6.042-6.771 5.834-2.292-.208-4.375-2.188-6.563-1.563-1.458.417-2.4 1.771-3.229 3.021-1.667 2.5-5.729 6.875-6.146 9.792-.208 1.875 3.438 6.563 1.875 8.021-.521 1.042-1.875 1.667-2.188 2.917a4.192 4.192 0 0 0 .521 2.5c2.5 5.208 9.063 12.084 11.563 17.292a5.173 5.173 0 0 0 1.354 1.979c1.875 1.563 4.9 0 5.625-2.187s0-4.688-.938-6.875c-.833-1.875-1.667-4.063-.938-5.833 1.042-2.4 4.9-2.6 6.25-.312.938 1.563 1.042 4.063 2.813 4.167 1.354.1 2.292-1.562 2.188-3.021s-.625-2.813-.313-4.167c.521-1.979 2.6-3.021 4.167-4.271a5.927 5.927 0 0 0 2.397-4.898z" class="cls-5" data-name="Path 6286" transform="translate(-212.546 -324.285)"/></g><g id="Group_7985" data-name="Group 7985" transform="translate(27.308 25)"><path id="Path_6287" d="M258.46 357.572c-1.771.208-3.542-1.563-3.958-4.167-.312-2.5.833-4.792 2.708-5.1 1.771-.208 3.542 1.563 3.958 4.167.313 2.6-.833 4.9-2.708 5.1" class="cls-5" data-name="Path 6287" transform="translate(-238.107 -348.284)"/><path id="Path_6288" d="M239.218 359.052c-.208 0-.313-.1-.417-.312a.381.381 0 0 1 .208-.521l16.459-5.417a.4.4 0 1 1 .313.729l-16.563 5.521" class="cls-5" data-name="Path 6288" transform="translate(-238.761 -348.097)"/></g></g><path id="Path_6289" d="M227.784 379.5s-1.458 3.542-12.084 7.708l23.855 36.355 24.271-23.855-15.313-11.146z" class="cls-4" data-name="Path 6289" transform="translate(-212.415 -321.983)"/></g><path id="Path_6290" d="M334.845 300.443c.938-9.792-.417-15.938-.937-18.021-.938-3.333-10.834-10.521-11.875-7.188-1.146 3.333 1.146 13.75.521 15.834h-.313c0 .1.1.208.1.417a.416.416 0 0 1-.417-.208c-2.292-1.771-1.563-2.083-2.4-2.708-2.292 2.917.938 8.021 2.5 11.459h.417c-.1.1-.1.208-.208.417-.625 3.333-1.354 7.292-2.4 11.25 4.063 2.813 7.917 5.833 11.667 8.854a196.9 196.9 0 0 0 3.333-20.1" class="cls-9" data-name="Path 6290" transform="translate(13.291 11.444)"/><path id="Path_6291" d="M262.5 257.606a16.018 16.018 0 0 1 1.354-1.25c4.9-1.771 12.292-4.271 13.542-4.583.521-.208 1.875-2.292-.833-2.188-1.875-.1-4.9-.417-7.5-.521a35.126 35.126 0 0 1 3.333-4.792 13.473 13.473 0 0 1 9.688-4.9c3.958-.313 3.958-1.979 2.708-2.083-9.688-10-20.417-2.708-26.667 6.042-1.771 2.6-3.854 5.521-5.938 8.542v-.1c-.729.938-1.458 1.979-2.188 2.917a51 51 0 0 0 6.25 10.521 53.7 53.7 0 0 1 6.25-7.6" class="cls-4" data-name="Path 6291" transform="translate(10.425 9.696)"/><path id="Path_6292" d="M33.958 902.385c-.938 2.6-5.729 5.313-5.729 5.313S7.5 888.426 3.436 879.988c-1.042-2.188-1.875-6.667-2.5-11.042-.1-.729 1.042-3.125.938-3.854-.209-1.354-1.459-1.042-1.563-2.192a26.98 26.98 0 0 1-.211-5.412C9.478 846.446 15.936 845.3 15.936 845.3s18.334 8.229 16.564 15.521c-4.375 17.292 4.063 34.168 1.458 41.564" class="cls-1" data-name="Path 6292" transform="translate(.003 35.247)"/><path id="Path_6293" d="M32.086 904.7c-6.563-5.833-20.1-18.23-21.771-21.251C5 873.655 4.377 863.134 4.585 852.3c-1.458 1.354-2.917 3.021-4.583 4.9a40.962 40.962 0 0 0 .208 5.417c.1 1.146 1.458.833 1.563 2.188.1.729-1.042 3.125-.938 3.854 2.188 16.667 15.73 28.022 27.188 38.855a16.208 16.208 0 0 0 4.063-2.812" class="cls-1" data-name="Path 6293" transform="translate(0 35.539)"/><path id="Path_6294" d="M31.78 886.011c-.313.417-1.25-.208-2.083-1.354a37.737 37.737 0 0 0-5.938-6.354c-1.146-.938-1.771-1.979-1.354-2.4s1.667 0 2.813.938a40.373 40.373 0 0 1 5.729 6.25c.938 1.146 1.146 2.5.833 2.917" class="cls-1" data-name="Path 6294" transform="translate(.93 36.516)"/><path id="Path_6295" d="M30.713 878.274c-.417.417-1.354-.1-2.292-1.146a42.983 42.983 0 0 0-6.458-5.729c-1.146-.833-1.875-1.875-1.458-2.292s1.771-.1 2.917.729a42.106 42.106 0 0 1 6.354 5.729c.938 1.042 1.25 2.188.938 2.708" class="cls-1" data-name="Path 6295" transform="translate(.852 36.232)"/><path id="Path_6296" d="M39.209 837.913L22.334 825.1 14 847.913c4.271 4.688 9.271 8.854 15.313 9.688z" class="cls-10" data-name="Path 6296" transform="translate(.585 34.405)"/><path id="Path_6297" d="M129.6 896.288c1.667-9.271 7.917-22.188 7.917-22.188l16.042 9.063-4.688 18.437c-5.833-.1-14.375-2.188-19.271-5.313" class="cls-10" data-name="Path 6297" transform="translate(5.405 36.448)"/><path id="Path_6298" d="M235.144 585.5l4.583-21.667-23.23-6.25-70.105-14.483-2.292 26.459z" class="cls-7" data-name="Path 6298" transform="translate(6.01 22.647)"/><path id="Path_6299" fill="#0078bf" fill-rule="evenodd" d="M149.968 553.309s60.939 8.855 93.231 16.146c2.292 18.959 13.021 201.255 3.021 215.422-.937 1.354-1.875 2.813-2.813 4.167-9.271 14.375-18.125 29.063-26.98 43.647q-16.25 26.719-32.5 53.647c-3.646 6.042-7.188 12.084-10.834 18.021-.833 1.354-1.667 3.542-2.813 4.688-1.771 1.667-4.583.625-7.084.312-4.9-.521-9.792-1.042-14.584-1.562-3.542-.417-10-.833-13.542-1.25-2.188-.313-5.208.313-5-2.083.1-1.458 2.083-3.958 2.708-5.208 1.458-2.813 5.938-5.625 7.4-8.438 4.167-7.917 8.334-15.834 12.4-23.855 10-19.271 20.1-38.543 30-57.814 6.458-12.5 13.229-24.9 19.063-37.6 8.646-18.855 3.854-46.98 2.4-66.877-1.875-25.209-2.083-63.335-9.167-87.606-12.917 26.98-19.376 67.606-27.813 96.252-3.646 12.4-10.313 24.792-16.25 36.355-11.354 22.084-30.209 38.959-48.855 54.689a435.826 435.826 0 0 0-55.731 57.71s-3.125 6.042-7.917 1.563c-4.688-4.375-9.688-8.542-14.584-12.709-4.583-3.958-10.313-8.646-6.771-15.313 8.021-14.9 23.126-27.084 34.584-39.48Q72 773.939 92.363 751.751C116.53 725.5 118.613 686.958 125.28 653c7.188-36.772 16.563-75.627 23.855-112.4" data-name="Path 6299" transform="translate(.662 22.543)"/><path id="Path_6300" d="M334.384 307.6c-3.438.313-11.771 2.6-15.313 2.917a1916.489 1916.489 0 0 0-1.771 18.855 157.886 157.886 0 0 0 17.188-.521c0-7.083 0-14.063-.1-21.251" class="cls-35" data-name="Path 6300" transform="translate(13.231 12.829)"/><path id="Path_6301" d="M337.311 328a134.186 134.186 0 0 1-17.188.521c-2.917 29.584-7.188 69.064-7.708 71.252-15.834.417-32.5 1.042-50 2.083-5.208 14.48-9.792 26.355-15.313 40.73 31.355-6.771 87.294-18.542 90.211-28.959 3.021-10.313-.313-57.293 0-85.627" class="cls-7" data-name="Path 6301" transform="translate(10.304 13.679)"/><path id="Path_6302" d="M246.867 282.2a157.539 157.539 0 0 0 13.959-21.355c-3.125-2.917-6.042-5.834-8.959-8.75-3.438 5.521-9.9 9.792-16.667 16.25 3.229 4.271 8.125 9.792 11.667 13.854" class="cls-35" data-name="Path 6302" transform="translate(9.808 10.515)"/><path id="Path_6303" d="M258.056 499.064c20.938-55.731 20.313-61.46 20.417-94.586-9.9-2.292-16.459-11.042-26.459-11.25 0 1.771.625 7.709-.521 11.459-1.25 4.063-5 7.188-6.25 11.25-1.771-5.625-3.542-11.25-5.1-16.771l-14.688-11.979c-3.333 0-12.5-.729-15.73-.729.208-8.334.313-51.251 1.667-58.335 11.146-16.563 30.834-34.584 44.689-52.814-4.271-4.792-8.959-10.729-10.417-12.709-22.917 21.563-61.356 48.022-65.106 58.335-5 16.875-8.646 66.043-12.188 83.023-1.458 5.625-.729 19.792-2.188 25.313-5.208 28.751-7.084 32.917-11.146 61.772-3.646 12.084-15.625 40.314-19.375 52.4-1.875 6.146-3.854 12.292-5.729 18.438-5.313 18.126 21.563 19.063 32.5 22.709 15.209 5 27.084 2.6 43.022 4.375 7.5.833 41.355 6.458 41.355 6.042 1.25-19.9-9.688-40.313 11.25-95.94" class="cls-7" data-name="Path 6303" transform="translate(5.39 10.953)"/><path id="Path_6304" d="M258.3 402.892c-3.75-4.167-9.063-9.792-10.834-14.792 3.125 8.75-5.417 16.042-6.771 22.709 1.563-2.292 3.021-4.479 4.583-6.771 3.333-.417 9.479-.833 13.021-1.146" class="cls-7" data-name="Path 6304" transform="translate(10.037 16.185)"/><path id="Path_6305" d="M239.884 405.854c-6.354-3.542-9.688-1.667-9.584-1.563 1.667-4.063 3.333-8.229 5-12.292.625.208 1.25.521 1.875.729l3.438 16.563" class="cls-7" data-name="Path 6305" transform="translate(9.603 16.348)"/><path id="Path_6306" d="M206.5 381.528s18.959-5 31.667 11.667a5.624 5.624 0 0 0 2.083 1.667c3.229 1.563 8.959 2.4 8.646-6.563l6.042 11.979s1.042 12.5-1.042 12.5c-1.979 0-37.084.521-37.084.521z" class="cls-7" data-name="Path 6306" transform="translate(8.611 15.882)"/><g id="Group_7988" data-name="Group 7988" transform="translate(249.685 415.838)"><path id="Path_6307" d="M240.7 400.867a1.785 1.785 0 0 1 1.979-1.667 1.739 1.739 0 0 1 1.563 1.875 1.785 1.785 0 0 1-1.979 1.667 1.525 1.525 0 0 1-1.563-1.875" class="cls-36" data-name="Path 6307" transform="translate(-239.65 -399.19)"/><path id="Path_6308" d="M239.7 408.967a1.785 1.785 0 0 1 1.979-1.667 1.739 1.739 0 0 1 1.563 1.875 1.785 1.785 0 0 1-1.979 1.667 1.627 1.627 0 0 1-1.562-1.875" class="cls-36" data-name="Path 6308" transform="translate(-239.69 -398.853)"/></g><path id="Path_6309" d="M715.726 354.369c-1.771-10.521-4.9-16.667-6.042-18.646-1.875-3.229-14.375-7.917-14.584-4.167-.208 3.854 5 14.167 5 16.563-.1 0-.208.1-.312.1.1.1.1.208.208.417-.208 0-.313.1-.521-.1-2.812-1.25-2.292-1.771-3.333-2.188-1.562 3.75 3.229 8.125 5.833 11.354.208 0 .313-.1.521-.1 0 .1-.1.312-.1.417.313 3.646.625 8.021.729 12.5 5.1 1.771 9.9 3.854 14.688 5.938a196.67 196.67 0 0 0-2.083-22.084" class="cls-37" data-name="Path 6309" transform="translate(28.982 13.77)"/><path id="Path_6310" d="M524.494 910.845l-.937 21.355h-17.4s-.938-2.708-2.4-2.708c-1.25 0-2.813 2.708-4.479 2.708h-44.265s-.833-3.958.208-5.313c.521-.729 3.438-1.875 5.313-2.5 8.959-2.813 34.688-11.459 39.168-20.938 5.417-11.563 24.792 7.4 24.792 7.4" class="cls-1" data-name="Path 6310" transform="translate(18.959 37.516)"/><path id="Path_6311" d="M454.806 926.6a13.668 13.668 0 0 0 .1 4.479h44.272c1.667 0 3.333-2.708 4.479-2.708 1.458 0 2.4 2.708 2.4 2.708h17.4l.729-4.479z" class="cls-1" data-name="Path 6311" transform="translate(18.957 38.637)"/><path id="Path_6312" d="M485.913 918.768c-.417.521-1.354-.1-2.708-1.146-3.125-2.708-2.917-2.4-2.083-2.812.521-.313 1.25-.625 3.125 1.042 1.354 1.042 2.083 2.292 1.667 2.917" class="cls-1" data-name="Path 6312" transform="translate(20.039 38.135)"/><path id="Path_6313" d="M490.514 916.568c-.417.521-1.354-.1-2.708-1.146-3.229-2.708-2.917-2.4-2.083-2.813.625-.312 1.25-.625 3.125 1.042 1.25 1.042 1.979 2.4 1.667 2.917" class="cls-1" data-name="Path 6313" transform="translate(20.229 38.043)"/><path id="Path_6314" d="M494.613 914.068c-.417.521-1.354-.1-2.708-1.146-3.125-2.708-2.917-2.4-2.083-2.813.521-.312 1.25-.625 3.125 1.042 1.25 1.042 2.083 2.4 1.667 2.917" class="cls-1" data-name="Path 6314" transform="translate(20.401 37.939)"/><path id="Path_6315" d="M518.1 907.975c2.708-7.917 5.833-19.375 5.833-19.375h-16.358l-4.375 16.355a27.275 27.275 0 0 0 14.9 3.021" class="cls-6" data-name="Path 6315" transform="translate(20.981 37.052)"/><path id="Path_6316" d="M766.234 923.789c1.25 2.083.417 6.979.417 6.979s-25 3.125-33.126.938c-2.083-.521-5.625-2.5-8.958-4.688-.521-.313-1.563-2.5-2.084-2.813-1.042-.625-1.562.417-2.4-.1-2.188-1.563-3.75-2.813-3.854-2.917-2.187-12.709.729-17.813.729-17.813s16.042-7.813 20-2.4c9.479 12.917 25.73 16.771 29.271 22.813" class="cls-1" data-name="Path 6316" transform="translate(29.829 37.489)"/><path id="Path_6317" d="M766.96 925.85c-7.709 1.146-23.959 3.333-26.98 2.708-12.188-2.4-19.584-9.584-24.48-13.959a45.86 45.86 0 0 0 .729 5.938c0 .208 1.563 1.354 3.854 2.917.833.625 1.354-.521 2.4.1.521.313 1.563 2.5 2.083 2.813a47.116 47.116 0 0 0 8.959 4.688c8.021 2.083 33.126-.937 33.126-.937a20.8 20.8 0 0 0 .313-4.271" class="cls-1" data-name="Path 6317" transform="translate(29.833 38.136)"/><path id="Path_6318" d="M754.188 915.346c.1.521-.833.729-2.083.729a38.7 38.7 0 0 0-7.709.417c-1.25.208-2.4 0-2.4-.521s.938-1.146 2.188-1.354a31.039 31.039 0 0 1 7.6-.312c1.146 0 2.292.625 2.4 1.042" class="cls-1" data-name="Path 6318" transform="translate(30.938 38.12)"/><path id="Path_6319" d="M748.184 911.734c.1.521-.833.833-2.083.938a38.373 38.373 0 0 0-7.6 1.146c-1.25.313-2.292.208-2.4-.312 0-.521.938-1.354 2.188-1.563a37.14 37.14 0 0 1 7.5-1.042c1.25-.1 2.292.313 2.4.833" class="cls-1" data-name="Path 6319" transform="translate(30.692 37.981)"/><path id="Path_6320" d="M744.175 906.93c.1.521-.833.938-2.083 1.146a39.141 39.141 0 0 0-7.5 1.771c-1.25.417-2.292.417-2.292-.1s.938-1.458 2.188-1.875a32.728 32.728 0 0 1 7.4-1.667c1.25-.1 2.292.208 2.292.729" class="cls-1" data-name="Path 6320" transform="translate(30.533 37.785)"/><path id="Path_6321" d="M725.434 883.1l-18.334 4.167 10.834 18.646c5.625-.208 11.354-1.25 15.313-4.9z" class="cls-6" data-name="Path 6321" transform="translate(29.483 36.823)"/><path id="Path_6322" d="M723 902.9c0-.729 14.9-4.9 14.9-4.9l.833 7.5-11.459 3.958z" class="cls-1" data-name="Path 6322" transform="translate(30.145 37.444)"/><path id="Path_6323" d="M546.8 574.5c23.126.521 48.126-.521 71.043 3.542 8.334 1.458 23.23-7.083 27.709-1.979 3.438 3.854 10.834 37.084 17.188 75.731 5 30.417 17.292 69.168 21.667 83.856 2.917 9.792 28.022 72.4 37.918 95.94 4.583 11.042 28.23 69.689 28.23 69.689l-32.293 9.063S660.658 794.2 645.241 767.216c-12.5-21.667-45.105-116.357-45.105-116.357l-27.4 95.836s-30.522 155.212-50 159.379l-25.936-2.813 27.084-140.42c-.1-.1 15.625-169.483 22.917-188.338" class="cls-7" data-name="Path 6323" transform="translate(20.715 23.953)"/><path id="Path_6324" d="M524.922 309.551c-1.354 3.021-2.708 5.938-4.063 8.959l-8.438 18.438c-2.4 5.208-4.792 10.313-6.979 15.521a11.049 11.049 0 0 0-1.042 2.708c.1.208 1.146 0 1.354 0 1.042 0 2.083-.1 3.229-.1a38.853 38.853 0 0 0 7.5-.937 5.36 5.36 0 0 0 2.292-.938 4.041 4.041 0 0 0 .625-1.146c1.979-4.9 3.958-9.688 5.938-14.584 2.5-6.146 4.375-12.4 6.979-18.646.625-1.667 1.354-3.333 1.979-4.9a1.761 1.761 0 0 1 .313-.625c.729-.937 2.292-1.667 3.021-2.4 1.25-1.25 2.4-2.5 3.542-3.75a30.736 30.736 0 0 1 2.6-2.6 3.536 3.536 0 0 1 1.875-.729c1.042-.313 2.083-.417 3.125-.625 1.979-.312 7.4-3.958 7.917-5.313a10.835 10.835 0 0 1 .625-1.667 9.6 9.6 0 0 1-6.354 1.771c-1.667-.208-3.125-1.042-4.688-1.458a22.529 22.529 0 0 0-9.584-.417 9.718 9.718 0 0 0-6.459 3.438c-2.292 2.813-3.854 6.771-5.312 10" class="cls-37" data-name="Path 6324" transform="translate(21.031 12.337)"/><path id="Path_6325" d="M551.739 300.88c1.563.208 3.542-1.667 4.479-4.271.833-2.6-19.584-5.208-19.584-5.208-1.458-.208-7.083 7.292-8.334 9.9-1.042 2.6 23.438-.417 23.438-.417" class="cls-37" data-name="Path 6325" transform="translate(22.027 12.153)"/><path id="Path_6326" fill="#ccaa92" fill-rule="evenodd" d="M618.213 430.617c-.521-2.292-2.187-7.917-2.187-7.917l-13.75.625c-.625 2.4-1.25 4.9-1.875 7.292 5.417.625 10.938 1.25 16.355 1.875a11.443 11.443 0 0 0 1.458-1.875" data-name="Path 6326" transform="translate(25.034 17.628)"/><path id="Path_6327" d="M652.628 480.951c.208 0-5.625 46.668-6.146 48.23-.1 1.563-5.625 56.356-5.833 56.356-39.48-.729-56.981.729-96.148 0 .625-4.9 1.458-12.813 1.771-17.709 2.917-40.834-5.938-48.23 1.354-72.814q17.188-32.657 31.355-65.418c3.958-2.5 7.917-4.9 11.771-7.4 3.542 2.5 7.188 4.9 10.938 7.4 6.563.938 13.229 1.979 19.792 2.917a561.118 561.118 0 0 0 17.917 16.563c4.167 10.625 8.542 21.251 13.229 31.876" class="cls-35" data-name="Path 6327" transform="translate(22.703 17.607)"/><path id="Path_6328" d="M722.149 368.517c1.25 4.479-1.354 4.271-.417 8.75.208 1.146.521 2.292.625 3.333a7.087 7.087 0 0 1 .208 2.083c-.208 1.042-2.083.312-2.813.1a65.54 65.54 0 0 1-11.667-5.417c-.521-.312-1.458-.521-1.771-1.146a5.564 5.564 0 0 1-.521-1.875c-.312-1.042-3.229-1.146-3.542-2.188-.833-2.708-.833-6.563-1.25-9.271 0 0-.729-2.917 2.708-2.188 5 .938 13.438 6.667 18.438 7.813" class="cls-36" data-name="Path 6328" transform="translate(29.226 15.038)"/><path id="Path_6329" d="M516.026 325.594c-.729.312-3.75 9.584-5.521 13.438s16.875 0 16.771 0c2.708-5.625 2.188-10.1 4.9-15.73-.004-.002-8.963-.625-16.15 2.292z" class="cls-36" data-name="Path 6329" transform="translate(21.281 13.481)"/><path id="Path_6330" d="M642.108 474.1c-.521 12.188-1.146 24.48-2.708 36.668-1.146 9.688-6.042 17.709-8.542 27.292-3.021 11.354-.521 23.438.521 35.209 1.146 13.23 2.292 18.021 15.834 22.6 14.792 4.9 29.584 10.1 44.9 15.313 7.813 2.708 15.729 5.417 23.855 7.6 6.458 1.771 7.4 1.979 6.979-2.708-2.188-23.646-13.125-46.564-24.792-69.585-6.875-13.646-16.563-24.271-26.772-36.147-10.417-12.188-20.209-24.167-29.272-36.251" class="cls-39" data-name="Path 6330" transform="translate(26.244 19.771)"/><path id="Path_6331" d="M546.378 419.819c1.042-3.438-25.313-25.209-28.334-28.126a6.41 6.41 0 0 1-1.667-2.083 5.878 5.878 0 0 1 .1-3.542c4.167-19.48 11.771-40.314 17.709-59.168-5.938 1.979-7.6.938-10 .938S514.5 329.5 514.5 329.5c-5.1 12.188-8.438 21.98-13.542 34.168-3.333 8.021-13.23 23.23-11.25 32.084a22.257 22.257 0 0 0 2.292 5.421c11.98 21.563 29.272 39.9 40.939 61.564-.208 0-.1-3.229 12.709 3.125 7.188-17.917 14.063-35.73 20.521-53.647-8.334 1.667-11.25 5.833-19.792 7.6" class="cls-39" data-name="Path 6331" transform="translate(20.408 13.634)"/><path id="Path_6332" d="M625.928 426.778c-4.062 15.625-5.417 19.48 2.917 33.855a356.043 356.043 0 0 0 36.876 51.767c3.646 4.271 22.917 32.6 28.855 31.876 1.458-.729-17.4-32.084-18.126-35.418-4.792-14.167-8.958-27.709-10.521-42.084l-2.188-20c-.312-3.021 0-7.6-1.146-10.521-.833-2.188-2.813-3.854-4.375-5.729-1.458-1.667-4.688-6.979-6.771-7.917-1.667-.729-4.167.208-5.938.625-6.354 1.25-13.021 2.4-19.584 3.542" class="cls-39" data-name="Path 6332" transform="translate(25.965 17.613)"/><path id="Path_6333" d="M661.05 476.548c24.792-4.688 67.918-26.146 67.4-26.146 1.042 0 3.646-70.106-4.271-76.356-.521-.417-.625-1.563-7.6-1.458-5.208.1-6.563 0-12.6-2.188 2.4 16.25.417 61.981 0 61.981.312 0-38.022 4.271-44.064 3.229-6.458-1.042-9.792-2.188-15.1-5.417 1.354 18.021 7.292 29.376 16.25 46.355" class="cls-39" data-name="Path 6333" transform="translate(26.885 15.447)"/><path id="Path_6334" fill="#300833" fill-rule="evenodd" d="M599.9 433.387c5.208 11.146 9.479 6.042 17.292 2.083-8.125-4.792-16.876-16.98-17.292-2.083" data-name="Path 6334" transform="translate(25.013 17.774)"/><path id="Path_6335" d="M604.7 438.838c-2.4 10.834-3.125 41.876-1.875 46.668a81.029 81.029 0 0 0 2.083 14.375 138.928 138.928 0 0 0 28.959 53.019 131.425 131.425 0 0 0 11.25 11.667 26.1 26.1 0 0 0 2.5 2.292 7.273 7.273 0 0 0 3.125.625l10.313 1.25a17.156 17.156 0 0 0 2.187.208c.208-.1.1-.521.1-.625.1-.937.313-1.771.417-2.708.1-.833 1.25-4.375.521-5.1a28.646 28.646 0 0 0-2.708-2.292c-1.146-.937-2.187-1.979-3.333-2.917-2.083-1.875-3.958-3.75-5.938-5.625-8.125-7.188-27.5-31.147-35.209-56.356-8.958-24.792-8.125-51.043-8.438-53.23-.1-2.4-.208-4.792-.208-7.188-1.771 3.021-4.375 6.875-3.75 5.938" class="cls-7" data-name="Path 6335" transform="translate(25.11 18.053)"/><path id="Path_6336" d="M592.781 418.757c2.708 17.6 6.667 18.646-2.4 34.168-11.146 19.376-31.876 38.855-44.376 58.647-8.333 13.334-9.167 28.543-15.938 42.605-8.333 17.188-14.375 31.772-28.647 47.189-8.021-11.146-19.376-16.771-14.375-29.272 5.1-12.917 13.959-25.938 20.417-38.543 6.042-11.667 12.5-23.23 17.4-35 6.146-14.792 5.833-25.209 8.125-39.376 1.563-8.542 18.646-50.21 28.438-51.772 6.25-.833 12.084 8.125 31.355 11.354" class="cls-39" data-name="Path 6336" transform="translate(20.257 16.988)"/><path id="Path_6337" d="M588.5 418.3c1.042 6.667 2.187 13.438 3.333 20.1.208.938.312 1.875.521 2.917 4.479-3.334 14.271-12.188 14.792-12.6-5.625-3.333-11.146-5.521-16.459-8.854a11.737 11.737 0 0 0-2.187-1.563" class="cls-36" data-name="Path 6337" transform="translate(24.538 17.444)"/><path id="Path_6338" d="M610.3 429.413c4.688-.833 9.479-1.667 14.167-2.5.625-.1 1.354-.208 1.979-.313-1.458 5.625-3.021 11.25-4.583 16.875a16.107 16.107 0 0 1-.729 2.4c-3.334-4.792-6.459-9.584-9.48-14.375a14.3 14.3 0 0 1-1.354-2.083" class="cls-36" data-name="Path 6338" transform="translate(25.447 17.79)"/><path id="Path_6339" fill="#c18456" d="M600.623 405.246a4.614 4.614 0 0 0 1.354 6.042c5.208 3.229 10.625 6.459 16.146 9.688a3.863 3.863 0 0 0 5.521-1.771c3.854-8.75 7.4-17.6 10.521-26.563a5.608 5.608 0 0 0-1.875-6.146q-7.344-4.688-14.375-9.375c-1.667-1.146-3.75-.313-4.792 1.875a54.137 54.137 0 0 1-6.563 11.25c-2.5 3.229-5.833 15.1-5.938 15" data-name="Path 6339" transform="translate(25.019 15.706)"/><path id="Path_6340" d="M631.551 404.683a69.711 69.711 0 0 0 7.813-10.417c1.25-2.083 2.4-4.479 1.667-6.771-.521-1.771-2.083-3.021-3.229-4.479-2.708-3.438-3.437-7.917-4.583-12.188-1.146-4.167-3.333-8.646-7.4-10.209a9.128 9.128 0 0 0-8.021 1.042 17.477 17.477 0 0 0-4.271 4.479c-.833 1.146-1.771 2.292-2.6 3.333a2.057 2.057 0 0 0-.625 1.25 3.424 3.424 0 0 0 .417 1.771c2.6 5 6.563 9.584 11.98 11.459 1.979.625 3.958.938 5.938 1.667 1.875.729 3.75 2.083 4.271 4.063a6.391 6.391 0 0 1-.208 3.438c-.729 2.6-2.083 4.9-2.917 7.5-.417 1.146-1.354 7.6 1.354 4.688-.002-.209.206-.417.414-.626z" class="cls-42" data-name="Path 6340" transform="translate(25.446 15.019)"/><path id="Path_6341" d="M629.594 406.513s-6.563 15.73-8.229 19.376c-1.354 3.229-6.25 9.584-23.126-.417-9.792-5.833-4.9-13.438-3.542-16.042 1.042-1.979 7.083-12.709 8.542-13.23.1 0-1.146 5.521-1.146 5.521a7.574 7.574 0 0 1 8.438-.312c7.083 4.479 6.667 10.313 10 12.188 2.6 1.354 6.563-2.083 9.063-7.084" class="cls-42" data-name="Path 6341" transform="translate(24.695 16.523)"/><path id="Path_6342" d="M608.913 414.625c-1.562-.937-3.125-1.979-4.688-2.917a1.46 1.46 0 0 1-.417-1.979 2.608 2.608 0 0 1 .417-.729c-.1.312 6.25 3.958 6.979 4.167a3.113 3.113 0 0 1-.417.833 1.343 1.343 0 0 1-1.875.625" class="cls-42" data-name="Path 6342" transform="translate(25.167 17.056)"/></g></g></svg>