<svg xmlns="http://www.w3.org/2000/svg" viewBox="0 0 265.9 290.6"><style>.doggo__0{opacity:.1;enable-background:new}.doggo__1{fill:#cca90d}.doggo__2{fill:#fff}.doggo__3{fill:#fdd835}.doggo__4{fill:#37474f}</style><g transform="translate(0 129.444)"><ellipse cx="132.9" cy="136.9" class="doggo__0" rx="132.9" ry="24.2"/><path d="M121.2-78.6s29.6-20 30.5-25.2c.9-5.2-58.4 12.2-58.4 12.2l27.9 13z" class="doggo__1"/><path d="M43.2-75.2c5.1 20.8 14.8 44.8 32 58.9 2.7 2.2 16.8-13.5 28.6-30 9.6-13.3 17.8-27.1 17.5-32.2-.8-11.3-33.1-21-38.3-21.8-5.3-.9-24.7-29.2-24.7-29.2S41.6-122.8 39-115c-1.2 3.7-.5 20.4 4.2 39.8z" class="doggo__2"/><path d="M96.6 123.2c4.7 7.1 84.8 6.6 92.6-10 3.6-7.5-7.6-31.6-21.5-56.4-10.9-19.4-23.4-39.2-31.7-51.6-4.6-6.8-7.9-11.5-9-12.5-5.6-5.6-12.6-55.9-12.6-55.9S68.6-71.9 71-59.3c2.3 12.6-26.1 53.6-26.9 71.7-.7 18.1 51.6 60.8 55.5 65.6s-7.6 38.2-3 45.2z" class="doggo__2"/><path d="M44.2 12.4s7.9 93.8 4.7 97.7-18.1 11.9-15.7 18.2c2.3 6.3 31.5 10.2 33.9 3.1 2.3-7.1.8-94.6.8-94.6L44.2 12.4zm131.6 100.1s58.4-1.6 42.6-44.9 5.6 22.1-37.1 30.7c-42.4 8.6-5.5 14.2-5.5 14.2zm-59.1-78.9s-3.9 98.6-11 101.7-26.1.8-26.8-3.9c-.8-4.7 12.6-14.9 14.9-22.1 2.3-7.1-1.6-78.1-1.6-78.1l24.5 2.4z" class="doggo__2"/><path d="M43.2-75.2c5.8 8.3 13 15.6 21.4 21.3 10.2 7.1 49.4 18.3 56.6-24.7-.8-11.3-33.1-21-38.3-21.8-5.3-.8-24.7-29.1-24.7-29.1S41.6-122.8 39-115c-1.2 3.7-.5 20.4 4.2 39.8z" class="doggo__3"/><path d="M107.2-91.6s52.3 0 53.2 9.6c.9 9.6-59.3 30.5-59.3 30.5l6.1-40.1z" class="doggo__1"/><path d="M113.4-86.9c1.9-2.2 38.7.3 39.3 5.4.6 5-36.5 21.3-39.7 19.5-3.2-1.9-1.4-22.7.4-24.9z" class="doggo__1"/><path d="M82.1-91.3c-.9-4.5-13.1-.8-11.6 3.8 1.4 4.6 12.9 2.2 11.6-3.8z" class="doggo__4"/><path d="M119.5 54.5c4.6 8.8 12.3 16.8 22.1 18.4 9.5 1.6 19.7-3.7 24.3-12.2.7-1.2 1.3-2.5 1.7-3.8-10.8-19.5-23.3-39.3-31.6-51.7-4.4.7-8.6 2.6-12 5.4-6.1 5.1-9.5 13-10 21-.5 7.9 1.8 15.8 5.5 22.9zM87.4 24.8c-3.8-2.1-5.4-6.7-5.8-11.1C81.1 3 94.6-10.6 102 2.3c5.1 8.8-2.1 29.6-14.6 22.5z" class="doggo__3"/><path d="M198.6 125.3c1.2-.9 2.2-2.1 2.8-3.5 2.7-7.9-2-27.8-9.8-45.5-7.3-16.4-17.4-30.8-27.1-31.6-20.1-1.7-17.6 75.5-20.1 75.5s-26.9.8-29.4 10.1c-2.4 8.5 68.1 7.1 83.6-5z" class="doggo__2"/><path d="M182.7 116.3c3.7 5.1 9.5 8.4 15.8 9 1.2-.9 2.2-2.1 2.8-3.5 2.7-7.9-2-27.8-9.8-45.5-4.7 2.2-8.5 6.8-10.7 11.8-3.8 9.1-3.7 20.1 1.9 28.2z" class="doggo__3"/></g></svg>