<svg xmlns="http://www.w3.org/2000/svg" viewBox="0 0 1254.19 573.9"><defs><style>.cls-1{fill:none}.cls-2{opacity:.1}.cls-3{fill:#ffeb92;opacity:.65}.cls-4{clip-path:url(#clip-path)}.cls-14,.cls-5,.cls-6{fill:#fff}.cls-5{opacity:.06}.cls-6{opacity:.18}.cls-7{fill:#fbd942}.cls-8{clip-path:url(#clip-path-2)}.cls-9{fill:#260028}.cls-10{fill:#4b5153}.cls-11{fill:#197f97}.cls-12{fill:#2d93ab}.cls-13{clip-path:url(#clip-path-3)}.cls-14{opacity:.15}</style><clipPath id="clip-path"><path class="cls-1" d="M191.24 117.86a464 464 0 0 0 52 28.63l.08-.26q8.79 4.08 17.61 7.69 13.56 5.57 27.24 10.1 18.08 6 36.47 10.31c43.81 10.37 89.45 14.19 139.39 14.24l-44.27 240.18c-60.92 2.62-116.87-.1-170.65-11.46Q228.74 413 208.73 407q-13.75-4.14-27.39-9.17-7.92-2.91-15.8-6.15l-.12.36a509.61 509.61 0 0 1-59.71-29.44z"/></clipPath><clipPath id="clip-path-2"><path class="cls-1" d="M864.33 117.86a463 463 0 0 0 52 28.63l.09-.26q8.79 4.08 17.61 7.69 13.56 5.57 27.24 10.1c12 4 24.18 7.41 36.47 10.31 43.8 10.37 89.44 14.19 139.39 14.24q-22.13 120.09-44.29 240.18c-60.92 2.62-116.86-.1-170.64-11.46Q901.83 413 881.82 407q-13.76-4.14-27.4-9.17-7.9-2.91-15.79-6.15l-.12.36a508.84 508.84 0 0 1-59.71-29.44z"/></clipPath><clipPath id="clip-path-3"><path class="cls-1" d="M519.4 288.38c0 127.58-103.43 231-231 231s-231-103.43-231-231 103.43-231 231-231 231 103.41 231 231zm436.35-231c-127.58 0-231 103.43-231 231s103.43 231 231 231 231-103.43 231-231-103.41-231.02-231-231.02z"/></clipPath></defs><g id="Layer_1" data-name="Layer 1"><ellipse class="cls-2" cx="635.6" cy="552.82" rx="618.59" ry="21.09"/><path class="cls-3" d="M519.4 288.38c0 127.58-103.43 231-231 231s-231-103.43-231-231 103.43-231 231-231 231 103.41 231 231zm436.35-231c-127.58 0-231 103.43-231 231s103.43 231 231 231 231-103.43 231-231-103.41-231.02-231-231.02z"/><g class="cls-4"><path class="cls-5" transform="rotate(-157.22 216.212 253.722)" d="M200.98 3.17h30.46v501.12h-30.46z"/><path class="cls-6" transform="rotate(-157.22 314.65 282.05)" d="M285.47 31.49h58.36v501.12h-58.36z"/><path class="cls-7" d="M191.24 117.86a464 464 0 0 0 52 28.63l.08-.26q8.79 4.08 17.61 7.69 13.56 5.57 27.24 10.1 18.08 6 36.47 10.31c43.81 10.37 89.45 14.19 139.39 14.24l-44.27 240.18c-60.92 2.62-116.87-.1-170.65-11.46Q228.74 413 208.73 407q-13.75-4.14-27.39-9.17-7.92-2.91-15.8-6.15l-.12.36a509.61 509.61 0 0 1-59.71-29.44z"/><path class="cls-1" d="M191.24 117.86a464 464 0 0 0 52 28.63l.08-.26q8.79 4.08 17.61 7.69 13.56 5.57 27.24 10.1 18.08 6 36.47 10.31c43.81 10.37 89.45 14.19 139.39 14.24l-44.27 240.18c-60.92 2.62-116.87-.1-170.65-11.46Q228.74 413 208.73 407q-13.75-4.14-27.39-9.17-7.92-2.91-15.8-6.15l-.12.36a509.61 509.61 0 0 1-59.71-29.44z"/></g><g class="cls-8"><path class="cls-5" transform="rotate(-157.22 889.298 253.72)" d="M874.07 3.17h30.46v501.12h-30.46z"/><path class="cls-6" transform="rotate(-157.22 987.735 282.042)" d="M958.55 31.49h58.36v501.12h-58.36z"/><path class="cls-7" d="M864.33 117.86a463 463 0 0 0 52 28.63l.09-.26q8.79 4.08 17.61 7.69 13.56 5.57 27.24 10.1c12 4 24.18 7.41 36.47 10.31 43.8 10.37 89.44 14.19 139.39 14.24q-22.13 120.09-44.29 240.18c-60.92 2.62-116.86-.1-170.64-11.46Q901.83 413 881.82 407q-13.76-4.14-27.4-9.17-7.9-2.91-15.79-6.15l-.12.36a508.84 508.84 0 0 1-59.71-29.44z"/><path class="cls-1" d="M864.33 117.86a463 463 0 0 0 52 28.63l.09-.26q8.79 4.08 17.61 7.69 13.56 5.57 27.24 10.1c12 4 24.18 7.41 36.47 10.31 43.8 10.37 89.44 14.19 139.39 14.24q-22.13 120.09-44.29 240.18c-60.92 2.62-116.86-.1-170.64-11.46Q901.83 413 881.82 407q-13.76-4.14-27.4-9.17-7.9-2.91-15.79-6.15l-.12.36a508.84 508.84 0 0 1-59.71-29.44z"/></g><path class="cls-9" d="M955.75 0C837.84 0 736.28 71.16 691.64 172.77a158.39 158.39 0 0 0-139.47-.77C507.36 70.82 406 0 288.39 0 129.37 0 0 129.35 0 288.38h32.78C32.78 429.31 147.45 544 288.39 544S544 429.31 544 288.38h32.79a287.47 287.47 0 0 0-10.67-77.53 117.8 117.8 0 0 1 111.7.85 287.55 287.55 0 0 0-10.43 76.68h32.79C700.16 429.31 814.82 544 955.75 544s255.61-114.66 255.61-255.59h32.78C1244.14 129.35 1114.77 0 955.75 0zM288.39 519.39c-127.59 0-231-103.43-231-231s103.43-231 231-231 231 103.43 231 231-103.39 231-231 231zm667.36 0c-127.58 0-231-103.43-231-231s103.43-231 231-231 231 103.43 231 231-103.41 231-231 231z"/><path class="cls-9" d="M825.67 269.62l10.54 4.73L977.33 36.31l-10.53-4.73-141.13 238.04z"/><circle class="cls-10" cx="848.12" cy="261.47" r="16.33"/><path class="cls-11" d="M857.68 113.28l-79.54 291a3.52 3.52 0 0 0 2.46 4.31l11.4 3.13a13.7 13.7 0 0 0 16.84-9.59L883 130.8a13.7 13.7 0 0 0-9.59-16.8L862 110.83a3.51 3.51 0 0 0-4.32 2.45z"/><path class="cls-12" d="M792 411.72l-11.42-3.13a3.52 3.52 0 0 1-2.46-4.31l79.54-291a3.51 3.51 0 0 1 4.31-2.45l11.44 3.17c-34.87 86.08-66.69 207.79-81.41 297.72z"/><path class="cls-10" d="M768.87 397.74l10.26 2.82 77.41-283-10.27-2.81-77.4 282.99"/><circle class="cls-10" cx="977.93" cy="26.69" r="14.15"/><path class="cls-9" d="M161.1 260.73l10.53 4.73L312.76 27.42l-10.53-4.73L161.1 260.73z"/><circle class="cls-10" cx="183.55" cy="252.58" r="16.33"/><path class="cls-11" d="M201 106.27l-95 286.29a3.5 3.5 0 0 0 2.22 4.44l11.24 3.74a13.69 13.69 0 0 0 17.32-8.67l88.61-267a13.69 13.69 0 0 0-8.67-17.32L205.44 104a3.52 3.52 0 0 0-4.44 2.27z"/><path class="cls-12" d="M119.42 400.74L108.18 397a3.5 3.5 0 0 1-2.22-4.44l95-286.29a3.52 3.52 0 0 1 4.44-2.23l11.24 3.75c-39.41 84.12-77.72 203.94-97.22 292.95z"/><path class="cls-10" d="M97.16 385.27l10.1 3.37 92.5-278.43-10.11-3.36-92.49 278.42"/><circle class="cls-10" cx="298.39" cy="30.01" r="14.15"/><g class="cls-13"><path class="cls-14" transform="rotate(25.2 364.894 311.48)" d="M349.22 54.17h31.27v514.47h-31.27z"/><path class="cls-14" transform="rotate(25.2 265.14 278.139)" d="M235.16 20.84h59.92v514.47h-59.92z"/><path class="cls-14" transform="rotate(25.2 1052.491 305.537)" d="M1038.77 48.21h27.13v514.47h-27.13z"/><path class="cls-14" transform="rotate(25.2 977.325 284.267)" d="M947.21 26.94h59.92v514.47h-59.92z"/></g></g></svg>