<svg xmlns="http://www.w3.org/2000/svg" viewBox="0 0 80 80.588"><defs><style>.a{fill:#163955}.b{fill:none}.c{fill:#d69976}.d{fill:#eaa678}.e{fill:#f29e7c}.f{fill:#e33836}</style></defs><path class="a" d="M62.215 69.293C49.469 85.483 27.636 86.216 9.834 58.597-7.969 31.05-.203 9.292 24.706 1.746c17.509-5.348 36.191 1.465 49.6 22.2 13.407 20.806.586 29.231-12.088 45.349"/><path class="b" d="M58.922 62.04c-1.9-3.736-4.249-7.326-5.2-11.429-1.172-5.128.366-8.865 1.978-13.627a8.857 8.857 0 0 0 .366-1.319 92.441 92.441 0 0 0-2.564-11.868c-.293-1.026-4.469-12.235-1.1-12.088 1.319.073 2.637 4.762 3.077 5.714.366.806.733 1.538 1.026 2.344a1.385 1.385 0 0 1 .733-.586c-.659-2.344-.806-4.542.147-6.374.733-1.465 1.465-1.392 2.051-.659.073.073.073.147.147.22a3.1 3.1 0 0 1 .366.513c3.731 5.496 8.273 13.775 8.859 20.588.952 6.447-.22 13.48-.733 19.854.293 1.172.586 2.271.952 3.37.366 1.026.806 2.051 1.245 3.077 8.938-10.7 14.359-19.341 3.883-35.532C60.75 3.285 42.068-3.528 24.559 1.82-.35 9.439-8.116 31.124 9.687 58.744c.366.586.806 1.172 1.172 1.758a21.472 21.472 0 0 0 .366-2.125c-.952-6.374-2.637-13.26-2.344-19.854A18.986 18.986 0 0 1 10.2 31.27c0-.073.073-.147.073-.293.073-.293.22-.586.293-.806 1.832-4.909 3.59-10.7 6.3-15.238v.073c.659-.952 1.465-1.026 2.344.806a10.089 10.089 0 0 1 .513 6.081c2.271.366 2.051 7.253 1.978 8.279-.22 3.956-.366 6.813 1.245 10.4 4.542 10.33 2.711 16.264-1.465 26.228a39.9 39.9 0 0 0-1.465 4.469c15.165 13.92 31.283 11.209 41.612-1.538a38.266 38.266 0 0 0-2.706-7.691z"/><path class="c" d="M8.881 39.037v-.44c-.293 6.52 1.392 13.407 2.418 19.781-.953-6.447-2.052-12.894-2.418-19.341zm1.758-8.792c-.073.293-.22.513-.293.806 0 .073-.073.147-.073.293.147-.366.22-.659.366-1.026-.073-.073-.073-.073 0-.073zm3.81 5.494a13.842 13.842 0 0 0-.806 4.762c.073-.366.22-.733.293-1.1 1.1-3.736 2.564-7.18 3.443-10.989.293-1.1.44-5.714 1.245-6.154a1.553 1.553 0 0 1 1.172-.293 10.04 10.04 0 0 0-.513-6.081c-.879-1.9-1.685-1.832-2.344-.952.587 6.082-1.171 16.924-2.49 20.807z"/><path class="d" d="M8.883 38.523a26.965 26.965 0 0 1 1.316-7.253 18.986 18.986 0 0 0-1.316 7.253zm2.415 19.854c.073.586.147 1.172.22 1.685-.073-.585-.147-1.099-.22-1.685z"/><path class="d" d="M23.02 40.721c-1.538-3.59-1.465-6.447-1.245-10.4.073-1.026.22-7.985-1.978-8.279a1.862 1.862 0 0 0-1.172.293c-.733.513-.952 5.055-1.245 6.154-.879 3.81-2.344 7.253-3.443 10.989-.073.366-.22.733-.293 1.1a15.841 15.841 0 0 1 .806-4.762c1.319-3.883 3.15-14.652 2.491-20.66v-.076c-2.637 4.542-4.4 10.33-6.3 15.238v.073c-.147.366-.22.659-.366 1.026a26.965 26.965 0 0 0-1.321 7.253v.44c.293 6.447 1.465 12.967 2.418 19.341.073.586.147 1.172.22 1.685a13.522 13.522 0 0 0-.293-1.685c-.147.733-.22 1.392-.366 2.125a60.968 60.968 0 0 0 9.231 10.843 29.015 29.015 0 0 1 1.465-4.469c4.102-10.038 5.86-15.97 1.391-26.229z"/><path class="c" d="M58.479 19.402c.733.44 1.685 6.081 2.051 7.106 1.1 3.224 2.711 6.154 3.81 9.3.073.147.073.22.147.366a16.123 16.123 0 0 0-1.1-4.4c-1.538-3.663-4.1-13.846-3.883-19.634-.659-.733-1.319-.733-2.051.659-1.026 1.832-.879 4.029-.22 6.374a1.388 1.388 0 0 1 1.246.229zm1.099-7.106a3.1 3.1 0 0 1 .366.513 3.1 3.1 0 0 0-.366-.513zm8.425 40.807c.073 0 .073.073 0 0 .513-6.3 1.685-13.407.806-19.781a7.106 7.106 0 0 1 .073 1.245c.073 6.155-.439 12.382-.879 18.536z"/><path class="e" d="M55.695 25.263c-.073-1.026-.147-4.176.733-5.495-.366-.806-.733-1.538-1.026-2.344-.44-.953-1.758-5.714-3.077-5.714-3.37-.147.806 11.136 1.1 12.088a92.443 92.443 0 0 1 2.564 11.868c.805-3.517-.001-6.594-.294-10.403z"/><path class="d" d="M59.431 12.076c.073.073.073.147.147.22 0-.073-.074-.147-.147-.22zm8.498 42.638a10.932 10.932 0 0 1 .147-1.538v-.074a13.161 13.161 0 0 0-.147 1.612z"/><path class="d" d="M68.002 53.102c.44-6.154.952-12.381.879-18.535a7.108 7.108 0 0 0-.073-1.245c-.586-6.813-5.128-15.019-8.865-20.586-.147-.147-.22-.366-.366-.513l-.146-.147c-.22 5.788 2.344 15.971 3.883 19.634a13.843 13.843 0 0 1 1.1 4.4c-.073-.147-.073-.22-.147-.366-1.1-3.15-2.784-6.081-3.81-9.3-.366-1.1-1.319-6.74-2.051-7.106a1.631 1.631 0 0 0-1.245-.22 1.164 1.164 0 0 0-.733.586c-.879 1.392-.806 4.469-.733 5.495.293 3.736 1.1 6.813.293 10.33a8.86 8.86 0 0 1-.366 1.319c-1.538 4.835-3.15 8.572-1.978 13.7.952 4.176 3.3 7.692 5.2 11.429a44.515 44.515 0 0 1 2.857 7.766c.147-.147.22-.293.366-.44 2.784-3.59 5.641-6.813 8.205-9.817-.44-1.026-.879-2.051-1.245-3.077a29.361 29.361 0 0 1-1.026-3.3z"/><path class="f" d="M39.064 27.46s-9.89-11.282-13.7 0 10.7 19.268 13.7 20.293 13.48-8.352 13.7-17.216c.146-8.791-10.916-6.374-13.7-3.077z"/></svg>