<svg xmlns="http://www.w3.org/2000/svg" viewBox="0 0 1360 900.77"><defs><clipPath id="a" transform="translate(-4.42 -2.92)"><path d="M690.51 217.57c25.33 48 26.59 106.12 28.74 160.29 1 24.16 0 64.83-8 87.69-16.73 5.73-40.42 7.3-59.84 2.47 5.09-45 12-106.28 8.33-151.46-.47-5.66-4.18-12.2-3.23-17.8.68-4 5.26-7.08 6.72-10.9 4.6-12.08-5.3-36.43-.72-48.52 4.07-10.7 28.27-24.07 28-21.77z" fill="#fa6142"/></clipPath><clipPath id="b" transform="translate(-4.42 -2.92)"><path d="M731.68 208.08s-6.89 4.36-13 9c-.58 2 .53 6.08 0 8.14q3.6 2.83 7.31 5.71c8.87 37.86 31.09 78.26 66.4 114q11.39 2.19 22.84 4.37a156 156 0 0 1-3.59-21.19c-36.13-32.77-61.74-68.47-76.63-101.92q.53-6.76 1.62-13.42c-1.14-.7-3.85-4.05-4.95-4.69z" fill="none"/></clipPath><clipPath id="c" transform="translate(-4.42 -2.92)"><path d="M967.27 70.62c-.13 1.3-9 8.9-12.18 17-3.39 8-7.38 12.14-11.16 16.29-.85 3.76 4.44 3.06 4.65 5.82.54 7.72-2.61 14.89-1.47 18 .51 1.77 1.95 2.41 3.42 2.72 5.83 1.24 11.56 3 11.5 10.92 0 4.17.14 10.71-2.78 12.65-4.87 3.23-14.9.75-22.81 1.54-26.56 2.73 31.16 26.49 59.85 24.54 38.87-2.65-6.61-4.92-6.83-23.3-.44-18.46 17.11-37.24 15.57-48.52-1.84-11.11-21.71-42.65-28.08-40.15-6.29 2.26-11.36 3.83-9.68 2.5z" fill="#99471f" clip-rule="evenodd"/></clipPath><clipPath id="d" transform="translate(-4.42 -2.92)"><path d="M992.33 488.82c-.17 22.49 9 43.06 24.81 61.47 23.79 27.79 116.12 1.72 209.3-8.1 19.46-2.05 69 14.32 76.19 6.74 4.16-4.57-13.19-11.21-30.12-19.27-12-5.7-23.63-14.29-27.76-13.75-10.09 1.32-12.74 7.79-22.79 7.79-45.35 1.06-105.33-5.68-152.21.71l-19.09 3.85c-4-27.47-5.22-51.07-5.22-51.07-19.34 5.22-48.8-7.05-53.11 11.63z" fill="#99471f" clip-rule="evenodd"/></clipPath><pattern id="e" width="266.89" height="266.89" patternTransform="matrix(.99 0 0 .99 57.81 50.89)" patternUnits="userSpaceOnUse" viewBox="0 0 266.89 266.89"><path fill="none" d="M0 0h266.89v266.89H0z"/><path fill="#ffdc40" d="M0 0h266.89v266.89H0z"/><path d="M32.59 36.86c-.38 1.89-1.38 5.31-4.32 6.55-5.27 2.23-9.22-7.31-9-7.5s1.28 0 1.85.47 2.85 4 2.85 4-.76-4.42-.52-5.08.86-.76 1.19-.14 1.8 4.93 1.8 4.93.29-4.17.72-4.84 1.09-.66 1.28.19.38 5 .38 5 2.23-5 2.75-5.32c1.38-.62 1.09 1.14 1 1.76z" fill="#fff" fill-rule="evenodd"/><path d="M26.7 46c.81-.95 3.71-4 6.51-3.65 3.23.33-1.09 3.7-6.51 3.89s-10-2.71-6.79-3.32c2.75-.53 5.89 2.23 6.79 3.08z" fill="#2bd69e" fill-rule="evenodd"/><path d="M51.47 22.76c-.38 1.9-1.38 5.32-4.33 6.55-5.27 2.23-9.21-7.31-9-7.5s1.28 0 1.85.47 2.85 4 2.85 4-.76-4.42-.52-5.08.85-.76 1.19-.14S45.34 26 45.34 26s.29-4.18.71-4.85 1.09-.66 1.28.19.38 5 .38 5 2.24-5 2.76-5.32c1.38-.62 1.09 1.14 1 1.76z" fill="#fff" fill-rule="evenodd"/><path d="M45.58 31.88c.81-.95 3.7-4 6.5-3.66 3.23.33-1.09 3.7-6.5 3.89s-10-2.7-6.79-3.32c2.75-.52 5.89 2.23 6.79 3.09z" fill="#2bd69e" fill-rule="evenodd"/><path d="M16.1 20.32c-.37 1.9-1.37 5.32-4.32 6.55-5.27 2.23-9.21-7.31-9-7.5s1.28.05 1.85.47 2.85 4 2.85 4-.73-4.42-.48-5.09.85-.76 1.18-.14S10 23.55 10 23.55s.28-4.18.71-4.85 1.09-.66 1.28.19.38 5 .38 5 2.24-5 2.76-5.32c1.37-.62 1.09 1.14 1 1.76z" fill="#fff" fill-rule="evenodd"/><path d="M10.22 29.44c.8-1 3.7-4 6.5-3.66 3.23.33-1.09 3.7-6.5 3.89s-10-2.7-6.8-3.32c2.76-.52 5.89 2.23 6.8 3.09z" fill="#2bd69e" fill-rule="evenodd"/><path d="M16.1 51.05c-.37 1.9-1.37 5.32-4.32 6.56-5.27 2.23-9.21-7.32-9-7.51s1.28 0 1.85.48 2.85 4 2.85 4-.73-4.43-.48-5.1.85-.76 1.18-.14S10 54.28 10 54.28s.28-4.18.71-4.84 1.09-.67 1.28.19.38 5 .38 5 2.24-5 2.76-5.32c1.37-.61 1.09 1.14 1 1.76z" fill="#fff" fill-rule="evenodd"/><path d="M10.22 60.17c.8-1 3.7-4 6.5-3.66 3.23.34-1.09 3.71-6.5 3.9s-10-2.71-6.8-3.33c2.76-.52 5.89 2.23 6.8 3.09z" fill="#2bd69e" fill-rule="evenodd"/><path d="M52.77 49.81c-.38 1.9-1.37 5.32-4.32 6.55-5.27 2.24-9.21-7.31-9-7.5s1.29 0 1.86.47 2.85 4 2.85 4-.76-4.41-.53-5.08.86-.76 1.19-.14S46.65 53 46.65 53s.28-4.18.71-4.85 1.09-.66 1.28.19.38 5 .38 5 2.23-5 2.76-5.32c1.37-.61 1.09 1.14 1 1.76z" fill="#fff" fill-rule="evenodd"/><path d="M46.88 58.93c.81-1 3.71-4 6.51-3.66 3.23.33-1.09 3.71-6.51 3.9s-10-2.71-6.79-3.33c2.76-.52 5.89 2.23 6.79 3.09z" fill="#2bd69e" fill-rule="evenodd"/><path d="M108.16 36.78c-.38 1.9-1.38 5.32-4.33 6.56-5.27 2.23-9.21-7.32-9-7.51s1.28.05 1.85.48 2.85 4 2.85 4-.76-4.42-.52-5.08.85-.76 1.18-.15S102 40 102 40s.28-4.18.71-4.84 1.09-.67 1.28.19.38 5 .38 5 2.24-5 2.76-5.32c1.38-.62 1.09 1.14 1 1.75z" fill="#fff" fill-rule="evenodd"/><path d="M102.27 45.9c.8-.95 3.7-4 6.5-3.65 3.23.33-1.09 3.7-6.5 3.89s-10-2.71-6.8-3.32c2.76-.53 5.89 2.23 6.8 3.08z" fill="#2bd69e" fill-rule="evenodd"/><path d="M127 22.69c-.38 1.9-1.38 5.31-4.32 6.55-5.27 2.23-9.21-7.31-9-7.5s1.29 0 1.86.47 2.85 4 2.85 4-.76-4.42-.53-5.08.86-.76 1.19-.14 1.81 4.94 1.81 4.94.28-4.18.71-4.85 1.09-.66 1.28.19.38 5 .38 5 2.23-5 2.75-5.32c1.38-.62 1.1 1.14 1 1.76z" fill="#fff" fill-rule="evenodd"/><path d="M121.14 31.8c.81-.95 3.71-4 6.51-3.65 3.23.33-1.09 3.7-6.51 3.89s-10-2.71-6.79-3.32c2.76-.53 5.89 2.23 6.79 3.08z" fill="#2bd69e" fill-rule="evenodd"/><path d="M91.67 20.25c-.38 1.9-1.38 5.32-4.32 6.55-5.27 2.23-9.22-7.31-9-7.5s1.28 0 1.85.47 2.85 4 2.85 4-.76-4.42-.52-5.08.86-.76 1.19-.14 1.8 4.94 1.8 4.94.29-4.18.72-4.85 1.09-.66 1.28.19.38 5 .38 5 2.23-5 2.75-5.32c1.38-.62 1.1 1.14 1 1.76z" fill="#fff" fill-rule="evenodd"/><path d="M85.78 29.37c.81-.95 3.71-4 6.51-3.66 3.23.33-1.09 3.7-6.51 3.89s-10-2.7-6.79-3.32c2.75-.52 5.89 2.23 6.79 3.09z" fill="#2bd69e" fill-rule="evenodd"/><path d="M199.52 22.76c-.38 1.9-1.38 5.32-4.32 6.55-5.27 2.23-9.22-7.31-9-7.5s1.28 0 1.85.47 2.85 4 2.85 4-.76-4.42-.52-5.08.86-.76 1.19-.14 1.8 4.94 1.8 4.94.29-4.18.72-4.85 1.09-.66 1.28.19.38 5 .38 5 2.23-5 2.75-5.32c1.38-.62 1.09 1.14 1 1.76z" fill="#fff" fill-rule="evenodd"/><path d="M193.63 31.88c.81-.95 3.7-4 6.51-3.66 3.23.33-1.1 3.7-6.51 3.89s-10-2.7-6.79-3.32c2.75-.52 5.89 2.23 6.79 3.09z" fill="#2bd69e" fill-rule="evenodd"/><path d="M164.16 20.32c-.38 1.9-1.38 5.32-4.32 6.55-5.28 2.23-9.22-7.31-9-7.5s1.28.05 1.85.47 2.85 4 2.85 4-.76-4.41-.52-5.08.85-.76 1.19-.14 1.8 4.94 1.8 4.94.29-4.18.71-4.85 1.1-.66 1.29.19.38 5 .38 5 2.23-5 2.75-5.32c1.38-.62 1.09 1.14 1 1.76z" fill="#fff" fill-rule="evenodd"/><path d="M158.27 29.44c.81-1 3.7-4 6.51-3.66 3.22.33-1.1 3.7-6.51 3.89s-10-2.7-6.79-3.32c2.75-.52 5.89 2.23 6.79 3.09z" fill="#2bd69e" fill-rule="evenodd"/><path d="M239.72 20.25c-.38 1.9-1.37 5.32-4.32 6.55-5.27 2.23-9.21-7.31-9-7.5s1.28 0 1.85.47 2.85 4 2.85 4-.76-4.42-.53-5.08.86-.76 1.19-.14 1.81 4.94 1.81 4.94.28-4.18.71-4.85 1.09-.66 1.28.19.38 5 .38 5 2.23-5 2.76-5.32c1.37-.62 1.09 1.14 1 1.76z" fill="#fff" fill-rule="evenodd"/><path d="M233.83 29.37c.81-.95 3.71-4 6.51-3.66 3.23.33-1.09 3.7-6.51 3.89s-10-2.7-6.79-3.32c2.76-.52 5.89 2.23 6.79 3.09z" fill="#2bd69e" fill-rule="evenodd"/><path d="M72 36.44c-.38 1.9-1.38 5.32-4.32 6.56-5.28 2.23-9.22-7.32-9-7.51s1.28 0 1.85.48 2.85 4 2.85 4-.76-4.42-.52-5.08.85-.76 1.19-.15 1.8 4.94 1.8 4.94.29-4.18.71-4.84 1.1-.67 1.29.19.38 5 .38 5 2.23-5 2.75-5.32c1.38-.62 1.09 1.14 1 1.75z" fill="#fff" fill-rule="evenodd"/><path d="M66.15 45.56c.81-1 3.7-4 6.51-3.65 3.23.33-1.1 3.7-6.51 3.89s-10-2.71-6.79-3.32c2.75-.53 5.89 2.23 6.79 3.08z" fill="#2bd69e" fill-rule="evenodd"/><path d="M144.59 36.86c-.38 1.89-1.38 5.31-4.32 6.55-5.27 2.23-9.22-7.31-9-7.5s1.28 0 1.85.47 2.85 4 2.85 4-.76-4.42-.52-5.08.86-.76 1.19-.14 1.8 4.93 1.8 4.93.29-4.17.72-4.84 1.09-.66 1.28.19.38 5 .38 5 2.23-5 2.75-5.32c1.38-.62 1.09 1.14 1 1.76z" fill="#fff" fill-rule="evenodd"/><path d="M138.7 46c.81-.95 3.71-4 6.51-3.65 3.23.33-1.09 3.7-6.51 3.89s-10-2.71-6.79-3.32c2.75-.53 5.89 2.23 6.79 3.08z" fill="#2bd69e" fill-rule="evenodd"/><path d="M220.16 36.78c-.38 1.9-1.38 5.32-4.33 6.56-5.27 2.23-9.21-7.32-9-7.51s1.28.05 1.85.48 2.85 4 2.85 4-.76-4.42-.52-5.08.85-.76 1.18-.15S214 40 214 40s.28-4.18.71-4.84 1.09-.67 1.28.19.38 5 .38 5 2.24-5 2.76-5.32c1.38-.62 1.09 1.14 1 1.75z" fill="#fff" fill-rule="evenodd"/><path d="M214.27 45.9c.8-.95 3.7-4 6.5-3.65 3.23.33-1.09 3.7-6.5 3.89s-10-2.71-6.8-3.32c2.76-.53 5.89 2.23 6.8 3.08z" fill="#2bd69e" fill-rule="evenodd"/><path d="M184 36.44c-.38 1.9-1.38 5.32-4.32 6.56-5.28 2.23-9.22-7.32-9-7.51s1.28 0 1.85.48 2.85 4 2.85 4-.76-4.42-.52-5.08.85-.76 1.19-.15 1.8 4.94 1.8 4.94.29-4.18.71-4.84 1.1-.67 1.29.19.38 5 .38 5 2.23-5 2.75-5.32c1.38-.62 1.09 1.14 1 1.75z" fill="#fff" fill-rule="evenodd"/><path d="M178.15 45.56c.81-1 3.7-4 6.51-3.65 3.23.33-1.1 3.7-6.51 3.89s-10-2.71-6.79-3.32c2.75-.53 5.89 2.23 6.79 3.08z" fill="#2bd69e" fill-rule="evenodd"/><path d="M32.59 3.26c-.38 1.9-1.38 5.32-4.32 6.56-5.27 2.23-9.22-7.32-9-7.51s1.28 0 1.85.48 2.85 4 2.85 4-.76-4.42-.52-5.08.86-.76 1.19-.15 1.8 4.94 1.8 4.94.29-4.18.72-4.84 1.09-.67 1.28.19.38 5 .38 5 2.23-5 2.75-5.31c1.38-.62 1.09 1.14 1 1.75z" fill="#fff" fill-rule="evenodd"/><path d="M26.7 12.38c.81-1 3.71-4 6.51-3.66 3.23.34-1.09 3.71-6.51 3.9s-10-2.71-6.79-3.33c2.75-.52 5.89 2.24 6.79 3.09z" fill="#2bd69e" fill-rule="evenodd"/><path d="M108.16 3.19c-.38 1.9-1.38 5.32-4.33 6.56-5.27 2.23-9.21-7.32-9-7.51s1.28 0 1.85.48 2.85 4 2.85 4-.73-4.43-.53-5.1.85-.75 1.18-.14S102 6.42 102 6.42s.28-4.18.71-4.84 1.09-.67 1.28.19.38 5 .38 5 2.24-5 2.76-5.32c1.38-.61 1.09 1.14 1 1.76z" fill="#fff" fill-rule="evenodd"/><path d="M102.27 12.31c.8-1 3.7-4 6.5-3.66 3.23.34-1.09 3.71-6.5 3.9s-10-2.71-6.8-3.33c2.76-.52 5.89 2.24 6.8 3.09z" fill="#2bd69e" fill-rule="evenodd"/><path d="M72 2.85c-.38 1.9-1.38 5.32-4.32 6.56-5.28 2.23-9.22-7.32-9-7.51s1.32.1 1.91.48 2.85 4 2.85 4-.76-4.38-.52-5.1.85-.75 1.19-.14 1.8 4.94 1.8 4.94.29-4.18.71-4.84 1.1-.67 1.29.19.38 5 .38 5 2.23-5 2.75-5.32c1.38-.61 1.09 1.14 1 1.76z" fill="#fff" fill-rule="evenodd"/><path d="M66.15 12c.81-1 3.7-4 6.51-3.66 3.23.34-1.1 3.71-6.51 3.9s-10-2.71-6.79-3.33c2.75-.52 5.89 2.24 6.79 3.09z" fill="#2bd69e" fill-rule="evenodd"/><path d="M142.59 3.26c-.38 1.9-1.38 5.32-4.32 6.56-5.27 2.23-9.22-7.32-9-7.51s1.28 0 1.85.48 2.85 4 2.85 4-.76-4.42-.52-5.08.86-.76 1.19-.15 1.8 4.94 1.8 4.94.29-4.18.72-4.84 1.09-.67 1.28.19.38 5 .38 5 2.23-5 2.75-5.31c1.38-.62 1.09 1.14 1 1.75z" fill="#fff" fill-rule="evenodd"/><path d="M136.7 12.38c.81-1 3.71-4 6.51-3.66 3.23.34-1.09 3.71-6.51 3.9s-10-2.71-6.79-3.33c2.75-.52 5.89 2.24 6.79 3.09z" fill="#2bd69e" fill-rule="evenodd"/><path d="M218.16 3.19c-.38 1.9-1.38 5.32-4.33 6.56-5.27 2.23-9.21-7.32-9-7.51s1.28 0 1.85.48 2.85 4 2.85 4-.76-4.42-.52-5.09.85-.75 1.18-.14S212 6.42 212 6.42s.28-4.18.71-4.84 1.09-.67 1.28.19.38 5 .38 5 2.24-5 2.76-5.32c1.38-.61 1.09 1.14 1 1.76z" fill="#fff" fill-rule="evenodd"/><path d="M212.27 12.31c.8-1 3.7-4 6.5-3.66 3.23.34-1.09 3.71-6.5 3.9s-10-2.71-6.8-3.33c2.76-.52 5.89 2.24 6.8 3.09z" fill="#2bd69e" fill-rule="evenodd"/><path d="M182 2.85c-.38 1.9-1.38 5.32-4.32 6.56-5.28 2.23-9.22-7.32-9-7.51s1.28.05 1.85.48 2.85 4 2.85 4-.76-4.42-.52-5.09.85-.75 1.19-.14 1.8 4.94 1.8 4.94.29-4.18.71-4.84 1.1-.67 1.29.19.38 5 .38 5 2.23-5 2.75-5.32c1.38-.61 1.09 1.14 1 1.76z" fill="#fff" fill-rule="evenodd"/><path d="M176.15 12c.81-1 3.7-4 6.51-3.66 3.23.34-1.1 3.71-6.51 3.9s-10-2.71-6.79-3.33c2.75-.52 5.89 2.24 6.79 3.09z" fill="#2bd69e" fill-rule="evenodd"/><path d="M91.67 51c-.38 1.9-1.38 5.32-4.32 6.55-5.27 2.24-9.22-7.31-9-7.5s1.28 0 1.85.48 2.85 4 2.85 4-.76-4.41-.52-5.08.86-.76 1.19-.14 1.8 4.94 1.8 4.94.29-4.18.72-4.84 1.09-.67 1.28.19.38 5 .38 5 2.23-5 2.75-5.32c1.38-.61 1.1 1.14 1 1.76z" fill="#fff" fill-rule="evenodd"/><path d="M85.78 60.1c.81-1 3.71-4 6.51-3.66 3.23.33-1.09 3.71-6.51 3.9S75.81 57.63 79 57c2.75-.52 5.89 2.23 6.79 3.09z" fill="#2bd69e" fill-rule="evenodd"/><path d="M165.44 51.05c-.38 1.9-1.38 5.32-4.32 6.56-5.28 2.23-9.22-7.32-9-7.51s1.28 0 1.85.48 2.85 4 2.85 4-.76-4.42-.52-5.09.85-.76 1.19-.14 1.8 4.94 1.8 4.94.29-4.18.71-4.84 1.1-.67 1.29.19.38 5 .38 5 2.23-5 2.75-5.32c1.38-.61 1.09 1.14 1 1.76z" fill="#fff" fill-rule="evenodd"/><path d="M159.55 60.17c.81-1 3.7-4 6.51-3.66 3.23.34-1.1 3.71-6.51 3.9s-10-2.71-6.79-3.33c2.75-.52 5.89 2.23 6.79 3.09z" fill="#2bd69e" fill-rule="evenodd"/><path d="M202.11 49.81c-.38 1.9-1.38 5.32-4.33 6.55-5.27 2.24-9.21-7.31-9-7.5s1.28 0 1.85.47 2.85 4 2.85 4-.76-4.41-.52-5.08.85-.76 1.18-.14S196 53 196 53s.28-4.18.71-4.85 1.09-.66 1.28.19.38 5 .38 5 2.24-5 2.76-5.32c1.38-.61 1.09 1.14 1 1.76z" fill="#fff" fill-rule="evenodd"/><path d="M196.22 58.93c.8-1 3.7-4 6.5-3.66 3.23.33-1.09 3.71-6.5 3.9s-10-2.71-6.79-3.33c2.75-.52 5.88 2.23 6.79 3.09z" fill="#2bd69e" fill-rule="evenodd"/><path d="M241 51c-.38 1.9-1.37 5.32-4.32 6.55-5.27 2.24-9.21-7.31-9-7.5s1.28 0 1.85.48 2.85 4 2.85 4-.76-4.41-.52-5.08.85-.76 1.18-.14 1.81 4.94 1.81 4.94.28-4.18.71-4.84 1.09-.67 1.28.19.38 5 .38 5 2.23-5 2.76-5.32c1.37-.61 1.09 1.14 1 1.76z" fill="#fff" fill-rule="evenodd"/><path d="M235.11 60.1c.81-1 3.71-4 6.51-3.66 3.23.33-1.09 3.71-6.51 3.9s-10-2.71-6.79-3.33c2.76-.52 5.89 2.23 6.79 3.09z" fill="#2bd69e" fill-rule="evenodd"/><path d="M128.34 49.74c-.38 1.9-1.38 5.32-4.32 6.55-5.28 2.24-9.22-7.31-9-7.5s1.28.05 1.85.47 2.85 4 2.85 4-.76-4.41-.52-5.08.85-.76 1.19-.14 1.8 4.94 1.8 4.94.29-4.18.71-4.85 1.1-.66 1.29.19.38 5 .38 5 2.23-5 2.75-5.32c1.38-.62 1.09 1.14 1 1.76z" fill="#fff" fill-rule="evenodd"/><path d="M122.45 58.86c.81-1 3.7-4 6.5-3.66 3.23.33-1.09 3.71-6.5 3.89s-10-2.7-6.79-3.32c2.75-.52 5.89 2.23 6.79 3.09z" fill="#2bd69e" fill-rule="evenodd"/><path d="M35.2 99.05c-.38 1.9-1.38 5.32-4.33 6.56-5.27 2.23-9.21-7.32-9-7.51s1.28.05 1.85.48 2.85 4 2.85 4-.76-4.42-.52-5.09.85-.76 1.18-.14 1.81 4.94 1.81 4.94.28-4.18.71-4.84 1.09-.67 1.28.19.38 5 .38 5 2.24-5 2.76-5.32c1.38-.61 1.09 1.14 1 1.76z" fill="#fff" fill-rule="evenodd"/><path d="M29.31 108.17c.8-1 3.7-4 6.5-3.66 3.23.34-1.09 3.71-6.5 3.9s-10-2.71-6.8-3.33c2.76-.52 5.89 2.23 6.8 3.09z" fill="#2bd69e" fill-rule="evenodd"/><path d="M54.07 85c-.38 1.9-1.37 5.32-4.32 6.56-5.27 2.23-9.21-7.32-9-7.51s1.29 0 1.86.48 2.85 4 2.85 4-.76-4.42-.53-5.08.86-.76 1.19-.15S48 88.18 48 88.18s.28-4.18.71-4.84 1.09-.67 1.28.19.38 5 .38 5 2.23-5 2.76-5.31c1.37-.62 1.09 1.14 1 1.75z" fill="#fff" fill-rule="evenodd"/><path d="M48.18 94.07c.81-.95 3.71-4 6.51-3.66 3.23.34-1.09 3.71-6.51 3.9s-10-2.71-6.79-3.33c2.76-.52 5.89 2.24 6.79 3.09z" fill="#2bd69e" fill-rule="evenodd"/><path d="M18.71 82.51c-.38 1.9-1.38 5.32-4.32 6.56-5.27 2.23-9.21-7.32-9-7.51s1.28 0 1.85.48 2.85 4 2.85 4-.74-4.43-.5-5.04.86-.76 1.19-.15 1.8 4.94 1.8 4.94.29-4.18.72-4.84 1.09-.67 1.28.19.38 5 .38 5 2.23-5 2.75-5.32c1.38-.62 1.1 1.14 1 1.75z" fill="#fff" fill-rule="evenodd"/><path d="M12.82 91.63c.81-.95 3.71-4 6.51-3.65 3.23.33-1.09 3.7-6.51 3.89S2.85 89.16 6 88.55c2.75-.53 5.89 2.23 6.79 3.08z" fill="#2bd69e" fill-rule="evenodd"/><path d="M110.76 99c-.38 1.9-1.38 5.32-4.32 6.55-5.27 2.24-9.21-7.31-9-7.5s1.29 0 1.85.48 2.85 4 2.85 4-.76-4.41-.52-5.08.86-.76 1.19-.14 1.8 4.94 1.8 4.94.29-4.18.72-4.84 1.09-.67 1.28.19.38 5 .38 5 2.23-5 2.75-5.32c1.38-.61 1.1 1.14 1 1.76z" fill="#fff" fill-rule="evenodd"/><path d="M104.87 108.1c.81-.95 3.71-4 6.51-3.66 3.23.33-1.09 3.71-6.51 3.9s-10-2.71-6.79-3.33c2.75-.52 5.89 2.23 6.79 3.09z" fill="#2bd69e" fill-rule="evenodd"/><path d="M130.25 82.51c-.38 1.9-1.38 5.32-4.32 6.56-5.28 2.23-9.22-7.32-9-7.51s1.28 0 1.85.48 2.85 4 2.85 4-.76-4.42-.52-5.08.85-.76 1.19-.15 1.8 4.94 1.8 4.94.29-4.18.71-4.84 1.1-.67 1.29.19.38 5 .38 5 2.23-5 2.75-5.32c1.38-.62 1.09 1.14 1 1.75z" fill="#fff" fill-rule="evenodd"/><path d="M123.75 94c.81-1 3.7-4 6.5-3.66 3.23.34-1.09 3.71-6.5 3.9s-10-2.71-6.79-3.33c2.75-.52 5.89 2.24 6.79 3.09z" fill="#2bd69e" fill-rule="evenodd"/><path d="M94.28 82.44C93.9 84.34 92.9 87.76 90 89c-5.27 2.23-9.21-7.32-9-7.51s1.28.05 1.85.48 2.85 4 2.85 4-.76-4.42-.52-5.08.85-.76 1.18-.15 1.81 4.94 1.81 4.94.28-4.18.71-4.84 1.09-.67 1.28.19.38 5 .38 5 2.24-5 2.76-5.31c1.38-.62 1.09 1.14 1 1.75z" fill="#fff" fill-rule="evenodd"/><path d="M88.39 91.56c.8-1 3.7-4 6.5-3.66 3.23.34-1.09 3.71-6.5 3.9s-10-2.71-6.79-3.33c2.75-.52 5.88 2.24 6.79 3.09z" fill="#2bd69e" fill-rule="evenodd"/><path d="M200.48 85c-.38 1.9-1.38 5.32-4.32 6.56-5.28 2.23-9.22-7.32-9-7.51s1.28 0 1.85.48 2.85 4 2.85 4-.76-4.42-.52-5.08.85-.76 1.19-.15 1.8 4.94 1.8 4.94.29-4.18.71-4.84 1.1-.67 1.29.19.38 5 .38 5 2.23-5 2.75-5.31c1.38-.62 1.09 1.14 1 1.75z" fill="#fff" fill-rule="evenodd"/><path d="M194.59 94.07c.81-.95 3.7-4 6.51-3.66 3.23.34-1.1 3.71-6.51 3.9s-10-2.71-6.79-3.33c2.75-.52 5.89 2.24 6.79 3.09z" fill="#2bd69e" fill-rule="evenodd"/><path d="M165.12 82.51c-.38 1.9-1.38 5.32-4.33 6.56-5.27 2.23-9.21-7.32-9-7.51s1.28 0 1.85.48 2.85 4 2.85 4-.76-4.42-.52-5.08.85-.76 1.19-.15 1.8 4.94 1.8 4.94.28-4.18.71-4.84 1.09-.67 1.28.19.38 5 .38 5 2.24-5 2.76-5.32c1.38-.62 1.09 1.14 1 1.75z" fill="#fff" fill-rule="evenodd"/><path d="M159.23 91.63c.8-.95 3.7-4 6.5-3.65 3.23.33-1.09 3.7-6.5 3.89s-10-2.71-6.79-3.32c2.75-.53 5.89 2.23 6.79 3.08z" fill="#2bd69e" fill-rule="evenodd"/><path d="M240.68 82.44c-.38 1.9-1.38 5.32-4.32 6.56-5.27 2.23-9.21-7.32-9-7.51s1.29.05 1.86.48 2.85 4 2.85 4-.76-4.42-.53-5.08.86-.76 1.19-.15 1.81 4.94 1.81 4.94.28-4.18.71-4.84 1.09-.67 1.28.19.38 5 .38 5 2.23-5 2.75-5.31c1.38-.62 1.1 1.14 1 1.75z" fill="#fff" fill-rule="evenodd"/><path d="M234.79 91.56c.81-1 3.71-4 6.51-3.66 3.23.34-1.09 3.71-6.51 3.9s-10-2.71-6.79-3.33c2.76-.52 5.89 2.24 6.79 3.09z" fill="#2bd69e" fill-rule="evenodd"/><path d="M74.64 98.64c-.38 1.9-1.37 5.32-4.32 6.55-5.27 2.24-9.21-7.31-9-7.5s1.28 0 1.85.48 2.85 4 2.85 4-.76-4.41-.52-5.08.85-.76 1.18-.14 1.81 4.94 1.81 4.94.28-4.18.71-4.84 1.09-.67 1.28.19.38 5 .38 5 2.23-5 2.76-5.32c1.37-.61 1.09 1.14 1 1.76z" fill="#fff" fill-rule="evenodd"/><path d="M68.75 107.76c.81-1 3.71-4 6.51-3.66 3.23.33-1.09 3.71-6.51 3.9s-10-2.71-6.79-3.33c2.76-.52 5.89 2.23 6.79 3.09z" fill="#2bd69e" fill-rule="evenodd"/><path d="M145.41 99.05c-.38 1.9-1.37 5.32-4.32 6.56-5.27 2.23-9.21-7.32-9-7.51s1.28.05 1.85.48 2.85 4 2.85 4-.76-4.42-.52-5.09.85-.76 1.18-.14 1.81 4.94 1.81 4.94.28-4.18.71-4.84 1.09-.67 1.28.19.38 5 .38 5 2.23-5 2.76-5.32c1.37-.61 1.09 1.14 1 1.76z" fill="#fff" fill-rule="evenodd"/><path d="M139.52 108.17c.81-1 3.71-4 6.51-3.66 3.23.34-1.09 3.71-6.51 3.9s-10-2.71-6.79-3.33c2.76-.52 5.89 2.23 6.79 3.09z" fill="#2bd69e" fill-rule="evenodd"/><path d="M221 99c-.38 1.9-1.38 5.32-4.32 6.55-5.27 2.24-9.22-7.31-9-7.5s1.28 0 1.85.48 2.85 4 2.85 4-.76-4.41-.52-5.08.86-.76 1.19-.14 1.8 4.94 1.8 4.94.29-4.18.72-4.84 1.09-.67 1.28.19.38 5 .38 5 2.23-5 2.75-5.32c1.38-.61 1.09 1.14 1 1.76z" fill="#fff" fill-rule="evenodd"/><path d="M215.09 108.1c.81-.95 3.7-4 6.51-3.66 3.23.33-1.1 3.71-6.51 3.9s-10-2.71-6.79-3.33c2.75-.52 5.89 2.23 6.79 3.09z" fill="#2bd69e" fill-rule="evenodd"/><path d="M184.86 98.64c-.38 1.9-1.37 5.32-4.32 6.55-5.27 2.24-9.21-7.31-9-7.5s1.29 0 1.86.48 2.85 4 2.85 4-.76-4.41-.53-5.08.86-.76 1.19-.14 1.81 4.94 1.81 4.94.28-4.18.71-4.84 1.09-.67 1.28.19.38 5 .38 5 2.23-5 2.76-5.32c1.37-.61 1.09 1.14 1 1.76z" fill="#fff" fill-rule="evenodd"/><path d="M179 107.76c.81-1 3.71-4 6.51-3.66 3.23.33-1.09 3.71-6.51 3.9s-10-2.71-6.79-3.33c2.76-.52 5.89 2.23 6.79 3.09z" fill="#2bd69e" fill-rule="evenodd"/><path d="M35.2 65.46c-.38 1.9-1.38 5.32-4.33 6.55-5.27 2.24-9.21-7.31-9-7.5s1.28 0 1.85.47 2.85 4 2.85 4-.76-4.41-.52-5.08.85-.76 1.18-.14 1.81 4.94 1.81 4.94.28-4.18.71-4.85 1.09-.66 1.28.19.38 5 .38 5 2.24-5 2.76-5.32c1.38-.62 1.09 1.14 1 1.76z" fill="#fff" fill-rule="evenodd"/><path d="M29.31 74.58c.8-1 3.7-4 6.5-3.66 3.23.33-1.09 3.71-6.5 3.9s-10-2.71-6.8-3.33c2.76-.52 5.89 2.23 6.8 3.09z" fill="#2bd69e" fill-rule="evenodd"/><path d="M110.76 65.39c-.38 1.9-1.38 5.32-4.32 6.55-5.27 2.23-9.21-7.31-9-7.5s1.29 0 1.85.47 2.85 4 2.85 4-.76-4.41-.52-5.08.86-.76 1.19-.14 1.8 4.94 1.8 4.94.29-4.18.72-4.85 1.09-.66 1.28.19.38 5 .38 5 2.23-5 2.75-5.32c1.38-.62 1.1 1.14 1 1.76z" fill="#fff" fill-rule="evenodd"/><path d="M104.87 74.51c.81-1 3.71-4 6.51-3.66 3.23.33-1.09 3.7-6.51 3.89s-10-2.7-6.79-3.32c2.75-.52 5.89 2.23 6.79 3.09z" fill="#2bd69e" fill-rule="evenodd"/><path d="M74.64 65.05c-.38 1.9-1.37 5.32-4.32 6.55-5.27 2.23-9.21-7.31-9-7.5s1.28.05 1.85.47 2.85 4 2.85 4-.76-4.41-.52-5.08.85-.76 1.18-.14 1.81 4.94 1.81 4.94.28-4.18.71-4.85 1.09-.66 1.28.19.38 5 .38 5 2.23-5 2.76-5.32c1.37-.62 1.09 1.14 1 1.76z" fill="#fff" fill-rule="evenodd"/><path d="M68.75 74.17c.81-1 3.71-4 6.51-3.66 3.23.33-1.09 3.7-6.51 3.89s-10-2.7-6.79-3.32c2.76-.52 5.89 2.23 6.79 3.09z" fill="#2bd69e" fill-rule="evenodd"/><path d="M144.53 65.46c-.38 1.9-1.38 5.32-4.32 6.55-5.27 2.24-9.22-7.31-9-7.5s1.28 0 1.85.47 2.85 4 2.85 4-.76-4.41-.52-5.08.85-.76 1.19-.14 1.8 4.94 1.8 4.94.29-4.18.71-4.85 1.1-.66 1.29.19.38 5 .38 5 2.23-5 2.75-5.32c1.38-.62 1.09 1.14 1 1.76z" fill="#fff" fill-rule="evenodd"/><path d="M138.64 74.58c.81-1 3.7-4 6.51-3.66 3.23.33-1.1 3.71-6.51 3.9s-10-2.71-6.79-3.33c2.75-.52 5.89 2.23 6.79 3.09z" fill="#2bd69e" fill-rule="evenodd"/><path d="M220.09 65.39c-.38 1.9-1.37 5.32-4.32 6.55-5.27 2.23-9.21-7.31-9-7.5s1.28 0 1.85.47 2.85 4 2.85 4-.76-4.41-.52-5.08.85-.76 1.18-.14 1.87 4.93 1.87 4.93.28-4.18.71-4.85 1.09-.66 1.28.19.38 5 .38 5 2.23-5 2.76-5.32c1.37-.62 1.09 1.14 1 1.76z" fill="#fff" fill-rule="evenodd"/><path d="M214.2 74.51c.81-1 3.71-4 6.51-3.66 3.23.33-1.09 3.7-6.51 3.89s-10-2.7-6.79-3.32c2.76-.52 5.89 2.23 6.79 3.09z" fill="#2bd69e" fill-rule="evenodd"/><path d="M184 65.05c-.38 1.9-1.38 5.32-4.32 6.55-5.28 2.23-9.22-7.31-9-7.5s1.28.05 1.85.47 2.85 4 2.85 4-.76-4.41-.52-5.08.85-.76 1.19-.14 1.8 4.94 1.8 4.94.29-4.18.71-4.85 1.1-.66 1.29.19.38 5 .38 5 2.23-5 2.75-5.32c1.38-.62 1.09 1.14 1 1.76z" fill="#fff" fill-rule="evenodd"/><path d="M178.09 74.17c.81-1 3.7-4 6.5-3.66 3.23.33-1.09 3.7-6.5 3.89s-10-2.7-6.79-3.32c2.75-.52 5.89 2.23 6.79 3.09z" fill="#2bd69e" fill-rule="evenodd"/><path d="M53.93 117.8c-.38 1.9-1.37 5.32-4.32 6.55-5.27 2.23-9.21-7.31-9-7.5s1.29.05 1.86.47 2.85 4 2.85 4-.76-4.41-.53-5.08.86-.76 1.19-.14 1.83 4.9 1.83 4.9.28-4.18.71-4.85 1.09-.66 1.28.19.38 5 .38 5 2.23-5 2.76-5.32c1.37-.62 1.09 1.14 1 1.76z" fill="#fff" fill-rule="evenodd"/><path d="M48 126.92c.81-1 3.71-4 6.51-3.66 3.23.33-1.09 3.7-6.51 3.89s-10-2.7-6.79-3.32c2.76-.52 5.89 2.23 6.79 3.09z" fill="#2bd69e" fill-rule="evenodd"/><path d="M18.57 115.36c-.38 1.9-1.38 5.32-4.32 6.55-5.27 2.24-9.21-7.31-9-7.5s1.28 0 1.85.47 2.85 4 2.85 4-.76-4.41-.52-5.08.86-.76 1.19-.14 1.8 4.94 1.8 4.94.29-4.18.72-4.85 1.09-.66 1.28.19.38 5 .38 5 2.23-5 2.75-5.32c1.38-.62 1.1 1.14 1 1.76z" fill="#fff" fill-rule="evenodd"/><path d="M12.68 124.48c.81-1 3.71-4 6.51-3.66 3.23.33-1.09 3.71-6.51 3.9s-10-2.71-6.79-3.33c2.75-.52 5.89 2.23 6.79 3.09z" fill="#2bd69e" fill-rule="evenodd"/><path d="M130.11 115.36c-.38 1.9-1.38 5.32-4.32 6.55-5.28 2.24-9.22-7.31-9-7.5s1.28 0 1.85.47 2.85 4 2.85 4-.76-4.41-.52-5.08.85-.76 1.19-.14 1.8 4.94 1.8 4.94.29-4.18.71-4.85 1.1-.66 1.29.19.38 5 .38 5 2.23-5 2.75-5.32c1.38-.62 1.09 1.14 1 1.76z" fill="#fff" fill-rule="evenodd"/><path d="M123.61 126.85c.81-.95 3.7-4 6.5-3.66 3.23.33-1.09 3.7-6.5 3.89s-10-2.7-6.79-3.32c2.75-.52 5.89 2.23 6.79 3.09z" fill="#2bd69e" fill-rule="evenodd"/><path d="M94.14 115.29c-.38 1.9-1.38 5.32-4.33 6.55-5.27 2.23-9.21-7.31-9-7.5s1.28 0 1.85.47 2.85 4 2.85 4-.76-4.41-.52-5.08.85-.76 1.18-.14 1.83 4.93 1.83 4.93.28-4.18.71-4.85 1.09-.66 1.28.19.38 5 .38 5 2.24-5 2.76-5.32c1.38-.62 1.09 1.14 1 1.76z" fill="#fff" fill-rule="evenodd"/><path d="M88.25 124.41c.8-1 3.7-4 6.5-3.66 3.23.33-1.09 3.7-6.5 3.89s-10-2.7-6.79-3.32c2.75-.52 5.88 2.23 6.79 3.09z" fill="#2bd69e" fill-rule="evenodd"/><path d="M202 117.8c-.38 1.9-1.38 5.32-4.32 6.55-5.27 2.23-9.22-7.31-9-7.5s1.28.05 1.85.47 2.85 4 2.85 4-.76-4.41-.52-5.08.86-.76 1.19-.14 1.8 4.94 1.8 4.94.29-4.18.71-4.85 1.1-.66 1.29.19.38 5 .38 5 2.23-5 2.75-5.32c1.38-.62 1.09 1.14 1 1.76z" fill="#fff" fill-rule="evenodd"/><path d="M196.06 126.92c.81-1 3.7-4 6.51-3.66 3.23.33-1.1 3.7-6.51 3.89s-10-2.7-6.79-3.32c2.75-.52 5.89 2.23 6.79 3.09z" fill="#2bd69e" fill-rule="evenodd"/><path d="M166.59 115.36c-.38 1.9-1.38 5.32-4.32 6.55-5.28 2.24-9.22-7.31-9-7.5s1.28 0 1.85.47 2.85 4 2.85 4-.76-4.41-.52-5.08.85-.76 1.19-.14 1.8 4.94 1.8 4.94.29-4.18.71-4.85 1.1-.66 1.29.19.38 5 .38 5 2.23-5 2.75-5.32c1.38-.62 1.09 1.14 1 1.76z" fill="#fff" fill-rule="evenodd"/><path d="M160.7 124.48c.81-1 3.7-4 6.5-3.66 3.23.33-1.09 3.71-6.5 3.9s-10-2.71-6.79-3.33c2.75-.52 5.89 2.23 6.79 3.09z" fill="#2bd69e" fill-rule="evenodd"/><path d="M242.15 115.29c-.38 1.9-1.37 5.32-4.32 6.55-5.27 2.23-9.21-7.31-9-7.5s1.29 0 1.86.47 2.85 4 2.85 4-.76-4.41-.53-5.08.86-.76 1.19-.14 1.81 4.94 1.81 4.94.28-4.18.71-4.85 1.09-.66 1.28.19.38 5 .38 5 2.23-5 2.76-5.32c1.37-.62 1.09 1.14 1 1.76z" fill="#fff" fill-rule="evenodd"/><path d="M236.26 124.41c.81-1 3.71-4 6.51-3.66 3.23.33-1.09 3.7-6.51 3.89s-10-2.7-6.79-3.32c2.76-.52 5.89 2.23 6.79 3.09z" fill="#2bd69e" fill-rule="evenodd"/><path d="M35.2 170.07c-.38 1.9-1.38 5.32-4.33 6.56-5.27 2.23-9.21-7.32-9-7.51s1.28 0 1.85.48 2.85 4 2.85 4-.76-4.42-.52-5.09.85-.76 1.18-.14 1.81 4.94 1.81 4.94.28-4.18.71-4.84 1.09-.67 1.28.19.38 5 .38 5 2.24-5 2.76-5.32c1.38-.61 1.09 1.14 1 1.76z" fill="#fff" fill-rule="evenodd"/><path d="M29.31 179.19c.8-.95 3.7-4 6.5-3.66 3.23.34-1.09 3.71-6.5 3.9s-10-2.71-6.8-3.33c2.76-.52 5.89 2.24 6.8 3.09z" fill="#2bd69e" fill-rule="evenodd"/><path d="M54.07 156c-.38 1.9-1.37 5.32-4.32 6.56-5.27 2.23-9.21-7.32-9-7.51s1.29 0 1.86.48 2.85 4 2.85 4-.76-4.42-.53-5.08.86-.76 1.19-.15 1.88 4.9 1.88 4.9.28-4.18.71-4.84 1.09-.67 1.28.19.38 5 .38 5 2.23-5 2.76-5.32c1.37-.62 1.09 1.14 1 1.75z" fill="#fff" fill-rule="evenodd"/><path d="M48.18 165.09c.81-1 3.71-4 6.51-3.65 3.23.33-1.09 3.7-6.51 3.89s-10-2.71-6.79-3.32c2.76-.53 5.89 2.23 6.79 3.08z" fill="#2bd69e" fill-rule="evenodd"/><path d="M18.71 153.53c-.38 1.9-1.38 5.32-4.32 6.56-5.27 2.23-9.21-7.32-9-7.51s1.28 0 1.85.48 2.85 4 2.85 4-.76-4.42-.52-5.08.86-.76 1.19-.15 1.8 4.94 1.8 4.94.29-4.18.72-4.84 1.09-.67 1.28.19.38 5 .38 5 2.23-5 2.75-5.32c1.38-.62 1.1 1.14 1 1.75z" fill="#fff" fill-rule="evenodd"/><path d="M12.82 162.65c.81-1 3.71-4 6.51-3.65 3.23.33-1.09 3.7-6.51 3.89s-10-2.71-6.79-3.32c2.75-.53 5.89 2.23 6.79 3.08z" fill="#2bd69e" fill-rule="evenodd"/><path d="M110.76 170c-.38 1.9-1.38 5.32-4.32 6.56-5.27 2.23-9.21-7.32-9-7.51s1.29 0 1.85.48 2.85 4 2.85 4-.76-4.42-.52-5.09.86-.76 1.19-.14 1.8 4.94 1.8 4.94.29-4.18.72-4.84 1.09-.67 1.28.19.38 5 .38 5 2.23-5 2.75-5.32c1.38-.61 1.1 1.14 1 1.76z" fill="#fff" fill-rule="evenodd"/><path d="M104.87 179.12c.81-1 3.71-4 6.51-3.66 3.23.34-1.09 3.71-6.51 3.9s-10-2.71-6.79-3.33c2.75-.52 5.89 2.23 6.79 3.09z" fill="#2bd69e" fill-rule="evenodd"/><path d="M130.25 153.53c-.38 1.9-1.38 5.32-4.32 6.56-5.28 2.23-9.22-7.32-9-7.51s1.28 0 1.85.48 2.85 4 2.85 4-.76-4.42-.52-5.08.85-.76 1.19-.15 1.8 4.94 1.8 4.94.29-4.18.71-4.84 1.1-.67 1.29.19.38 5 .38 5 2.23-5 2.75-5.32c1.38-.62 1.09 1.14 1 1.75z" fill="#fff" fill-rule="evenodd"/><path d="M123.75 165c.81-1 3.7-4 6.5-3.66 3.23.34-1.09 3.71-6.5 3.9s-10-2.71-6.79-3.33c2.75-.52 5.89 2.24 6.79 3.09z" fill="#2bd69e" fill-rule="evenodd"/><path d="M94.28 153.46c-.38 1.9-1.38 5.32-4.33 6.56-5.27 2.23-9.21-7.32-9-7.51s1.28.05 1.85.48 2.85 4 2.85 4-.76-4.42-.52-5.08.85-.76 1.18-.15 1.81 4.94 1.81 4.94.28-4.18.71-4.84 1.09-.67 1.28.19.38 5 .38 5 2.24-5 2.76-5.32c1.38-.62 1.09 1.14 1 1.75z" fill="#fff" fill-rule="evenodd"/><path d="M88.39 162.58c.8-1 3.7-4 6.5-3.65 3.23.33-1.09 3.7-6.5 3.89s-10-2.71-6.79-3.32c2.75-.53 5.88 2.23 6.79 3.08z" fill="#2bd69e" fill-rule="evenodd"/><path d="M200.48 156c-.38 1.9-1.38 5.32-4.32 6.56-5.28 2.23-9.22-7.32-9-7.51s1.28 0 1.85.48 2.85 4 2.85 4-.76-4.42-.52-5.08.85-.76 1.19-.15 1.8 4.94 1.8 4.94.29-4.18.71-4.84 1.1-.67 1.29.19.38 5 .38 5 2.23-5 2.75-5.32c1.38-.62 1.09 1.14 1 1.75z" fill="#fff" fill-rule="evenodd"/><path d="M194.59 165.09c.81-1 3.7-4 6.51-3.65 3.23.33-1.1 3.7-6.51 3.89s-10-2.71-6.79-3.32c2.75-.53 5.89 2.23 6.79 3.08z" fill="#2bd69e" fill-rule="evenodd"/><path d="M165.12 153.53c-.38 1.9-1.38 5.32-4.33 6.56-5.27 2.23-9.21-7.32-9-7.51s1.28 0 1.85.48 2.85 4 2.85 4-.76-4.42-.52-5.08.85-.76 1.19-.15 1.8 4.94 1.8 4.94.28-4.18.71-4.84 1.09-.67 1.28.19.38 5 .38 5 2.24-5 2.76-5.32c1.38-.62 1.09 1.14 1 1.75z" fill="#fff" fill-rule="evenodd"/><path d="M159.23 162.65c.8-1 3.7-4 6.5-3.65 3.23.33-1.09 3.7-6.5 3.89s-10-2.71-6.79-3.32c2.75-.53 5.89 2.23 6.79 3.08z" fill="#2bd69e" fill-rule="evenodd"/><path d="M240.68 153.46c-.38 1.9-1.38 5.32-4.32 6.56-5.27 2.23-9.21-7.32-9-7.51s1.29.05 1.86.48 2.85 4 2.85 4-.76-4.42-.53-5.08.86-.76 1.19-.15 1.81 4.94 1.81 4.94.28-4.18.71-4.84 1.09-.67 1.28.19.38 5 .38 5 2.23-5 2.75-5.32c1.38-.62 1.1 1.14 1 1.75z" fill="#fff" fill-rule="evenodd"/><path d="M234.79 162.58c.81-1 3.71-4 6.51-3.65 3.23.33-1.09 3.7-6.51 3.89s-10-2.71-6.79-3.32c2.76-.53 5.89 2.23 6.79 3.08z" fill="#2bd69e" fill-rule="evenodd"/><path d="M74.64 169.66c-.38 1.9-1.37 5.32-4.32 6.55-5.27 2.24-9.21-7.31-9-7.5s1.28 0 1.85.48 2.85 4 2.85 4-.76-4.42-.52-5.09.85-.76 1.18-.14 1.81 4.94 1.81 4.94.28-4.18.71-4.84 1.09-.67 1.28.19.38 5 .38 5 2.23-5 2.76-5.32c1.37-.61 1.09 1.14 1 1.76z" fill="#fff" fill-rule="evenodd"/><path d="M68.75 178.78c.81-.95 3.71-4 6.51-3.66 3.23.34-1.09 3.71-6.51 3.9s-10-2.71-6.79-3.33c2.76-.52 5.89 2.23 6.79 3.09z" fill="#2bd69e" fill-rule="evenodd"/><path d="M145.41 170.07c-.38 1.9-1.37 5.32-4.32 6.56-5.27 2.23-9.21-7.32-9-7.51s1.28 0 1.85.48 2.85 4 2.85 4-.76-4.42-.52-5.09.85-.76 1.18-.14 1.81 4.94 1.81 4.94.28-4.18.71-4.84 1.09-.67 1.28.19.38 5 .38 5 2.23-5 2.76-5.32c1.37-.61 1.09 1.14 1 1.76z" fill="#fff" fill-rule="evenodd"/><path d="M139.52 179.19c.81-.95 3.71-4 6.51-3.66 3.23.34-1.09 3.71-6.51 3.9s-10-2.71-6.79-3.33c2.76-.52 5.89 2.24 6.79 3.09z" fill="#2bd69e" fill-rule="evenodd"/><path d="M221 170c-.38 1.9-1.38 5.32-4.32 6.56-5.27 2.23-9.22-7.32-9-7.51s1.28 0 1.85.48 2.85 4 2.85 4-.76-4.42-.52-5.09.86-.76 1.19-.14 1.8 4.94 1.8 4.94.29-4.18.72-4.84 1.09-.67 1.28.19.38 5 .38 5 2.23-5 2.75-5.32c1.38-.61 1.09 1.14 1 1.76z" fill="#fff" fill-rule="evenodd"/><path d="M215.09 179.12c.81-1 3.7-4 6.51-3.66 3.23.34-1.1 3.71-6.51 3.9s-10-2.71-6.79-3.33c2.75-.52 5.89 2.23 6.79 3.09z" fill="#2bd69e" fill-rule="evenodd"/><path d="M184.86 169.66c-.38 1.9-1.37 5.32-4.32 6.55-5.27 2.24-9.21-7.31-9-7.5s1.29 0 1.86.48 2.85 4 2.85 4-.76-4.42-.53-5.09.86-.76 1.19-.14 1.81 4.94 1.81 4.94.28-4.18.71-4.84 1.09-.67 1.28.19.38 5 .38 5 2.23-5 2.76-5.32c1.37-.61 1.09 1.14 1 1.76z" fill="#fff" fill-rule="evenodd"/><path d="M179 178.78c.81-.95 3.71-4 6.51-3.66 3.23.34-1.09 3.71-6.51 3.9s-10-2.71-6.79-3.33c2.76-.52 5.89 2.23 6.79 3.09z" fill="#2bd69e" fill-rule="evenodd"/><path d="M35.2 136.48c-.38 1.9-1.38 5.32-4.33 6.55-5.27 2.24-9.21-7.31-9-7.5s1.28.05 1.85.48 2.85 4 2.85 4-.76-4.41-.52-5.08.85-.76 1.18-.14 1.81 4.94 1.81 4.94.28-4.18.71-4.84 1.09-.67 1.28.19.38 5 .38 5 2.24-5 2.76-5.32c1.38-.61 1.09 1.14 1 1.76z" fill="#fff" fill-rule="evenodd"/><path d="M29.31 145.6c.8-.95 3.7-4 6.5-3.66 3.23.33-1.09 3.71-6.5 3.9s-10-2.71-6.8-3.33c2.76-.52 5.89 2.23 6.8 3.09z" fill="#2bd69e" fill-rule="evenodd"/><path d="M110.76 136.41c-.38 1.9-1.38 5.32-4.32 6.55-5.27 2.24-9.21-7.31-9-7.5s1.29 0 1.85.47 2.85 4 2.85 4-.76-4.41-.52-5.08.86-.76 1.19-.14 1.8 4.94 1.8 4.94.29-4.18.72-4.85 1.09-.66 1.28.19.38 5 .38 5 2.23-5 2.75-5.32c1.38-.62 1.1 1.14 1 1.76z" fill="#fff" fill-rule="evenodd"/><path d="M104.87 145.53c.81-.95 3.71-4 6.51-3.66 3.23.33-1.09 3.71-6.51 3.9s-10-2.71-6.79-3.33c2.75-.52 5.89 2.23 6.79 3.09z" fill="#2bd69e" fill-rule="evenodd"/><path d="M74.64 136.07c-.38 1.9-1.37 5.32-4.32 6.55-5.27 2.24-9.21-7.31-9-7.5s1.28 0 1.85.47 2.85 4 2.85 4-.76-4.41-.52-5.08.85-.76 1.18-.14 1.81 4.94 1.81 4.94.28-4.18.71-4.85 1.09-.66 1.28.19.38 5 .38 5 2.23-5 2.76-5.32c1.37-.62 1.09 1.14 1 1.76z" fill="#fff" fill-rule="evenodd"/><path d="M68.75 145.19c.81-.95 3.71-4 6.51-3.66 3.23.33-1.09 3.71-6.51 3.9s-10-2.71-6.79-3.33c2.76-.52 5.89 2.23 6.79 3.09z" fill="#2bd69e" fill-rule="evenodd"/><path d="M144.53 136.48c-.38 1.9-1.38 5.32-4.32 6.55-5.27 2.24-9.22-7.31-9-7.5s1.28.05 1.85.48 2.85 4 2.85 4-.76-4.41-.52-5.08.85-.76 1.19-.14 1.8 4.94 1.8 4.94.29-4.18.71-4.84 1.1-.67 1.29.19.38 5 .38 5 2.23-5 2.75-5.32c1.38-.61 1.09 1.14 1 1.76z" fill="#fff" fill-rule="evenodd"/><path d="M138.64 145.6c.81-.95 3.7-4 6.51-3.66 3.23.33-1.1 3.71-6.51 3.9s-10-2.71-6.79-3.33c2.75-.52 5.89 2.23 6.79 3.09z" fill="#2bd69e" fill-rule="evenodd"/><path d="M220.09 136.41c-.38 1.9-1.37 5.32-4.32 6.55-5.27 2.24-9.21-7.31-9-7.5s1.28 0 1.85.47 2.85 4 2.85 4-.76-4.41-.52-5.08.85-.76 1.18-.14 1.81 4.94 1.81 4.94.28-4.18.71-4.85 1.09-.66 1.28.19.38 5 .38 5 2.23-5 2.76-5.32c1.37-.62 1.09 1.14 1 1.76z" fill="#fff" fill-rule="evenodd"/><path d="M214.2 145.53c.81-.95 3.71-4 6.51-3.66 3.23.33-1.09 3.71-6.51 3.9s-10-2.71-6.79-3.33c2.76-.52 5.89 2.23 6.79 3.09z" fill="#2bd69e" fill-rule="evenodd"/><path d="M184 136.07c-.38 1.9-1.38 5.32-4.32 6.55-5.28 2.24-9.22-7.31-9-7.5s1.28 0 1.85.47 2.85 4 2.85 4-.76-4.41-.52-5.08.85-.76 1.19-.14 1.8 4.94 1.8 4.94.29-4.18.71-4.85 1.1-.66 1.29.19.38 5 .38 5 2.23-5 2.75-5.32c1.38-.62 1.09 1.14 1 1.76z" fill="#fff" fill-rule="evenodd"/><path d="M178.09 145.19c.81-.95 3.7-4 6.5-3.66 3.23.33-1.09 3.71-6.5 3.9s-10-2.71-6.79-3.33c2.75-.52 5.89 2.23 6.79 3.09z" fill="#2bd69e" fill-rule="evenodd"/><path d="M54.07 226.19c-.38 1.9-1.37 5.32-4.32 6.55-5.27 2.23-9.21-7.31-9-7.5s1.29 0 1.86.47 2.85 4 2.85 4-.76-4.41-.53-5.08.86-.76 1.19-.14 1.88 4.93 1.88 4.93.28-4.18.71-4.85 1.09-.66 1.28.19.38 5 .38 5 2.23-5 2.76-5.32c1.37-.62 1.09 1.14 1 1.76z" fill="#fff" fill-rule="evenodd"/><path d="M48.18 235.31c.81-.95 3.71-4 6.51-3.66 3.23.33-1.09 3.7-6.51 3.89s-10-2.7-6.79-3.32c2.76-.52 5.89 2.23 6.79 3.09z" fill="#2bd69e" fill-rule="evenodd"/><path d="M18.71 223.75c-.38 1.9-1.38 5.32-4.32 6.55-5.27 2.23-9.21-7.31-9-7.5s1.28 0 1.85.47 2.85 4 2.85 4-.76-4.41-.52-5.08.86-.76 1.19-.14 1.8 4.94 1.8 4.94.29-4.18.72-4.85 1.09-.66 1.28.19.38 5 .38 5 2.23-5 2.75-5.32c1.38-.62 1.1 1.14 1 1.76z" fill="#fff" fill-rule="evenodd"/><path d="M12.82 232.87c.81-1 3.71-4 6.51-3.66 3.23.33-1.09 3.7-6.51 3.89s-10-2.7-6.79-3.32c2.75-.52 5.89 2.23 6.79 3.09z" fill="#2bd69e" fill-rule="evenodd"/><path d="M130.25 223.75c-.38 1.9-1.38 5.32-4.32 6.55-5.28 2.23-9.22-7.31-9-7.5s1.28 0 1.85.47 2.85 4 2.85 4-.76-4.41-.52-5.08.85-.76 1.19-.14 1.8 4.94 1.8 4.94.29-4.18.71-4.85 1.1-.66 1.29.19.38 5 .38 5 2.23-5 2.75-5.32c1.38-.62 1.09 1.14 1 1.76z" fill="#fff" fill-rule="evenodd"/><path d="M123.75 235.24c.81-1 3.7-4 6.5-3.66 3.23.33-1.09 3.7-6.5 3.89s-10-2.7-6.79-3.32c2.75-.52 5.89 2.23 6.79 3.09z" fill="#2bd69e" fill-rule="evenodd"/><path d="M94.28 223.68c-.38 1.9-1.38 5.32-4.33 6.55-5.27 2.23-9.21-7.31-9-7.5s1.28.05 1.85.47 2.85 4 2.85 4-.76-4.41-.52-5.08.85-.76 1.18-.14 1.81 4.94 1.81 4.94.28-4.18.71-4.85 1.09-.66 1.28.19.38 5 .38 5 2.24-5 2.76-5.32c1.38-.62 1.09 1.14 1 1.76z" fill="#fff" fill-rule="evenodd"/><path d="M88.39 232.8c.8-1 3.7-4 6.5-3.66 3.23.33-1.09 3.7-6.5 3.89s-10-2.7-6.79-3.32c2.75-.52 5.88 2.23 6.79 3.09z" fill="#2bd69e" fill-rule="evenodd"/><path d="M200.48 226.19c-.38 1.9-1.38 5.32-4.32 6.55-5.28 2.23-9.22-7.31-9-7.5s1.28 0 1.85.47 2.85 4 2.85 4-.76-4.41-.52-5.08.85-.76 1.19-.14 1.8 4.94 1.8 4.94.29-4.18.71-4.85 1.1-.66 1.29.19.38 5 .38 5 2.23-5 2.75-5.32c1.38-.62 1.09 1.14 1 1.76z" fill="#fff" fill-rule="evenodd"/><path d="M194.59 235.31c.81-.95 3.7-4 6.51-3.66 3.23.33-1.1 3.7-6.51 3.89s-10-2.7-6.79-3.32c2.75-.52 5.89 2.23 6.79 3.09z" fill="#2bd69e" fill-rule="evenodd"/><path d="M165.12 223.75c-.38 1.9-1.38 5.32-4.33 6.55-5.27 2.23-9.21-7.31-9-7.5s1.28 0 1.85.47 2.85 4 2.85 4-.76-4.41-.52-5.08.85-.76 1.19-.14S159 227 159 227s.28-4.18.71-4.85 1.09-.66 1.28.19.38 5 .38 5 2.24-5 2.76-5.32c1.38-.62 1.09 1.14 1 1.76z" fill="#fff" fill-rule="evenodd"/><path d="M159.23 232.87c.8-1 3.7-4 6.5-3.66 3.23.33-1.09 3.7-6.5 3.89s-10-2.7-6.79-3.32c2.75-.52 5.89 2.23 6.79 3.09z" fill="#2bd69e" fill-rule="evenodd"/><path d="M240.68 223.68c-.38 1.9-1.38 5.32-4.32 6.55-5.27 2.23-9.21-7.31-9-7.5s1.29.05 1.86.47 2.85 4 2.85 4-.76-4.41-.53-5.08.86-.76 1.19-.14 1.81 4.94 1.81 4.94.28-4.18.71-4.85 1.09-.66 1.28.19.38 5 .38 5 2.23-5 2.75-5.32c1.38-.62 1.1 1.14 1 1.76z" fill="#fff" fill-rule="evenodd"/><path d="M234.79 232.8c.81-1 3.71-4 6.51-3.66 3.23.33-1.09 3.7-6.51 3.89s-10-2.7-6.79-3.32c2.76-.52 5.89 2.23 6.79 3.09z" fill="#2bd69e" fill-rule="evenodd"/><path d="M54.07 256.17c-.38 1.9-1.37 5.32-4.32 6.55-5.27 2.23-9.21-7.31-9-7.5s1.29.05 1.86.47 2.85 4 2.85 4-.76-4.41-.53-5.08.86-.76 1.19-.14S48 259.4 48 259.4s.28-4.18.71-4.85 1.09-.66 1.28.19.38 5 .38 5 2.23-5 2.76-5.32c1.37-.62 1.09 1.14 1 1.76z" fill="#fff" fill-rule="evenodd"/><path d="M48.18 265.29c.81-1 3.71-4 6.51-3.66 3.23.33-1.09 3.7-6.51 3.89s-10-2.7-6.79-3.32c2.76-.52 5.89 2.23 6.79 3.09z" fill="#2bd69e" fill-rule="evenodd"/><path d="M18.71 253.73c-.38 1.9-1.38 5.32-4.32 6.55-5.27 2.24-9.21-7.31-9-7.5s1.28.05 1.85.47 2.85 4 2.85 4-.76-4.41-.52-5.08.86-.76 1.19-.14 1.8 4.94 1.8 4.94.29-4.18.72-4.84 1.09-.67 1.28.18.38 5 .38 5 2.23-5 2.75-5.32c1.38-.61 1.1 1.14 1 1.76z" fill="#fff" fill-rule="evenodd"/><path d="M12.82 262.85c.81-1 3.71-4 6.51-3.66 3.23.33-1.09 3.71-6.51 3.9s-10-2.71-6.79-3.33c2.75-.52 5.89 2.23 6.79 3.09z" fill="#2bd69e" fill-rule="evenodd"/><path d="M130.25 253.73c-.38 1.9-1.38 5.32-4.32 6.55-5.28 2.24-9.22-7.31-9-7.5s1.28.05 1.85.47 2.85 4 2.85 4-.76-4.41-.52-5.08.85-.76 1.19-.14 1.8 4.94 1.8 4.94.29-4.18.71-4.84 1.1-.67 1.29.18.38 5 .38 5 2.23-5 2.75-5.32c1.38-.61 1.09 1.14 1 1.76z" fill="#fff" fill-rule="evenodd"/><path d="M123.75 265.22c.81-1 3.7-4 6.5-3.66 3.23.33-1.09 3.7-6.5 3.89s-10-2.7-6.79-3.32c2.75-.52 5.89 2.23 6.79 3.09z" fill="#2bd69e" fill-rule="evenodd"/><path d="M94.28 253.66c-.38 1.9-1.38 5.32-4.33 6.55-5.27 2.24-9.21-7.31-9-7.5s1.28 0 1.85.47 2.85 4 2.85 4-.76-4.41-.52-5.08.85-.76 1.18-.14 1.81 4.94 1.81 4.94.28-4.18.71-4.85 1.09-.66 1.28.19.38 5 .38 5 2.24-5 2.76-5.32c1.38-.62 1.09 1.14 1 1.76z" fill="#fff" fill-rule="evenodd"/><path d="M88.39 262.78c.8-.95 3.7-4 6.5-3.66 3.23.33-1.09 3.71-6.5 3.89s-10-2.7-6.79-3.32c2.75-.52 5.88 2.23 6.79 3.09z" fill="#2bd69e" fill-rule="evenodd"/><path d="M200.48 256.17c-.38 1.9-1.38 5.32-4.32 6.55-5.28 2.23-9.22-7.31-9-7.5s1.28.05 1.85.47 2.85 4 2.85 4-.76-4.41-.52-5.08.85-.76 1.19-.14 1.8 4.94 1.8 4.94.29-4.18.71-4.85 1.1-.66 1.29.19.38 5 .38 5 2.23-5 2.75-5.32c1.38-.62 1.09 1.14 1 1.76z" fill="#fff" fill-rule="evenodd"/><path d="M194.59 265.29c.81-1 3.7-4 6.51-3.66 3.23.33-1.1 3.7-6.51 3.89s-10-2.7-6.79-3.32c2.75-.52 5.89 2.23 6.79 3.09z" fill="#2bd69e" fill-rule="evenodd"/><path d="M165.12 253.73c-.38 1.9-1.38 5.32-4.33 6.55-5.27 2.24-9.21-7.31-9-7.5s1.28.05 1.85.47 2.85 4 2.85 4-.76-4.41-.52-5.08.85-.76 1.19-.14S159 257 159 257s.28-4.18.71-4.84 1.09-.67 1.28.18.38 5 .38 5 2.24-5 2.76-5.32c1.38-.61 1.09 1.14 1 1.76z" fill="#fff" fill-rule="evenodd"/><path d="M159.23 262.85c.8-1 3.7-4 6.5-3.66 3.23.33-1.09 3.71-6.5 3.9s-10-2.71-6.79-3.33c2.75-.52 5.89 2.23 6.79 3.09z" fill="#2bd69e" fill-rule="evenodd"/><path d="M240.68 253.66c-.38 1.9-1.38 5.32-4.32 6.55-5.27 2.24-9.21-7.31-9-7.5s1.29 0 1.86.47 2.85 4 2.85 4-.76-4.41-.53-5.08.86-.76 1.19-.14 1.81 4.94 1.81 4.94.28-4.18.71-4.85 1.09-.66 1.28.19.38 5 .38 5 2.23-5 2.75-5.32c1.38-.62 1.1 1.14 1 1.76z" fill="#fff" fill-rule="evenodd"/><path d="M234.79 262.78c.81-.95 3.71-4 6.51-3.66 3.23.33-1.09 3.71-6.51 3.89s-10-2.7-6.79-3.32c2.76-.52 5.89 2.23 6.79 3.09z" fill="#2bd69e" fill-rule="evenodd"/><path d="M35.2 206.69c-.38 1.9-1.38 5.32-4.33 6.56-5.27 2.23-9.21-7.32-9-7.51s1.28 0 1.85.48 2.85 4 2.85 4-.76-4.42-.52-5.08.85-.76 1.18-.15 1.81 4.94 1.81 4.94.28-4.18.71-4.84 1.09-.67 1.28.19.38 5 .38 5 2.24-5 2.76-5.32c1.38-.62 1.09 1.14 1 1.75z" fill="#fff" fill-rule="evenodd"/><path d="M29.31 215.81c.8-.95 3.7-4 6.5-3.65 3.23.33-1.09 3.7-6.5 3.89s-10-2.71-6.8-3.32c2.76-.53 5.89 2.23 6.8 3.08z" fill="#2bd69e" fill-rule="evenodd"/><path d="M110.76 206.62c-.38 1.9-1.38 5.32-4.32 6.56-5.27 2.23-9.21-7.32-9-7.51s1.29.05 1.85.48 2.85 4 2.85 4-.76-4.42-.52-5.08.86-.76 1.19-.15 1.8 4.94 1.8 4.94.29-4.18.72-4.84 1.09-.67 1.28.19.38 5 .38 5 2.23-5 2.75-5.32c1.38-.62 1.1 1.14 1 1.75z" fill="#fff" fill-rule="evenodd"/><path d="M104.87 215.74c.81-1 3.71-4 6.51-3.65 3.23.33-1.09 3.7-6.51 3.89s-10-2.71-6.79-3.32c2.75-.53 5.89 2.23 6.79 3.08z" fill="#2bd69e" fill-rule="evenodd"/><path d="M74.64 206.28c-.38 1.9-1.37 5.32-4.32 6.56-5.27 2.23-9.21-7.32-9-7.51s1.28 0 1.85.48 2.85 4 2.85 4-.76-4.42-.52-5.08.85-.76 1.18-.15 1.81 4.94 1.81 4.94.28-4.18.71-4.84 1.09-.67 1.28.19.38 5 .38 5 2.23-5 2.76-5.32c1.37-.62 1.09 1.14 1 1.75z" fill="#fff" fill-rule="evenodd"/><path d="M68.75 215.4c.81-1 3.71-4 6.51-3.66 3.23.34-1.09 3.71-6.51 3.9s-10-2.71-6.79-3.33c2.76-.52 5.89 2.24 6.79 3.09z" fill="#2bd69e" fill-rule="evenodd"/><path d="M144.53 206.69c-.38 1.9-1.38 5.32-4.32 6.56-5.27 2.23-9.22-7.32-9-7.51s1.28 0 1.85.48 2.85 4 2.85 4-.76-4.42-.52-5.08.85-.76 1.19-.15 1.8 4.94 1.8 4.94.29-4.18.71-4.84 1.1-.67 1.29.19.38 5 .38 5 2.23-5 2.75-5.32c1.38-.62 1.09 1.14 1 1.75z" fill="#fff" fill-rule="evenodd"/><path d="M138.64 215.81c.81-.95 3.7-4 6.51-3.65 3.23.33-1.1 3.7-6.51 3.89s-10-2.71-6.79-3.32c2.75-.53 5.89 2.23 6.79 3.08z" fill="#2bd69e" fill-rule="evenodd"/><path d="M220.09 206.62c-.38 1.9-1.37 5.32-4.32 6.56-5.27 2.23-9.21-7.32-9-7.51s1.28.05 1.85.48 2.85 4 2.85 4-.76-4.42-.52-5.08.85-.76 1.18-.15 1.81 4.94 1.81 4.94.28-4.18.71-4.84 1.09-.67 1.28.19.38 5 .38 5 2.23-5 2.76-5.32c1.37-.62 1.09 1.14 1 1.75z" fill="#fff" fill-rule="evenodd"/><path d="M214.2 215.74c.81-1 3.71-4 6.51-3.65 3.23.33-1.09 3.7-6.51 3.89s-10-2.71-6.79-3.32c2.76-.53 5.89 2.23 6.79 3.08z" fill="#2bd69e" fill-rule="evenodd"/><path d="M184 206.28c-.38 1.9-1.38 5.32-4.32 6.56-5.28 2.23-9.22-7.32-9-7.51s1.28 0 1.85.48 2.85 4 2.85 4-.76-4.42-.52-5.08.85-.76 1.19-.15 1.8 4.94 1.8 4.94.29-4.18.71-4.84 1.1-.67 1.29.19.38 5 .38 5 2.23-5 2.75-5.32c1.38-.62 1.09 1.14 1 1.75z" fill="#fff" fill-rule="evenodd"/><path d="M178.09 215.4c.81-1 3.7-4 6.5-3.66 3.23.34-1.09 3.71-6.5 3.9s-10-2.71-6.79-3.33c2.75-.52 5.89 2.24 6.79 3.09z" fill="#2bd69e" fill-rule="evenodd"/><path d="M35.2 240.1c-.38 1.9-1.38 5.32-4.33 6.55-5.27 2.23-9.21-7.31-9-7.5s1.28 0 1.85.47 2.85 4 2.85 4-.76-4.41-.52-5.08.85-.76 1.18-.14 1.81 4.94 1.81 4.94.28-4.18.71-4.85 1.09-.66 1.28.19.38 5 .38 5 2.24-5 2.76-5.32c1.38-.62 1.09 1.14 1 1.76z" fill="#fff" fill-rule="evenodd"/><path d="M29.31 249.22c.8-.95 3.7-4 6.5-3.66 3.23.33-1.09 3.7-6.5 3.89s-10-2.7-6.8-3.32c2.76-.52 5.89 2.23 6.8 3.09z" fill="#2bd69e" fill-rule="evenodd"/><path d="M110.76 240c-.38 1.9-1.38 5.32-4.32 6.55-5.27 2.23-9.21-7.31-9-7.5s1.29 0 1.85.47 2.85 4 2.85 4-.76-4.41-.52-5.08.86-.76 1.19-.14 1.8 4.94 1.8 4.94.29-4.18.72-4.85 1.09-.66 1.28.19.38 5 .38 5 2.23-5 2.75-5.32c1.38-.62 1.1 1.14 1 1.76z" fill="#fff" fill-rule="evenodd"/><path d="M104.87 249.15c.81-1 3.71-4 6.51-3.66 3.23.33-1.09 3.7-6.51 3.89s-10-2.7-6.79-3.32c2.75-.52 5.89 2.23 6.79 3.09z" fill="#2bd69e" fill-rule="evenodd"/><path d="M74.64 239.69c-.38 1.9-1.37 5.32-4.32 6.55-5.27 2.23-9.21-7.31-9-7.5s1.28 0 1.85.47 2.85 4 2.85 4-.76-4.41-.52-5.08.85-.76 1.18-.14 1.81 4.94 1.81 4.94.28-4.18.71-4.85 1.09-.66 1.28.19.38 5 .38 5 2.23-5 2.76-5.32c1.37-.62 1.09 1.14 1 1.76z" fill="#fff" fill-rule="evenodd"/><path d="M68.75 248.81c.81-.95 3.71-4 6.51-3.66 3.23.33-1.09 3.7-6.51 3.89s-10-2.7-6.79-3.32c2.76-.52 5.89 2.23 6.79 3.09z" fill="#2bd69e" fill-rule="evenodd"/><path d="M144.53 240.1c-.38 1.9-1.38 5.32-4.32 6.55-5.27 2.23-9.22-7.31-9-7.5s1.28 0 1.85.47 2.85 4 2.85 4-.76-4.41-.52-5.08.85-.76 1.19-.14 1.8 4.94 1.8 4.94.29-4.18.71-4.85 1.1-.66 1.29.19.38 5 .38 5 2.23-5 2.75-5.32c1.38-.62 1.09 1.14 1 1.76z" fill="#fff" fill-rule="evenodd"/><path d="M138.64 249.22c.81-.95 3.7-4 6.51-3.66 3.23.33-1.1 3.7-6.51 3.89s-10-2.7-6.79-3.32c2.75-.52 5.89 2.23 6.79 3.09z" fill="#2bd69e" fill-rule="evenodd"/><path d="M220.09 240c-.38 1.9-1.37 5.32-4.32 6.55-5.27 2.23-9.21-7.31-9-7.5s1.28 0 1.85.47 2.85 4 2.85 4-.76-4.41-.52-5.08.85-.76 1.18-.14 1.81 4.94 1.81 4.94.28-4.18.71-4.85 1.09-.66 1.28.19.38 5 .38 5 2.23-5 2.76-5.32c1.37-.62 1.09 1.14 1 1.76z" fill="#fff" fill-rule="evenodd"/><path d="M214.2 249.15c.81-1 3.71-4 6.51-3.66 3.23.33-1.09 3.7-6.51 3.89s-10-2.7-6.79-3.32c2.76-.52 5.89 2.23 6.79 3.09z" fill="#2bd69e" fill-rule="evenodd"/><path d="M262.64 36.78c-.38 1.9-1.38 5.32-4.32 6.56-5.28 2.23-9.22-7.32-9-7.51s1.28.05 1.85.48 2.85 4 2.85 4-.76-4.42-.52-5.08.85-.76 1.19-.15 1.8 4.94 1.8 4.94.29-4.18.71-4.84 1.1-.67 1.29.19.38 5 .38 5 2.23-5 2.75-5.32c1.38-.62 1.09 1.14 1 1.75z" fill="#fff" fill-rule="evenodd"/><path d="M256.75 45.9c.81-.95 3.7-4 6.5-3.65 3.23.33-1.09 3.7-6.5 3.89s-10-2.71-6.79-3.32c2.75-.53 5.89 2.23 6.79 3.08z" fill="#2bd69e" fill-rule="evenodd"/><path d="M260.64 3.19c-.38 1.9-1.38 5.32-4.32 6.56-5.28 2.23-9.22-7.32-9-7.51s1.28 0 1.85.48 2.85 4 2.85 4-.76-4.42-.52-5.09.85-.75 1.19-.14 1.8 4.94 1.8 4.94.29-4.18.71-4.84 1.1-.67 1.29.19.38 5 .38 5 2.23-5 2.75-5.32c1.38-.61 1.09 1.14 1 1.76z" fill="#fff" fill-rule="evenodd"/><path d="M254.75 12.31c.81-1 3.7-4 6.5-3.66 3.23.34-1.09 3.71-6.5 3.9s-10-2.71-6.79-3.33c2.75-.52 5.89 2.24 6.79 3.09z" fill="#2bd69e" fill-rule="evenodd"/><path d="M263.46 99c-.38 1.9-1.38 5.32-4.32 6.55-5.27 2.24-9.21-7.31-9-7.5s1.29 0 1.86.48 2.84 4 2.84 4-.75-4.41-.52-5.08.86-.76 1.19-.14 1.8 4.94 1.8 4.94.29-4.18.72-4.84 1.09-.67 1.28.19.38 5 .38 5 2.23-5 2.75-5.32c1.38-.61 1.1 1.14 1 1.76z" fill="#fff" fill-rule="evenodd"/><path d="M257.57 108.1c.81-.95 3.71-4 6.51-3.66 3.23.33-1.09 3.71-6.51 3.9s-10-2.71-6.79-3.33c2.76-.52 5.89 2.23 6.79 3.09z" fill="#2bd69e" fill-rule="evenodd"/><path d="M262.58 65.39c-.38 1.9-1.38 5.32-4.33 6.55-5.27 2.23-9.21-7.31-9-7.5s1.28 0 1.85.47 2.85 4 2.85 4-.76-4.41-.52-5.08.85-.76 1.18-.14 1.81 4.94 1.81 4.94.28-4.18.71-4.85 1.09-.66 1.28.19.38 5 .38 5 2.24-5 2.76-5.32c1.38-.62 1.09 1.14 1 1.76z" fill="#fff" fill-rule="evenodd"/><path d="M256.69 74.51c.8-1 3.7-4 6.5-3.66 3.23.33-1.09 3.7-6.5 3.89s-10-2.7-6.79-3.32c2.75-.52 5.88 2.23 6.79 3.09z" fill="#2bd69e" fill-rule="evenodd"/><path d="M263.46 170c-.38 1.9-1.38 5.32-4.32 6.56-5.27 2.23-9.21-7.32-9-7.51s1.29 0 1.86.48 2.84 4 2.84 4-.75-4.42-.52-5.09.86-.76 1.19-.14 1.8 4.94 1.8 4.94.29-4.18.72-4.84 1.09-.67 1.28.19.38 5 .38 5 2.23-5 2.75-5.32c1.38-.61 1.1 1.14 1 1.76z" fill="#fff" fill-rule="evenodd"/><path d="M257.57 179.12c.81-1 3.71-4 6.51-3.66 3.23.34-1.09 3.71-6.51 3.9s-10-2.71-6.79-3.33c2.76-.52 5.89 2.23 6.79 3.09z" fill="#2bd69e" fill-rule="evenodd"/><path d="M262.58 136.41c-.38 1.9-1.38 5.32-4.33 6.55-5.27 2.24-9.21-7.31-9-7.5s1.28 0 1.85.47 2.85 4 2.85 4-.76-4.41-.52-5.08.85-.76 1.18-.14 1.81 4.94 1.81 4.94.28-4.18.71-4.85 1.09-.66 1.28.19.38 5 .38 5 2.24-5 2.76-5.32c1.38-.62 1.09 1.14 1 1.76z" fill="#fff" fill-rule="evenodd"/><path d="M256.69 145.53c.8-.95 3.7-4 6.5-3.66 3.23.33-1.09 3.71-6.5 3.9s-10-2.71-6.79-3.33c2.75-.52 5.88 2.23 6.79 3.09z" fill="#2bd69e" fill-rule="evenodd"/><path d="M262.58 206.62c-.38 1.9-1.38 5.32-4.33 6.56-5.27 2.23-9.21-7.32-9-7.51s1.28.05 1.85.48 2.85 4 2.85 4-.76-4.42-.52-5.08.85-.76 1.18-.15 1.81 4.94 1.81 4.94.28-4.18.71-4.84 1.09-.67 1.28.19.38 5 .38 5 2.24-5 2.76-5.32c1.38-.62 1.09 1.14 1 1.75z" fill="#fff" fill-rule="evenodd"/><path d="M256.69 215.74c.8-1 3.7-4 6.5-3.65 3.23.33-1.09 3.7-6.5 3.89s-10-2.71-6.79-3.32c2.75-.53 5.88 2.23 6.79 3.08z" fill="#2bd69e" fill-rule="evenodd"/><path d="M262.58 240c-.38 1.9-1.38 5.32-4.33 6.55-5.27 2.23-9.21-7.31-9-7.5s1.28 0 1.85.47 2.85 4 2.85 4-.76-4.41-.52-5.08.85-.76 1.18-.14 1.81 4.94 1.81 4.94.28-4.18.71-4.85 1.09-.66 1.28.19.38 5 .38 5 2.24-5 2.76-5.32c1.38-.62 1.09 1.14 1 1.76z" fill="#fff" fill-rule="evenodd"/><path d="M256.69 249.15c.8-1 3.7-4 6.5-3.66 3.23.33-1.09 3.7-6.5 3.89s-10-2.7-6.79-3.32c2.75-.52 5.88 2.23 6.79 3.09z" fill="#2bd69e" fill-rule="evenodd"/><path d="M184 239.69c-.38 1.9-1.38 5.32-4.32 6.55-5.28 2.23-9.22-7.31-9-7.5s1.28 0 1.85.47 2.85 4 2.85 4-.76-4.41-.52-5.08.85-.76 1.19-.14 1.8 4.94 1.8 4.94.29-4.18.71-4.85 1.1-.66 1.29.19.38 5 .38 5 2.23-5 2.75-5.32c1.38-.62 1.09 1.14 1 1.76z" fill="#fff" fill-rule="evenodd"/><path d="M178.09 248.81c.81-.95 3.7-4 6.5-3.66 3.23.33-1.09 3.7-6.5 3.89s-10-2.7-6.79-3.32c2.75-.52 5.89 2.23 6.79 3.09z" fill="#2bd69e" fill-rule="evenodd"/><path d="M53.93 188.82c-.38 1.9-1.37 5.32-4.32 6.55-5.27 2.24-9.21-7.31-9-7.5s1.29 0 1.86.47 2.85 4 2.85 4-.76-4.41-.53-5.08.86-.76 1.19-.14 1.81 4.94 1.81 4.94.28-4.18.71-4.85 1.09-.66 1.28.19.38 5 .38 5 2.23-5 2.76-5.32c1.37-.62 1.09 1.14 1 1.76z" fill="#fff" fill-rule="evenodd"/><path d="M48 197.94c.81-.95 3.71-4 6.51-3.66 3.23.33-1.09 3.71-6.51 3.9s-10-2.71-6.79-3.33c2.76-.52 5.89 2.23 6.79 3.09z" fill="#2bd69e" fill-rule="evenodd"/><path d="M18.57 186.38c-.38 1.9-1.38 5.32-4.32 6.55-5.27 2.24-9.21-7.31-9-7.5s1.28 0 1.85.48 2.85 4 2.85 4-.76-4.41-.52-5.08.86-.76 1.19-.14 1.8 4.94 1.8 4.94.29-4.18.72-4.84 1.09-.67 1.28.19.38 5 .38 5 2.23-5 2.75-5.32c1.38-.61 1.1 1.14 1 1.76z" fill="#fff" fill-rule="evenodd"/><path d="M12.68 195.5c.81-.95 3.71-4 6.51-3.66 3.23.33-1.09 3.71-6.51 3.9s-10-2.71-6.79-3.33c2.75-.52 5.89 2.23 6.79 3.09z" fill="#2bd69e" fill-rule="evenodd"/><path d="M130.11 186.38c-.38 1.9-1.38 5.32-4.32 6.55-5.28 2.24-9.22-7.31-9-7.5s1.28 0 1.85.48 2.85 4 2.85 4-.76-4.41-.52-5.08.85-.76 1.19-.14 1.8 4.94 1.8 4.94.29-4.18.71-4.84 1.1-.67 1.29.19.38 5 .38 5 2.23-5 2.75-5.32c1.38-.61 1.09 1.14 1 1.76z" fill="#fff" fill-rule="evenodd"/><path d="M123.61 197.87c.81-1 3.7-4 6.5-3.66 3.23.33-1.09 3.7-6.5 3.89s-10-2.7-6.79-3.32c2.75-.52 5.89 2.23 6.79 3.09z" fill="#2bd69e" fill-rule="evenodd"/><path d="M94.14 186.31c-.38 1.9-1.38 5.32-4.33 6.55-5.27 2.24-9.21-7.31-9-7.5s1.28 0 1.85.47 2.85 4 2.85 4-.76-4.41-.52-5.08.85-.76 1.18-.14 1.83 4.93 1.83 4.93.28-4.18.71-4.85 1.09-.66 1.28.19.38 5 .38 5 2.24-5 2.76-5.32c1.38-.62 1.09 1.14 1 1.76z" fill="#fff" fill-rule="evenodd"/><path d="M88.25 195.43c.8-1 3.7-4 6.5-3.66 3.23.33-1.09 3.71-6.5 3.9s-10-2.71-6.79-3.33c2.75-.52 5.88 2.23 6.79 3.09z" fill="#2bd69e" fill-rule="evenodd"/><path d="M202 188.82c-.38 1.9-1.38 5.32-4.32 6.55-5.27 2.24-9.22-7.31-9-7.5s1.28 0 1.85.47 2.85 4 2.85 4-.76-4.41-.52-5.08.86-.76 1.19-.14 1.8 4.94 1.8 4.94.29-4.18.71-4.85 1.1-.66 1.29.19.38 5 .38 5 2.23-5 2.75-5.32c1.38-.62 1.09 1.14 1 1.76z" fill="#fff" fill-rule="evenodd"/><path d="M196.06 197.94c.81-.95 3.7-4 6.51-3.66 3.23.33-1.1 3.71-6.51 3.9s-10-2.71-6.79-3.33c2.75-.52 5.89 2.23 6.79 3.09z" fill="#2bd69e" fill-rule="evenodd"/><path d="M166.59 186.38c-.38 1.9-1.38 5.32-4.32 6.55-5.28 2.24-9.22-7.31-9-7.5s1.28 0 1.85.48 2.85 4 2.85 4-.76-4.41-.52-5.08.85-.76 1.19-.14 1.8 4.94 1.8 4.94.29-4.18.71-4.84 1.1-.67 1.29.19.38 5 .38 5 2.23-5 2.75-5.32c1.38-.61 1.09 1.14 1 1.76z" fill="#fff" fill-rule="evenodd"/><path d="M160.7 195.5c.81-.95 3.7-4 6.5-3.66 3.23.33-1.09 3.71-6.5 3.9s-10-2.71-6.79-3.33c2.75-.52 5.89 2.23 6.79 3.09z" fill="#2bd69e" fill-rule="evenodd"/><path d="M242.15 186.31c-.38 1.9-1.37 5.32-4.32 6.55-5.27 2.24-9.21-7.31-9-7.5s1.29 0 1.86.47 2.85 4 2.85 4-.76-4.41-.53-5.08.86-.76 1.19-.14 1.81 4.94 1.81 4.94.28-4.18.71-4.85 1.09-.66 1.28.19.38 5 .38 5 2.23-5 2.76-5.32c1.37-.62 1.09 1.14 1 1.76z" fill="#fff" fill-rule="evenodd"/><path d="M236.26 195.43c.81-1 3.71-4 6.51-3.66 3.23.33-1.09 3.71-6.51 3.9s-10-2.71-6.79-3.33c2.76-.52 5.89 2.23 6.79 3.09z" fill="#2bd69e" fill-rule="evenodd"/></pattern><clipPath id="f" transform="translate(-4.42 -2.92)"><path d="M1116.53 743.77c-.06-.32-.11-.61-.14-.78-8.64-6.7-22.49-18.89-42.55-40.47-21.17-22.78-59.37-67.23-79-88.92-14.45-15.92-26.14-28.29-31.66-32.35a350.47 350.47 0 0 0-45.06 16.63l.11.44S955 634.38 998 670.76c43.25 36.6 99.29 75.44 104.35 87.18.39.91.86 2 1.37 3.2 6.65-3.97 11.91-9.68 12.81-17.37z" fill="#99471f"/></clipPath><clipPath id="g" transform="translate(-4.42 -2.92)"><path d="M523.55 125.82c.12 1 .26 2 .44 3a22.25 22.25 0 0 1 .51 3.7 2.63 2.63 0 0 1-.51 1.84 2.67 2.67 0 0 1-1.09.64c-3.08 1.1-6.57.3-9.51.34-2.65 0-6.26-.42-8.84 1.4a15.45 15.45 0 0 0-2.3 2.13 26.18 26.18 0 0 0-5.56 8.41c-1.65 4.42-1.25 8.91 2 12.37 0 0-1.89 3.21-13.91 4.08-26.23 1.9-23.48-23.25-23.48-23.25L458.11 127h1.05c-.49-5.79-.52-6 .42-6.36l.09-.05c-.45-4.21-2.45-16.59 9.54-30.12s30.5-14.83 48.79-14.88c1.05.44 2.54.58 3.41 1.24 1.14.87 1.85 2.94 2.1 4.27.34 1.82.43 3.65.68 5.48a28.14 28.14 0 0 0 1.56 7 107 107 0 0 0 5.41 10.42s3.81 4.87-.89 4.92c-3.74.05-7.12.38-7.14 4.88a105.43 105.43 0 0 0 .42 12.02z" fill="#ffcaa0"/></clipPath></defs><title>high-five</title><g style="isolation:isolate"><path d="M566.77 474.52l5.43 1s-1.31 12.7-4.37 22.18c-5.06 15.64 14 36.67 13.44 29.46s-6-21.18-.32-23.62 0 29.7 7.49 11.6c2.87-7-1.76-36.93-1.76-36.93zM777.5 70.57l2.08-7.49s0-12.76-2.09-22.53c-3.44-16.07 17.69-34.87 16.36-27.77s-8.09 20.4-2.73 23.46 3.05-29.54 8.63-10.71c2.15 7.24-5.72 44.47-5.72 44.47z" fill="#ffcaa0"/><path d="M796.63 71.63l-18.36-11.55-2.85 12.78c7.23 5 11.44 6 19.09 11z" fill="#f9f7f7"/><path d="M775.42 72.85l-39.14 142.32 29.87 44.75 28.36-176c-7.65-5.05-11.86-6.06-19.09-11.07z" fill="#fa6142"/><path d="M736.58 209.51c-1.88-1.7-12.07-8.53-12.07-8.53l-31.32 4.3 2.29 12.13 13.94 15.74s23 3.06 23.5 2.39 3.66-26.03 3.66-26.03z" fill="#ffcaa0"/><path fill="#a6d6ff" d="M721.41 783.52l-3.5 21.09-14.35 12.59-8.29-6.05 7.08-30 19.06 2.37zm58.34-25.97l-17.85-22.81 18.5-11.44 7.44 13.2 2.02 23.6-10.11-2.55z"/><path fill="#2e3233" d="M706.35 812.66l-16.23 2.1-4.96 5.41 3.57 9.85 6.63.56 10.99-17.92z"/><path d="M731.58 806.46l2.87 4.48-9.7 9.61-5.47 4.11-5.5.71-19.8 18.71s-18.17 8.82-20.07 9.06-13.32-.55-13.32-.55l.71-3.34s16.08-5.25 17.88-6.29 16.42-11.86 17.33-12.37 18.63-9.81 19.31-10.54 10.9-11.36 10.9-11.36z" fill="#fff"/><path d="M719.79 826.2s-3.84-1-5.94.41-9.15 13.37-20.09 19.91-22.35 9.64-30.73 9.35c0 0-1.47-.65-2.44-3.24l.49-.3c2.11.09 19.54.44 34.07-10.61 1-.79 2-1.63 3-2.5a96.42 96.42 0 0 0 11.5-12.08 16.53 16.53 0 0 1 2.3-2.54c.84-.64 1.86-.87 4.37-1h.47l.36-.32 15.79-13.85c1.09.89 2.47 2.33 2.54 3.87.1 2.54-15.69 12.9-15.69 12.9z" fill="#fff"/><path d="M731.74 808.52l-15.5 13.61c-2.71.13-4 .41-5.13 1.27-2.19 1.67-3.77 5.51-13.89 14.7-.95.87-1.92 1.67-2.91 2.42-11.6 8.83-25.31 10.17-30.85 10.33-1.6.05-2.52 0-2.52 0s.4-5.19 7.09-10.28c3-2.31 5.7-4.14 7.68-5.65 2.37-1.8 3.77-3.15 3.66-4.3-.19-2.11 4.1-8 4.1-8-1.07-5.29 6-11.42 9.56-14.12 1.15-.88 1.93-1.39 1.93-1.39l2.83 4.06a16.92 16.92 0 0 0 11.12-3.79 35.5 35.5 0 0 0 9.42-11.85c9.35 1.35 14 12.48 14 12.48z" fill="#99471f"/><path fill="#2e3233" d="M788.42 753.09l-9.27 12.48.12 6.98 8.47 4.12 4.67-4.16-3.99-19.42z"/><path d="M801.03 731.74l4.66 1-.34 13-1 6.46-3.15 4.23-1.25 26s-6.37 18.29-7.47 19.75-9 8.73-9 8.73l-1.62-2.71s7.22-14.47 7.75-16.39 3.33-19.09 3.6-20.05 6-19.24 6-20.19v-15z" fill="#fff"/><path d="M805.58 752.92s-3.11 2-3.61 4.32 2.35 15.14-.72 27-8.58 21.66-14.23 27.19a4.73 4.73 0 0 1-3.6-.48l.13-.54c1.43-1.39 13-13 15.62-30.32.18-1.23.32-2.47.4-3.7a97.28 97.28 0 0 0 0-15.88 15.55 15.55 0 0 1-.08-3.26c.15-1 .67-1.86 2.22-3.65l.3-.34v-.46l1.68-20c1.26-.14 3.06-.13 4.07.85 1.71 1.59-2.18 19.27-2.18 19.27z" fill="#fff"/><path d="M802.41 733.01l-1.65 19.62c-1.68 1.94-2.34 3-2.55 4.35-.39 2.6 1 6.24.09 19.26a45.83 45.83 0 0 1-.39 3.59c-2.08 13.79-10.18 24-13.7 27.93-1 1.12-1.65 1.72-1.65 1.72s-3-3.73-1.78-11.68c.55-3.61 1.14-6.64 1.5-9 .42-2.82.5-4.66-.29-5.35-1.44-1.28-2.31-8.13-2.31-8.13-4-2.78-3.19-11.7-2.56-15.91.21-1.37.4-2.24.4-2.24l4.37.76a17.15 17.15 0 0 0 4.9-10.11 35.19 35.19 0 0 0-1.21-14.31c6.94-5.48 16.91-1.27 16.91-1.27z" fill="#99471f"/><path fill="#260028" d="M725.12 794.63l-30.58.59 31.51-358.39 68.52-13.44-69.45 371.24z"/><path d="M766.66 747.08c-8.94-10.36-104-97.27-119.55-138.86-2.79-7.44 22.06-166.69 22.34-167.9l58.42 1c0 .13.82 17.51-5.7 50.21-7.51 37.63-22.49 91.41-21.63 93.7 9.47 25.3 57.62 103.39 89.24 140z" fill="#260028"/><path d="M696.88 210.7s-2.69 23 13.62 28.87c22.27 8.06 32.78-12.79 22.42-28.67s22.37.76 27 12.41 31.88 208.77 31.88 208.77-15.83 2.16-41 4.49a142.23 142.23 0 0 0-16.8 2.51c-24.2 5.29-17.38-9-71.44 17.75 0 0 1.13-83.63-3.39-126s-21.84-73.6-.89-94.34 38.6-25.79 38.6-25.79z" fill="#fcf9f7"/><path d="M696.88 210.7s-13.08.65-34 21.4a25.22 25.22 0 0 0-4.49 4c19.35 63.26 19.74 152.5 8.94 218.36 48.93-23.61 43.23-10.3 66.7-15.43a142.23 142.23 0 0 1 16.84-2.48c25.13-2.33 41-4.49 41-4.49s-27.29-197.11-31.9-208.76-37.35-28.3-27-12.41" fill="#fff"/><path d="M789.97 417.6c-.13-.15-52.42 17-59.23 18.37-40 7.86-68.85 6.81-68.85 6.81l.57 16.77 84.78-2.91 44.71-21.18s4.42-10.98-1.98-17.86z" fill="#260028"/><path d="M660.38 442.29l.44 12.79c.9.55-6.59-.45 7.75.12a227.39 227.39 0 0 0 29.42-.42c24.6-1.74 64.23-9.31 95.5-25.4 0 0-1-12.77-3.34-12-68.8 22.7-112.5 27.49-129.77 24.91z" fill="#565455"/><path fill="#231f20" d="M691.55 444.01l-1.36 18.4-9.36-.86 1.18-18.3 9.54.76z"/><path d="M685.58 214.36l31.79 20.09 6.37-15.14s12.9 9.62 12.92 8.2 3.1-21.31 3.1-21.31-8 3.23-10.93 5.09" fill="#020202" opacity=".26"/><path fill="#f9f7f7" d="M571.63 477.29L590.11 488l4.97-18.98-21.58-10.14-1.87 18.41z"/><path d="M689.92 262.6l-31.69-26.73s-55.17 76.9-62.48 92.79c-3.16 6.87-10 24.73-22.25 130.23l21.57 10.19s23.3-115.1 28-130.65 66.85-75.83 66.85-75.83z" fill="#fa6142"/><path d="M713.7 132.3l12.39 21.26 5.87 8.74-5 3.71s10.16 11.43 3.06 18.67c-2.24 2.28-3.71 5.13-5 7a4.32 4.32 0 0 0 .61 5.6l7.22 5.9L714 217.25l-20.14-12.14c4.88-4.67 4.6-10.85 2.12-15.72 0 0-9.29-1.09-11.52-7.7s-3.14-33.51 5.64-40.24 20.07-15.78 23.6-9.15z" fill="#ffcaa0"/><path d="M703.82 146.32c3.82-1.47 8.49-3 10.32-7.14 1.34-3.09.66-6.66 0-10l-2.19-10.21a3.55 3.55 0 0 0-.79-1.86c-.84-.83-2.2-.56-3.32-.24-8.75 2.49-18 5.3-24 12.27-2 2.31-3.74 5.14-6.59 6.1-3 1-6.78-.3-9.27 1.74-1.65 1.36-2.08 3.72-2.39 5.87-.62 4.23-3.45 12.19-2.25 16.28.77 2.62 8 6.62 6.87 9.41-.06 1.71-1.37 3.27-1.09 5a5.32 5.32 0 0 0 2.13 2.94l18.55 16a7.88 7.88 0 0 0 2.77 1.78c3.18.94 6.2-2.76 5.94-6.14s-2.62-6.16-5-8.48c-2.07-2-4.43-4.23-4.45-7.13 0-3.65 4.8-6.19 7.69-4.06 2 1.48 3.58 4.67 5.91 3.86 1.83-.64 2-3.36 1.09-5.14s-2.36-3.29-2.71-5.24c-.51-2.85 1.53-5.41 2.87-7.94a9.38 9.38 0 0 0-.09-7.67z" fill="#260028"/><path d="M686.09 214.65c25.33 48 26.59 106.12 28.74 160.29 1 24.16 0 64.83-8 87.69-16.73 5.73-40.42 7.3-59.84 2.47 5.09-45 12-106.28 8.33-151.46-.47-5.66-4.18-12.2-3.23-17.8.68-4 5.26-7.08 6.72-10.9 4.6-12.08-5.3-36.43-.72-48.52 4.07-10.7 28.27-24.07 28-21.77z" fill="#fa6142"/><g clip-path="url(#a)"><path d="M662.06 286.91c-21.94 18.94-4.7 51.42-6.69 93.65-1.79 38.52-15.89 121.93-15.89 121.93q2.54-1 4.91-1.9c16.39-64.71 31.55-148.99 17.67-213.68z" fill="#e55d41"/></g><path d="M740.15 206.45s1.59 7.79 4.28 20.54c10.55 50.15 38 177.07 51.9 209.56 0 0 15.78-9 23.77-21.5 0 0-47.15-124-53-160.55 0 0 .92-49.74-26.95-48.05z" fill="#fa6142"/><g opacity=".26" fill="#020202"><path d="M805.26 336.78c-34.49-34.58-58.32-71.55-71.57-105.71q.85-6.75 2.28-13.32l-3.22-2.1a77.14 77.14 0 0 1-13.38 7.59"/><path d="M805.26 336.78c-34.49-34.58-58.32-71.55-71.57-105.71q.85-6.75 2.28-13.32c-1.08-.71-4.2-4-5.27-4.75a61.45 61.45 0 0 1-12.45 7.15"/><path d="M805.26 336.78a368.55 368.55 0 0 1-28.74-32.35c-19.38-24.65-33.65-49.68-42.83-73.36q.85-6.75 2.28-13.32c-1.08-.71-4.65-2.49-5.72-3.19 0 0-1.91 1.54-9.64 4.94m3.84 15.88c7 38.27 22.64 79.91 56.16 117.36l17.12 1.81-4.54-14.47"/></g><path d="M726.69 205.32a62.3 62.3 0 0 1-12.11 7.76c-.59 2 .13 7.13-.38 9.19q3.6 2.83 7.31 5.71c8.87 37.86 31.09 78.26 66.4 114q11.39 2.19 22.84 4.37a156 156 0 0 1-3.59-21.19c-36.13-32.77-61.74-68.47-76.63-101.92q.53-6.76 1.62-13.42c-1.08-.67-4.36-3.85-5.46-4.5z" fill="#0078bf"/><g clip-path="url(#b)"><path d="M699.4 256.62l-5.82-3.62a350.08 350.08 0 0 1 52-57.65l4.56 3.36a346.44 346.44 0 0 0-50.74 57.91z" fill="#a6d6ff"/><path d="M709.58 270.95q-3.12-1.81-6.18-3.63a334.28 334.28 0 0 1 47.09-58.52c1.61 1.15 3.25 2.3 4.89 3.46a329.81 329.81 0 0 0-45.8 58.69zm11.31 14.32q-3.27-1.8-6.5-3.62a317.55 317.55 0 0 1 42.19-59.06c1.72 1.18 3.46 2.35 5.21 3.54a312.35 312.35 0 0 0-40.9 59.14zm12.59 14.23c-2.29-1.19-4.56-2.39-6.82-3.58a298.29 298.29 0 0 1 37.29-59.27l5.55 3.58a293.47 293.47 0 0 0-36.02 59.27zm13.81 14.06l-7.14-3.54a279 279 0 0 1 32.43-59.14l5.87 3.62a273.31 273.31 0 0 0-31.16 59.06zm15.05 13.79q-3.75-1.72-7.46-3.46a257.09 257.09 0 0 1 27.55-58.69l6.19 3.63a251.74 251.74 0 0 0-26.28 58.52zm16.24 13.45l-7.78-3.36c4.37-18.53 11.93-38.12 22.7-57.9l6.51 3.62c-10.33 19.75-17.43 39.25-21.43 57.64zm17.5 13.01q-4.07-1.61-8.1-3.23c2.77-17.94 8.71-37.15 17.86-56.79q3.39 1.8 6.83 3.59c-8.73 19.57-14.25 38.7-16.59 56.43z" fill="#260028"/></g><path d="M726.31 206.91s-1.83 1.63-9.38 5.42c-.59 2.05-2.19 7.9-2.7 10q3.6 2.83 7.31 5.71c8.87 37.86 31.09 78.26 66.4 114q11.39 2.19 22.84 4.37a156 156 0 0 1-3.59-21.19c-36.13-32.77-61.74-68.47-76.63-101.92q.53-6.76 1.62-13.42c-1.11-.73-4.77-2.33-5.87-2.97z" fill="#260028"/><path d="M681.83 217.73c0-4 1.15-7.65 4.9-8.14 2.38-.31 4.68.85 6.8 2 3.08 1.63 6.34 3.45 7.9 6.57a17 17 0 0 1 1.33 5.18c6.31 43.34 12.64 87 11 130.72l-30.39-125.5a47.58 47.58 0 0 1-1.54-10.83z" fill="#fa6142"/><path fill="#f9f7f7" d="M718.99 210.88l13.28 10.49 7.89-14.93-10.69-8.13-10.48 12.57zm-26.43-8.39l-4.79 11.08 27.46 13.49 3.76-16.18-26.43-8.39z"/><path d="M962.85 67.7c-.13 1.3-9 8.9-12.18 17a46 46 0 0 1-10 15.47c-.85 3.76 3.32 3.88 3.53 6.64.54 7.72.46 11.47 1.6 14.53 2.41 8.33 11.5 7 11.85 17.07-.73 13.77.05 13.75-12.6 15-23.21 2.38 19.48 27.39 45.11 22.27 32.43-6.48-4.86-3.47-5.08-21.85-.44-18.46 17.11-37.24 15.57-48.52-1.84-11.11-21.71-42.65-28.08-40.15-6.29 2.26-11.36 3.83-9.68 2.5z" fill="#ffb143" fill-rule="evenodd"/><path d="M962.85 67.7c-.13 1.3-9 8.9-12.18 17-3.39 8-7.38 12.14-11.16 16.29-.85 3.76 4.44 3.06 4.65 5.82.54 7.72-2.61 14.89-1.47 18 .51 1.77 1.95 2.41 3.42 2.72 5.83 1.24 11.56 3 11.5 10.92 0 4.17.14 10.71-2.78 12.65-4.87 3.23-14.9.75-22.81 1.54-26.56 2.73 31.16 26.49 59.85 24.54 38.87-2.65-6.61-4.92-6.83-23.3-.44-18.46 17.11-37.24 15.57-48.52-1.84-11.11-21.71-42.65-28.08-40.15-6.29 2.26-11.36 3.83-9.68 2.5z" fill="#99471f" fill-rule="evenodd"/><g clip-path="url(#c)"><path d="M950.19 128.47a49.38 49.38 0 0 1 6.91 1.85c12.21 5.11 8.76 15.52 3.48 21.11 0 0-3.52 3.26-12.87 1.59" fill="#753617"/></g><path d="M1017.31 213.91c28.69 25.31 66.31 52 85.52 71.82 10.8 11.2 72.44 100.49 72.18 88.54a50.29 50.29 0 0 0-.11-6.25c12.07 4.31 29.48 12.24 27.87 6.75l-29.3-20.24c-19.83-29.21-38.37-66.53-54.71-86.25-24.86-30-86.62-86.11-123.26-93.83 4.47 16.27 3.33 36.75 7.68 52.87 2.53.25 3.15 2.22 4.56-.19 2.79-4.77 6.78-12.14 9.57-13.22z" fill="#99471f" fill-rule="evenodd"/><path d="M971.49 574.85a279.8 279.8 0 0 0-12.77 3.48c5.52 4.06 17.21 16.43 31.66 32.35l.53-.53c18.87-5.84 67.75-54.16 84.1-67.08-11.2-13.23-35.52-33.47-58.22 2.78-10.68 12.47-24.27 23.79-45.3 29z" fill="#bfa430"/><path d="M1046.01 511.61c1.77 1.49-16.79 10.52-13.15 15.4 5.46 7.32 34.13 12.31 42.35 24.6 21.11-23.19 37.1-48.22 45.2-66.56 0 .03-54.46 11.22-74.4 26.56z" fill="#bfa430"/><path d="M987.91 485.9c-.17 22.49 9 43.06 24.81 61.47 23.79 27.79 116.12 1.72 209.3-8.1 19.46-2.05 69 14.32 76.19 6.74 4.16-4.57-13.19-11.21-30.12-19.27-12-5.7-23.63-14.29-27.76-13.75-10.09 1.32-12.74 7.79-22.79 7.79-45.35 1.06-105.33-5.68-152.21.71l-19.09 3.85c-4-27.47-5.22-51.07-5.22-51.07-19.34 5.22-48.8-7.05-53.11 11.63z" fill="#99471f" fill-rule="evenodd"/><g clip-path="url(#d)"><path d="M1050.23 520.78s-10.35 7.92-16.32 19.54c0 0-8.58 15.68-18.51 22.6l-9.7-7.84 36.88-48.14z" fill="#753617"/></g><path d="M1111.97 740.08c0 .17.08.46.14.78 0-.2 0-.41.07-.62z" fill="#f37000"/><path d="M1111.32 738.08c-1.24 10.61-2.86 14.64-12 20.12 3.75 8.86 4 26.75 10 39.62.45.88 5.11 9.71 10 4.71 2.41-2.43-1.68-38.84-4.74-56.48-.59-3.58-3-6.35-3.26-7.97zM818.37 97.62c-.25-5.72.12-16.34.22-17.22.9-7.73 14.49-49.18 10.36-51.07s-18.15 37.88-19.76 38.36 4.81-18.41 2.24-19.61-12.79 30.75-10.26 33.1a3.49 3.49 0 0 1 .47 1c5.21 3.34 10.38 16.16 16.73 15.44z" fill="#99471f"/><path d="M903.87 195.53c4.52-19.45 15.08-41.28 15.08-41.28-4.54 1.2-57.32 29.52-78.58 36.36l-3.12.94c-4.51 1.46-7 2.43-7.63 2.2-3.08-1.15-11.22-77.85-11.29-98.61-6.28-1.23-13.42-10.53-17.47-15.38 1.1 12.32-2.01 132.32 12.18 139.32 4.43 2.19 13 .79 24.87-1.34 10.58-2.5 39.59-13.94 65.96-22.21z" fill="#99471f"/><path d="M1012.82 176.89a155.1 155.1 0 0 0-20.24-11.67c-12.26-6-61.47-12.95-61.47-12.95l-1.89 8.33-2.5 42.16s51 22.63 53.65 20.13 26.87-24.95 28.26-26.79 4.17-19.21 4.17-19.21" fill="#99471f" fill-rule="evenodd"/><ellipse cx="993.92" cy="129.73" rx="11.06" ry="11.65" fill="none" stroke="#ffdc40" stroke-miterlimit="10" stroke-width="5"/><path d="M1028.68 75.84c2.79-11.08-9.15-17.41-18.62-17.13-7 .2-14.35-10.73-22.08-12.35-10.41-2.19-22.22-1.9-29.1 0-9.44 2.61-10.21 14.06-10 22.59s1.29 14.17 9.55 17.06c20.36 1.55 39.1 12.47 31.74 41a62 62 0 0 0-1.73 6.75c23.23-11.83 35.73-33.92 40.24-57.92z" fill="#260028" fill-rule="evenodd"/><path d="M995.34 59.18c-1.39-8.52 4-16.7 13.08-22.45 7.42-4.67 15.94-8.37 24.14-6.12 4.19 1.15 8 3.42 12.39 3.92 15.53 1.79 28.11-19 43.57-16.75 7.15 1 12.68 7.13 14.83 14.08s1.42 14.58-.13 21.84c-.92 4.27-2.09 8.82-.55 12.8 2.24 5.78 9.12 7.81 15.21 8.89 8.44 1.51 17.19 2.58 24.7 6.59s13.68 11.83 12.94 20.58c-.52 6-4.1 11.36-6.82 16.82s-4.6 12.16-1.74 17.31c3.65 6.55 12.84 7.21 18.36 12.21 6.17 5.59 6.42 16 2.34 23.63s-11.54 13-19.26 16.79c-13.7 6.76-30 9.57-43.58 3.69s-22.82-22.17-17.79-36.69c1.84-5.31 5.33-10 7.11-15.32s1.26-12.14-3.37-14.93c-4.87-2.93-11.45 0-17-1.5-9.4-2.57-10.5-15.73-7.74-25.41 1.31-4.61 3.1-9.29 2.63-14s-4.2-9.39-8.87-8.8c-4.23.54-7.38 5-11.62 5.42-6.18.62-9.17-7-14-10.75-7.17-5.54-19.91.25-21 9.54" fill="#260028"/><path d="M1045.81 424.24c-24.27-27.3-43.84-89.67-53.24-109.8-2.06-4.42-3.62-7.93-4.62-10.22 2.06-7 5.85-19.73 10.48-34.28 4-12.48 8.6-26.34 13.3-39.11 6-16.4 9.93-35.45 15-43.13-3.57-4.76-5.42-5.11-9.51-7.89-1.23 3-14.3 32.13-52.53 22.84-40.27-9.78-29-47-29-47v-.39c-5.31.76-9.59 1.2-12.34 1.93 0 0-12.53 26.15-15.71 44.84-.78 4.52-1 8.62-.35 11.8 3.25 15.9 12.46 64.07 8 77.94l-1.17-.63a123 123 0 0 0-8 10.39l-11.75 18.83c-12.74 22.93-27.6 82.19-30.1 128.21-4.57 84.19 51.77 150.28 51.77 150.28s.7-.34 2-1a351.57 351.57 0 0 1 45.06-16.64c4.11-1.22 8.38-2.38 12.77-3.47 21-5.21 34.62-16.53 45.3-29 6.23-7.27 11.48-14.91 16.63-22a64.76 64.76 0 0 1 12.59-12.28c19.94-15.34 74.4-26.56 74.4-26.56s-44.88-25.34-78.98-63.66z" transform="translate(-4.42 -2.92)" fill="url(#e)"/><path d="M1112.11 740.85c-.06-.32-.11-.61-.14-.78-8.64-6.7-22.49-18.89-42.55-40.47-21.17-22.78-59.37-67.23-79-88.92-14.45-15.92-26.14-28.29-31.66-32.35a350.47 350.47 0 0 0-45.06 16.63l.11.44s36.77 36.06 79.77 72.44c43.25 36.6 99.29 75.44 104.35 87.18.39.91.86 2 1.37 3.2 6.65-3.97 11.91-9.68 12.81-17.37z" fill="#99471f"/><g clip-path="url(#f)"><path d="M917.36 603.59s36.51-15.27 51.44-18l-12.83-19.81-56.16 23.87z" fill="#753617"/></g><path d="M1110.8 734.14c-5.86.51-2.23 6.9-2.2 7 4.62 8.12 7 21 9 30 2.13 9.39 1.74 20.65-7.67 25.27a5.21 5.21 0 0 1-2 1.39v.12c-.48.83-.28 1.85-.92 4-1.18 3.89-1.9 18.61 4.69 12.33s21.75-22.23 19-33.17-9.74-31.35 2.63-26.18c7.83 3.28 9.84 4.25 10.26 4.53l1.29-2.58s-10.25-7.56-15.52-15.44-12.79-7.69-18.67-7.18" fill="#fff"/><path d="M1338.16 520.35c14.38 14.93 23.35 30 20 33.58s-14.48-7.24-29.9-21.1c-17.21-15.46-22.47-29.64-21.8-33.7.84-4.84 17.32 6.28 31.7 21.22z" style="mix-blend-mode:multiply" fill="#ccc"/><path d="M1307.83 497.64c-4.23 4.09 2.63 6.76 2.68 6.78 8.7 3.38 18.67 11.86 26 17.57 3.92 3.08 7.62 6.85 9.74 11.42 2.39 5.15 1.45 9.47-.15 14.64a2.3 2.3 0 0 0-.14.81 2.24 2.24 0 0 0 .32.93c2 3.8 3.87 7.67 7.07 10.64 2.53 2.35 5.23 2.82 5.76-1.31 1.16-9 2.85-31-6.15-37.76s-27.33-18.17-14.48-22c8.15-2.4 10.32-2.91 10.82-3l-.62-2.81s-12.72.6-21.79-2.19-14.77 2.1-19 6.21" fill="#fff"/><path d="M477.45 143.49c11.35.15 22.2 2.27 33.39 3.21 9.18.76 21.56-.21 30-4.33l-47.81 23.27z" fill="#ba4cd0"/><path d="M742.88 33.99c1.64-7.79 15.09-40.45 18-32.85 2.14 5.26-2.58 17.32-2 25.68.35 5.38.37 7.53 3.18 6.51 2.12-.62 3.24-1.89 4.87-4.4 2.15-3.74 2.73-5.93 4-2.66 1 2.72-8.53 36.94-13.2 37.4-7.86.37-13.25-.79-21.07-.31 2.18-11.41 4.49-21.53 6.22-29.37z" fill="#ffcaa0" fill-rule="evenodd"/><path fill="#ffcaa0" d="M485.25 206.55l-13.01-38.86 149.48-46.94 115.37-59.7 23.07 1.03-127.84 86.08-147.07 58.39z"/><path d="M22.95 574.46l9.19.9 25.26-5 2.81 30s-35.54 8.22-38 6.82.74-32.72.74-32.72zm182.42 260.99c-1-1.38 6.63-25.51 6.63-25.51l24.55.76-5.32 42.22s-22.5-3.18-23.27-5.1-2.59-12.37-2.59-12.37z" fill="#063966"/><path d="M252.01 846.08s13.24 13 14.57 14.19a27.86 27.86 0 0 1 2.69 2.87s5.14 7.83 6.61 8.74 8.6 2.67 9.18 3.3 4.46 1.55 4.46 1.55 6.41 7.1 6.9 7.5-2.7 9.65-2.7 9.65l-57.36-19.45s-42.4-20.83-42.39-21.3 5.12-7.27 5.94-8 6.49-16.53 6.49-16.53l1.32.08a28 28 0 0 0 3.32 8.45c2.28 3.39 6.08 6.43 8.42 6.37s3.21.2 5.6-1.23 7.33-16.26 12.92-11 10.26 9.94 10.26 9.94z" fill="#e33836"/><path d="M304.76 891.26c-.28.14-111.28-38.12-110-40.63q-.47-.31-.81-.6a5.82 5.82 0 0 1-.75-.72 10.52 10.52 0 0 0-1.44 6.06 7.61 7.61 0 0 0 3.62 5.55 40.88 40.88 0 0 0 4.82 2.6c4.38 2.08 10.48 4.56 16.38 6.87 5.68 2.28 11.55 4.63 15.6 6.55l1.19.58c2.2 1.1 4.95 2.6 8.14 4.33 5.22 2.85 11.14 6.08 17.19 9 7.56 3.59 13.57 5.77 18.36 6.66 2.09.39 4.23.89 6.29 1.36 7.68 1.78 14.94 3.46 19.22-.34 1.95-1.72 3-4.35 3.24-7.94a4 4 0 0 1-1.05.67z" fill="#eaeaea"/><path d="M194.15 850.2a9.38 9.38 0 0 0 .8.63c2.81 2 10.16 5.49 26.47 13.23 24.22 11.49 52.1 22.68 69.14 26.85a.14.14 0 0 1 0-.07 28.54 28.54 0 0 0-.62-6.2c-.09-.42-.21-.82-.32-1.23s-.23-.84-.37-1.25a18.2 18.2 0 0 0-4.17-7 .83.83 0 0 1-.08-.12c-2.1-.78-4.1-1.55-5.82-2.37-2.4-1.14-4.29-2.37-5.26-3.85a52.25 52.25 0 0 0-4.63-5.7 72.79 72.79 0 0 0-7.46 1.32c-1.6.37-1.85-2.29-.27-2.66 1.82-.42 3.65-.77 5.49-1.07l-2.13-2.21a57.63 57.63 0 0 0-8 1.68c-1.57.46-2.48-2-.9-2.5 2.16-.62 4.33-1.14 6.52-1.54-.76-.76-1.52-1.51-2.26-2.23a57.66 57.66 0 0 0-9 1.62c-1.57.46-2.49-2-.91-2.5a52.47 52.47 0 0 1 7.51-1.48l-1.83-1.74a28.73 28.73 0 0 0-10.16 1.45c-1.57.49-2.48-2-.9-2.5a36.22 36.22 0 0 1 8.23-1.61l-1.21-1.07s-9-12.41-14.58-15.07c-1.71-.81-3.1-.71-3.82 1-1.79 4.17-3.58 8.65-6.7 11.31-2.21 1.88-5.07 2.84-9.1 2.1a9.55 9.55 0 0 1-2.44-.78c-4.62-2.19-6.93-7.66-8-11.6a31.48 31.48 0 0 1-.93-4.41c-4.11 2-5 7.38-8.36 15.09-1.52 3.52-5 4.19-4.51 5.65a2 2 0 0 0 .58.83z" fill="#e33836"/><path d="M306.09 888.45c-1.41-4-5.33-6.79-10-9-2.09-1-8.93-3.37-11.16-4.2a22.72 22.72 0 0 1 2.68 6.54 27.106 27.106 0 0 1 .48 2.4 34.17 34.17 0 0 1 .4 5.44 1.43 1.43 0 0 1-.07.37c5.73 1.24 14.58 3 16.64 2.06a2.63 2.63 0 0 0 1-.78 2.54 2.54 0 0 0 .25-2.32 4.84 4.84 0 0 0-.22-.51z" fill="#e33836"/><path d="M314.5 343.08l-17.92 145-17.89 48.69-9.91 41.71-64.35 243.21c13 1.64 25.83 2.36 38.7 3.17l160.54-435.72z" fill="#260028"/><path d="M493.27 159.5c4.12-4.11-29.13-24.26-33-23.37-27.92 6.48-42.53 16.48-50.19 21.32a98.36 98.36 0 0 0-22.64 20.32c16.92 34.29 34.73 68.52 58.66 98 30.03-74.63 41.33-110.44 47.17-116.27z" fill="#ffcaa0"/><path d="M451.42 236.75a5.1 5.1 0 0 1 3-3 5.69 5.69 0 0 1 7.28 3 5.14 5.14 0 0 1 .05 4.19 5.07 5.07 0 0 1-3 3 5.67 5.67 0 0 1-7.27-3 5.1 5.1 0 0 1-.06-4.19zm-15.013 40.3l11.981-29.402 7.881 3.21-11.981 29.403z" fill="#fff"/><path d="M40.21 625.78s-4.27 18.48-4.63 20.3a29.06 29.06 0 0 1-1 3.84s-4 8.53-4 10.32 2 9.17 1.78 10 .9 4.83.9 4.83-2.73 9.34-2.82 10-9.35 2.28-9.35 2.28L9 625.35s-3.57-48.94-3.18-49.17 8.56 1.13 9.58 1.51 16.92-2.18 16.92-2.18l.58 1.25a26.9 26.9 0 0 0-5.37 7.17c-1.7 3.75-2.35 8.71-1.15 10.82s1.41 3 3.77 4.51 17.12-1.27 15.47 6.43-3.2 14.25-3.2 14.25z" fill="#e33836"/><path d="M28.67 696.13c-.26-.19-23.14-120.35-20.41-120.4a9.73 9.73 0 0 1 .1-1 5.88 5.88 0 0 1 .23-1 9.23 9.23 0 0 0-5.74 1.65 7.63 7.63 0 0 0-2.83 6 45.68 45.68 0 0 0 .21 5.7c.43 5 1.4 11.77 2.34 18.29.91 6.31 1.85 12.83 2.25 17.47 0 .47.08.93.1 1.37.18 2.55.28 5.8.41 9.56.21 6.17.44 13.16 1 20.09.75 8.67 1.9 15.22 3.51 20 .7 2.1 1.35 4.3 2 6.42 2.3 7.89 4.48 15.34 9.74 17.39 2.39.93 5.1.61 8.19-.93a4.4 4.4 0 0 1-1.1-.61z" fill="#eaeaea"/><path d="M31.65 695.96c2.62-3.24 3-8.19 2.55-13.58-.2-2.39-1.6-9.81-2-12.25a22.07 22.07 0 0 1-4.11 5.65c-.29.28-.57.56-.88.84s-.58.52-.88.77a31.42 31.42 0 0 1-4.32 3 1.12 1.12 0 0 1-.34.11c1.79 5.85 4.65 14.81 6.48 16.21a2.44 2.44 0 0 0 1.13.52 2.27 2.27 0 0 0 2.06-.9c.11-.09.24-.25.31-.37z" fill="#e33836"/><path d="M8.31 574.95a8.15 8.15 0 0 0-.13 1c-.28 3.54.44 12 2 30.67 2.38 27.76 6.82 58.7 11.74 76.32h.05a26.23 26.23 0 0 0 4.85-3.61c.3-.29.58-.59.86-.9s.58-.62.86-1a18.25 18.25 0 0 0 3.74-7.22.39.39 0 0 1 .06-.13c-.39-2.31-.73-4.51-.9-6.49-.23-2.75-.14-5.08.61-6.68a53.52 53.52 0 0 0 2.45-7 81.613 81.613 0 0 0-4.76-6.17c-1.1-1.29 1-2.82 2.07-1.55 1.25 1.46 2.44 3 3.59 4.5.26-1 .53-2 .79-3a62.19 62.19 0 0 0-5.32-6.45c-1.15-1.21.47-3.28 1.63-2 1.58 1.67 3.08 3.39 4.49 5.2.26-1.07.51-2.13.74-3.16a62.92 62.92 0 0 0-5.8-7.47c-1.15-1.21.47-3.27 1.63-2a56.14 56.14 0 0 1 5.02 6.01c.19-.9.38-1.74.54-2.53a31.38 31.38 0 0 0-6.21-8.57c-1.17-1.19.45-3.25 1.63-2a38.23 38.23 0 0 1 5.4 6.73c.21-1 .32-1.62.32-1.62s5.84-14.34 5.32-20.75c-.17-2-.94-3.19-2.68-3-4.34.4-8.95 1-12.69-.58-2.64-1.09-4.86-3.24-6.23-7.28a10.72 10.72 0 0 1-.54-2.62c-.46-5.29 2.94-10.08 5.67-13a29 29 0 0 1 3.2-3c-3.65-2.79-8.61-1-16.65-.24-3.66.34-5.91-2.47-6.91-1.34a2.15 2.15 0 0 0-.44.93z" fill="#e33836"/><path d="M311.28 346.82c-.22.41-22.14 41-48.87 83-48.51 76.34-67.23 86.07-68.69 86.74-46.14 15.1-125.34 42.64-151.35 51.68 4.27 13.53 13.34 25.65 17.55 39.44 28-4.7 104.77-17.5 151.4-32.76 16.92-5.53 63.1-19.73 119.06-98.78 30.54-43.14 64.75-87.62 65.71-89.4zM193.65 516.6z" fill="#260028"/><path d="M475.99 166.82c-13.22-.67-27.15-8.86-30.22-22.06l3.42-3.43 6.74-4.43s-77.67 21.08-92.41 23.18c2.07 5.85 5.59 4.16 8.06 9.8-9.19 12.7-19.59 36.54-31.88 83-12.08 45.66-35.86 97.84-46.82 110 43.36 17.05 71.23 38.37 116.52 49.27 3.89.89 3-6.87 2.8-9-6.79-74.42 52-112.21 71.07-153.37 17.54-37.83 20-50.28 18-89.79a37.66 37.66 0 0 1-25.28 6.83z" fill="#ba4cd0"/><path d="M475.99 166.82c-13.22-.67-27.15-8.86-30.22-22.06l3.42-3.43 6.74-4.43s-77.67 21.08-92.41 23.18c2.07 5.85 5.59 4.16 8.06 9.8a114.34 114.34 0 0 0-11.4 20.75c3.37 58.08-22.53 116.6-61 163.2a62.14 62.14 0 0 1-6.33 9c43.05 16.93 70.85 35.13 115.56 46.05-6.15-23.67-5.52-48.22 4.69-71.43 8.26-16.22 22.22-27.07 35.55-38.17 13.4-17.61 27.08-33.31 34.59-49.52 17.54-37.83 20-50.28 18-89.79-2.58 1.75-4.1-1.26-6.93-.13-5.25 2.16-12.14 7.56-18.32 6.98z" fill="#ba4cd0"/><path d="M337.67 253.08c-9.61 38.12-27.09 80.74-38.72 100.8 36.93-46.45 61.72-104.87 58.26-162.94-5.96 14.07-12.43 33.91-19.54 62.14z" fill="#a342ba"/><path d="M126.78 262.79c-7.78 1.7-43.08 2.9-37.34-2.87 3.9-4.12 16.84-4.78 24.23-8.72 4.76-2.54 6.71-3.45 4.62-5.59-1.44-1.67-3-2.17-6-2.62-4.3-.42-6.53 0-4.08-2.57 2-2.07 21.91-1.78 37.07-5 3.57 7 6.3 13.21 9.95 20.14-11.31 2.75-20.6 5.58-28.45 7.23z" fill="#ffcaa0" fill-rule="evenodd"/><path d="M411.46 195.48s-54.09 11.34-58 40.54c-1 7.17-1-31.47-1-31.47l11.94-8.47z" fill="#a342ba"/><path fill="#ffcaa0" d="M420.38 146.51l12.98 45.25-154.9 23.04-123.71 41.17-9.48-20.5 122.45-52.38 152.66-36.58z"/><path d="M362.99 203.88c9.32 3.64 80.64-2.11 80.64-2.11l-.14-63.69-177.12 41.11-115 50.49 7.1 15.94 9.68 9.29c2.7 2.59 42.21-15.24 47.63-17.2 17-6.11 34-12 51.33-17.07 31.61-9.18 63.47-12.49 95.88-16.76z" fill="#ba4cd0"/><path d="M455.66 158.57c-11.08-9.61-13.1-16.72 1.25-21-4.39-1.85-15.68-1.5-17.39 5-.13-.07-.26-.16-.4-.23-2.84 29.67 56.84 34 55.7 14-9.59 9.74-28.79 11.23-39.16 2.23z" fill="#ca66e2"/><path d="M295.24 359.91c-2 2.28-3.64 3.87-3.64 3.87 36.5 14.22 135.32 73.95 120.68 40.88-.31-.72-2.16 8.37-12.94 4s-31.69-14.09-104.1-48.75z" fill="#ba4cd0"/><path d="M32.66 569.79l17.58 41.6c.73-.2 23.37-3.57 29.39-4.58-4.21-13.79-13.24-34.32-17.5-47.85-5.29 1.84-29.3 10.79-29.47 10.83zm169.57 261.18l40 1.22 9-27.89c-13.37-.85-28.31-3.2-42.4-3.18z" fill="#e9e5e9"/><path d="M147.58 231.08s14.72 26.49 16.65 25.35c.28-.17 4.31-.36 5.56-.92-7.13-7.94-12.33-15.89-17.8-25.91a14.52 14.52 0 0 0-4.41 1.48z" fill="#ca66e2"/><path d="M730.64 62.5s-96.06 52.28-114.17 57.31l-121.65 36.46s-4.95 29.14 4.34 47.15c0 0 99.24-37 121.52-46.34 0 0 13.79-5.51 34.39-20.7l85.4-58.49z" fill="#ba4cd0"/><path d="M732.58 61.34l-2 1.16c1.83 5 6 12.08 9.83 15.39.61-.78 1.48-2.17.74-2.33-2.41-.55-8.57-14.22-8.57-14.22z" fill="#ca66e2"/><path d="M519.13 122.9c.12 1 .26 2 .44 3a22.25 22.25 0 0 1 .51 3.7 2.63 2.63 0 0 1-.51 1.84 2.67 2.67 0 0 1-1.09.64c-3.08 1.1-6.57.3-9.51.34-2.65 0-6.26-.42-8.84 1.4a15.45 15.45 0 0 0-2.3 2.13 26.18 26.18 0 0 0-5.56 8.41c-1.65 4.42-1.25 8.91 2 12.37 0 0-1.89 3.21-13.91 4.08-26.23 1.9-23.48-23.25-23.48-23.25l-3.19-13.48h1.05c-.49-5.79-.52-6 .42-6.36l.09-.05c-.45-4.21-2.45-16.59 9.54-30.12s30.5-14.83 48.79-14.88c1.05.44 2.54.58 3.41 1.24 1.14.87 1.85 2.94 2.1 4.27.34 1.82.43 3.65.68 5.48a28.14 28.14 0 0 0 1.56 7 107 107 0 0 0 5.41 10.42s3.81 4.87-.89 4.92c-3.74.05-7.12.38-7.14 4.88a105.43 105.43 0 0 0 .42 12.02z" fill="#ffcaa0"/><g clip-path="url(#g)"><path d="M512.88 132.59c-2.09-.06-3.78-.13-5.65-.11a22.35 22.35 0 0 1-9.59-2 27.91 27.91 0 0 0-4.18-2c-8-2.34-9.67 5.73-8.81 11.61a23.34 23.34 0 0 0 10.2 16.17c6.11-7.98 11.92-15.69 18.03-23.67z" fill="#e6b690"/></g><path d="M496.58 78.13c5.45.64 11.9 1.79 16.59-1.94 3.46-2.75 4.8-7.32 6-11.59l3.41-13.19a4.55 4.55 0 0 0 .17-2.65c-.5-1.47-2.28-2-3.81-2.32-11.91-2.49-24.62-4.92-36-.54-3.76 1.45-7.55 3.67-11.53 3-4.22-.68-7.89-4.52-12.08-3.68-2.79.56-4.72 3-6.38 5.33-3.23 4.53-11.37 12.06-12.37 17.53-.66 3.51 5.57 12.62 2.5 15.15-1.09 2-3.6 3-4.28 5.08-.5 1.55.14 3.22.76 4.72l12.47 30a10.46 10.46 0 0 0 2.22 3.77c3.22 3 9 .61 10.78-3.47s.58-8.76-.89-12.94c-1.26-3.58-2.73-7.63-1-11 2.17-4.25 9.44-4.24 11.6 0 1.49 2.94 1.45 7.61 4.71 8.1 2.57.39 4.36-2.68 4.4-5.28s-.83-5.27-.07-7.75c1.1-3.62 5.07-5.33 8.2-7.45 2.67-1.85 4.31-5.46 4.6-8.88z" fill="#260028"/></g></svg>