<svg xmlns="http://www.w3.org/2000/svg" viewBox="0 0 594.907 384.285"><defs><style>.a{fill:#573e82}.b{fill:#2bd69e}.c{fill:#ffdc40}.d{opacity:.1}.e{fill:#0078bf}.f{fill:#fa6142}.g{fill:#fff}.h{fill:#fcfcfc}</style></defs><g transform="translate(0 -.015)"><path class="a" d="M29.5 315.2c-1.4 1.7-2.6-.7-2.6-2.3v-40.4c0-1.2 1.1-.9 2.5-2.4s2.5 1.1 2.5 2.7v39.6c.1 1.2-1 1.1-2.4 2.8z"/><path class="b" d="M58.9 291.9c-19.6-8.3-39.3 9.7-58.9 1.5 10-44.4 19.8-95 29.5-144.9 9.6 46.1 19.4 91.7 29.4 143.4z"/><path class="a" d="M130.2 367.3c-1.4 2.6-2.6-.5-2.6-2.2v-62.8c0-1.1 1.1-.1 2.5-2.2 1.4-2.2 2.5 1.1 2.5 2.9v61.6c.2.9-1 .1-2.4 2.7z"/><path class="c" d="M79.4 343.7c33.9-11.6 67.8 13.6 101.6 2-17.3-62.4-34.2-133.4-50.8-203.6C113.6 207 96.7 271 79.4 343.7z"/><ellipse class="d" cx="181.2" cy="17.7" rx="181.2" ry="17.7" transform="translate(223.5 311)"/><path class="e" d="M532.7 199.2c.3 20.5.5 40.9.8 61.4-63.8-39.7-126.8-52-189.1-93 .3-20.9.8-62.7.8-62.7s124.3 54.2 187.5 94.3z"/><path class="e" d="M347.3 293.7c-39.4-12.8-78.8 15.1-118.2 2.3.2-43.9.7-131.7.7-131.7L346.1 72l1.2 221.7z"/><path class="f" d="M347.3 326.5c-44.2.4-118.2 2.3-118.2 2.3l.7-131.7 116.3-92.3 1.2 221.7z"/><path class="g" d="M299.9 193.5l-.1 33.9-17.4-.6.2-34.2zm-17.5 39.1l17.4.6v44.1c-5.9 1.1-17.6-.2-17.6-.2zm40.7-39.2l.2 33.6-17.4-.6v-33.9zm-17.2 38.7l17.4.6.2 43.6s-11.7-1.3-17.6-.2z"/><path class="c" d="M533.8 257.9l.8 64.8-190.2 1.6 1.9-160.6z"/><path class="g" d="M471.8 323.2l-35.2.6.3-46.1c.1-9.4 7.8-15.3 17.4-17.3 9.5-2 17.3 7.7 17.4 17.6 0 15 .1 45.2.1 45.2zm-87-93.1c.1 6.6-5.4 11.3-12.3 12.3s-12.4-5.3-12.3-12.3c.1-6.8 5.6-11.5 12.3-12.3s12.2 5.4 12.3 12.3z"/><path class="b" d="M594.9 311.8c.2 10.9-3.9 21.8-12.1 28.9-27.3 23.8-66.2-12.4-51-42.7 2.9-5.7 7.3-10.5 9.8-16.3 7.5-17-2.5-38.7 7.1-54.7 2.8-4.7 7.7-8.6 13.2-8.6 7.5.1 13 7.5 14.9 14.8 2.9 11.3.1 23.5 2.7 34.9 2.6 11.7 10.6 21.6 13.9 33.1a48.384 48.384 0 0 1 1.5 10.6z"/><path class="a" d="M561.6 384.3a2.006 2.006 0 0 1-2-2v-86a2 2 0 1 1 4 0v86a2.006 2.006 0 0 1-2 2z"/><path class="h" d="M162.1 51s-12.7 1.1-11.8 12.8 17 9.2 27.6 9.2c10.7 0 72.3 4.8 85.2-3.5 10.9-7 9.8-26.7-18.4-28.3C243 41.1 260.5 9 215.5.8c-31.5-5.7-35.4 21.5-35.4 21.5s-16.8-2.4-22.5 12.4c-4.3 11.1 4.5 16.3 4.5 16.3z"/></g></svg>