<svg xmlns="http://www.w3.org/2000/svg" viewBox="0 0 1178.667 920"><defs><style>.cls-1{fill:#ffcaa0}.cls-27,.cls-4{fill:#fff}.cls-36{fill:none;stroke-miterlimit:10}.cls-31,.cls-7{fill:#0078bf}.cls-8{clip-path:url(#clip-path)}.cls-9{fill:#ffdc40}.cls-26,.cls-27,.cls-30,.cls-31,.cls-32{fill-rule:evenodd}.cls-12{fill:#ff7db1}.cls-13{fill:#262763}.cls-17{fill:#33abf0}.cls-19{fill:#009665}.cls-20{fill:#c3e3f5}.cls-21{fill:#ffa280}.cls-22{fill:#afaac4}.cls-23{fill:#827c91}.cls-24{fill:#aeaeaf}.cls-26{fill:#a6d6ff}.cls-30{fill:#fa6142}.cls-32,.cls-44{fill:#260028}.cls-34{fill:#87199d}.cls-36{stroke:#968eab;stroke-width:2.089px}.cls-40{fill:#e6e7e8}.cls-42{fill:#77787b}.cls-43{fill:#b1b3b6}.cls-47{clip-path:url(#clip-path-16)}.cls-50{clip-path:url(#clip-path-18)}</style><clipPath id="clip-path"><path id="Rectangle_2220" d="M0 0h689.922v450.479H0z" data-name="Rectangle 2220"/></clipPath><clipPath id="clip-path-16"><path id="Rectangle_2272" d="M0 0h62.742v24.918H0z" data-name="Rectangle 2272"/></clipPath><clipPath id="clip-path-18"><path id="Rectangle_2274" d="M0 0h101.134v97.644H0z" data-name="Rectangle 2274"/></clipPath></defs><g id="Main_image_partner" transform="translate(-128.086)"><g id="Group_8052" data-name="Group 8052" transform="translate(222.724 164.313)"><path id="Path_6479" d="M227.5 436.088c.162-.406.162-10.876.243-11.282 12.987-45.291 42.937-142.692 59.82-188.8 2.516-6.9 4.708-12.987 6.412-18.181a33.235 33.235 0 0 1 2.435-5.682 38.477 38.477 0 0 1 5.195-7.467 6.25 6.25 0 0 1 9.659.081c25.162 29.545-8.279 166.718-24.675 221.911a142.96 142.96 0 0 0-3.49 66.8l45.535 168.752-84.734 45.372s-11.85-194.72-12.987-245.775c0-.243 7.711 38.636 7.711 38.392" class="cls-1" data-name="Path 6479" transform="translate(-227.5 -202.437)"/></g><g id="Group_8053" data-name="Group 8053" transform="translate(210.604 201.376)"><path id="Path_6480" d="M266.976 470.011c-7.467 40.34-12.824 81.086-9.253 122.238.974 11.607 2.76 23.133 2.678 34.74-.081 37.093-17.694 71.508-22.565 108.2-6.25-46.671-11.363-93.261-17.532-139.932-9.01-67.612-14.772-127.189 9.821-191.393 19.886-51.947 38.636-104.706 60.226-155.76 18.425 46.1-3.409 122.806-13.068 170.046-3.408 17.203-7.06 34.492-10.307 51.861z" class="cls-1" data-name="Path 6480" transform="translate(-212.567 -248.1)"/></g><g id="Group_8054" data-name="Group 8054" transform="translate(1092.188 164.313)"><path id="Path_6481" d="M1397.887 436.088c-.162-.406-.081-10.876-.244-11.282-12.662-45.291-42.045-142.692-58.6-188.8-2.435-6.9-4.546-12.987-6.25-18.181a33.259 33.259 0 0 0-2.435-5.682 42.4 42.4 0 0 0-5.114-7.467 6.08 6.08 0 0 0-9.5.081c-24.675 29.545 8.117 166.718 24.188 221.911a146.218 146.218 0 0 1 3.409 66.8L1298.7 662.22l83.034 45.372s11.607-194.72 12.743-245.775c0-.243-7.549 38.636-7.549 38.392" class="cls-1" data-name="Path 6481" transform="translate(-1298.7 -202.437)"/></g><g id="Group_8055" data-name="Group 8055" transform="translate(1119.924 201.376)"><path id="Path_6482" d="M1362.845 470.011c7.305 40.34 12.581 81.086 9.01 122.238-.974 11.607-2.679 23.133-2.679 34.74.081 37.093 17.289 71.508 22.078 108.2 6.169-46.671 11.12-93.261 17.207-139.932 8.847-67.612 14.448-127.189-9.578-191.393-19.48-51.947-37.824-104.706-59.009-155.76-18.019 46.1 3.328 122.806 12.743 170.046 3.492 17.203 7.063 34.492 10.228 51.861z" class="cls-1" data-name="Path 6482" transform="translate(-1332.872 -248.1)"/></g><path id="Path_6483" fill="#f29e7c" d="M1146.1 317.8l102.758 144.4s17.126 31.087 30.763 58.278c-17.776 2.6-34.171 10.471-48.538 21.915-4.626 3.653-55.194-94.235-80.924-155.192-33.769-79.71-4.059-69.401-4.059-69.401z" data-name="Path 6483" transform="translate(-175.498 -59.768)"/><g id="XMLID_1_" transform="translate(385.828 174.077)"><path id="Path_6484" fill="#ffe1e1" d="M462.824 234.38c2.76-5.6 6.9-15.665-.487-19.48-4.221-2.191-10.8 4.464-14.448 8.441-8.117 8.847-11.2 13.393-18.831 25.568-3.977 6.25 12.5 18.263 20.211 7.711 8.442-11.607 7.062-9.01 13.555-22.24z" data-name="Path 6484" transform="translate(-428.448 -214.467)"/></g><g id="Group_8056" data-name="Group 8056" transform="translate(291.229)"><path id="Path_6485" d="M1109.775.406L342.175 0a30.016 30.016 0 0 0-30.032 30.032l-.243 466.712a30.016 30.016 0 0 0 30.032 30.032l767.6.406a30.016 30.016 0 0 0 30.032-30.032l.244-466.712A30.068 30.068 0 0 0 1109.775.406z" class="cls-4" data-name="Path 6485" transform="translate(-311.9)"/></g><g id="Group_8059" data-name="Group 8059" transform="translate(304.053 243.096)"><g id="Group_8057" data-name="Group 8057"><path id="Path_6486" fill="none" stroke="#ded9df" stroke-miterlimit="10" stroke-width="3" d="M22.001 0a22 22 0 1 1-22 21.915A22.014 22.014 0 0 1 22.001 0z" data-name="Path 6486"/></g><g id="Group_8058" data-name="Group 8058" transform="translate(763.692 18.251)"><path id="Path_6487" fill="#e9e5e9" d="M1268.6 325.487a3.785 3.785 0 1 0 4.058-3.49 3.706 3.706 0 0 0-4.058 3.49z" data-name="Path 6487" transform="translate(-1268.586 -321.986)"/></g></g><g id="Group_8060" data-name="Group 8060" transform="translate(360.465 38.554)"><path id="Rectangle_2218" d="M0 0h689.435v450.073H0z" class="cls-4" data-name="Rectangle 2218"/></g><g id="Group_8061" data-name="Group 8061" transform="translate(1047.906 280.151)"><path id="Path_6488" d="M1393.05 780.086c-22-85.469-28.9-157.546-43.993-244.557q-9.5-54.423-22.97-107.952c-4.789-18.993-6.412-39.042-12.987-57.466-2.6-7.224-6.25-18.831-13.149-22.646-40.178-21.915-14.448 118.829-15.5 135.549-3.328 52.759-29.383 64.122-38.149 115.339-6.493 38.149 2.6 109.495 15.016 145.858 9.821 28.9 7.955 21.509 16.315 50.4l119.316-.974" class="cls-1" data-name="Path 6488" transform="translate(-1244.143 -345.153)"/></g><g id="Group_8062" data-name="Group 8062" transform="translate(213.308 280.074)"><path id="Path_6489" d="M219.8 780.068c22.483-85.469 29.464-157.546 44.886-244.557q9.618-54.423 23.457-107.953c5.114-19.8 10.065-67.531 26.7-80.031 5.276-3.977 15.5-3.328 17.613 3.247 19.074 58.927-4.3 92.45-1.786 132.3 3.409 52.759 30.032 64.122 38.96 115.339 6.656 38.149-2.678 109.495-15.341 145.858-10.065 28.9-8.117 21.509-16.639 50.4L215.9 793.7" class="cls-1" data-name="Path 6489" transform="translate(-215.9 -345.058)"/></g><path id="Path_6490" d="M218.26 798.852c2.354.244 4.708.568 6.98.893 20.941 2.679 42.207-.244 63.311-.487 28.814-.325 57.466 4.545 86.281 4.951 9.5.162 25.324-4.3 31.818 5.114 3.084 4.464 2.435 11.363.649 16.315l-71.212 244.769h-208c3.166-9.74 57.626-224.883 60.791-234.7 3.652-11.2 5.6-30.357 17.938-35.632 3.652-1.548 7.548-1.629 11.444-1.223z" class="cls-7" data-name="Path 6490" transform="translate(0 -150.406)"/><path id="Path_6491" d="M1377.609 798.848c-2.354.239-4.708.559-6.98.878-20.941 2.633-42.207-.239-63.311-.479-28.814-.319-51.3 1.436-80.112 1.835-9.5.16-31.493-1.2-37.905 8.06-3.084 4.389-2.435 11.172-.649 16.039l94.271 245.225h209.333c-3.166-9.575-82.018-225.675-85.184-235.33-3.653-11.012-5.6-29.844-17.938-35.031a23.654 23.654 0 0 0-11.525-1.197z" class="cls-7" data-name="Path 6491" transform="translate(-185.504 -150.406)"/><g id="Group_8082" data-name="Group 8082" transform="translate(360.221 38.392)"><g id="Group_8063" class="cls-8" data-name="Group 8063"><path id="Rectangle_2219" d="M0 0h690.571v450.479H0z" class="cls-9" data-name="Rectangle 2219"/></g><g id="Group_8065" class="cls-8" data-name="Group 8065"><path id="Rectangle_2222" fill="#c42e46" d="M0 0h7.467v108.034H0z" data-name="Rectangle 2222" transform="rotate(-167.76 713.732 154.813)"/><path id="Rectangle_2223" d="M0 0h7.467v7.467H0z" class="cls-4" data-name="Rectangle 2223" transform="rotate(-167.76 719.478 100.775)"/><path id="Path_6493" d="M2120.989 464.476a3.678 3.678 0 0 1 2.841 4.464l-.325 1.461-7.305-1.623.325-1.461a3.678 3.678 0 0 1 4.464-2.841z" class="cls-12" data-name="Path 6493" transform="translate(-720.691 -125.846)"/><path id="Rectangle_2224" d="M0 0h7.467v3.003H0z" class="cls-13" data-name="Rectangle 2224" transform="rotate(-167.76 719.332 102.269)"/></g><g id="Group_8066" class="cls-8" data-name="Group 8066"><path id="Path_6494" fill="#ffca3d" d="M2081.9 488.7v74.917h20.941V488.7zm11.932 11.2a3 3 0 1 1 3-3 2.946 2.946 0 0 1-3 3z" data-name="Path 6494" transform="translate(-714.231 -130.428)"/><path id="Rectangle_2226" fill="#f09516" d="M0 0h3.003v74.917H0z" data-name="Rectangle 2226" transform="rotate(180 694.33 216.591)"/><path id="Rectangle_2227" d="M0 0h7.467v1.461H0z" class="cls-13" data-name="Rectangle 2227" transform="translate(1367.669 361.276)"/><path id="Rectangle_2228" d="M0 0h7.467v1.461H0z" class="cls-13" data-name="Rectangle 2228" transform="translate(1367.669 370.285)"/><path id="Rectangle_2229" d="M0 0h7.467v1.461H0z" class="cls-13" data-name="Rectangle 2229" transform="translate(1367.669 379.214)"/><path id="Rectangle_2230" d="M0 0h7.467v1.461H0z" class="cls-13" data-name="Rectangle 2230" transform="translate(1367.669 388.223)"/><path id="Rectangle_2231" d="M0 0h7.467v1.461H0z" class="cls-13" data-name="Rectangle 2231" transform="translate(1367.669 397.233)"/><path id="Rectangle_2232" d="M0 0h7.467v1.461H0z" class="cls-13" data-name="Rectangle 2232" transform="translate(1367.669 406.242)"/><path id="Rectangle_2233" d="M0 0h7.467v1.461H0z" class="cls-13" data-name="Rectangle 2233" transform="translate(1367.669 415.171)"/><path id="Rectangle_2234" d="M0 0h7.467v1.461H0z" class="cls-13" data-name="Rectangle 2234" transform="translate(1367.669 424.18)"/><path id="Rectangle_2235" d="M0 0h3.734v1.461H0z" class="cls-13" data-name="Rectangle 2235" transform="translate(1367.669 365.74)"/><path id="Rectangle_2236" d="M0 0h3.734v1.461H0z" class="cls-13" data-name="Rectangle 2236" transform="translate(1367.669 374.749)"/><path id="Rectangle_2237" d="M0 0h3.734v1.461H0z" class="cls-13" data-name="Rectangle 2237" transform="translate(1367.669 383.759)"/><path id="Rectangle_2238" d="M0 0h3.734v1.461H0z" class="cls-13" data-name="Rectangle 2238" transform="translate(1367.669 392.769)"/><path id="Rectangle_2239" d="M0 0h3.734v1.461H0z" class="cls-13" data-name="Rectangle 2239" transform="translate(1367.669 401.697)"/><path id="Rectangle_2240" d="M0 0h3.734v1.461H0z" class="cls-13" data-name="Rectangle 2240" transform="translate(1367.669 410.707)"/><path id="Rectangle_2241" d="M0 0h3.734v1.461H0z" class="cls-13" data-name="Rectangle 2241" transform="translate(1367.669 419.716)"/><path id="Rectangle_2242" d="M0 0h3.734v1.461H0z" class="cls-13" data-name="Rectangle 2242" transform="translate(1367.669 428.726)"/></g><g id="Group_8067" class="cls-8" data-name="Group 8067"><path id="Rectangle_2244" fill="#36dbff" d="M0 0h7.467v108.034H0z" data-name="Rectangle 2244" transform="rotate(-159.83 727.372 112.809)"/><path id="Rectangle_2245" d="M0 0h7.467v7.467H0z" class="cls-4" data-name="Rectangle 2245" transform="rotate(-159.83 736.972 58.83)"/><path id="Path_6495" d="M2133.057 484.846a3.694 3.694 0 0 1 2.192 4.789l-.487 1.38-7.062-2.6.487-1.38a3.885 3.885 0 0 1 4.87-2.189z" class="cls-12" data-name="Path 6495" transform="translate(-722.857 -129.658)"/><path id="Rectangle_2246" d="M0 0h7.467v3.003H0z" class="cls-17" data-name="Rectangle 2246" transform="rotate(-159.83 736.732 60.347)"/><path id="Rectangle_2247" d="M0 0h13.393v3.003H0z" class="cls-17" data-name="Rectangle 2247" transform="rotate(110.17 570.613 677.845)"/><path id="Rectangle_2248" d="M0 0h6.737v3.003H0z" class="cls-17" data-name="Rectangle 2248" transform="rotate(110.17 562.394 683.574)"/></g><g id="Group_8068" class="cls-8" data-name="Group 8068"><path id="Rectangle_2250" fill="#1ed161" d="M0 0h7.467v108.034H0z" data-name="Rectangle 2250" transform="rotate(166.59 662.406 311.701)"/><path id="Rectangle_2251" d="M0 0h7.467v7.467H0z" class="cls-4" data-name="Rectangle 2251" transform="rotate(166.59 656.029 257.706)"/><path id="Path_6496" d="M2056.935 472.075a3.748 3.748 0 0 1 4.546 2.76l.324 1.461-7.3 1.7-.324-1.461a3.628 3.628 0 0 1 2.754-4.46z" class="cls-12" data-name="Path 6496" transform="translate(-708.99 -127.277)"/><path id="Rectangle_2252" d="M0 0h7.467v3.003H0z" class="cls-19" data-name="Rectangle 2252" transform="rotate(166.59 656.203 259.185)"/><path id="Rectangle_2253" d="M0 0h13.393v3.003H0z" class="cls-19" data-name="Rectangle 2253" transform="rotate(76.59 445.577 1040.265)"/><path id="Rectangle_2254" d="M0 0h6.737v3.003H0z" class="cls-19" data-name="Rectangle 2254" transform="rotate(76.574 437.435 1051.05)"/></g><g id="Group_8069" class="cls-8" data-name="Group 8069"><path id="Path_6497" d="M2102.159 610.008h-28.084a12.159 12.159 0 0 1-12.175-12.175v-47.24a6.513 6.513 0 0 1 6.493-6.493h39.447a6.512 6.512 0 0 1 6.493 6.493v47.239a12.159 12.159 0 0 1-12.174 12.176z" class="cls-4" data-name="Path 6497" transform="translate(-710.465 -140.861)"/></g><g id="Group_8070" class="cls-8" data-name="Group 8070"><path id="Path_6498" d="M2111.481 610.008h-.081V544.1h5.763a6.513 6.513 0 0 1 6.493 6.493v47.239a12.159 12.159 0 0 1-12.175 12.176z" class="cls-13" data-name="Path 6498" transform="translate(-719.787 -140.861)"/></g><g id="Group_8071" class="cls-8" data-name="Group 8071"><path id="Rectangle_2258" d="M0 0h3.003v18.506H0z" class="cls-20" data-name="Rectangle 2258" transform="translate(1358.172 410.788)"/></g><g id="Group_8072" class="cls-8" data-name="Group 8072"><path id="Rectangle_2260" d="M0 0h3.003v8.279H0z" class="cls-20" data-name="Rectangle 2260" transform="translate(1358.172 433.433)"/></g><g id="Group_8076" class="cls-8" data-name="Group 8076"><g id="Group_8075" data-name="Group 8075" transform="translate(-66.472 297.965)"><g id="Group_8073" data-name="Group 8073" transform="translate(123.528 63.225)"><path id="Path_6499" d="M506.481 500.659l-30.844 8.847a4.254 4.254 0 0 1-5.276-2.922 4.254 4.254 0 0 1 2.922-5.276l30.844-8.847a4.254 4.254 0 0 1 5.276 2.922 4.319 4.319 0 0 1-2.922 5.276z" class="cls-21" data-name="Path 6499" transform="translate(-467.759 -492.294)"/><path id="Path_6500" d="M497.393 513.259l-24.756 7.062a4.254 4.254 0 0 1-5.276-2.922 4.254 4.254 0 0 1 2.922-5.276l24.756-7.062a4.254 4.254 0 0 1 5.276 2.922 4.254 4.254 0 0 1-2.922 5.276z" class="cls-21" data-name="Path 6500" transform="translate(-467.194 -494.667)"/><path id="Path_6501" d="M505.039 520.359l-29.3 8.441a4.254 4.254 0 0 1-5.276-2.922 4.254 4.254 0 0 1 2.922-5.276l29.3-8.441a4.254 4.254 0 0 1 5.276 2.922 4.428 4.428 0 0 1-2.922 5.276z" class="cls-21" data-name="Path 6501" transform="translate(-467.778 -496.004)"/></g><path id="Path_6502" d="M530.156 564.711H620.9a6.686 6.686 0 0 0 6.656-6.656 6.686 6.686 0 0 0-6.656-6.655h-90.744a6.686 6.686 0 0 0-6.656 6.656 6.686 6.686 0 0 0 6.656 6.655z" class="cls-22" data-name="Path 6502" transform="translate(-354.27 -440.201)"/><g id="Group_8074" data-name="Group 8074"><path id="Path_6503" d="M375.671 538.911h127.352a11.407 11.407 0 0 0 10.308-16.234l-44.4-94.722a23.523 23.523 0 0 0-21.264-13.555H330.38a8.241 8.241 0 0 0-7.467 11.769z" class="cls-22" data-name="Path 6503" transform="translate(-316.342 -414.4)"/><path id="Path_6504" d="M376.282 538.911h127.6a6.292 6.292 0 0 0 5.682-8.928l-47.813-102.028a23.523 23.523 0 0 0-21.265-13.555H323.28a8.241 8.241 0 0 0-7.467 11.769l49.512 105.6a11.983 11.983 0 0 0 10.957 7.142z" class="cls-23" data-name="Path 6504" transform="translate(-315.005 -414.4)"/></g></g></g><g id="Group_8077" class="cls-8" data-name="Group 8077"><path id="Path_6505" d="M951.38 544.569h-103a2.7 2.7 0 0 1-2.678-2.678v-.812a2.7 2.7 0 0 1 2.678-2.679h103a2.7 2.7 0 0 1 2.678 2.679v.812a2.7 2.7 0 0 1-2.678 2.678z" class="cls-23" data-name="Path 6505" transform="translate(-481.421 -139.787)"/><circle id="Ellipse_268" cx="2.192" cy="2.192" r="2.192" class="cls-24" data-name="Ellipse 268" transform="translate(391.632 399.343)"/><circle id="Ellipse_269" cx="2.192" cy="2.192" r="2.192" class="cls-24" data-name="Ellipse 269" transform="translate(399.668 399.343)"/><path id="Rectangle_2263" d="M0 0h11.201v1.623H0z" class="cls-24" data-name="Rectangle 2263" transform="translate(376.697 400.642)"/></g><g id="Group_8079" class="cls-8" data-name="Group 8079"><path id="Path_6506" fill="#2bd69e" fill-rule="evenodd" d="M1038.453 282.133c1.867 6.25 16.558 12.419 21.834 13.8 9.009 2.354 19.236 1.3 26.7-4.221 5.113-3.734 8.847-9.334 14.123-12.824 1.055-.73 2.6-1.3 3.653-.568 1.542 1.136.406 3.49-.731 4.87-12.662 15.1-31.331 27.678-33.2 49.025-.162 1.867 0 4.058 1.623 4.951a6.212 6.212 0 0 0 2.435.487c8.523.162 17.207.73 25.081-3.165 3.328-1.867 5.6-5.032 7.549-8.279a65.116 65.116 0 0 0 8.441-43.1c3.409.487 4.383 4.87 4.464 8.279.081 8.766-.73 17.613.568 26.3 1.136 8.2 4.3 15.909 10.552 21.509 1.948 1.7 4.3 3.247 6.9 2.922 2.516-.325 4.464-2.516 5.682-4.789 7.143-13.068 2.841-32.223-5.276-43.83-5.114-7.224-12.094-12.987-16.8-20.454 6.575 3.328 13.311 6.656 20.373 8.685s14.772 2.679 21.915.649c1.7-.487 3.571-1.3 3.9-3a4.209 4.209 0 0 0-.487-2.76c-2.76-6.98-10.308-14.772-18.262-15.5-8.523-.812-15.5 7.224-23.458 8.928-1.136.243-2.435.325-3.247-.487-1.3-1.3-.162-3.49 1.055-4.87 7.711-8.766 17.451-15.99 23.376-26.055 1.218-2.11 2.354-4.464 2.273-6.98 0-2.273-1.38-5.276-3.9-5.6 1.136.162-8.279 18.669-9.415 20.211a57.2 57.2 0 0 1-15.665 14.61 2.97 2.97 0 0 1-2.11.649c-5.52-.812 3.247-20.617 4.14-23.052 2.029-5.519 3.328-11.932.731-17.207-3.166-6.412-10.958-9.659-17.289-12.175-1.542-.568-3.166-1.217-4.789-.812-3.328.812-4.058 5.195-3.9 8.6a64.7 64.7 0 0 0 6.98 25.73c1.623 3.166 3.49 6.25 4.545 9.659s1.136 7.305-.73 10.389c-7.062-10.8-11.364-23.457-20.454-32.954-5.276-5.6-12.337-9.9-19.967-10.633-4.221-.406-9.334 1.055-10.308 5.114-.974 4.221 2.029 10.227 3.084 14.285 1.38 5.114 2.841 10.308 6.412 14.367 8.117 9.253 20.941 4.058 30.357 10.308a6.319 6.319 0 0 1 2.76 3.247 3.273 3.273 0 0 1-1.3 3.815 4.7 4.7 0 0 1-3.166.081c-8.035-1.7-15.341-6.169-23.376-7.467-12.337-2.029-27.84 4.545-33.522 16.152a4.748 4.748 0 0 0-.154 3.16z" data-name="Path 6506" transform="translate(-517.684 -77.591)"/><path id="Path_6507" d="M1169.451 284.576c.244-2.029-1.3-5.276-2.192-6.656-.893-1.3-.812-5.844-.325-8.766.406-2.922 5.925-10.308 7.386-11.2s4.383 1.217 6.087 5.438c1.786 4.221 4.951 8.847 3.734 12.5-1.136 3.652-7.143 7.386-7.711 8.685-.568 1.217.893 2.76 2.76.974s2.76-8.928 7.143-7.386 6.169 3.409 5.844 7.467c-.244 3.977-2.11 5.844-6.9 6.088s-7.873-.162-8.442 2.029 1.786 1.867 4.708 1.218 8.279-4.545 10.8-2.76a7.417 7.417 0 0 1 3.247 7.63c-.65 3.084-5.52 4.545-8.6 4.3s-9.821-6.25-11.363-4.058-.731 4.627 1.7 5.114c3.977.649 16.234-3.084 16.883 5.438.406 4.951-.568 7.143-4.627 7.143s-8.117-3.571-9.5-4.87c-1.461-1.3-4.464-5.357-5.195-3.084-.649 2.273-.325 3.571 1.542 4.87 8.6 6.006 13.879 1.623 15.746 7.305.081.406.649 11.282-7.386 7.549-4.3-1.948-8.522-6.98-10.308-5.438s-3.409 3.49-.649 4.464a43.579 43.579 0 0 0 6.169 1.217c5.195.974 12.5 3.653 7.386 9.821-4.708 5.763-8.766 4.87-10.957 1.7-2.11-3.166-4.627-8.2-6.006-6.656-1.38 1.623-2.76 3.328-.162 5.195 2.516 1.867 7.143 3.084 8.928 5.519s2.6 4.545.243 8.36-4.139 5.357-7.873 1.623c-3.815-3.734-4.545-9.091-6.088-6.331s-2.679 5.438 1.461 7.549 8.522 1.542 7.873 6.493-.325 9.578-5.195 8.928c-4.951-.649-6.331-5.032-9.253-6.088-2.922-.974-5.114-.487-3.328 2.354 3.084 4.87 12.337 4.627 12.337 8.847 0 4.3-2.76 11.363-8.766 8.279s-5.113-4.951-7.3-3.571-3.571 3.247-.406 3.815c3.084.649 7.792.325 9.01 3.328 1.218 2.922 4.383 4.708-.974 6.006-5.276 1.38-10.389-1.786-12.256.406-1.867 2.11-3 4.058 1.218 3.734 4.22-.243 8.766-2.841 9.821.081s3.49 4.545-2.273 6.656c-5.682 2.11-9.984-1.136-10.471 2.354-.406 3.49.487 2.192 3.653 1.542 3.084-.649 6.087-1.136 4.708 3-2.516 7.549-13.23 10.389-9.984 12.419 1.786 1.136 5.276 0 5.357 3.328.081 4.14-1.055 2.11-4.545 11.363-.974 2.516.244 1.3 1.3 4.058s.649 5.276-1.948 7.954-1.623 3.165-1.3 4.951c.325 1.867-.731.893-1.055 4.383-.243 3.49 1.38 9.334 1.38 9.334a8.334 8.334 0 0 1-1.542.487c-.244-3.247-.974-14.286-1.055-18.181-.081-4.545 1.7-28.733 1.542-31.331s3.328-30.844 3.328-30.844 7.711-26.461 9.821-29.383 8.279-17.208 11.932-25.811c4.3-7.711 4.383-25.487 4.383-26.542.081-1.055.487-21.915.487-23.214-.081-1.3 2.11-20.779 0-5.844s1.461 33.36-4.789 52.272-7.224 13.717-16.558 38.879c-9.334 25.081-8.2 41.233-10.146 64.2-1.7 19.967-.081 32.873.325 35.957-.73.081-1.38-.081-1.542-.893-.325-1.867-.568-7.143-.893-11.2s-.406-3.166-2.354-7.305c-1.948-4.058-2.435-6.493-.893-9.253 1.542-2.678 2.192-2.191 1.38-4.545-.649-2.029-1.786-3.571-3.247-8.928-.812-3.165 3.653-4.789 4.3-6.493.487-1.218-2.191-4.14-3.247-5.925-1.623-2.6-6.737-8.2-2.679-9.01s5.763 4.14 7.467 1.623 1.948-4.708-.081-4.545-4.789 1.948-6.575-.893c-1.786-2.76-4.545-9.253-1.055-9.334 3.49-.162 7.954 4.87 9.091 3.084s2.273-3.977.081-4.383-4.626 1.542-7.467-1.3-7.711-8.36-3.653-9.253c4.058-.812 9.172 1.136 12.256.243 3.084-.812 5.519-2.6 3.165-3.815-2.354-1.136-5.114-2.11-6.574-1.786a8.035 8.035 0 0 1-6.9-2.029c-2.516-2.192-6.006-9.821-1.542-11.363 4.383-1.542 12.419 1.542 15.5 2.192s6.656-.244 5.763-2.435-4.87-2.678-6.331-2.678a40.463 40.463 0 0 1-8.036-1.055 6.766 6.766 0 0 1-5.195-6.006c-.649-4.464 1.136-11.526 5.682-9.415s9.984 4.383 14.123 6.493 6.088.325 6.575-1.136c.568-1.461 2.841-4.708-.081-4.545a47.734 47.734 0 0 1-9.821-.974c-1.867-.406-6.088.081-7.143-1.055s-5.195-3.571-1.867-6.98 13.23-3.977 16.477-.974 4.626 5.6 6.169 2.516 1.38-6.006-.812-5.844a66.866 66.866 0 0 1-10.471-.731c-1.3-.406-5.6-1.948-6.818-4.87s.406-10.227 5.276-8.279c4.951 1.948 13.393 8.685 15.584 7.224 2.273-1.38 3.084-5.195 1.218-4.951a17.8 17.8 0 0 1-8.36-.893c-3.084-1.136-8.6-.162-7.549-4.951.974-4.789 13.8-3.571 15.828-3a2.393 2.393 0 0 0 2.76-3.49c-1.055-2.029-3.084-.893-6.006.243s-8.441 1.218-7.3-5.032 12.987.974 13.717-.162.893-4.3-.893-4.708c-1.867-.406-11.607 3-12.419.649-2.029-5.925.65-7.386 4.951-6.575 3.328.568 8.279 3.247 8.766.649.325-2.029-1.461-3.166-5.195-2.679-3.653.487-7.386 1.7-8.6-1.461-.568-1.461-.406-5.6.243-8.2.731-2.922 4.14-3.734 6.007-3 3.49 1.7 4.465 9.74 6.413 6.818z" class="cls-26" data-name="Path 6507" transform="translate(-534.803 -86.934)"/><path id="Path_6508" d="M1274.383 230.269c1.217-1.623 4.545-3.084 6.088-3.409s4.626-3.734 6.25-6.169c1.7-2.435 2.76-11.526 2.273-13.23s-3.977-2.11-8.2-.162c-4.14 1.867-9.659 3.084-11.282 6.575-1.623 3.409.162 10.227-.243 11.526s-2.516 1.461-2.679-1.136 4.058-8.36-.162-10.227-6.818-1.7-9.415 1.461c-2.516 3.166-2.435 5.682.892 9.172s5.844 5.276 4.789 7.224c-1.055 2.029-2.6.162-4.3-2.354s-2.922-8.928-5.925-9.415a7.27 7.27 0 0 0-7.549 3.409c-1.7 2.679.893 7.062 3.328 9.01s11.444 2.11 11.12 4.789c-.325 2.6-2.6 3.9-4.707 2.516-3.328-2.192-9.74-13.311-16.072-7.549-3.652 3.328-4.464 5.6-1.461 8.36 2.922 2.76 8.36 2.922 10.227 2.922 1.948 0 6.9-.893 5.844 1.3-1.055 2.11-2.11 2.841-4.464 2.516-10.389-1.461-11.282-8.279-16.558-5.357-.406.244-8.2 7.792.244 10.552 4.545 1.542 10.958.731 11.282 3.084.244 2.273.081 4.87-2.6 3.734a42.064 42.064 0 0 1-5.276-3.328c-4.383-2.841-11.607-5.925-12.175 2.11-.487 7.386 3.165 9.578 6.818 8.685 3.734-.893 9.01-2.922 8.928-.731-.081 2.11-.244 4.3-3.409 3.9s-7.305-2.6-10.308-2.11c-2.922.568-5.032 1.542-5.844 5.925-.893 4.383-.649 6.737 4.708 6.575 5.276-.162 9.5-3.49 8.766-.487s-1.786 5.844-6.25 4.545-7.224-4.627-10.146-.649c-2.922 4.058-6.331 7.224-2.273 10.146s8.036.568 10.877 1.867c2.76 1.3 4.058 3.166.893 3.977-5.6 1.461-12.175-5.032-15.1-1.948-2.922 3.165-5.682 10.227.731 12.013 6.493 1.867 7.143-.162 7.792 2.435s.406 4.789-2.273 3.084-5.925-5.032-8.847-3.734-6.412.406-3.409 5.032 8.847 5.763 8.766 8.685c-.081 2.841-.568 5.032-3.49 1.948s-4.464-8.036-7.224-6.575-5.6.974-2.841 6.331c2.76 5.438 8.117 6.006 6.088 8.847s-1.867 1.3-3.734-1.3c-1.786-2.6-3.652-4.951-5.519-.974-3.328 7.224 2.6 16.558-1.217 15.909-2.11-.406-3.815-3.571-6.169-1.217-2.922 3-.73 2.273-4.464 11.363-1.055 2.516-1.055.812-3.734 2.11s-4.14 3.409-4.058 7.143-.893 3.409-2.354 4.545-.081 1.217-2.273 3.9-7.386 5.925-7.386 5.925a5.5 5.5 0 0 0 .73 1.38c2.435-2.192 10.552-9.821 13.23-12.581 3.166-3.247 18.425-22.159 20.211-23.944 1.867-1.786 18.668-24.837 18.668-24.837s12.419-24.594 12.825-28.165 5.6-18.263 8.847-27.029c2.11-8.523 14.2-21.509 14.854-22.321s14.61-16.4 15.5-17.289 12.581-16.721 3.977-4.3-23.863 23.376-32.142 41.477c-8.36 18.1-4.058 15.016-14.366 39.691s-22.159 35.714-36.444 53.9c-12.338 15.746-22.321 24.026-24.756 26.055.487.568 1.136.893 1.786.406 1.542-1.136 5.276-4.87 8.279-7.63s2.516-2.11 6.656-3.734c4.14-1.7 6.25-3.084 6.98-6.088.649-3.084-.081-3.084 2.029-4.3 1.867-1.055 3.734-1.38 8.441-4.3 2.76-1.7.568-6.006 1.3-7.711.487-1.217 4.464-1.542 6.412-2.11 2.922-.812 10.471-1.461 8.036-4.789-2.354-3.409-7.062-.893-6.575-3.9s1.786-4.789 3.166-3.247c1.38 1.461 2.191 4.708 5.438 3.815 3.166-.812 9.659-3.652 7.143-6.088-2.435-2.435-9.172-1.867-8.766-3.9.406-2.11 1.055-4.464 2.922-3.247s2.272 4.3 6.331 4.221 11.363-.893 8.928-4.221c-2.354-3.409-7.386-5.438-9.172-8.2-1.7-2.76-2.273-5.682.244-4.951s5.195 1.948 6.006 3.165a8.175 8.175 0 0 0 6.412 3.247c3.409.081 11.12-3.084 8.929-7.224s-10.065-7.305-12.825-9.01c-2.679-1.623-4.626-4.627-2.516-5.682 2.192-1.055 5.357 1.38 6.493 2.354a46.228 46.228 0 0 0 6.656 4.708 6.752 6.752 0 0 0 7.873-.812c3.49-2.76 6.98-9.172 2.273-10.8-4.789-1.542-10.308-3.571-14.772-4.87s-4.627-3.9-4.058-5.357 1.136-5.357 3.247-3.328a54.449 54.449 0 0 0 7.792 6.088c1.623.974 4.383 4.14 5.925 4.058s6.25.974 6.169-3.815c-.162-4.789-6.98-11.932-11.445-11.932s-7.224.893-6.25-2.354 3.084-5.357 4.545-3.734a65.99 65.99 0 0 0 8.2 6.575c1.218.568 5.438 2.435 8.36 1.136 2.922-1.38 6.737-7.792 1.786-9.74s-15.746-2.76-16.4-5.357c-.649-2.516 1.38-5.925 2.516-4.383a17.953 17.953 0 0 0 6.737 5.032c3.084 1.3 6.412 5.763 8.928 1.623 2.516-4.221-7.63-12.013-9.5-12.987a2.352 2.352 0 0 1 .406-4.383c2.11-.73 2.841 1.461 4.221 4.3s5.357 6.656 8.766 1.3c3.409-5.276-10.146-8.117-9.9-9.5s2.273-3.734 3.815-2.76c1.623.974 6.412 10.065 8.6 8.928 5.52-2.922 4.546-5.844.893-8.2-2.841-1.786-8.279-3.328-6.818-5.438 1.136-1.7 3.247-1.3 5.6 1.542s4.221 6.25 7.305 4.789c1.461-.73 4.14-3.815 5.438-6.169 1.461-2.6-.568-5.519-2.354-6.25-3.49-1.7-9.74 3.49-9.091.081z" class="cls-26" data-name="Path 6508" transform="translate(-541.686 -77.188)"/><path id="Path_6509" d="M1155 341.243c.487-.406 1.055-.73 1.542-1.136.731-.568 1.38-1.055 2.11-1.623a18.655 18.655 0 0 1 3.572-1.867c1.461-.649 2.922-1.38 4.383-2.029.893-.406 1.786-.731 2.679-1.136a13.174 13.174 0 0 0 3.328-1.786c.893-.812 1.7-1.623 2.6-2.435a31.121 31.121 0 0 0 3.9-5.357 19.147 19.147 0 0 1 2.11-2.922c.731-.893 1.38-1.786 2.029-2.679 1.136-1.542 2.191-3.165 3.328-4.708a2.186 2.186 0 0 0 .406-1.217v-.487a3.887 3.887 0 0 1 .649-2.273c.649-.974.487-.893 0-1.786a6.464 6.464 0 0 1-.731-3.49 1.358 1.358 0 0 1 .812-1.38 5.746 5.746 0 0 1 2.6-.812 3.754 3.754 0 0 0 2.6-1.055 10.573 10.573 0 0 1 1.461-1.218 7.2 7.2 0 0 1 1.38-.649 1.582 1.582 0 0 1 .649-.081 1.212 1.212 0 0 1 1.136 1.055 5.225 5.225 0 0 1-.649 3.652c-.162.325-.325.73-.487 1.055a1.033 1.033 0 0 0 0 .974 5.175 5.175 0 0 0 .649 1.136 4.9 4.9 0 0 1 .893 2.11 1.882 1.882 0 0 1-.325 1.461 2.786 2.786 0 0 1-2.76 1.055c-.406-.081-.893-.162-1.3-.243a1.346 1.346 0 0 0-1.3.487c-.244.325-.487.568-.73.893a6.642 6.642 0 0 1-2.029 1.623 4.168 4.168 0 0 0-1.948 1.786c-.731 1.136-1.542 2.273-2.273 3.409a20.322 20.322 0 0 1-2.679 3.247c-.487.568-.974 1.136-1.38 1.7-.731 1.055-1.38 2.192-2.11 3.247-.487.812-1.136 1.542-1.7 2.354l-1.461 1.7a.6.6 0 0 0 .568.243 4.7 4.7 0 0 1 2.273.73 5.721 5.721 0 0 0 3.247.649 9.155 9.155 0 0 0 1.461-.243c2.191-.406 4.383-.893 6.575-1.3.893-.162 1.867-.162 2.76-.325s1.786-.325 2.679-.568a7.236 7.236 0 0 0 3-1.867l.73-.73c1.623-1.623 3.328-3.247 4.951-4.951a28.425 28.425 0 0 0 1.948-2.435 4.22 4.22 0 0 1 1.623-1.542 1.608 1.608 0 0 0 .893-.893 13.6 13.6 0 0 1 1.867-3.084 1.243 1.243 0 0 1 1.38-.568 5.614 5.614 0 0 1 .649.243c.406.325.812.73 1.217 1.055a.779.779 0 0 0 .812.243 5.587 5.587 0 0 1 1.055-.162 1.771 1.771 0 0 1 1.542.325 1.258 1.258 0 0 1 .325 1.867 4.2 4.2 0 0 1-1.461 1.217 8.855 8.855 0 0 0-.893.487c-.406.243-.406.325-.244.73a1.38 1.38 0 0 1-.162 1.461 3.284 3.284 0 0 0-.406.73 1.6 1.6 0 0 1-1.948.73 2.631 2.631 0 0 1-1.623-1.3c-.244-.487-.325-.487-.73-.162-.162.081-.325.244-.487.325a2.633 2.633 0 0 1-1.867.649 1.344 1.344 0 0 0-.974.406l-1.136 1.136c-1.3 1.217-2.516 2.516-3.734 3.815a2.19 2.19 0 0 0-.568.649 12.965 12.965 0 0 1-3.652 3.328 4.193 4.193 0 0 1-1.055.487 19.445 19.445 0 0 1-4.3.974c-.974.081-1.948.406-3 .568-1.948.406-3.977.812-5.925 1.136a9.789 9.789 0 0 1-5.276-.568 7.192 7.192 0 0 0-3.166-.487c-.487.081-.893 0-1.38.081a3.184 3.184 0 0 0-1.461.325c-.974.487-1.948.974-2.922 1.38-1.055.568-2.11 1.136-3.165 1.623-1.217.568-2.435 1.217-3.653 1.786a25.546 25.546 0 0 0-4.14 2.273c-.893.649-1.867 1.217-2.679 1.867a25.649 25.649 0 0 0-2.354 1.786c-.568.487-.974 1.055-1.542 1.623-.081.081-.162.243-.244.325a10.018 10.018 0 0 0-1.786 2.354c-.649.974-1.38 1.948-2.029 2.922-.325.487-.731.974-1.136 1.542a18.506 18.506 0 0 1-3 3.166c-1.055.974-1.948 2.029-3 3-.487.568-1.055 1.055-1.623 1.623a9.67 9.67 0 0 0-1.867 2.516c-.487.893-1.055 1.786-1.542 2.678-.649 1.218-1.3 2.354-1.867 3.571-.325.649-.73 1.3-1.055 1.948l-.243.487c-.162.406-.244.812-.406 1.217a7.252 7.252 0 0 0-.325 4.14c.081.406.081.974.162 1.38.325 1.7.649 3.409.893 5.114a4.289 4.289 0 0 1 .081.974 20.013 20.013 0 0 0 .243 2.191c.325 1.623.65 3.166.974 4.789l.081.081a33.359 33.359 0 0 0 3.653-3.084c1.461-1.542 3-3.084 4.464-4.708a71.724 71.724 0 0 0 4.87-6.25 56.238 56.238 0 0 0 3.9-5.844 9.1 9.1 0 0 1 2.6-2.679c1.786-1.38 3.652-2.678 5.438-3.977 1.055-.73 2.11-1.623 3.166-2.354 1.7-1.218 3.49-2.354 5.276-3.571l2.922-1.948a3.593 3.593 0 0 0 .974-1.218 5.28 5.28 0 0 1 1.38-2.192l1.136-1.136a3.531 3.531 0 0 0 .487-.568 8.548 8.548 0 0 1-.893-3.49 4.763 4.763 0 0 1 .081-1.867 2.428 2.428 0 0 1 1.867-1.542.674.674 0 0 1 .649.162c.325.162.568.406.893.568.649.568 1.218 1.055 1.786 1.623.406.406.568.406.974 0a3.587 3.587 0 0 1 1.948-.893 4.749 4.749 0 0 1 1.055-.162 2.343 2.343 0 0 1 1.461.243 1.633 1.633 0 0 1 .893 2.273 9.233 9.233 0 0 1-.812 1.542 10.575 10.575 0 0 1-.812 1.218.863.863 0 0 0-.081.974 10.28 10.28 0 0 1 .487 1.461 3.025 3.025 0 0 1-.893 2.922 2.932 2.932 0 0 1-2.922.568 2.128 2.128 0 0 1-.73-.406c-.325-.243-.649-.568-.974-.812l-.731-.487a16.786 16.786 0 0 1-3.084 2.273 3.587 3.587 0 0 1-1.3.487 4.3 4.3 0 0 0-1.38.649c-.812.568-1.786 1.136-2.6 1.7-.974.649-1.867 1.38-2.841 2.11s-1.948 1.542-3 2.354c-.73.568-1.542.974-2.273 1.542-1.136.812-2.191 1.623-3.328 2.354a16.356 16.356 0 0 1-2.029 1.136 4.22 4.22 0 0 0-1.624 1.542.81.81 0 0 1-.325.406c-1.3 1.542-2.6 3.166-3.9 4.708a46.375 46.375 0 0 0-3.084 3.9 63.364 63.364 0 0 1-4.3 5.195c-.974 1.055-1.948 2.273-3 3.328a27.086 27.086 0 0 1-2.678 2.6 7.885 7.885 0 0 0-2.273 3.328c-.162.406-.406.893-.568 1.3a3.481 3.481 0 0 0-.325 2.029 7.674 7.674 0 0 1-.325 3.815c-.325 1.217-.487 2.435-.812 3.653a34.434 34.434 0 0 0-.893 5.682c-.162 1.38-.162 2.76-.244 4.14a3.2 3.2 0 0 1-.812 2.029 1.422 1.422 0 0 1-.406.325c-.568.162-1.218.325-1.867.487-.162.081-.406-.081-.487-.162a1.781 1.781 0 0 1-.568-1.38 24.408 24.408 0 0 1 .812-7.224c.325-1.542.649-3 .893-4.545.162-.974.162-2.029.325-3 .081-.406.081-.893.162-1.3a11.453 11.453 0 0 0 .162-3.734 5.589 5.589 0 0 1 .162-2.029 11.464 11.464 0 0 0 .325-3.734v-.487c-.244-1.217-.406-2.435-.731-3.653a23.79 23.79 0 0 1-.406-2.354 8.846 8.846 0 0 0-.406-2.11 33.987 33.987 0 0 1-1.055-5.6 5.489 5.489 0 0 1-.162-1.136 8.826 8.826 0 0 1 0-2.922 33.806 33.806 0 0 0 .487-5.763 21.317 21.317 0 0 1 .487-3.977 19.945 19.945 0 0 0 .325-4.383 24.679 24.679 0 0 0-1.136-5.519 21.382 21.382 0 0 1-1.055-5.032 36.814 36.814 0 0 0-.73-4.14c-.244-1.3-.487-2.679-.73-3.977-.406-1.948-.73-3.9-1.136-5.844-.162-.974-.406-1.867-.65-2.841-.081-.243-.162-.568-.243-.812-.568-1.623-1.055-3.247-1.624-4.87a1.293 1.293 0 0 0-1.055-1.055 3.15 3.15 0 0 1-2.029-1.623c-.244-.568-.568-1.055-.812-1.623a1.776 1.776 0 0 0-.73-.812 6.545 6.545 0 0 1-2.435-2.029 2.309 2.309 0 0 1-.325-2.273 1.048 1.048 0 0 1 .974-.73 7.423 7.423 0 0 1 1.38-.081 1.529 1.529 0 0 0 .162-.649c.081-.325.081-.73.162-1.055a14.791 14.791 0 0 1 .893-3.247 2.32 2.32 0 0 1 1.38-1.38c.731-.244 1.3-.162 1.623.487a11.92 11.92 0 0 1 1.218 2.76c.081.487.244.974.325 1.542a11.94 11.94 0 0 0 1.7 0 3.308 3.308 0 0 1 1.461.406 1.04 1.04 0 0 1 .568 1.461 3.011 3.011 0 0 1-1.38 1.623c-.325.243-.649.406-.974.649a.613.613 0 0 0-.325.568 4.331 4.331 0 0 0 .406 2.029 2.7 2.7 0 0 1 .325 2.354 1.243 1.243 0 0 0 .162 1.055 31.179 31.179 0 0 1 1.542 4.139c.244.974.65 1.867.893 2.922.487 1.7.893 3.409 1.3 5.114.244 1.055.568 2.192.73 3.247a13.153 13.153 0 0 1 .244 1.623 58.714 58.714 0 0 0 1.218 9.334c.325 1.461.731 2.841 1.136 4.3a23.086 23.086 0 0 1 .812 5.844c0 1.217.081 2.354.081 3.571a2.8 2.8 0 0 0 .244 1.055c.406-.73.893-1.461 1.3-2.192.244-.325.406-.73.649-1.055a34.219 34.219 0 0 1 4.3-5.438c1.3-1.218 2.516-2.354 3.9-3.49a25.6 25.6 0 0 0 4.789-5.438 62.248 62.248 0 0 0 3.734-6.818 45.268 45.268 0 0 1 3.166-5.438 19.444 19.444 0 0 1 1.461-2.11 5.23 5.23 0 0 0 .893-1.623 55.253 55.253 0 0 0 3.409-8.117 6.35 6.35 0 0 1 .406-1.136 37.232 37.232 0 0 0 1.461-4.545c.162-.812.487-1.542.731-2.354.325-1.055.568-2.11.812-3.165.487-1.623.893-3.328 1.38-4.951a2.5 2.5 0 0 0 0-1.542 8.434 8.434 0 0 1-.325-3.165 1.214 1.214 0 0 0-.487-1.217 13.754 13.754 0 0 1-3.247-4.545 1.875 1.875 0 0 1 .812-2.679 3.407 3.407 0 0 1 2.922-.406c.162.081.325.081.487.162a.7.7 0 0 0 .893-.487c.081-.325.081-.73.162-1.055a7.408 7.408 0 0 1 1.542-3.571 3.745 3.745 0 0 1 .568-.568 1.785 1.785 0 0 1 2.922.649 5.446 5.446 0 0 1 .487 2.273 9.485 9.485 0 0 1-.325 3 1.155 1.155 0 0 0 .406 1.3c.568.487 1.055.974 1.623 1.38a2.662 2.662 0 0 1 .974 2.678 2.184 2.184 0 0 1-1.623 1.7 12.542 12.542 0 0 0-1.867.568 3.09 3.09 0 0 0-1.055.73 1.57 1.57 0 0 0-.406.731l-.487 1.948c-.081.162-.081.406-.162.568a8.4 8.4 0 0 0-.812 3.409c-.244 1.867-.487 3.815-.812 5.763a20.8 20.8 0 0 1-1.786 5.357c-.162.406-.406.73-.568 1.136-.568 1.055-1.055 2.192-1.542 3.247-.406.974-.812 1.867-1.218 2.841a1.529 1.529 0 0 0-.162.649 26.185 26.185 0 0 1-1.948 4.708c-.325.568-.568 1.217-.893 1.786-.244.487-.487.974-.731 1.38-.406.649-.73 1.3-1.136 1.948-.243.487-.487.974-.73 1.38-.973-1.055-.892-1.055-.892-.974z" class="cls-27" data-name="Path 6509" transform="translate(-531.876 -93.115)"/><path id="Path_6510" fill="#ffdc40" fill-rule="evenodd" d="M1029.177 367.971a53.544 53.544 0 0 0 7.143 9.253c5.763 6.25 11.445 12.419 17.208 18.668a113.945 113.945 0 0 0-35.227.649c5.195 7.062 15.341 10.308 23.782 9.74 3.9-.243 7.792-1.3 11.688-1.217s8.117 1.542 10.065 4.951a95.042 95.042 0 0 0-34.74 7.873c1.948 5.682 9.01 7.954 14.935 7.143 5.925-.893 11.282-3.977 16.883-5.925s12.5-2.435 17.126 1.38a67.014 67.014 0 0 0-31.331 13.555 37.855 37.855 0 0 0 28.815-2.516c2.11-1.136 4.139-2.435 6.493-2.922 5.357-1.136 10.552 2.354 15.178 5.357 4.627 2.922 10.714 5.519 15.422 2.678a123.467 123.467 0 0 1-24.756-10.552c3.49 1.948 12.906-21.185 13.636-23.863a48.018 48.018 0 0 0-1.3-28.084c-2.6 2.11-3.734 5.438-4.789 8.523-4.221 12.743-8.523 25.487-12.743 38.23-4.708-1.217-6.574-7.143-5.52-11.85 1.624-7.143 6.9-13.393 9.334-20.292 2.6-7.224 3.084-16.315 2.76-23.944-8.36 1.623-13.88 9.821-16.152 17.938-1.948 6.9-.974 19.074-5.519 24.431-4.058-2.435-3.734-8.2-2.922-12.256 1.461-7.386 3.815-14.691 4.464-22.159.487-6.006.081-17.451-5.682-20.86a80.259 80.259 0 0 0-5.763 19.318c-.974 5.032-4.14 17.126-1.7 21.834-2.679-5.276-19.724-45.048-28.165-39.042-3.9 2.841-.409 10.877 1.377 13.961z" data-name="Path 6510" transform="translate(-513.926 -104.664)"/><g id="Group_8078" data-name="Group 8078" transform="translate(561.435 324.98)"><path id="Path_6511" fill="#ffb2c2" d="M1137.382 554.594a85.078 85.078 0 0 1-15.746-.974c-3.653-.568-7.386-1.461-10.146-3.815-3-2.6-4.464-6.575-5.763-10.308a339.775 339.775 0 0 1-11.688-45.7c-1.623-8.685-9.415-38.23-2.841-43.506 7.873-6.25 98.862.568 98.781 1.461a342.971 342.971 0 0 1-19.155 88.8c-.893 2.6-1.948 5.195-3.977 7.062a16.449 16.449 0 0 1-5.682 2.922 90.7 90.7 0 0 1-23.783 4.058z" data-name="Path 6511" transform="translate(-1088.602 -447.683)"/></g></g><g id="Group_8080" class="cls-8" data-name="Group 8080"><path id="Path_6512" d="M868.874 497.043s-2.11-55.843-2.435-58.927c.406-3.247-26.3-125-26.7-124.917-11.932-18.831 15.26-30.762 4.464-49.918q-19.48-12.419-37.743-25.081c-12.419.812-24.675 1.623-36.931 2.354-7.549-3.328-10.8 4.221-18.019.812-6.25 6.331-16.72 1.948-23.133 8.36-10.227 46.428-.081 93.261-13.961 140.5-5.438 50.892 9.01 27.678 5.763 106.654z" class="cls-27" data-name="Path 6512" transform="translate(-456.463 -83.252)"/><path id="Path_6513" d="M789.4 245.325c12.743 16.72 19.074 6.169 32.3-3.9-16.309-4.625-35.87-21.505-32.3 3.9z" class="cls-30" data-name="Path 6513" transform="translate(-470.738 -82.017)"/><path id="Path_6514" d="M771.495 227.26c-2.922 3.9 9.172 27.84 10.876 32.548a269.84 269.84 0 0 1 15.5-23.3c-1.7 2.273-21.753-15.1-26.136-9.659-.159.167 2.033-2.673-.24.411z" class="cls-27" data-name="Path 6514" transform="translate(-467.361 -80.915)"/><path id="Path_6515" d="M804.9 233.159c2.192 3.815 8.2-4.545 9.334-5.763.812-.893 3.247-5.276 4.708-4.14 2.273 1.786 3.653 15.1 4.3 18.1s2.922 17.37 4.545 19.237c-6.653-7.548-17.855-17.532-22.887-27.434z" class="cls-27" data-name="Path 6515" transform="translate(-473.737 -80.402)"/><path id="Path_6516" d="M821.758 222.962c-2.678 9.578.487 20.454 1.786 30.032 1.461 10.876 8.6 21.347 12.256 31.736 9.415 26.866 17.776 52.028 26.055 79.219 6.656 22 14.042 43.83 23.052 64.934 4.627 10.876 24.675 63.554 44.236 50.324 2.6-1.217-20.454-76.216-21.428-83.034-2.841-19.642-10.714-38.473-13.8-58.2-5.438-34.577-8.36-72.077-27.435-102.6-2.6-4.14-5.6-8.279-9.659-10.876-3.246-2.022-34.495-4.697-35.063-1.535z" class="cls-31" data-name="Path 6516" transform="translate(-476.715 -80.107)"/><path id="Path_6517" d="M800.484 254.761c-3.247 15.259-2.922 32.142-3.084 47.808-.244 38.879 11.769 75 38.635 104.462a167.9 167.9 0 0 0 13.88 13.474A24.789 24.789 0 0 0 853 423.1c.974.649 2.516.325 3.9.325 4.221 0 8.523-.081 12.824-.162a14.556 14.556 0 0 0 2.679-.081c.325-.162.162-.649.162-.893.081-1.218.406-2.435.568-3.571s1.542-5.925.731-6.737c-.893-.893-2.354-1.7-3.409-2.6-1.38-1.055-2.76-2.192-4.058-3.247-2.516-2.11-4.951-4.221-7.3-6.412-10.065-8.117-33.847-36.282-43.181-68.262-10.958-31.168-9.5-65.827-9.821-68.668-.162-3.165-.162-6.331-.162-9.5-2.446 4.148-6.261 2.849-5.449 1.469z" class="cls-30" data-name="Path 6517" transform="translate(-472.324 -86.095)"/><path id="Path_6518" d="M843.168 550.1v29.22H720.2l1.3-29.22" class="cls-32" data-name="Path 6518" transform="translate(-457.786 -141.991)"/><path id="Path_6519" d="M720 551.178a5.158 5.158 0 0 0 1.461-.487 41.265 41.265 0 0 1 4.221-1.217 143.985 143.985 0 0 1 15.422-3.084c12.906-2.029 26.461-1.3 39.447-.731 12.175.487 24.35 1.136 36.444 2.435 3.409.406 6.818.812 10.227 1.3v1.542c-.081.08-107.141.242-107.222.242z" class="cls-32" data-name="Path 6519" transform="translate(-457.749 -141.04)"/><path id="Path_6520" d="M758.327 226.856a4.917 4.917 0 0 1 2.354 2.273c3.815 5.844 4.058 17.045 5.195 23.944 2.273 13.393-.974 29.3-2.354 42.694-.325 3.084-.568 6.169-.812 9.253-1.218 16.558-1.136 33.441-1.542 50.08-1.217 45.941-3.247 92.044-4.951 137.822-.081 2.679.487 4.951-2.922 5.357-3.9.487-21.1-7.062-24.918-6.25-1.461.325-2.841 1.055-4.3 1.3-4.789.974-3.734-2.679-8.6-2.029-3.571.487-7.224 2.922-10.8.974-3.328-1.867-3.571-6.493-3.328-10.308 2.273-34.658 6.818-60.388 1.542-94.56-2.679-17.451-.812-13.555-3.247-31.087-2.76-19.886-5.682-56.492-1.867-76.3 3.49-18.1-4.221-37.175 15.99-42.369 13.717-3.49 27.435-7.062 41.152-10.552a5.517 5.517 0 0 1 3.408-.242z" class="cls-31" data-name="Path 6520" transform="translate(-453.219 -81.08)"/></g><g id="Group_8081" class="cls-8" data-name="Group 8081"><path id="Path_6521" fill="#a6d6ff" d="M1048.925 597.851H15.016A15.017 15.017 0 0 1 0 582.916 15.034 15.034 0 0 1 15.016 567.9h1033.909a15.034 15.034 0 0 1 15.016 15.016 15.123 15.123 0 0 1-15.016 14.935z" data-name="Path 6521" transform="translate(-322.153 -145.343)"/></g></g><g id="Group_8087" data-name="Group 8087" transform="translate(989.43 383.621)"><g id="Group_8083" data-name="Group 8083" transform="translate(22.095)"><path id="Rectangle_2268" d="M0 0h3.896v54.057H0z" class="cls-7" data-name="Rectangle 2268" transform="rotate(10.038 -3.966 54.404)"/><path id="Rectangle_2269" d="M0 0h6.088v16.233H0z" class="cls-7" data-name="Rectangle 2269" transform="rotate(10.038 4.372 49.782)"/></g><g id="Group_8084" data-name="Group 8084" transform="translate(15.665 4.521)"><path id="Path_6522" d="M1195.3 535.829l-3.9-.325 4.545-53.814 2.354-3.49 1.542 3.815z" class="cls-7" data-name="Path 6522" transform="translate(-1191.4 -478.2)"/></g><g id="Group_8085" data-name="Group 8085" transform="translate(0 8.66)"><path id="Path_6523" d="M1186.223 539.549l-3.815.812-10.308-53.084 1.3-3.977 2.516 3.247z" class="cls-7" data-name="Path 6523" transform="translate(-1172.1 -483.3)"/></g><g id="Group_8086" data-name="Group 8086" transform="translate(.568 32.929)"><path id="Path_6524" d="M1195.04 557.517h-16.8l-5.44-44.317h27.678z" class="cls-34" data-name="Path 6524" transform="translate(-1172.8 -513.2)"/><path id="Path_6525" d="M1203.456 557.517h-16.72L1184.3 513.2h24.675z" class="cls-34" data-name="Path 6525" transform="translate(-1174.966 -513.2)"/></g></g><g id="Group_8089" data-name="Group 8089" transform="translate(739.435 443.173)"><path id="Rectangle_2270" fill="#f9f9f9" d="M0 0h119.397v17.776H0z" data-name="Rectangle 2270"/></g><path id="Path_6534" fill="#b87e62" d="M787.939 191.987a5.544 5.544 0 0 0 1.7 7.305q9.5 5.844 19.48 11.688a4.5 4.5 0 0 0 6.575-2.192 459.73 459.73 0 0 0 12.743-31.98 6.51 6.51 0 0 0-2.354-7.386c-5.925-3.815-11.688-7.63-17.289-11.363-2.029-1.38-4.545-.325-5.763 2.273 0 0-3.328 8.036-7.954 13.636-3 3.734-7.143 18.019-7.143 18.019" data-name="Path 6534" transform="translate(-110.191 -29.652)"/><path id="Path_6535" fill="#7d7d7d" d="M821.21 197.24c.081 0-8.928 21.915-10.958 26.217-1.542 3.9-7.467 11.526-27.922-.487-11.85-7.062-5.844-16.233-4.3-19.318 1.3-2.354 9.01-15.5 10.8-16.152.081 0-1.867 6.818-1.867 6.818s4.87-3.734 10.146-.406c8.6 5.357 8.036 12.419 12.094 14.772 3.166 1.786 8.442-5.6 11.445-11.607" data-name="Path 6535" transform="translate(-107.911 -35.311)"/><g id="Group_8091" data-name="Group 8091" transform="translate(905.503 408.271)"><g id="Group_8090" data-name="Group 8090"><path id="Path_6536" d="M1075.664 554.425a2.977 2.977 0 0 0 2.922 2.678h3.49l-1.3-46.1h-9.576" class="cls-4" data-name="Path 6536" transform="translate(-1069.171 -504.507)"/><path id="Path_6537" d="M1083.1 511l1.3 46.1h21.753a2.924 2.924 0 0 0 2.922-2.678l3.732-43.422z" class="cls-4" data-name="Path 6537" transform="translate(-1071.412 -504.507)"/><path id="Path_6538" fill="#2bd69e" d="M1110.032 524.2h-38.149a.457.457 0 0 0-.487.568l1.542 14.2a.524.524 0 0 0 .487.487h35.47a.468.468 0 0 0 .487-.487l1.136-14.2a.457.457 0 0 0-.486-.568z" data-name="Path 6538" transform="translate(-1069.205 -506.993)"/><path id="Path_6539" d="M1111.333 508.774a.987.987 0 0 0-.974-.974h-39.285a.987.987 0 0 0-.974.974v.081l41.233-.081z" class="cls-40" data-name="Path 6539" transform="translate(-1068.964 -503.904)"/><path id="Path_6540" d="M1070.1 509.8v.487a.987.987 0 0 0 .974.974h39.285a.987.987 0 0 0 .974-.974v-.487z" class="cls-40" data-name="Path 6540" transform="translate(-1068.964 -504.281)"/><path id="Path_6541" fill="#c6c6c6" d="M1071.3 511.6l.244.649h38.96l.081-.649z" data-name="Path 6541" transform="translate(-1069.19 -504.62)"/><path id="Path_6542" d="M1071.3 505.5a1.5 1.5 0 0 0-1.38.893l-1.218 8.441h10.146l-.162-9.334z" class="cls-42" data-name="Path 6542" transform="translate(-1068.7 -503.471)"/><path id="Path_6543" d="M1113.3 506.393a1.533 1.533 0 0 0-1.461-.893H1081l.162 9.334h33.36z" class="cls-42" data-name="Path 6543" transform="translate(-1071.016 -503.471)"/><path id="Path_6544" d="M1074.374 503a.938.938 0 0 0-.974.974v.974h6.25V503z" class="cls-43" data-name="Path 6544" transform="translate(-1069.585 -503)"/><path id="Path_6545" d="M1110.626 503.974a.987.987 0 0 0-.974-.974H1081v1.948h29.626z" class="cls-43" data-name="Path 6545" transform="translate(-1071.016 -503)"/></g></g><path id="Path_6546" d="M798.711 210.763c-1.624-.974-3.247-2.029-4.87-3a1.523 1.523 0 0 1-.487-2.029c.162-.243.244-.487.406-.73-.162.325 6.412 4.058 7.224 4.3a4.346 4.346 0 0 1-.406.893 1.377 1.377 0 0 1-1.867.568" class="cls-4" data-name="Path 6546" transform="translate(-111.304 -38.607)"/><path id="Path_6547" d="M826.845 186.185c.325-.081.487-.487.731-.731a77.789 77.789 0 0 0 9.578-12.256c.406-.649.812-1.38 1.218-2.029.893-.73 1.623-2.273 2.516-4.789a9.94 9.94 0 0 0-.162-7.63c-1.055-2.029-2.922-3.409-4.058-5.357-2.6-4.464.081-7.792-3-11.932a34.616 34.616 0 0 0-3.49-3.409c-2.922-2.922-6.9-15.341-13.068-7.63-.162.244-3.977 2.6-3.977 2.6-3.734 2.354-8.523 6.575-8.928 13.961-.081.73 1.786 4.14 2.11 4.789 3 6.088 4.951 6.25 11.363 8.523 2.273.812 4.708 1.217 6.98 2.11 2.272.974 5.195 2.841 5.763 5.276a11.849 11.849 0 0 1-.244 4.464 49.045 49.045 0 0 1-2.76 8.766 21.375 21.375 0 0 0-1.055 4.058c-.247-.001-.572 1.46.483 1.216z" class="cls-44" data-name="Path 6547" transform="translate(-113.384 -24.094)"/><path id="Path_6548" d="M684.655 682.856a38.447 38.447 0 0 0 5.6 3.977c4.3 2.922 8.685 5.925 12.987 8.847 5.925 4.058 11.85 8.117 17.776 12.094l20.7 14.123c7.224 4.951 14.448 9.821 21.672 14.772l20.7 14.123c5.925 4.058 11.85 8.035 17.776 12.094 4.3 2.922 8.6 5.844 12.906 8.847 2.029 1.38 4.139 2.76 6.169 4.221.081.081.162.081.244.162l9.01-7.548L687.333 670.6a14.551 14.551 0 0 0-3 2.516 9.8 9.8 0 0 0-1.542 4.464 7.117 7.117 0 0 0 .406 3.166 4.985 4.985 0 0 0 1.458 2.11z" class="cls-34" data-name="Path 6548" transform="translate(-90.509 -126.292)"/><path id="Path_6549" fill="#ba4cd0" d="M1032.387 563.966L894.24 481.5 688.4 634.987l142.854 97.969 201.539-168.746a1.771 1.771 0 0 1-.406-.244z" data-name="Path 6549" transform="translate(-91.576 -90.68)"/><path id="Path_6550" d="M853.3 798.749l9.091 6.169 9.01-7.467-9.091-6.25z" class="cls-34" data-name="Path 6550" transform="translate(-122.631 -149.004)"/><path id="Path_6551" d="M1065.938 583.3L864.4 752.047l9.091 6.25 190.337-158.844c2.191-.893 4.14-3.328 5.032-6.412 1.14-4.303-.16-8.441-2.922-9.741z" class="cls-34" data-name="Path 6551" transform="translate(-124.722 -109.851)"/><path id="Path_6552" d="M847.425 441.406s-38.8-50.892-70.616-90.583c-1.38-1.7-2.678-3.409-4.058-5.032-18.182-22.483-33.36-40.34-36.525-41.314-7.954-2.516-25.568-.812-30.194 13.88-4.627 14.772-5.032 26.623 2.841 40.016 9.334 15.828 107.953 124.186 107.953 124.186" class="cls-7" data-name="Path 6552" transform="translate(-94.273 -57.16)"/><g id="Group_8100" data-name="Group 8100" transform="translate(421.259 78.61)"><g id="Group_8095" data-name="Group 8095" opacity=".36" transform="translate(15.341 36.972)"><g id="Group_8094" data-name="Group 8094"><g id="Group_8093" class="cls-47" data-name="Group 8093"><g id="Group_8092" class="cls-47" data-name="Group 8092"><path id="Path_6553" fill="#fcfcfc" d="M549.527 165.043c-14.123.731-28.246.974-42.369 1.461-4.789.487-12.581 2.6-14.935-3-2.029-4.058-1.7-19.318 2.76-20.7 3.571-1.136 11.769.406 15.5.487 9.253.487 18.425 1.136 27.678 1.542 4.87-.081 12.906-1.136 15.1 3.328 1.136 2.191.649 17.045-3.734 16.883" data-name="Path 6553" transform="translate(-491.005 -142.398)"/></g></g></g></g><g id="Group_8099" data-name="Group 8099" opacity=".08" transform="translate(0 3.206)"><g id="Group_8098" data-name="Group 8098"><g id="Group_8097" class="cls-50" data-name="Group 8097"><g id="Group_8096" class="cls-50" data-name="Group 8096"><path id="Path_6554" fill="#050505" d="M573.134 149.572c0 65.258-101.134 64.853-101.134 0 .081-64.934 101.134-65.259 101.134 0" data-name="Path 6554" transform="translate(-472.081 -100.791)"/></g></g></g></g><path id="Path_6555" d="M578.234 145.672c0 65.258-101.134 64.853-101.134 0 0-64.934 101.134-65.259 101.134 0" class="cls-4" data-name="Path 6555" transform="translate(-473.042 -96.85)"/><path id="Path_6556" fill="#eaeaea" d="M527.666 206.218A50.6 50.6 0 0 1 477.1 156.3c-.73 65.908 101.865 65.746 101.053 0a50.422 50.422 0 0 1-50.486 49.918" data-name="Path 6556" transform="translate(-473.041 -108.046)"/><path id="Path_6557" d="M528.793 190.309c-60.957 0-60.957-89.609 0-89.609s60.957 89.609 0 89.609" class="cls-9" data-name="Path 6557" transform="translate(-474.167 -97.575)"/><path id="Path_6558" d="M539.146 112.936c-1.461 0-1.461-8.036 0-8.036s1.461 8.036 0 8.036" class="cls-44" data-name="Path 6558" transform="translate(-484.52 -98.366)"/><path id="Path_6559" d="M516.894 118.943c-.893 0-4.951-6.331-3.653-7.062 1.786-.974 5.276 7.062 3.653 7.062" class="cls-44" data-name="Path 6559" transform="translate(-479.8 -99.665)"/><path id="Path_6560" d="M500.633 135.267c-.649 0-7.062-3.084-6.25-4.383 1.3-2.354 8.279 4.383 6.25 4.383" class="cls-44" data-name="Path 6560" transform="translate(-476.283 -103.166)"/><path id="Path_6561" d="M494.624 157.462c-.406-.081-7.224.73-7.224-.812 0-3.815 9.821.812 7.224.812" class="cls-44" data-name="Path 6561" transform="translate(-474.981 -107.828)"/><path id="Path_6562" d="M495.1 182.4c-2.273 0 5.195-6.331 6.25-4.383.73 1.3-5.6 4.383-6.25 4.383" class="cls-44" data-name="Path 6562" transform="translate(-476.351 -112.065)"/><path id="Path_6563" d="M513.8 200.548c-1.786 0 2.273-7.873 3.653-7.062 1.217.731-2.76 7.062-3.653 7.062" class="cls-44" data-name="Path 6563" transform="translate(-479.869 -115.038)"/><path id="Path_6564" d="M539.146 207.136c-1.461 0-1.461-8.036 0-8.036s1.461 8.036 0 8.036" class="cls-44" data-name="Path 6564" transform="translate(-484.52 -116.106)"/><path id="Path_6565" d="M563.994 200.543c-.893 0-4.951-6.331-3.653-7.062 1.786-.974 5.276 7.062 3.653 7.062" class="cls-44" data-name="Path 6565" transform="translate(-488.67 -115.033)"/><path id="Path_6566" d="M582.133 182.367c-.649 0-7.062-3.084-6.25-4.383 1.38-2.354 8.36 4.383 6.25 4.383" class="cls-44" data-name="Path 6566" transform="translate(-491.632 -112.036)"/><path id="Path_6567" d="M588.824 157.462c-.406-.081-7.224.73-7.224-.812 0-3.815 9.821.812 7.224.812" class="cls-44" data-name="Path 6567" transform="translate(-492.722 -107.828)"/><path id="Path_6568" d="M576.7 135.3c-2.273 0 5.195-6.331 6.25-4.383.731 1.3-5.6 4.383-6.25 4.383" class="cls-44" data-name="Path 6568" transform="translate(-491.719 -103.195)"/><path id="Path_6569" d="M560.9 118.948c-1.786 0 2.273-7.873 3.653-7.062 1.218.731-2.76 7.062-3.653 7.062" class="cls-44" data-name="Path 6569" transform="translate(-488.739 -99.671)"/><path id="Path_6570" d="M526.6 125.1c2.191 6.98 4.464 28.165 13.23 25.324-4.464-8.441-8.847-16.883-13.23-25.324" class="cls-44" data-name="Path 6570" transform="translate(-482.364 -102.17)"/><path id="Path_6571" d="M561.686 159.714c-5.844-2.76-13.474-3.571-19.8-5.114 0 1.136-.081 2.273-.081 3.409 6.737.568 13.312 1.136 19.886 1.7" class="cls-44" data-name="Path 6571" transform="translate(-485.226 -107.726)"/><path id="Path_6572" d="M542.987 155.408c0 3.9-6.088 3.9-6.088 0-.081-3.977 6.088-3.977 6.088 0" class="cls-44" data-name="Path 6572" transform="translate(-484.303 -107.316)"/></g><path id="Path_6573" d="M773.906 323.1s-2.76 15.422 12.824 31.331l-31.33 2.678z" class="cls-7" data-name="Path 6573" transform="translate(-104.194 -60.848)"/><path id="Path_6574" fill="#260028" d="M707.156 633.87L796.2 567.8h-42.291L664.3 633.87h42.856" data-name="Path 6574" opacity=".15" transform="translate(-87.037 -106.932)"/><g id="Group_8101" data-name="Group 8101" transform="translate(742.519 485.129)"><path id="Path_6575" d="M876.179 642.746L867.9 636.5l28.49-25.568 8.279 6.25zm30.194-42.937a5.9 5.9 0 0 1 4.545-2.11 6.337 6.337 0 0 1 4.789 1.786 6.571 6.571 0 0 1 .487 9.334 5.894 5.894 0 0 1-4.545 2.11 6.336 6.336 0 0 1-4.789-1.786 6.256 6.256 0 0 1-2.192-4.545 6.47 6.47 0 0 1 1.7-4.789" class="cls-4" data-name="Path 6575" transform="translate(-867.9 -597.691)"/></g></g></svg>