<svg xmlns="http://www.w3.org/2000/svg" id="Group_7963" data-name="Group 7963" viewBox="0 0 694.688 857.511"><defs><style>.cls-1{opacity:.05}.cls-2,.cls-9{fill:#ffcaa0}.cls-3{fill:#fff}.cls-5{fill:#260028}.cls-7{clip-path:url(#clip-path)}.cls-9{fill-rule:evenodd}.cls-10{fill:#0078bf}.cls-11{fill:#cbbca7}.cls-12{fill:#e33836}.cls-13{fill:#43455a}.cls-14{fill:#e9f3f4}.cls-16{fill:#e6b690}.cls-17{fill:#87199d}.cls-18{opacity:.11}.cls-19{clip-path:url(#clip-path-4)}.cls-20{fill:#050505}.cls-23{fill:#b775c4}.cls-29{clip-path:url(#clip-path-8)}</style><clipPath id="clip-path"><path id="Rectangle_2189" d="M0 0h7.73v20.927H0z" data-name="Rectangle 2189"/></clipPath><clipPath id="clip-path-3"><path id="Path_6144" d="M1168.164 346.654c-.377.283-.848.471-1.319.754a8.95 8.95 0 0 0-1.6.943 1.466 1.466 0 0 0-.565.754 1.841 1.841 0 0 0 .094.66c.471 1.508 1.885 2.639 2.734 3.771.754 1.037 2.074 2.262 2.074 3.865a8.111 8.111 0 0 1-.094 1.508 12.182 12.182 0 0 1-1.6 4.713 9.45 9.45 0 0 1-6.881 4.43s1.414 1.037 4.713 5.844c7.164 10.652 15.459 1.225 15.459 1.225l6.127-2.828-.283-.377c2.357-1.508 2.451-1.6 2.357-2.074v-.094c1.791-1.131 7.164-4.053 8.767-12.726 1.6-8.767-3.488-16.214-8.955-23.283a6.615 6.615 0 0 0-1.508-.943 3.794 3.794 0 0 0-2.262.471c-.848.377-1.508.943-2.357 1.414a18.922 18.922 0 0 1-3.111 1.508 42.234 42.234 0 0 1-5.656 1.037s-3.017 0-1.6 1.791c1.131 1.414 1.979 2.828.283 4.242a40.484 40.484 0 0 1-4.817 3.395z" data-name="Path 6144" transform="translate(-1161 -332.746)"/></clipPath><clipPath id="clip-path-4"><path id="Rectangle_2194" d="M0 0h103.597v142.245H0z" data-name="Rectangle 2194"/></clipPath><clipPath id="clip-path-6"><path id="Path_6169" d="M1151.035 366.946c10.464 1.32 13.386-.471 21.493 6.41 7.918 6.787 12.349 16.119 23.378 18.853 7.541 1.885 15.459-.189 23-2.357a837.084 837.084 0 0 0 129.8-49.583c5.656-2.734 11.595-5.562 17.816-4.9s12.254 6.41 10.84 12.443c-1.131 4.619-5.75 7.258-9.9 9.426-44.116 22.529-89.363 43.456-137.155 56.653-21.3 5.939-43.362 10.463-62.309 21.681-15.459 9.144-28.091 22.341-41.853 33.841-9.05 7.541-19.042 14.328-28.468 25.074-8.3 9.521-19.513 32.993-18.57 45.624-26.017-25.074-54.2-47.981-87.006-63.157 34.6-20.644 74.658-53.165 87.666-91.248A1039.541 1039.541 0 0 1 928.1 322.641a62.734 62.734 0 0 1 7.07-19.041c39.874 17.628 80.6 33.37 122.073 46.944 13.763 4.525 32.615 8.767 47.226 9.709 15.931 1.037 28.939 2.262 41.948 5.467" data-name="Path 6169" transform="translate(-928.1 -303.6)"/></clipPath><clipPath id="clip-path-7"><path id="Path_6168" d="M1168.164 346.654c-.377.283-.848.471-1.319.754a8.949 8.949 0 0 0-1.6.943 1.465 1.465 0 0 0-.565.754 1.841 1.841 0 0 0 .094.66c.471 1.508 1.885 2.639 2.734 3.771.754 1.037 2.074 2.262 2.074 3.865a8.111 8.111 0 0 1-.094 1.508 12.182 12.182 0 0 1-1.6 4.713 9.45 9.45 0 0 1-6.881 4.43s1.414 1.037 4.713 5.844c7.164 10.652 15.459 1.225 15.459 1.225l5.468-5.373.377 2.168c2.357-1.508 2.451-1.6 2.357-2.074v-.094c1.791-1.131 7.164-4.053 8.767-12.726 1.6-8.767-3.488-16.214-8.955-23.283a6.613 6.613 0 0 0-1.508-.943 3.8 3.8 0 0 0-2.263.471c-.848.377-1.508.943-2.356 1.414a18.93 18.93 0 0 1-3.111 1.508 42.225 42.225 0 0 1-5.656 1.037s-3.016 0-1.6 1.791c1.131 1.414 1.98 2.828.283 4.242a40.477 40.477 0 0 1-4.818 3.395z" data-name="Path 6168" transform="translate(-1161 -332.746)"/></clipPath><clipPath id="clip-path-8"><path id="Rectangle_2196" d="M0 0h2.168v.283H0z" data-name="Rectangle 2196"/></clipPath></defs><path id="Path_6085" d="M1121.1 964.153c-.66 6.41-75.223 3.771-166.471-5.844C863.378 948.6 789.946 935.5 790.7 929.087c.66-6.41 75.223-3.771 166.471 5.844 91.248 9.709 164.68 22.718 163.926 29.222" class="cls-1" data-name="Path 6085" transform="translate(-790.694 -110.146)"/><path id="Path_6086" d="M1499.583 882.925c-.754 7.07-80.125 4.148-177.312-6.41-97.187-10.652-175.426-24.98-174.672-32.05s80.125-4.148 177.312 6.41c97.187 10.652 175.426 24.98 174.672 32.05" class="cls-1" data-name="Path 6086" transform="translate(-811.164 -105.272)"/><path id="Rectangle_2186" d="M0 0h33.747v15.459H0z" class="cls-2" data-name="Rectangle 2186" transform="rotate(27.031 -404.633 359.665)"/><path id="Path_6088" d="M993.915 121.585a53.551 53.551 0 1 1-45.53-60.518 53.56 53.56 0 0 1 45.53 60.518" class="cls-3" data-name="Path 6088" transform="translate(-796.236 -60.531)"/><path id="Path_6089" fill="#ffdc40" d="M856.377 765.517l-15.177-2.168L919.817 192.2l15.177 2.168z" data-name="Path 6089" transform="translate(-793.591 -68.083)"/><path id="Path_6090" d="M842.252 921.76l-25.923-3.676a7.114 7.114 0 0 1-5.939-8.484l40.345-200.5c.754-3.582 16.685-4.713 16.5-1.037l-16.968 207.1a7.082 7.082 0 0 1-8.012 6.6" class="cls-5" data-name="Path 6090" transform="translate(-791.814 -97.54)"/><path id="Path_6091" d="M938.014 189.161l-10.275-1.414a14.921 14.921 0 0 1-11.406-8.578l-7.541-16.591a1.4 1.4 0 0 1 1.508-1.98l51.091 7.258a1.421 1.421 0 0 1 .848 2.357l-11.972 14.328a13.691 13.691 0 0 1-12.254 4.619" class="cls-5" data-name="Path 6091" transform="translate(-797.46 -66.269)"/><path id="Path_6092" d="M945.184 200.037l-28.751-4.053a5.092 5.092 0 1 1 1.414-10.086l28.753 4.052a5.092 5.092 0 0 1 4.336 5.75 5.162 5.162 0 0 1-5.75 4.336" class="cls-5" data-name="Path 6092" transform="translate(-797.654 -67.719)"/><path id="Path_6093" d="M874.284 712.337l-28.751-4.053a5.092 5.092 0 0 1 1.414-10.086l28.751 4.053a5.092 5.092 0 0 1-1.414 10.086" class="cls-5" data-name="Path 6093" transform="translate(-793.588 -97.102)"/><path id="Path_6094" d="M864.094 830.271l-40.816-5.75a8.092 8.092 0 1 1 2.262-16.021l40.816 5.75a8.148 8.148 0 0 1 6.881 9.144 8.029 8.029 0 0 1-9.144 6.881" class="cls-5" data-name="Path 6094" transform="translate(-792.164 -103.427)"/><g id="Group_7945" data-name="Group 7945" opacity=".12" transform="translate(108.881 228.374)"><g id="Group_7944" data-name="Group 7944"><g id="Group_7943" class="cls-7" data-name="Group 7943"><g id="Group_7942" class="cls-7" data-name="Group 7942"><path id="Path_6095" fill="#020202" d="M908.651 302.8a10.352 10.352 0 0 1 4.053 4.807 13.007 13.007 0 0 1 1.225 5.656 15.241 15.241 0 0 1-1.131 5.75c-.188.471-.471.943-.66 1.32a6.047 6.047 0 0 1-.943 1.225l-.566.566-.566.566a9.187 9.187 0 0 1-1.414 1.037 29.805 29.805 0 0 1-1.885-5.562 28.993 28.993 0 0 1-.565-4.807 22.133 22.133 0 0 1 .471-4.9 21.464 21.464 0 0 1 1.98-5.656" data-name="Path 6095" transform="translate(-906.2 -302.8)"/></g></g></g></g><path id="Path_6096" d="M908.738 301.959s3.488 10.086.943 14.045-10.84 2.357-10.84 2.357-2.168-17.816-.094-18.57 6.786-1.791 6.786-1.791z" class="cls-9" data-name="Path 6096" transform="translate(-796.84 -74.151)"/><path id="Rectangle_2190" d="M0 0h35.161v307.114H0z" class="cls-10" data-name="Rectangle 2190" transform="rotate(-83.91 566.927 139.287)"/><path id="Path_6097" d="M1176.389 839.248a5.76 5.76 0 0 1-5.09-6.221l17.344-163.737a5.684 5.684 0 1 1 11.312 1.131l-17.345 163.737a5.639 5.639 0 0 1-6.221 5.09" class="cls-5" data-name="Path 6097" transform="translate(-812.522 -95.153)"/><path id="Path_6098" d="M1492.689 872.948a5.76 5.76 0 0 1-5.09-6.221l17.345-163.738a5.684 5.684 0 0 1 11.312 1.131l-17.439 163.737a5.442 5.442 0 0 1-6.127 5.09" class="cls-5" data-name="Path 6098" transform="translate(-830.663 -97.086)"/><path id="Path_6099" d="M1498.171 711.861L1188.7 678.868a15.19 15.19 0 0 1 16.779-13.574l279.021 29.788a15.262 15.262 0 0 1 13.668 16.779" class="cls-10" data-name="Path 6099" transform="translate(-813.521 -95.212)"/><path id="Rectangle_2191" d="M0 0h15.271v311.261H0z" class="cls-10" data-name="Rectangle 2191" transform="rotate(-83.91 524.9 97.184)"/><path id="Rectangle_2192" d="M0 0h15.271v311.261H0z" class="cls-10" data-name="Rectangle 2192" transform="rotate(-83.91 537.517 111.19)"/><path id="Path_6100" d="M1167.962 785.788a8.086 8.086 0 0 1-7.164-8.955l4.054-38.271a8.109 8.109 0 1 1 16.119 1.791l-4.053 38.271a8.085 8.085 0 0 1-8.955 7.164" class="cls-5" data-name="Path 6100" transform="translate(-811.919 -99.006)"/><path id="Path_6101" d="M1513.361 822.588a8.086 8.086 0 0 1-7.164-8.955l4.053-38.271a8.109 8.109 0 0 1 16.12 1.791l-4.054 38.271a8.085 8.085 0 0 1-8.955 7.164" class="cls-5" data-name="Path 6101" transform="translate(-831.728 -101.117)"/><path id="Path_6102" d="M1485.775 678.643c-.188.094-.283.189-.471.189a1.255 1.255 0 0 1-.754-.283 27.081 27.081 0 0 1-10.558-13.668 1 1 0 0 1-.094-.754 1.134 1.134 0 0 1 .471-.471 25.4 25.4 0 0 1 7.824-2.545c2.168-.471 4.242-.943 6.41-1.414a1.308 1.308 0 0 1 .848 0 1.483 1.483 0 0 1 .66.66c.943 1.508 1.979 3.016 2.922 4.525.943 1.414 2.262 3.111 2.639 4.713.377 1.414-.66 2.074-1.7 2.828a52.185 52.185 0 0 1-8.2 6.221" class="cls-11" data-name="Path 6102" transform="translate(-829.877 -94.892)"/><path id="Path_6103" d="M1483.031 693.191a6.318 6.318 0 0 1 1.32-.849c.471-.188.943-.471 1.32-.66.471-.189 1.7-1.037 2.357-.754a36.437 36.437 0 0 1 .943-4.619 9.926 9.926 0 0 1 1.225-3.3c.283-.471 1.225-2.074 1.6-1.226.283.754-.471 2.64-.66 3.3a35.955 35.955 0 0 1-1.414 4.148 9.512 9.512 0 0 1-1.131 2.168c1.037.377 2.074 2.262 2.828 3.016.283.283 2.828 3.488 3.016 3.394a1.324 1.324 0 0 1-1.32-.189 4.936 4.936 0 0 1-.943-1.037c-.848-1.131-1.7-2.357-2.545-3.488a8.708 8.708 0 0 1-.754-.848c.471 1.037.754 2.168 1.32 3.205.66 1.225 1.508 2.545 1.319 3.959 0 .189-.188.377-.283.283l-.094-.094c-.943-1.7-1.885-3.393-2.922-5.09a6.587 6.587 0 0 1-.754-1.885 2.339 2.339 0 0 1 .094-.848 2.92 2.92 0 0 0-.566.377 11.5 11.5 0 0 1-4.713 2.828c-.094 0-.283.094-.377 0a7.159 7.159 0 0 1 1.131-1.791" class="cls-12" data-name="Path 6103" transform="translate(-830.338 -96.149)"/><path id="Path_6104" d="M1472.383 682.775a3.825 3.825 0 0 1 .471-.848c.848-1.32 2.262-2.922 4.054-2.639h.188a5.5 5.5 0 0 1 .189-1.225 14.174 14.174 0 0 1 2.922-5.185.954.954 0 0 1 .66-.377c.471.094.754.943.754 1.32 0 .66-.754 1.414-1.037 1.885a62.8 62.8 0 0 1-2.734 4.148l.094.094a3.946 3.946 0 0 1 1.037 1.508 2.734 2.734 0 0 1 0 1.508l-.283 1.979a.49.49 0 0 1-.189.377c-.094.094-.283.189-.377.094a.489.489 0 0 1-.189-.377 1.937 1.937 0 0 1 0-1.037 5.376 5.376 0 0 0 .094-1.225 3.825 3.825 0 0 0-.377-1.791c0-.094-.094-.094-.094-.189-.377 1.6-1.226 3.582-1.32 3.959a3.331 3.331 0 0 1-.283 1.037c-.188.377-.471.754-.66 1.131l-.094.094c-.095.094-.189-.189-.189-.283a12.2 12.2 0 0 1 .566-4.525c.094-.189.377-1.037.66-1.791a9.833 9.833 0 0 0-1.508.566 5.039 5.039 0 0 0-1.226 1.225 2.832 2.832 0 0 1-1.32 1.037c-.094 0-.094 0-.094-.094.094 0 .283-.377.283-.377" class="cls-12" data-name="Path 6104" transform="translate(-829.775 -95.631)"/><path id="Path_6105" d="M1493.215 682.068a1.747 1.747 0 0 1-.66.189 1.772 1.772 0 0 1-1.6-.754 3.731 3.731 0 0 1-.66-1.791 9.815 9.815 0 0 1 .188-4.053c.094-.189.094-.471.283-.565.283-.189.566-.094.849-.094a14.254 14.254 0 0 1 2.734 1.225c1.037.66 3.676 1.414 3.016 2.922-.471 1.32-3.111 2.357-4.148 2.922" class="cls-13" data-name="Path 6105" transform="translate(-830.812 -95.773)"/><path id="Path_6106" d="M1481.207 674.53a1.887 1.887 0 0 1-.942-1.131 9.632 9.632 0 0 1-.283-5.656 1.3 1.3 0 0 1 .754-.943c.377 0 .566.283.848.471 1.037 1.131 4.148 2.64 4.054 4.242-.094 1.508-3.3 3.394-4.431 3.017" class="cls-13" data-name="Path 6106" transform="translate(-830.211 -95.304)"/><path id="Path_6107" d="M1483.78 669.826c6.41 6.316 16.874 7.541 25.169 3.959a17.971 17.971 0 0 0 6.693-4.713c4.242-5.185 3.676-12.255 3.865-18.57v-.189c0-.094-.188-.283-.283-.565a7.106 7.106 0 0 1-.566-1.225 9.421 9.421 0 0 1 .849-5.09c.754-1.7 1.885-3.3 2.545-5.09.377-1.32.754-2.639 1.037-3.959 0-.094.094-.283.094-.377.188-1.131.377-2.168.471-3.3.377-4.9-1.225-9.992-6.6-11.123-4.148-.943-7.164.66-9.521 3.111a1.3 1.3 0 0 0-.283.377c-.094.094-.188.283-.283.377s-.188.283-.283.377c0 .094-.094.094-.094.188a38.122 38.122 0 0 0-2.639 3.771 14.013 14.013 0 0 0-.754 1.225c-.283.66-.565 1.32-.848 2.074a15.6 15.6 0 0 1-2.074 3.394c-.471.566-.943 1.037-1.414 1.508a10.875 10.875 0 0 1-3.111 1.98c-.66.283-1.319.471-1.885.66-.094 0-.094 0-.188.094a3.807 3.807 0 0 1-.848.471c-3.394 2.074-7.164 3.771-9.9 6.6-6.41 6.221-5.561 17.722.849 24.038" class="cls-14" data-name="Path 6107" transform="translate(-830.144 -92.58)"/><path id="Path_6108" d="M1493.3 639.752a47.673 47.673 0 0 0 1.131 5.279 17.609 17.609 0 0 0 2.545 6.127c1.508 2.074 4.148 2.922 6.6 3.205 4.431.66 9.049-.471 13.2-2.168.848-.377 2.168-1.131 3.016-1.508.283-.094.471-.189.471-.283v-.188c0-.094-.188-.283-.283-.566a7.1 7.1 0 0 1-.566-1.225 9.416 9.416 0 0 1 .848-5.09c.754-1.7 1.885-3.3 2.545-5.09a5.323 5.323 0 0 0 .377-1.131c.283-.943.471-1.885.66-2.828 0-.094.094-.283.094-.377.188-1.131.377-2.168.471-3.3.377-4.9-1.226-9.992-6.6-11.123-3.677-.848-6.976.566-9.521 3.111a1.3 1.3 0 0 0-.283.377c-.094.094-.189.189-.189.283l-.094.094c-.094.094-.189.283-.283.377 0 .094-.094.094-.094.189-.943 1.225-1.7 2.545-2.639 3.771l-.189.283a8.328 8.328 0 0 0-.565.943c-.283.66-.566 1.32-.849 2.074a15.576 15.576 0 0 1-2.074 3.393c-.471.566-.943 1.037-1.414 1.508a10.882 10.882 0 0 1-3.111 1.98c-.66.283-1.32.377-1.885.66-.094 0-.094 0-.188.094a3.388 3.388 0 0 0-.848.471c-.283 0-.283.283-.283.66" class="cls-13" data-name="Path 6108" transform="translate(-830.992 -92.576)"/><path id="Path_6109" d="M1486.214 647.839a42.581 42.581 0 0 0-2.828 5.09 13.313 13.313 0 0 1-2.262 3.676 1.687 1.687 0 0 1-.66.471 1.332 1.332 0 0 1-.848-.094 4.336 4.336 0 0 1-2.639-1.791c-.849-1.508-.189-3.394.754-4.9a25.869 25.869 0 0 1 9.709-9.427 6.262 6.262 0 0 1 4.336-.377c.188.094.283.094.377.283.283.377-.094.754-.471 1.037z" class="cls-13" data-name="Path 6109" transform="translate(-830.033 -93.782)"/><path id="Path_6110" d="M1522.829 670.659c-.566 1.7-1.508 3.488-3.3 3.959a29.848 29.848 0 0 1-3.017.283c-1.6.283-3.393 1.414-4.713.471-.094 0 4.148-8.484 4.431-9.332.754-1.6 1.414-3.3 2.073-4.9.377-.943.943-3.676 1.791-4.148 2.074-1.037 3.111 3.488 3.3 4.619a18.277 18.277 0 0 1-.566 9.049" class="cls-13" data-name="Path 6110" transform="translate(-832.052 -94.732)"/><path id="Path_6111" d="M1514.314 629.7a1.065 1.065 0 0 0-.754.094 5.345 5.345 0 0 0-3.3 2.734 6.949 6.949 0 0 0-.377 1.32 8.284 8.284 0 0 0-.188 3.017c0 .094 0 .094.094.188s.188 0 .283-.094c.943-.754 1.791-1.508 2.734-2.262.754-.66 1.979-1.508 2.262-2.545.094-.566-.094-2.262-.754-2.451" class="cls-2" data-name="Path 6111" transform="translate(-831.927 -93.173)"/><path id="Path_6112" d="M1491.977 650a10.243 10.243 0 0 0-.377 2.357z" class="cls-11" data-name="Path 6112" transform="translate(-830.894 -94.34)"/><path id="Path_6113" d="M1492.443 650.189a1.03 1.03 0 0 0-.188.377 6.477 6.477 0 0 0-.283.754l-.377 1.131a8.373 8.373 0 0 1-.094-1.225V650z" class="cls-11" data-name="Path 6113" transform="translate(-830.888 -94.34)"/><path id="Path_6114" d="M1493.86 652a12.661 12.661 0 0 1-.66 2.545z" class="cls-11" data-name="Path 6114" transform="translate(-830.986 -94.455)"/><path id="Path_6115" d="M1494.332 652.089v.094c0 .094-.094.189-.094.283a3.353 3.353 0 0 1-.377.849 8.611 8.611 0 0 1-.66 1.225 5.514 5.514 0 0 0 .188-1.32v-1.32z" class="cls-11" data-name="Path 6115" transform="translate(-830.986 -94.449)"/><path id="Path_6116" d="M1495.843 656.4a18.891 18.891 0 0 1-.943 2.451z" class="cls-11" data-name="Path 6116" transform="translate(-831.084 -94.707)"/><path id="Path_6117" d="M1496.314 656.589l-.188.377a8.591 8.591 0 0 1-.471.848l-.754 1.131a11.451 11.451 0 0 0 .283-1.32 2.916 2.916 0 0 0 .094-.848v-.377z" class="cls-11" data-name="Path 6117" transform="translate(-831.084 -94.707)"/><path id="Path_6118" d="M1499.937 659.8a12.015 12.015 0 0 1-1.037 2.545z" class="cls-11" data-name="Path 6118" transform="translate(-831.313 -94.902)"/><path id="Path_6119" d="M1500.414 659.877l-.189.377a3.806 3.806 0 0 1-.471.848l-.754 1.131.377-1.32c.094-.377.094-.66.189-.943a1.144 1.144 0 0 1 .094-.471z" class="cls-11" data-name="Path 6119" transform="translate(-831.318 -94.885)"/><path id="Path_6120" d="M1507.131 659.4l-1.131 2.734z" class="cls-11" data-name="Path 6120" transform="translate(-831.72 -94.879)"/><path id="Path_6121" d="M1507.6 659.577l-1.6 2.545.66-2.922z" class="cls-11" data-name="Path 6121" transform="translate(-831.72 -94.868)"/><path id="Path_6122" d="M1513.339 658.3a12.168 12.168 0 0 1-2.64 3.488z" class="cls-11" data-name="Path 6122" transform="translate(-831.989 -94.816)"/><path id="Path_6123" d="M1513.711 658.477a.292.292 0 0 1-.094.188 2.069 2.069 0 0 0-.283.471 10.264 10.264 0 0 1-1.037 1.225 11.305 11.305 0 0 1-1.131 1.037 4.177 4.177 0 0 1-.565.471 5.8 5.8 0 0 0 .471-.566 6.875 6.875 0 0 0 .848-1.225c.283-.471.471-.943.66-1.32.094-.189.094-.283.188-.471a.329.329 0 0 1 .094-.189z" class="cls-11" data-name="Path 6123" transform="translate(-831.984 -94.805)"/><path id="Path_6124" d="M1506.8 667l-1.7 1.98z" class="cls-11" data-name="Path 6124" transform="translate(-831.669 -95.315)"/><path id="Path_6125" d="M1507.174 667.26l-2.074 1.6 1.32-2.262z" class="cls-11" data-name="Path 6125" transform="translate(-831.669 -95.292)"/><path id="Path_6126" d="M1501.851 665c-.849.848-1.7 1.7-2.451 2.545z" class="cls-11" data-name="Path 6126" transform="translate(-831.341 -95.2)"/><path id="Path_6127" d="M1502.128 665.348a4.884 4.884 0 0 0-.471.283 6.6 6.6 0 0 0-.943.754c-.754.566-1.414 1.131-1.414 1.131s.471-.754 1.037-1.508c.283-.377.565-.754.754-1.037a3.412 3.412 0 0 1 .377-.471z" class="cls-11" data-name="Path 6127" transform="translate(-831.336 -95.172)"/><path id="Path_6128" d="M1493.454 663.6a25.854 25.854 0 0 1-.754 2.545z" class="cls-11" data-name="Path 6128" transform="translate(-830.957 -95.12)"/><path id="Path_6129" d="M1493.926 663.683l-.189.377c-.094.283-.283.566-.377.848a12.223 12.223 0 0 1-.66 1.131 11.408 11.408 0 0 0 .283-1.32c0-.283.094-.66.094-.943v-.376z" class="cls-11" data-name="Path 6129" transform="translate(-830.957 -95.109)"/><path id="Path_6130" d="M1490.083 659a3.914 3.914 0 0 0 0 2.922z" class="cls-11" data-name="Path 6130" transform="translate(-830.791 -94.856)"/><path id="Path_6131" d="M1490.533 659.189l-.094.094c0 .094-.094.188-.094.283a5.879 5.879 0 0 0-.283.943 1.931 1.931 0 0 0 0 1.037v.471l-.094-.094c0-.094-.094-.188-.188-.283a3.343 3.343 0 0 1-.283-1.037 2.29 2.29 0 0 1 0-1.131V659z" class="cls-11" data-name="Path 6131" transform="translate(-830.769 -94.856)"/><path id="Path_6132" d="M1495.543 667.8a6.688 6.688 0 0 0-.943 1.32z" class="cls-11" data-name="Path 6132" transform="translate(-831.066 -95.361)"/><path id="Path_6133" d="M1495.92 668.054a.33.33 0 0 1-.189.094 2.049 2.049 0 0 1-.471.283 7.253 7.253 0 0 1-.66.566 7.324 7.324 0 0 1 .283-.848l.283-.566a.73.73 0 0 0 .094-.283z" class="cls-11" data-name="Path 6133" transform="translate(-831.066 -95.332)"/><path id="Path_6134" d="M1490.4 667.4a5.141 5.141 0 0 1 .094 2.074z" class="cls-11" data-name="Path 6134" transform="translate(-830.825 -95.338)"/><path id="Path_6135" d="M1490.843 667.2v.377a2.346 2.346 0 0 1-.094.754 5.611 5.611 0 0 1-.283 1.037v-.377a1.747 1.747 0 0 0-.188-.66 4.616 4.616 0 0 0-.283-.66.329.329 0 0 0-.094-.189v-.094z" class="cls-11" data-name="Path 6135" transform="translate(-830.797 -95.327)"/><path id="Path_6136" d="M1497.42 670.9c-.471.283-.848.66-1.32.943z" class="cls-11" data-name="Path 6136" transform="translate(-831.152 -95.539)"/><path id="Path_6137" d="M1497.7 671.248l-1.6.471 1.037-1.32z" class="cls-11" data-name="Path 6137" transform="translate(-831.152 -95.51)"/><path id="Path_6138" d="M1493.271 670.7a5.768 5.768 0 0 0-.471 1.131z" class="cls-11" data-name="Path 6138" transform="translate(-830.963 -95.527)"/><path id="Path_6139" d="M1493.646 670.966c-.094.094-.094.094-.189.094l-.283.283a3.69 3.69 0 0 0-.377.471 1.284 1.284 0 0 1 0-.66.706.706 0 0 1 .094-.471v-.283z" class="cls-11" data-name="Path 6139" transform="translate(-830.96 -95.51)"/><path id="Path_6140" d="M1487.144 642.937a5.613 5.613 0 0 0-.66.283c-.094.094-.188.094-.377.189s-.283.094-.377.188a2.056 2.056 0 0 1-.471.283c-.188.094-.283.189-.471.283a.941.941 0 0 0-.471.377 2.047 2.047 0 0 0-.471.377c-.094.094-.188.094-.283.189s-.189.188-.283.188c-.188.189-.377.283-.565.471a12.3 12.3 0 0 0-1.037 1.131 10.678 10.678 0 0 0-.943 1.225c-.283.471-.566.848-.849 1.32s-.471.943-.66 1.32c-.094.189-.188.471-.283.66 0 .094-.094.188-.094.283s-.094.189-.094.283c-.094.189-.094.471-.188.66s-.094.377-.188.566c0 .188-.094.377-.094.566a4.089 4.089 0 0 1-.094.471c0 .189-.094.283-.094.471v.377a2.606 2.606 0 0 1-.094.754v-1.132a1.024 1.024 0 0 1 .094-.471c.094-.189 0-.377.094-.471 0-.189.094-.377.094-.566s.094-.377.094-.566a5.953 5.953 0 0 0 .188-.66c0-.094.094-.189.094-.377 0-.094.094-.188.094-.377.094-.189.188-.471.283-.66a9.524 9.524 0 0 1 .66-1.414 10.312 10.312 0 0 1 .754-1.414 6.711 6.711 0 0 1 .943-1.32 4.021 4.021 0 0 1 1.037-1.131l.566-.565.283-.283c.094-.094.189-.189.283-.189.188-.188.377-.283.471-.471a2.053 2.053 0 0 0 .471-.377c.188-.094.283-.283.471-.377s.283-.189.471-.283c.094-.094.283-.189.377-.283s.283-.094.377-.188a6.826 6.826 0 0 0 .66-.377z" class="cls-14" data-name="Path 6140" transform="translate(-830.114 -93.876)"/><path id="Path_6141" d="M1486.056 646.171a1.127 1.127 0 0 0-.377.377l-.471.471-.566.565c-.188.188-.377.471-.66.754-.188.283-.471.565-.66.848s-.377.66-.565.943c-.189.377-.377.66-.566 1.037s-.283.754-.471 1.131c-.094.377-.283.754-.377 1.131-.094.189-.094.377-.188.566a4.078 4.078 0 0 1-.094.471 4.145 4.145 0 0 0-.189.943 2.611 2.611 0 0 0-.094.848v.377a.346.346 0 0 1-.094.283.2.2 0 0 1-.189.189.092.092 0 0 1-.094-.094v-.094.094a.092.092 0 0 0 .094.094c.094 0 .094-.094.189-.189v-.66a2.614 2.614 0 0 1 .094-.848c0-.283.094-.66.094-.943 0-.189.094-.377.094-.565s.094-.377.094-.566l.283-1.131c.094-.377.283-.754.377-1.131.188-.377.283-.754.471-1.131a10.231 10.231 0 0 1 .566-1.037 8.335 8.335 0 0 1 .565-.943 5.275 5.275 0 0 1 .566-.754 4.1 4.1 0 0 1 .566-.66c.188-.189.283-.377.471-.471l.377-.377z" class="cls-14" data-name="Path 6141" transform="translate(-830.252 -94.093)"/><g id="Group_7947" data-name="Group 7947" transform="translate(349.068 256.602)"><path id="Path_6142" d="M1168.164 346.654c-.377.283-.848.471-1.319.754a8.95 8.95 0 0 0-1.6.943 1.466 1.466 0 0 0-.565.754 1.841 1.841 0 0 0 .094.66c.471 1.508 1.885 2.639 2.734 3.771.754 1.037 2.074 2.262 2.074 3.865a8.111 8.111 0 0 1-.094 1.508 12.182 12.182 0 0 1-1.6 4.713 9.45 9.45 0 0 1-6.881 4.43s1.414 1.037 4.713 5.844c7.164 10.652 15.459 1.225 15.459 1.225l6.127-2.828-.283-.377c2.357-1.508 2.451-1.6 2.357-2.074v-.094c1.791-1.131 7.164-4.053 8.767-12.726 1.6-8.767-3.488-16.214-8.955-23.283a6.615 6.615 0 0 0-1.508-.943 3.794 3.794 0 0 0-2.262.471c-.848.377-1.508.943-2.357 1.414a18.922 18.922 0 0 1-3.111 1.508 42.234 42.234 0 0 1-5.656 1.037s-3.017 0-1.6 1.791c1.131 1.414 1.979 2.828.283 4.242a40.484 40.484 0 0 1-4.817 3.395z" class="cls-2" data-name="Path 6142" transform="translate(-1161 -332.746)"/><g id="Group_7946" clip-path="url(#clip-path-3)" data-name="Group 7946"><path id="Path_6143" d="M1165.917 352.5a34.292 34.292 0 0 0 2.545 2.639 15.467 15.467 0 0 0 3.771 3.205 21.2 21.2 0 0 1 2.074 1.037c3.394 2.451.754 5.562-1.885 7.07a11.618 11.618 0 0 1-9.521.943c1.225-4.902 1.79-9.994 3.016-14.894z" class="cls-16" data-name="Path 6143" transform="translate(-1161.109 -333.879)"/></g></g><g id="Group_7948" data-name="Group 7948" transform="translate(6.692 397.082)"><path id="Path_6145" d="M856.605 805.454l-5.562-.754c-.094.094-.188.283-.283.377-1.6 1.791-3.3 3.488-4.9 5.279a20.459 20.459 0 0 0-1.414 3.3l-1.131 3.676a6.557 6.557 0 0 1-1.414 2.357l12.443 1.791a8.092 8.092 0 0 0 2.262-16.025" class="cls-5" data-name="Path 6145" transform="translate(-800.323 -500.295)"/><path id="Path_6146" d="M834.5 790.011c-5.467 3.676-29.222 5.75-27.808 9.9.754 1.98 10.086 6.221 21.021 8.484a5.859 5.859 0 0 1 3.016-1.979c4.242-1.226 9.144-.566 13.2-2.263 4.619-1.98 8.672-5.279 12.82-8.012a5.876 5.876 0 0 1 5.562-.283c2.074-5.467 2.168-8.578 11.594-25.357 4.43-7.918-9.332-5.656-17.345-9.9-5.938 11.5-16.685 25.734-20.927 28.656" class="cls-9" data-name="Path 6146" transform="translate(-798.3 -497.765)"/><path id="Path_6148" d="M871.8 784.352c-1.791-5.185-6.787-.471-6.787-.471-4.808 2.922-9.615 5.75-14.422 8.578-7.824 4.619-15.554 9.992-24.98 9.9-2.922 0-5.939-.565-8.012-2.545-1.131-1.131-1.979-2.545-3.3-3.393-2.922-1.885-8.672-.565-11.783.377s-7.164 3.205-2.828 5.939c7.164 4.619 24.886 14.8 34.218 9.992 9.332-4.9 26.3-15.742 24.32-3.393-1.225 7.824-1.7 9.9-1.885 10.275l2.639.566s4.619-10.935 10.558-17.439c5.844-6.41 4.053-13.2 2.262-18.381" class="cls-17" data-name="Path 6148" transform="translate(-797.793 -498.988)"/><path id="Path_6150" d="M1113 668.348c-3.016-12.82-47.792-139.606-47.792-139.606-7.258-16.591-19.8-13.2-19.8-13.2s-3.959-3.016-4.713-2.828c4.43-6.975-4.336-1.7-4.431-1.98-.471-1.131-18.1-35.066-32.993-28-8.2 3.865-18.664 4.336-23.566 15.554-14.894 34.124-52.411 93.039-70.793 133.761S854.9 747.436 854.9 747.436l19.984 11.406s80.125-121.79 127.446-194.751a4.145 4.145 0 0 0 .943-.188 10.159 10.159 0 0 1 11.783 4.242c15.554 33.37 42.042 79.088 46.472 88.42 2.262 4.807-7.729 1.791-23.66 1.225-21.115-.754-38.837 2.262-66.362 1.885-7.541-.094-8.3 12.726-7.918 20.738 37.989 5.09 133.1 17.156 141.208 13.951 8.2-3.016 11.217-13.2 8.2-26.017" class="cls-17" data-name="Path 6150" transform="translate(-801.068 -481.773)"/></g><g id="Group_7952" class="cls-18" data-name="Group 7952" transform="translate(120.759 470.822)"><g id="Group_7951" data-name="Group 7951"><g id="Group_7950" class="cls-19" data-name="Group 7950"><g id="Group_7949" class="cls-19" data-name="Group 7949"><path id="Path_6151" d="M1013.536 560.752c-18.1-5.185-23.283 16.4-31.013 29.316-5.185 6.881-7.73 15.459-12.914 23.283-18 29.976-34.784 59.2-50.809 88.986 26.865-40.911 61.838-94.359 87.289-133.573a4.15 4.15 0 0 0 .943-.188 10.159 10.159 0 0 1 11.783 4.242c1.131 2.451 2.357 5.09 3.677 7.73-1.226-8.107-1.508-17.533-8.955-19.8" class="cls-20" data-name="Path 6151" transform="translate(-918.8 -559.998)"/></g></g></g></g><path id="Path_6152" d="M973.839 670.888c-4.807-3.394-4.053-4.43-11.971-6.5s-12.349 8.767-20.267 11.5-15.554.283-30.259 17.816c-13.574 16.214 29.787 1.979 38.083-1.225 5-1.885 15.648-1.7 23.472-1.225 1.7-6.41 4.525-12.443 7.541-18.57-2.734-.283-5.185-.849-6.6-1.791" class="cls-2" data-name="Path 6152" transform="translate(-797.464 -95.15)"/><path id="Path_6153" d="M1191.827 556.492c-2.639-1.7-5.185-3.393-7.635-5.185-5-3.582-9.9-7.353-14.517-11.406-9.238-8.107-28.374-46.755-34.878-57.219-.094-.094-.094-.189-.188-.283-.566.754-1.037 1.6-1.508 2.357 6.221 10.652 24.98 49.489 33.935 57.973a162.541 162.541 0 0 0 14.517 12.16c2.545 1.885 5.09 3.771 7.73 5.562s5.279 3.488 8.012 5.185l2.451-4.43c-2.734-1.414-5.373-3.111-7.918-4.713" class="cls-5" data-name="Path 6153" transform="translate(-810.332 -84.727)"/><path id="Path_6154" fill="#ffb143" fill-rule="evenodd" d="M1215.777 330.4h-.377c0-.094.094-.094.377 0" data-name="Path 6154" transform="translate(-815.052 -76.005)"/><path id="Path_6155" fill="#260028" fill-rule="evenodd" d="M1257.468 474.11c-11.5 6.41-7.164 14.517 2.074 24.038 15.459 23.095-24.038 29.411-26.3 10.558-1.508-12.631-9.992-13.009-20.361-14.705-8.106-1.32-16.967-10.558-13.951-19.418 2.168-6.5 8.578-9.8 11.783-15.459a8.533 8.533 0 0 0 .566-7.824c-2.545-4.713-10.557-5.185-11.783-10.463-.566-2.357.66-4.713 1.791-6.881 3.488-6.5 8.861-12.631 6.5-20.173-1.885-6.127-7.824-10.369-13.951-11.595-5.656-.848-12.349.189-16.213-3.582-9.8-9.521-2.357-19.23 10.463-30.73 8.955-4.713 16.025-16.025 7.447-21.964-27.431-28.091 13.291-44.116 23.66-17.345 3.771 5.939-.283 16.308 11.595 20.738 15.459 5.656 25.168 26.583 14.328 37.989-10.746 11.217-12.066 12.16.66 17.91 12.914 5.656 20.173 12.914 9.9 24.98-4.336 7.918-2.545 13.763 3.676 18.57 10.746 8.3 12.443 16.873-1.885 25.357" data-name="Path 6155" transform="translate(-812.628 -75.118)"/><g id="Group_7954" data-name="Group 7954" transform="translate(370.412 259.123)"><path id="Path_6156" d="M1211.222 361.985A13.817 13.817 0 1 1 1198.685 347a13.829 13.829 0 0 1 12.537 14.988" class="cls-17" data-name="Path 6156" transform="translate(-1183.644 -336.082)"/><path id="Path_6157" d="M1229.828 336.909a3.793 3.793 0 0 0-5.373-.66l-35.255 27.714c1.6 2.074 3.111 4.053 4.713 6.033l35.349-27.714a3.845 3.845 0 0 0 .566-5.373" class="cls-17" data-name="Path 6157" transform="translate(-1183.962 -335.421)"/><g id="Group_7953" data-name="Group 7953" transform="translate(5.572 12.034)"><path id="Path_6158" d="M1206.471 362.035a8.475 8.475 0 1 1-7.635-9.238 8.469 8.469 0 0 1 7.635 9.238" class="cls-3" data-name="Path 6158" transform="translate(-1189.555 -348.449)"/><path id="Path_6159" d="M1215.514 348.765a1.618 1.618 0 0 0-2.168-.283l-14.046 11.029c.66.848 1.225 1.6 1.885 2.451l14.046-11.029a1.454 1.454 0 0 0 .283-2.168" class="cls-3" data-name="Path 6159" transform="translate(-1190.114 -348.188)"/></g></g><path id="Path_6160" d="M1425.567 330.1c-6.221 6.316-11.595 13.951-19.8 17.062-5.091 1.885-14.14 7.541-19.513 7.73-4.9.189-9.238-6.033-6.316-9.426 3.3-3.865 11.971-5 16.213-8.2 2.074-1.6 13.1-15.554 15.554-13.574 1.7 1.414-1.885 7.541-2.922 8.955l15.836-4.619" class="cls-9" data-name="Path 6160" transform="translate(-824.436 -75.614)"/><path id="Path_6161" d="M976.691 670.743L970 691.292a.675.675 0 0 0 .471.848l26.488 4.807c.377.094.66-.189.754-.566l3.865-25.829a.668.668 0 0 0-.66-.754l-23.755.471c-.189.002-.377.191-.472.474z" class="cls-23" data-name="Path 6161" transform="translate(-800.976 -95.476)"/><path id="Path_6162" d="M874.846 774.222l-18.287-10.463a1.394 1.394 0 0 1-.566-1.7l7.918-17.91a1.36 1.36 0 0 1 1.979-.566l20.455 13.009a1.276 1.276 0 0 1 .377 1.885l-9.992 15.271a1.578 1.578 0 0 1-1.884.474z" class="cls-23" data-name="Path 6162" transform="translate(-794.432 -99.695)"/><path id="Path_6163" d="M1060.874 546.519c-13.574-10.086-17.627-23.283-42.7-24.509C993 520.785 981.6 507.682 981.6 507.682c-.471 3.205 2.262-13.763 16.968-23 21.021-13.1 24.509 2.451 62.686 3.3 1.508 0 21.021 54.673 20.927 62.686-.003-.001 4.05 14.893-21.307-4.149z" class="cls-3" data-name="Path 6163" transform="translate(-801.64 -84.558)"/><g id="Group_7961" data-name="Group 7961" transform="translate(129.526 229.128)"><path id="Path_6165" d="M1151.035 366.946c10.464 1.32 13.386-.471 21.493 6.41 7.918 6.787 12.349 16.119 23.378 18.853 7.541 1.885 15.459-.189 23-2.357a837.084 837.084 0 0 0 129.8-49.583c5.656-2.734 11.595-5.562 17.816-4.9s12.254 6.41 10.84 12.443c-1.131 4.619-5.75 7.258-9.9 9.426-44.116 22.529-89.363 43.456-137.155 56.653-21.3 5.939-43.362 10.463-62.309 21.681-15.459 9.144-28.091 22.341-41.853 33.841-9.05 7.541-19.042 14.328-28.468 25.074-8.3 9.521-19.513 32.993-18.57 45.624-26.017-25.074-54.2-47.981-87.006-63.157 34.6-20.644 74.658-53.165 87.666-91.248A1039.541 1039.541 0 0 1 928.1 322.641a62.734 62.734 0 0 1 7.07-19.041c39.874 17.628 80.6 33.37 122.073 46.944 13.763 4.525 32.615 8.767 47.226 9.709 15.931 1.037 28.939 2.262 41.948 5.467" class="cls-3" data-name="Path 6165" transform="translate(-928.1 -303.6)"/><g id="Group_7960" clip-path="url(#clip-path-6)" data-name="Group 7960"><path id="Path_6166" d="M1168.164 346.654c-.377.283-.848.471-1.319.754a8.949 8.949 0 0 0-1.6.943 1.465 1.465 0 0 0-.565.754 1.841 1.841 0 0 0 .094.66c.471 1.508 1.885 2.639 2.734 3.771.754 1.037 2.074 2.262 2.074 3.865a8.111 8.111 0 0 1-.094 1.508 12.182 12.182 0 0 1-1.6 4.713 9.45 9.45 0 0 1-6.881 4.43s1.414 1.037 4.713 5.844c7.164 10.652 15.459 1.225 15.459 1.225l5.468-5.373.377 2.168c2.357-1.508 2.451-1.6 2.357-2.074v-.094c1.791-1.131 7.164-4.053 8.767-12.726 1.6-8.767-3.488-16.214-8.955-23.283a6.613 6.613 0 0 0-1.508-.943 3.8 3.8 0 0 0-2.263.471c-.848.377-1.508.943-2.356 1.414a18.93 18.93 0 0 1-3.111 1.508 42.225 42.225 0 0 1-5.656 1.037s-3.016 0-1.6 1.791c1.131 1.414 1.98 2.828.283 4.242a40.477 40.477 0 0 1-4.818 3.395z" class="cls-2" data-name="Path 6166" transform="translate(-941.459 -305.272)"/><g id="Group_7959" clip-path="url(#clip-path-7)" data-name="Group 7959" transform="translate(219.542 27.474)"><path id="Path_6167" d="M1165.917 352.5a34.292 34.292 0 0 0 2.545 2.639 15.467 15.467 0 0 0 3.771 3.205 21.2 21.2 0 0 1 2.074 1.037c3.394 2.451.754 5.562-1.885 7.07a11.618 11.618 0 0 1-9.521.943c1.225-4.902 1.79-9.994 3.016-14.894z" class="cls-16" data-name="Path 6167" transform="translate(-1161.109 -333.879)"/></g></g></g><path id="Path_6170" d="M1143.2 366.573a81.294 81.294 0 0 0-9.521-4.713 25.747 25.747 0 0 0-7.918-1.6 13.791 13.791 0 0 0-7.729 1.791 14.588 14.588 0 0 0-5.468 5.75 26.788 26.788 0 0 0-2.734 7.541 78.517 78.517 0 0 0-1.225 8.012 117.694 117.694 0 0 0 .094 16.308c.377 5.467 1.037 10.84 1.885 16.214 1.7 10.746 3.959 21.492 6.5 32.144 5.184 21.21 11.5 42.23 18.287 62.969 3.394 10.369 7.164 20.738 9.992 31.484 2.734 10.746 4.714 21.869 3.959 33.181l-4.525-.377c.848-10.558-.754-21.4-3.3-31.861-2.545-10.558-6.127-20.832-9.332-31.39-6.41-21.021-12.443-42.136-17.25-63.534-2.357-10.746-4.525-21.492-6.033-32.427q-1.131-8.2-1.7-16.4a107.083 107.083 0 0 1 .188-16.5 61.829 61.829 0 0 1 1.32-8.2 28.647 28.647 0 0 1 3.016-7.73 14.768 14.768 0 0 1 5.844-5.939 14.364 14.364 0 0 1 8.107-1.7 30.5 30.5 0 0 1 8.107 1.791 88.622 88.622 0 0 1 9.427 4.807" class="cls-5" data-name="Path 6170" transform="translate(-808.833 -77.682)"/><path id="Path_6171" fill="#ffdc40" fill-rule="evenodd" d="M1215.539 593.166a4252.077 4252.077 0 0 1-12.066-31.3c-1.98-4.336-66.834 21.681-64.477 25.452 4.053 9.9 8.107 19.89 12.16 29.787 2.828 4.148 72.018-21.021 64.383-23.943" data-name="Path 6171" transform="translate(-810.667 -89.258)"/><path id="Path_6172" fill="#ffed9f" d="M1204.949 568.5c-6.221 5.939-22.058 21.021-26.111 23.283-1.979 1.037-7.824 1.791-14.517 2.262-7.353.566-15.648.943-21.021.943l.66 1.7a137.86 137.86 0 0 0 20.455-.377c6.787-.566 13.1-1.131 15.365-2.451 4.053-2.262 19.23-17.25 25.546-23.755z" data-name="Path 6172" transform="translate(-810.918 -89.666)"/><g id="Group_7962" data-name="Group 7962" transform="translate(64.012 770.884)"><path id="Path_6173" fill="#581166" d="M879.789 894.952c3.582 7.635 6.693 15.742 10.84 23 3.488 5.939 9.332 8.3 15.554 10.275.094-1.32.188-2.545.283-3.865H899.3c-2.545 0-2.263 3.865.283 3.865h7.164c2.357 0 2.168-3.205.283-3.865-2.922-.943-5.939-1.791-8.484-3.488-3.111-2.074-4.619-4.9-6.221-8.2-3.016-6.316-5.939-12.631-8.861-18.947-1.037-2.262-4.713-1.037-3.676 1.225" data-name="Path 6173" transform="translate(-859.805 -879.134)"/><path id="Path_6174" d="M911.388 928.261c-1.6-1.226-1.979-2.168-2.828-2.545 0-.094-.094-.094-.189-.188a12.761 12.761 0 0 0-1.885-.189l.283.283c-.565.094-1.225.188-2.168.377-4.9 1.037-8.012-1.791-12.82-6.693-2.922-3.017-7.447-15.931-10.557-25.451a9.015 9.015 0 0 1-.754-4.525c-.377-.66-.848-1.32-1.225-1.885-.848-2.639-1.32-4.336-1.32-4.336s-.66-6.881-5.373-4.148-10.557 6.6-10.369 15.365-3.583 19.984-3.583 19.984l2.357 1.225c.189-.471 1.225-2.263 5.373-8.861 6.693-10.463 12.16 8.767 15.931 18.476s23.755 13.763 32.05 15.082c8.389 1.131.094-9.709-2.922-11.971" class="cls-17" data-name="Path 6174" transform="translate(-858.6 -878.319)"/><path id="Path_6175" d="M882.083 892.728l1.7 3.111.283.283-.283-.283c2.734 5.185 4.9 10.652 7.164 16.025 1.226 3.017 2.922 6.316 5.75 8.107 3.582 2.262 8.2 3.017 11.218 6.033a14.192 14.192 0 0 1 1.885.188c-2.074-2.639-4.9-3.865-7.918-5.09a17.3 17.3 0 0 1-5.844-3.394c-1.979-1.791-3.205-4.713-4.242-7.164-2.922-6.976-5.939-14.14-9.992-20.644a10.18 10.18 0 0 0 .754 4.525 11.372 11.372 0 0 0-.471-1.7" class="cls-17" data-name="Path 6175" transform="translate(-859.931 -878.983)"/></g><g id="Group_7958" class="cls-18" data-name="Group 7958" transform="translate(288.927 307.65)"><g id="Group_7957" data-name="Group 7957"><g id="Group_7956" class="cls-29" data-name="Group 7956"><g id="Group_7955" class="cls-29" data-name="Group 7955"><path id="Path_6164" d="M1097.2 387.183c.754-.094 1.414-.189 2.168-.283-.754.094-1.414.189-2.168.283" class="cls-20" data-name="Path 6164" transform="translate(-1097.2 -386.9)"/></g></g></g></g></svg>