<svg xmlns="http://www.w3.org/2000/svg" viewBox="0 0 119.438 116"><defs><style>.a{fill:#144c52;opacity:.23}.b{fill:#fa6142}.c{fill:#e2543d}.d{fill:#fff;opacity:.6}.e{clip-path:url(#a)}.f{fill:#f5f8f8}</style><clipPath id="a"><path d="M13.5 84.234c7.477 14.427 17.64 24.124 30.14 30.257 12.441 5.841 27.278 8.119 42.757 1.051 14.778-7.477 24.649-17.406 31.016-29.731 6.075-12.266 8.645-26.986 1.343-42.581-7.535-14.6-17.582-24.124-29.673-30.49C76.992 6.723 63.032 3.861 47.2 10.17c-16.06 7.184-26.34 18.165-32.649 30.957C8.477 53.978 6.374 68.58 13.5 84.234zM35.462 77.4C17.53 40.952 75.357 13.616 92.88 50.473 110.4 87.038 53.161 113.965 35.462 77.4z" transform="translate(-9.006 -6.616)"/></clipPath></defs><path class="a" d="M4.476 79.369c7.769 14.9 18.107 24.651 30.607 30.959 12.441 5.958 27.1 8.47 43.165 1.285 15.245-7.593 25-18.4 30.958-31.016 5.666-12.617 7.535-27.044.584-42.231-7.184-14.077-17.114-23.597-29.205-29.789C68.552 2.677 54.363.049 38.997 6.24c-15.534 7.129-25.934 17.173-32.71 29.614-6.424 12.442-9.346 27.337-1.811 43.515zm65.478 4.381C37.77 99.169 13.822 49.639 45.714 34.628c31.483-15.128 56.191 33.235 24.24 49.123z"/><path class="b" d="M9.733 77.618c7.477 14.427 17.64 24.124 30.14 30.257 12.441 5.841 27.278 8.119 42.757 1.051 14.778-7.477 24.649-17.406 31.016-29.731 6.075-12.266 8.645-26.986 1.343-42.581-7.535-14.6-17.582-24.124-29.673-30.49C73.225.107 59.265-2.755 43.433 3.554c-16.06 7.184-26.34 18.165-32.649 30.957C4.71 47.362 2.607 61.964 9.733 77.618zm21.962-6.834C13.763 34.336 71.59 7 89.113 43.857c17.52 36.565-39.719 63.492-57.418 26.927z"/><path class="c" d="M31.695 70.785c17.64 36.507 74.941 9.638 57.418-26.927C71.59 7 13.763 34.278 31.695 70.785zm5.257-1.986c-16-31.308 33.995-55.84 49.591-23.831 15.303 31.659-33.995 55.08-49.591 23.831z"/><path class="d" d="M9.967 49.64a50.026 50.026 0 0 0 4.846 26.927c.7 1.694 8.353 9.229 14.778 16.063 6.6 6.776 11.974 12.967 13.61 10.689-.935 1.285-6.25-5.315-12.85-12.208-6.367-6.892-14.019-14.135-14.252-14.953A52.3 52.3 0 0 1 9.967 49.64zm94.511 16.355c2.979-12.558-2.862-27.395-11.215-37.091-3.913-4.673-8.411-8.7-14.077-10.923-.993-.35-10.689-2.921-10.806-1.519-.117.643 8.586 3.5 10.28 4.5a57.209 57.209 0 0 1 14.486 12.617c6.832 8 13.256 22.311 11.332 32.416z"/><g class="e"><path class="f" d="M47.35-3.864c.584-.467 38.609 7.476 38.609 7.476L75.737 32.993s-27.57.759-27.979.876c-.408.234-16.179-23.419-16.179-23.419S46.766-3.338 47.35-3.864zm34.053 67.055l39.427 27.453 5.9-18.049-5.724-33.7-33.995 10.219zM55.06 77.268l-21.845 38.726 51.4 1.4-15.361-40.126zM44.897 49.114C42.443 46.486-.021 33.227-.021 33.227l1.519 52.744L43.261 67.28z"/></g></svg>