<svg xmlns="http://www.w3.org/2000/svg" viewBox="0 0 50.353 40.013"><defs><style>.a{fill:#260028}</style></defs><path class="a" d="M27.645 12.607a10.819 10.819 0 0 0-1.8 0c-1.6 0-3.9-.4-4 1.9-.1 1 0 2 0 3h5.9a3.085 3.085 0 0 0 .9-.1v-3.5c-.1-.8-.1-1.1-1-1.3z"/><path class="a" d="M31.745.907a41.713 41.713 0 0 0-8.1-.9c-9.8-.2-17 4.2-20.9 11.4-6.6 12.6-1.3 24 15.9 27.7a41.713 41.713 0 0 0 8.1.9c9.7.2 16.9-4.2 20.8-11.4 6.7-12.6 1.4-24-15.8-27.7zm0 28.2c-1.2 1.1-3.5.7-5 .8h-4.2c-1 0-2.5.3-3.4-.1-1.3-.6-1.3-2.3-1.3-3.5-.1-2.7 0-5.5 0-8.2a.523.523 0 0 1 .8-.4c.1 0 .2-.1.3-.1h.2c0-1.9-.5-4.3.8-5.8 1.6-1.9 2.9-1.7 5.3-1.7 1.6 0 4.1-.4 5.2 1.1s.8 4.4.8 6.1v.1a1.626 1.626 0 0 1 1.1.5c.4.5.2 1.9.2 2.5v3.8c-.1 1.4.5 3.8-.8 4.9z"/><path class="a" d="M25.645 24.807a.37.37 0 0 1-.1.7 1.087 1.087 0 0 1-.5.1.749.749 0 0 1-.5-.1c-.4-.1-.6-.4-.9-.7h-.1l-.9.6v.1a6.47 6.47 0 0 0 .8.9 2.112 2.112 0 0 0 1 .4v1.1h1.2v-1.1a3.81 3.81 0 0 0 1-.3c.1 0 .1-.1.2-.1a.1.1 0 0 0 .1-.1l.2-.2-.2.2.2-.2c.1-.1.1-.1.1-.2v-.1a1.483 1.483 0 0 0 0-1.3 2.336 2.336 0 0 0-.7-.7 3.552 3.552 0 0 0-.9-.4 3.552 3.552 0 0 1-.9-.4c-.1-.1-.3-.2-.3-.3a.52.52 0 0 1 .2-.4 1.387 1.387 0 0 1 .9 0 1.344 1.344 0 0 1 .7.6h.1l.9-.6s.1-.1 0-.1a5.547 5.547 0 0 0-.6-.8 2.01 2.01 0 0 0-.8-.4v-1a.1.1 0 0 0-.1-.1h-1.2a.1.1 0 0 0-.1.1v1a1.905 1.905 0 0 0-1 .5 1.845 1.845 0 0 0-.5 1.2 1.524 1.524 0 0 0 .6 1.1 3.881 3.881 0 0 0 1.1.6 5.133 5.133 0 0 0 1 .4m1.4 1.1a.1.1 0 0 1 .1-.1c0 .1 0 .1-.1.1zm.2-.3z"/></svg>