<svg xmlns="http://www.w3.org/2000/svg" viewBox="0 0 123 96.165"><defs><style>.a{fill:#98c8e5}.b{fill:#163955}.c{fill:#fff}</style></defs><path class="a" d="M77.347 2.139A90.089 90.089 0 0 0 57.43.023C33.76-.555 16.057 10.029 6.724 27.54-9.441 57.752 3.548 85.077 45.595 94.023a90.089 90.089 0 0 0 19.917 2.117c23.669.583 41.376-10.004 50.706-27.517 16.261-30.211 3.27-57.536-38.871-66.484z"/><path class="b" d="M80.714 59.099V49.092c0-1.636.674-5.2-.481-6.639a3.866 3.866 0 0 0-2.891-1.25v-.289c0-4.522.77-12.219-2.117-16.164s-9.521-2.979-13.754-2.979c-6.447 0-9.814-.674-14.144 4.426-3.368 4.041-2.021 10.391-2.021 15.3h-.577a1.813 1.813 0 0 0-.77.192 1.339 1.339 0 0 0-2.017 1.149c0 7.216-.192 14.529 0 21.745.1 3.175 0 7.794 3.56 9.333 2.405 1.058 6.543.192 9.141.192 3.656 0 7.409-.1 11.065-.1 4.041 0 9.91.962 13.182-2.021 3.267-2.882 1.92-8.943 1.824-12.888zM52.522 41.588c0-2.694-.1-5.388.1-7.986.481-6.062 6.447-5 10.68-5a25.717 25.717 0 0 1 4.715 0c2.309.481 2.405 1.251 2.5 3.368.1 3.175.1 6.254 0 9.429-.962.1-1.828.192-2.5.192z"/><path class="c" d="M63.973 59.676a.9.9 0 0 1-.192 1.732 3.74 3.74 0 0 1-1.443.192 3.861 3.861 0 0 1-1.443-.289 5.448 5.448 0 0 1-2.31-1.824.353.353 0 0 0-.289-.1l-2.498 1.636a.3.3 0 0 0-.1.192 7.417 7.417 0 0 0 2.021 2.213 7.162 7.162 0 0 0 2.79 1.155v2.983a.094.094 0 0 0 .1.1h3.175v-2.987a6.393 6.393 0 0 0 2.6-.866 1.328 1.328 0 0 0 .385-.289c.1-.1.192-.1.289-.192a2.551 2.551 0 0 0 .481-.577c-.192.192-.289.385-.481.577l.577-.577c.1-.192.289-.385.385-.577a.094.094 0 0 1 .1-.1 3.774 3.774 0 0 0-.1-3.368 4.511 4.511 0 0 0-1.834-1.723 10.753 10.753 0 0 0-2.405-1.058 12.55 12.55 0 0 1-2.405-.962 1.027 1.027 0 0 1-.674-.866.977.977 0 0 1 .481-.962 3.434 3.434 0 0 1 2.405-.1 4.3 4.3 0 0 1 1.924 1.539.353.353 0 0 0 .289.1l2.5-1.539a.353.353 0 0 0 .1-.289 5.729 5.729 0 0 0-1.732-2.021 6.012 6.012 0 0 0-2.117-.962l.1-2.694a.414.414 0 0 0-.385-.385l-3.175-.1a.414.414 0 0 0-.385.385l-.1 2.6a5.953 5.953 0 0 0-2.694 1.347 4.1 4.1 0 0 0 .289 6.158 11.947 11.947 0 0 0 2.886 1.539 9.278 9.278 0 0 1 2.886.962m3.945 2.886c.1-.1.1-.192.192-.289-.097.094-.194.191-.194.287zm.385-.866z"/></svg>