<svg xmlns="http://www.w3.org/2000/svg" viewBox="0 0 50.35 40.01"><title>lock--black</title><path fill="#fff" d="M17.8 10.1h14.8V30H17.8z"/><path d="M27.65 12.61h-1.8c-1.6 0-3.9-.4-4 1.9-.1 1 0 2 0 3h5.9a2.77 2.77 0 0 0 .9-.1v-3.5c-.1-.8-.1-1.1-1-1.3z" fill="#260028"/><path d="M31.75.91a37.31 37.31 0 0 0-8.1-.9c-9.8-.2-17 4.2-20.9 11.4-6.6 12.6-1.3 24 15.9 27.7a37.24 37.24 0 0 0 8.1.9c9.7.2 16.89-4.2 20.8-11.4C54.25 16 49 4.61 31.75.91zm0 28.2c-1.2 1.1-3.5.7-5 .8h-4.2c-1 0-2.5.3-3.4-.1-1.3-.6-1.3-2.3-1.3-3.5-.1-2.7 0-5.5 0-8.2a.56.56 0 0 1 .6-.5c.1 0 .2 0 .2.1s.2-.1.3-.1h.2c0-1.9-.5-4.3.8-5.8 1.6-1.9 2.9-1.7 5.3-1.7 1.6 0 4.1-.4 5.2 1.1s.8 4.4.8 6.1v.1a1.56 1.56 0 0 1 1.09.5c.41.5.21 1.9.21 2.5v3.8c-.1 1.4.5 3.79-.8 4.9z" fill="#260028"/><path d="M25.65 24.81a.37.37 0 0 1 .2.5c-.1.1-.2.2-.3.2a.9.9 0 0 1-.5.1.75.75 0 0 1-.5-.1c-.4-.1-.6-.4-.9-.7h-.1l-.9.6v.1a6.47 6.47 0 0 0 .8.9 1.78 1.78 0 0 0 1 .4v1.1h1.2v-1.1l1-.3c.1 0 .1-.1.2-.1s.1 0 .1-.1l.2-.2-.2.2.2-.2c.1-.1.1-.1.1-.2v-.1a1.48 1.48 0 0 0 0-1.3 2.34 2.34 0 0 0-.7-.7 3.55 3.55 0 0 0-.9-.4 3.55 3.55 0 0 1-.9-.4c-.1-.1-.3-.2-.3-.3a.52.52 0 0 1 .2-.4 1.39 1.39 0 0 1 .9 0 1.34 1.34 0 0 1 .7.6h.1l.9-.6s.1-.1 0-.1a5.55 5.55 0 0 0-.6-.8 2 2 0 0 0-.8-.4V20c0-.1 0-.1-.1-.1h-1.2c-.1 0-.1 0-.1.1v1a1.91 1.91 0 0 0-1 .5 1.85 1.85 0 0 0-.5 1.2 1.74 1.74 0 0 0 .6 1.1 2.38 2.38 0 0 0 1.1.6 3.87 3.87 0 0 0 1 .4m1.4 1.1c0-.1 0-.1.1-.1 0 .11 0 .11-.1.11z" fill="#260028"/></svg>