<svg xmlns="http://www.w3.org/2000/svg" viewBox="0 0 1046.21 976"><title>man-heart</title><path d="M474.93 306.5c14.17 65.88 27.66 109.47 70.19 82.05 10.14-6.55 48.09-62.22 46.09-74.65-9.16-57.78-17.23-72.88-16.25-71-9-17.26-108.69-126.82-104.75-93.19 5.5 47.13 13.28 111.43 4.72 156.79z" fill="#fff"/><path d="M466.36 197.83l-.1.1z" fill="#c9e6ff"/><path d="M561.86 270.9c.49-5.91 7.29 3.55 8.17.4 4.92-17.26 31.6-18.93 34.07-39.15 1.28-10.65-9.95-36.09-7.49-46.35 2.36-9.86 19.5-1.78 16.64-12-1-3.65-18.31-50.89-19.2-56.31-3.35-19.92.69-49.7-23-57.49-11.81-3.85-34.95 6.41-46.17 9.56-20.67 5.79-42.87 11.12-62.75 19.5-44.6 18.83-1 93.59 13.38 124.65 0 0 6 27.12 7.78 34.42.59 2.16.49 9.56.2 18.93 24.12 14.1 39.09 20.61 67.64 27.12.69-7.6 10.73-22.18 10.73-23.28z" fill="#fff"/><path d="M457.7 218.14c16.64 7.8 28.35 4.84 30.81-16.36.5-4.54-2.56-24.86 1.58-27.12 5.81-3.16 15.55 10.84 17.42 14.79.1.1.1.3.2.4 14.18 28.4 20.68 54.53 46.47 75.24-3.34-8.58-5.9-17.45-8.36-25.84-4.83-18.63-10.93-47.33 1-63.31-1.28-1-2.56-1.87-3.54-2.76-8.18-6.31-24-21.3-29-28.6a75.35 75.35 0 0 1-6-10.75c-3.05-6.7-5.11-14.1-2.56-18.34 17.23-28.79 90.78-14.29 94.32-55.62 1.8-21.79-27.35-66.36-42.83-59.07-10.93 5.13-15 21.7-27 23.18-10.34 1.28-20.48-4.54-31-2.07C485.46 25.26 481.03 38 469.12 44c-10.63 5.42-23.92-1.48-33 5.42-13.39 10.26-24.81 21.21-24.22 42.31.49 17.16 14.27 37.77 17.43 58.87 2.38 14.79 12.71 60.25 28.37 67.54z" fill="#260028"/><path d="M557.33.8c-10.93 5.13-15 21.69-27 23.17-10.34 1.28-20.48-4.53-31-2.07-13.77 3.35-18.2 16.1-30.12 22.1-10.64 5.42-23.93-1.48-33 5.42-20 15.38-47.33 29.58-9.13 81.06a13.83 13.83 0 0 0 .88-1.28c17-24.36 36.44-41.32 60.65-55.92 31.6-19.42 69.21-12.13 104.36-7.28a19.9 19.9 0 0 1 5.24 1.56 27.31 27.31 0 0 0 1.67-7.89C601.93 38.07 572.79-6.5 557.33.8zm64.49 247.32c-3.45-10.26-8.76-19-12.11-29.39-2.46-7.6-4.43-21.59-12.8-25.54-5.61-2.66-16.05 2.66-22.45 1.09-9.74-2.47-19.59-12.33-27.47-18.35-11.91 16.08-5.8 44.77-1 63.31a254.32 254.32 0 0 0 8.37 25.84c5.51 4.44 10.63 8.09 13.78 9.37 25.23 10.75 66.77 13.02 53.68-26.33z" fill="#260028"/><path d="M597.8 203.55c-5.52-.1-26.29 2.27-26.29 2.27-3.25 17.35 31.9 23.07 29 8.58l-3.15-1.68c-.06.1 5.36-9.07.44-9.17z" fill="#fff"/><path d="M407.69 315.67c-.79-12.67-3.48-27.67 4.72-30.86 24.71-9.67 71-2.66 90.18 9.66 17 10.95 19.69 25.74 25.31 45.17 4.33 15 12.6 36.39 15.06 51.28 8.76-29.49 12.7-52.56 21.76-81.95a24 24 0 0 1 3.84-8.38c2.26-2.76 5.61-4.34 8.86-5.62a88.37 88.37 0 0 1 33.87-6.12c26.09.4 22.64 58.09 22.15 75.25L689.21 976h-239s-42-615.95-42.58-625.52c.06.01.06-34.71.06-34.81z" fill="#e33836"/><path d="M754.04 854.7c3-36.68 17-70.31 20.58-106.9 4.23-42.89-4.43-88.85-11.13-131.15 35.44 53.55 74.72 97.53 127.6 127.35 47.94 27 90.28 41.52 142.46 52.17-8.76-20.22-26.68-37-41.06-51.88-9.84-10.15-21.26-22.09-29.14-31.55-34.76-41.72-62.42-97.24-91.56-144.37-23.63-38-39.38-73.77-47.65-118.74-5.71-30.86-9.45-69.12-36.33-85.59-45.29-27.81-103.48-44.18-155.66-51-2-.3-4.13-.49-5.9.49-2.17 1.09-3.15 3.55-3.84 5.82-3.94 12.43-4 25.74-3.84 38.76 1.38 101.08 5 204.62 18.9 304.82C652.14 768.42 665.84 872 688.78 976h72.43c-6.48-41.91-10.32-83-7.17-121.3z" fill="#0078bf"/><path d="M646.83 727.79c26.28 4.83 54.73 11 77.87 24.85a22.36 22.36 0 0 1 5.71 4.36c2.95 3.35 3.74 7.79 5.71 11.63a121.53 121.53 0 0 0 6.7 11.54c4.62 7.2 12.4 16.67 21.26 18.93l23.43-81.45-152.4-71.2z" fill="#0066a3"/><path d="M709.83 330.07a6.28 6.28 0 0 0-.78-1.38c-.1.4.16.89.78 1.38z" fill="#0078bf"/><path d="M724.01 555.8c-3.84 6.21-9.45 22.39-10.43 36.79 17.13.88 38 1.57 55.33 1.57.2 0 1.28-6.11 1.38-6.7l1.47-6.81c1-4.43 2-9 3.35-13.31a15.7 15.7 0 0 1 .69-2.07v-.2a.11.11 0 0 0-.1-.1c-5.12-2.76-10.83-3.35-16.64-3.65a45.93 45.93 0 0 1-9.06-.89c-3-.78-5.9-2.36-9.06-3.15-2.75-.79-5.71-.89-8.36-1.88a24.2 24.2 0 0 0-4.53-1.47c-1.18-.3-2.66-.6-4 1.87" fill="#260028"/><path d="M380.02 308.92c-22.65 5.34-51.79 15-75.12 20.53-22.84 5.56-72.66 11.95-89 38.67-16.15 26.4-21.86 60.45-33.57 89.68-13.69 34.05-17.82 46.63-34 79-16.93 34.05-43.32 58.26-62.42 90-39.48 66-53.72 119.66-78 196.87 3.35-10.26 41.42-17.81 48.8-20.53 24.12-8.7 48.34-16.87 72.56-25.36 69.91-24.51 95.7-54.06 146.4-119.13 2.46 59.41 3.55 121.23 11 180 7.19 56.68 9.76 80.45 11 137.34h152.67c-7-64 13.17-84.85 13.17-149.39-.2-161.56-.49-205.15-24.12-397.93-.18 0-8.08-132.01-59.37-119.75z" fill="#0078bf"/><path d="M462.92 714.47c0 .1-.3 2.47-.3 2.47-8.37-4.64-16.94-7.4-25.9-10.85a10 10 0 0 0-2.95-.79 9.59 9.59 0 0 0-4 .89L376.87 726a5.3 5.3 0 0 0-2 1.09 6 6 0 0 0-1.19 2.36C361.11 769.6 330 801 293.87 821c-1.68 1-3.45 1.87-5.22 2.76l-12.2-99 186.17-74.65V709c0 2.61.49 3 .3 5.47z" fill="#0066a3"/><path d="M839.89 854c3.45-6.41-92.64-99.5-78.76-109.46 10.93-6.9 118.73 60.16 118.34 61.93-15.26 17.96-24.61 29.1-39.58 47.53z" fill="#0078bf"/><path d="M944.84 767.82c-2.66-5.22-119.52-72.38-133.2-124.05s-34.37 130.07-34.37 130.07zM265.02 556.69c1.78 16.07 3.25 32.15 4.83 48.12.39 3.75 6.49 35.41 3.74 37.48l-59 43.79c26.12-39.45 47.98-81.46 50.43-129.39z" fill="#0066a3"/><path d="M900.64 751.16c-15.66-8.78-125.24-106.7-188.35-204.92-32.88-50.59-50.6-91.72-106.32-101.58-55.24-9.76-63.9 82.84-64.1 82.84 17.82-.4 21.17-22.19 42.73-15.88 32.1 9.47 34.26 52.56 28.06 81.65-6.3 30.18-22.15 41.82-40.76 60.36-2.26 2.27-59.27 53.94-37.9 59.07 9.94 2.36 40.36-13.91 52.37-16 25.21-4.24 44.5 1 68.43 4.74 35.84 5.62 54.74 9.07 85.55 30.66 15.07 10.66 167.37 120.71 165.5 126.82q-3.24-53.92-5.21-107.76z" fill="#fff"/><path d="M181.54 696c-2.76-7.79 94.61-66 105.84-71.89 50.5-26.53 83.48-59.86 122.08-109.46 21.56-27.51 46.86-78.6 79.05-83.23 35.94-5.13 82 89.54 51.49 99.9-9.84 3.35-26.38-26.73-42.33-25.25-21.17 2-28 15.78-34.36 36.49-12.7 41.72 9.65 74.85 33.57 103 9.75 11.54 57.3 43.59 40.27 66.76-3.64 4.94-89.39-32.74-101-35.69-12.9-3.36-254 97.53-247.22 123.86-2.67-34.05-5.23-70.24-7.39-104.49z" fill="#fff"/><path d="M356.88 704.81a28.27 28.27 0 0 1 3.55-1.48c.1 14.8-56.42 79.19-60.85 62.42-1.28.1-3.34-105.22-3.05-110.64.79-12.82-1.77-33.43 5.12-44.18 3.35-5.23 23.14-13.31 42.83-26.33 3.25 1.58-3.84 43.69-4.24 47.73-1.87 18.83-5.31 38-2.46 56.9 1.09 7 2.07 20.31 9.16 19.13 4.04-.79 6.27-1.97 9.94-3.55z" fill="#e33836"/><path d="M302.93 759.54c6.6-30.87-.3-139.94 1.77-152.16-12.89 6.41-130.25 80.62-169.33 97.23-4.43 1.87-7.68 3.16-9.36 3.75-44.79 14.89-58.09-5-95.4 37.18C2.55 777.49-3.52 808.85 1.7 862.1c2.26 6.61 3.54 24 7.19 30.27 20.18 36.19 76-20.8 108.07-30.27 17-5 33.17-13 49.12-20.61 20.48-9.76 40.66-19.92 61.24-29.49s41.75-17.55 62.91-25.44c4-1.48 6.89-2.07 8.47-6.21 2.36-6.52 2.85-14.1 4.23-20.81z" fill="#0078bf"/><path d="M860.37 812.89c3.94-21.69 5.22-63.21-.3-84.61-8.47-32.74-26.68-34.28-48.24-59.28 32.59 37.77 10.73 115.68-25.6 94.67-3.54-2.07-7.68-4.14-12.11-7.2s-7.78-5.62-13.78-10c16.34 47.54 78.07 61.34 106.13 97.34 7.98-4.81-7.48-25.69-6.1-30.92z" fill="#e33836"/><path d="M1033.55 796.13c-67.64-13.32-131.14-42.9-185.29-92.5 12.21 35.1 4.14 69.72-3.15 103.44-8.66 40.44-12.8 38.56 5.52 63.31 15.65 21.3 44 33.14 66 45.47 27.27 15.28 73 24.06 104.46 13.21 35.12-12.06 27.62-98.71 12.46-132.93z" fill="#0078bf"/><path d="M829.21 687.35c5.12 3.75.69 12.82-2.46 15.78-3.64-3.45-1.87-6.11-1.38-10.25z" fill="#260028"/><path d="M796.87 653.33s23 55-36.53 92.7c-5.12 3.25 39.67 5.13 39.87 4.34.2-1 24.91-70.51 22.25-75.93s-25.59-21.11-25.59-21.11z" style="isolation:isolate" fill="#050505" opacity=".06"/><path d="M828.67 679.47a54.32 54.32 0 0 0-17.33-18.74c3.54 6.11 5.12 12.92-1.87 17.35 5.22 6.9 9.75 15.78 17.62 19.63 0 0 3.35-4 2.66-13.22a23.29 23.29 0 0 0-1.08-5.02zM819.51 735c-7.78 19.32-18 9.27-6.4-4.24z" fill="#260028"/><path d="M813.7 736.07c-2.16 7.89-8.46 15.48-11 4.54l2.95-5.43 1.38-.59z" fill="#2bd69e"/><path d="M787.42 717.63c-3.45-12.13-2.86-34.81 13.68-36.88 1.38-2.86 4-7.79 7.09-9.18l-10.54-15.87-2-3a68.24 68.24 0 0 1 19.89 11.14 18.1 18.1 0 0 1 .89 7.69c1.18 1.68-.1 5.13-1.38 8.68 10.76 4.18 14.6 18.79 15.16 28.73 1 17.56-19.3 42.51-36.33 22-9.06 12.43-30 27.91-45.09 15.78a32.85 32.85 0 0 1-8.66-15l17.52 12.72c.59.49 1.57 1 1.67 1.38 11 2.37 22.45-7.89 28.75-15.38l1.77-2.37c.14.21-3.31-14.07-2.42-10.44z" fill="#260028"/><path d="M810.55 735.58c-5.51-4.24-9.94-6.61-11.62-14.11-11.32 14.7-48 46.45-58.48 10.36 12.7 43.79 58.48 43.19 71 4.53a1.38 1.38 0 0 0-.9-.78z" fill="#260028"/><path d="M784.26 765.65c-14.77 1.58-29.93-10.94-16.44-17.85 12.9-6.61 22.35-14.1 31.11-25.44 1.48 6.8 8.27 12.13 12.7 14.4 3.65 1.77 1.19 4.24.5 6.21-3.55 10.03-20.28 22.03-27.87 22.68z" fill="#260028"/><path d="M827.68 726.11c-12.4 29.19-39.38-17.45-28.16-36.78 17.33-29.69 35.84 18.93 28.16 36.78z" fill="#260028"/><path d="M828.57 724.33c-11.22 26.24-36.43-16-25.89-33.82 16.14-26.82 33.08 17.16 25.89 33.82z" fill="#260028"/><path d="M817.21 731.53c-18.61-1-23.63-48.12-3-47.63 18.79.5 23 48.82 3 47.63z" fill="#260028"/><path d="M817.21 731.53c-15.16-.79-19.79-30-13.59-39.94 15.99-25.44 36.96 32.84 13.59 39.94z" fill="#fff"/><path d="M817.21 709.44c-.89-1.08 6.2 7.6 3.64 7.5-2-.1-4.82-5-6-6.31zm-1-4.04c-.3.89 4-11.54 1.78-12s-4.58 9.6-4.78 11.21z" fill="#6e664c"/><path d="M815.77 710.63c5.71-.3-1.87-7.2-1.48-6.12-.49-1.57-5.61 9.49 1.48 6.12z" fill="#6e664c"/><path d="M817.21 709.44c-3.06 1.19-4-.1-3.06-4 3-1.22 4.06.16 3.06 4z" fill="#968b68"/><path d="M820.69 693.37c-1.67.69-2.26-.1-1.67-2.27 1.67-.69 2.26.1 1.67 2.27zm-13.48 31.36a19.92 19.92 0 0 1-1.48-2.47c.59-1.57 3.05.89 1.48 2.47zm17.42-22.19c-1.58-.59-1.87-1.67-.89-3.15 1.47.61 1.87 1.67.89 3.15zm-21.56 13.31a29 29 0 0 1-.79-3.05 2.22 2.22 0 0 1 .79 3.05zm22.35-2.66c-1.38-1.28-1.28-2.37.1-3.35 1.37 1.28 1.37 2.37-.1 3.35zm-24.12-7.49v-3.16a2 2 0 0 1 .26 2.89 2.23 2.23 0 0 1-.26.27zm21.75 16.66c-1.08-2-.68-2.76 1.09-2.56 1.07 1.87.79 2.76-1.09 2.56zm-20.67-26.62c-.59-.89-.3-1.78.79-2.86 1.04.69.19 4.24-.79 2.86zm15.75 31.95c-.2-2.47.39-2.86 1.78-1.19.19 2.5-.4 2.86-1.78 1.19zM806.61 689c-.2-2.47.4-2.86 1.78-1.18.19 2.49-.4 2.89-1.78 1.18zm5.22 38.69c.89-2 1.58-1.78 2 .59-.82 2.07-1.51 1.87-2-.59zm.79-40.43c.89-2 1.57-1.78 2 .59-.92 1.97-1.51 1.77-2-.59z" fill="#6e664c"/></svg>