<svg xmlns="http://www.w3.org/2000/svg" id="Layer_1" viewBox="0 0 321 193.8" preserveAspectRatio="none"><style>.st1{fill:#fff}.st2{fill:#260028}.st3{fill:#e33836}.st4{fill:#0078bf}.st5{fill:#0066a3}.st8{fill:#6e664c}</style><g id="Group_8779" transform="translate(.5 -3050)"><path id="Subtraction_3_1_" fill="#aaefd8" d="M320 3232.8c-11.5 5-23.3 7.3-35.1 8.8-12.1 1.5-24.3 2.2-36.6 2.2-1.7 0-3.7 0-6.2-.1h-2c-11-.3-21.7-1.5-23.8-1.7h-.1c-10.3-1.2-20.4-3.1-30.4-5.7-9.4-2.4-18.6-5.6-27.5-9.5-4.2-1.9-8.3-4-12.3-6.3-3.8-2.2-7.5-4.6-11.1-7.3-4.4-3.3-8.6-7-12.6-10.8-3.7-3.5-7.1-7.1-10.4-10.6l-.8-.8-.1-.1-.5-.6-.1-.1-.1-.1c-3.5-3.7-7.1-7.5-11-11.1-2.1-2-4.2-3.9-6.4-5.8s-4.6-3.7-6.9-5.5c-3.7-2.7-7.7-5.1-11.8-7.2-9.1-4.6-18.9-7.9-28.9-9.7-5.1-.9-10.3-1.4-15.5-1.4-7-.1-14 1-20.7 3.1-1.9.6-3.7 1.3-5.5 2.1-1.4.6-2.7 1.3-4.1 2V3050h321"/><g id="Group_8383" transform="translate(108.928 3398.227)"><g id="Group_8371" transform="translate(83.482)"><path id="Path_7212" d="M28.1-287.2c-2.7 12.9-5.2 21.5-13.2 16.1-1.9-1.3-9-12.2-8.7-14.6 1.7-11.3 3.2-14.3 3.1-14C11-303.1 29.7-324.6 29-318c-1 9.2-2.5 21.9-.9 30.8z" class="st1"/><path id="Path_7214" d="M11.8-295.3c-.1-1.1-1.4.7-1.5.1-.9-3.2-6-3.6-6.4-7.4-.2-2 1.9-6.8 1.4-8.7-.5-1.8-3.7-.3-3.1-2.3.2-.7 3.5-9.6 3.6-10.6.6-3.7-.1-9.3 4.3-10.8 2.2-.7 6.6 1.2 8.7 1.8 4 1 7.9 2.2 11.8 3.7 8.4 3.5.2 17.6-2.5 23.4 0 0-1.1 5.1-1.5 6.5-.1 1.2-.1 2.4 0 3.6-3.9 2.4-8.2 4.2-12.7 5.1-.3-1.5-2.2-4.2-2.1-4.4z" class="st1"/><path id="Path_7215" d="M31.4-305.2c-3.1 1.5-5.3.9-5.8-3.1-.1-.8.5-4.7-.3-5.1-1.1-.6-2.9 2-3.3 2.8v.1c-2.7 5.3-3.9 10.3-8.8 14.1.6-1.6 1.1-3.3 1.6-4.8.9-3.5 2.1-8.9-.2-11.9.2-.2.5-.3.7-.5 2-1.6 3.8-3.4 5.5-5.4.4-.6.8-1.3 1.1-2 .6-1.3 1-2.7.5-3.5-3.2-5.4-17.1-2.7-17.8-10.5-.3-4.1 5.1-12.5 8-11.1 2.1 1 2.8 4.1 5.1 4.4 2 .2 3.9-.8 5.8-.4 2.6.6 3.4 3 5.7 4.1 2 1 4.5-.3 6.2 1 2.5 1.9 4.7 4 4.6 8-.1 3.2-2.7 7.1-3.3 11.1-.5 2.8-2.4 11.3-5.3 12.7z" class="st2"/><path id="Path_7216" d="M12.6-346.1c2.1 1 2.8 4.1 5.1 4.4 2 .2 3.9-.8 5.8-.4 2.6.6 3.4 3 5.7 4.1 2 1 4.5-.3 6.2 1 3.8 2.9 8.9 5.5 1.7 15.2-.1-.1-.1-.2-.2-.2-3-4.3-6.9-7.9-11.4-10.5-6-3.7-13-2.3-19.6-1.4-.3.1-.7.2-1 .3-.2-.5-.3-1-.3-1.5-.4-4 5.1-12.3 8-11z" class="st2"/><path id="Path_7217" d="M.5-299.6c.7-1.9 1.6-3.6 2.3-5.5.5-1.4.8-4 2.4-4.8 1-.5 3 .5 4.2.2 1.8-.5 3.7-2.3 5.2-3.5 2.2 3 1.1 8.4.2 11.9-.4 1.6-1 3.3-1.6 4.8-.8.7-1.7 1.3-2.6 1.7-4.8 2.2-12.6 2.6-10.1-4.8z" class="st2"/><path id="Path_7218" d="M5-307.9c1 0 5 .4 5 .4.6 3.3-6 4.3-5.5 1.6l.6-.3s-1.1-1.7-.1-1.7z" class="st1"/></g><path id="Path_7219" d="M77-283.7c-.1-2.4-.7-5.2.9-5.8 4.6-1.8 13.4-.5 17 1.8 3.2 2.1 3.7 4.8 4.8 8.5.8 2.8 2.4 6.8 2.8 9.6 1.6-5.5 2.4-9.9 4.1-15.4.1-.6.4-1.1.7-1.6.5-.5 1-.8 1.7-1 2-.8 4.2-1.2 6.4-1.2 4.9.1 4.3 10.9 4.2 14.1l11.6 120c-7.9-.3-14.3-.6-21.8-1.3-7.2-.6-16.9-2.7-22.6-3.7-.9-11.4-3.9-46.7-4.8-58.1-2.4-29.2-4.8-58.6-4.9-59.4l-.1-6.5z" class="st3"/><g id="Group_8372" transform="translate(116.719 62.013)"><path id="Path_7220" d="M25.5-244.3c.6-6.9 3.2-13.2 3.9-20.1.8-8.1-.8-16.7-2.1-24.7 6.7 10.1 14.1 18.3 24 23.9 8.3 4.7 17.4 8.1 26.8 9.8-1.6-3.8-5-6.9-7.7-9.8-1.8-1.9-4-4.1-5.5-5.9-6.6-7.8-11.8-18.3-17.2-27.1-4.4-6.8-7.5-14.4-9-22.3-1.1-5.8-1.8-13-6.8-16.1-8.5-5.2-19.5-8.3-29.3-9.6-.4-.1-.8-.1-1.1.1-.4.3-.6.6-.7 1.1-.6 2.4-.9 4.8-.7 7.3.2 19 .9 38.5 3.6 57.3 2.8 19.8 6.6 44.2 10.9 63.8 2.1 0 4.2.1 6.2.1 2.1 0 4.2-.1 6.3-.1-2.9-12-2.1-21.3-1.6-27.7z" class="st4"/><path id="Path_7221" d="M5.3-268.3c5 .9 10.3 2.1 14.6 4.7.4.2.8.5 1.1.8.5.7.8 1.4 1.1 2.2.4.7.8 1.5 1.3 2.2.9 1.4 2.3 3.1 4 3.6l4.4-15.3-28.7-13.5 2.2 15.3z" class="st5"/><path id="Path_7222" d="M17.2-343c0-.1-.1-.2-.1-.2-.1 0 0 .1.1.2z" class="st4"/></g><path id="Path_7223" d="M136.6-238.5c-1.1 2.1-1.8 4.5-2 6.9 3.2.2 7.2.3 10.4.3.1-.4.2-.8.2-1.3l.3-1.3c.2-.8.4-1.7.6-2.5 0-.1.1-.3.1-.4-1-.5-2.1-.7-3.1-.7-.6 0-1.1-.1-1.7-.2-.6-.1-1.1-.5-1.7-.6-.5-.1-1.1-.2-1.6-.3-.3-.1-.6-.2-.8-.3-.3-.1-.6 0-.7.4" class="st2"/><g id="Group_8373" transform="translate(1.423 61.125)"><path id="Path_7224" d="M70.4-346.1c-4.3.9-9.8 2.7-14.1 3.6-4.3 1-13.7 2.1-16.7 6.8-3 4.7-4.1 10.7-6.3 15.9-1.9 4.8-4 9.4-6.4 14-3.2 6-8.2 10.3-11.8 15.9C7.6-278.2 4.6-268.7 0-255.1c.6-1.8 8.2-3.1 9.6-3.6 4.5-1.5 9.1-3 13.7-4.5 13.1-4.3 18-9.6 27.6-21.1.5 10.5.7 21.5 2.1 31.8 1.2 7.5 1.8 15.1 1.9 22.6 0 0 7 2.7 15.7 5.3 5 1.5 10 2.8 15.1 3.7-1.3-11.3.7-22.4.7-33.8 0-28.6-.1-36.3-4.5-70.4-.4.2-1.8-23.1-11.5-21z" class="st4"/><path id="Path_7225" d="M86-269.8l-.1.5c-1.6-.8-3.2-1.5-4.9-2-.2-.1-.4-.1-.6-.1-.3 0-.5.1-.8.2l-9.9 3.7c-.1 0-.3.1-.4.2-.1.1-.2.3-.2.5-2.4 7.5-8.2 13.4-15 17.2-.3.2-.7.3-1 .5l-2.3-18.6 35.1-14v11c.1.2.1.5.1.9z" class="st5"/></g><g id="Group_8374" transform="translate(143.337 143.067)"><path id="Path_7227" d="M15.1-325.6c.7-1.2-17.4-18.7-14.8-20.6 2.1-1.3 22.4 11.3 22.3 11.6-2.9 3.5-4.7 5.6-7.5 9z" class="st4"/></g><path id="Path_7228" d="M178.2-198.7c-.5-1-22.5-13.6-25.1-23.3s-6.5 24.4-6.5 24.4l31.6-1.1z" class="st5"/><path id="Path_7229" d="M50.2-238.4l.9 9c.1.7 1.2 6.7.7 7l-11.1 8.2c4.9-7.3 9-15.2 9.5-24.2z" class="st5"/><g id="Group_8375" transform="translate(34.448 84.299)"><path id="Path_7230" d="M135.4-286.1c-2.9-1.6-23.6-20.1-35.5-38.5-6.2-9.5-9.5-17.2-20-19.1-10.4-1.8-12 15.6-12.1 15.6 3.3-.1 4-4.2 8.1-3 6 1.8 6.5 9.9 5.3 15.3-1.2 5.7-4.2 7.8-7.7 11.3-.4.4-11.2 10.1-7.2 11.1 1.9.5 7.6-2.6 9.9-3 4.7-.8 8.4.2 12.9.9 6.7 1 10.3 1.7 16.1 5.8 2.8 2 31.5 22.7 31.1 23.8-.3-6.7-.6-13.5-.9-20.2z" class="st1"/><path id="Path_7231" d="M0-296.5c-.5-1.5 17.8-12.4 19.9-13.5 9.5-5 15.7-11.3 23-20.6 4-5.2 8.8-14.8 14.9-15.6 6.8-1 15.5 16.8 9.7 18.8-1.8.6-5-5-8-4.7-4 .4-5.3 3-6.5 6.9-2.4 7.8 1.8 14.1 6.3 19.4 1.8 2.2 10.8 8.2 7.6 12.6-.7.9-16.8-6.1-19-6.7-2.4-.6-47.8 18.3-46.5 23.3-.5-6.8-1-13.3-1.4-19.9z" class="st1"/></g><path id="Path_7232" d="M67.5-210.5c.2-.1.4-.2.7-.3 0 2.8-10.6 14.9-11.4 11.7-.2 0-.6-19.8-.6-20.8.1-2.4-.3-6.3 1-8.3.6-1 4.4-2.5 8.1-5 .6.3-.7 8.2-.8 9-.3 3.5-1 7.2-.5 10.7.2 1.3.4 3.8 1.7 3.6.6-.1 1.2-.3 1.8-.6z" class="st3"/><path id="Path_7233" d="M57.3-200.2c1.3-5.8-.1-26.3.3-28.6-2.4 1.2-24.5 15.2-31.9 18.3-.8.3-1.4.6-1.7.7-8.4 2.8-11-.9-18 7-5.3 6-6.8 11.9-5.8 21.9.4 1.3.7 4.5 1.4 5.7 3.8 6.8 14.7-3.9 20.7-5.7 3.2-1 6.3-2.3 9.2-3.9 3.9-1.8 7.6-3.7 11.5-5.5 3.9-1.8 7.8-3.3 11.9-4.8.8-.3 1.3-.4 1.6-1.2.5-1.3.6-2.7.8-3.9z" class="st4"/><path id="Path_7234" d="M162.2-190.2c.7-4.1 1-11.9-.1-15.9-1.6-6.1-5-6.5-9.1-11.1 6.1 7.1 2 21.7-4.8 17.8-.8-.4-1.5-.9-2.3-1.4-.9-.6-1.7-1.2-2.6-1.9 3.1 8.9 14.7 11.5 20 18.3 1.6-.9-1.3-4.9-1.1-5.8z" class="st3"/><path id="Path_7235" d="M194.9-193.4c-13-2.4-25.1-8.5-34.9-17.4 2.3 6.6.8 13.1-.6 19.4-1.6 7.6-2.4 7.3 1 11.9 2.9 4 8.3 6.2 12.4 8.5 5.1 2.9 13.7 4.5 19.7 2.5 6.6-2.2 5.2-18.5 2.4-24.9z" class="st4"/><path id="Path_7236" d="M156.4-213.8c1 .7.1 2.4-.5 3-.7-.7-.3-1.2-.2-1.9l.7-1.1z" class="st2"/><path id="Path_7237" fill="#050505" d="M150.3-220.2s4.3 10.4-6.9 17.4c-1 .6 7.5 1 7.5.8s4.7-13.3 4.2-14.3-4.8-3.9-4.8-3.9z" opacity=".06"/><path id="Path_7238" d="M156.3-215.3c-.8-1.4-1.9-2.6-3.3-3.5.7 1.2 1 2.4-.3 3.3 1 1.3 1.8 3 3.3 3.7.5-.7.6-1.6.5-2.5 0-.4-.1-.7-.2-1z" class="st2"/><path id="Path_7239" d="M154.6-204.9c-1.5 3.6-3.4 1.7-1.2-.8l1.2.8z" class="st2"/><path id="Path_7240" fill="#2bd69e" d="M153.5-204.7c-.4 1.5-1.6 2.9-2.1.8l.6-1 .2-.1 1.3.3z"/><path id="Path_7241" d="M148.5-208.1c-.7-2.3-.5-6.6 2.6-6.9.3-.7.7-1.3 1.3-1.7l-2-3-.4-.6c1.4.5 2.6 1.2 3.7 2.1.2.5.2.9.2 1.4.2.3 0 1-.2 1.6 2 .8 2.8 3.5 2.9 5.4.2 3.3-3.6 8-6.8 4.1-1.7 2.3-5.7 5.2-8.5 3-.8-.8-1.4-1.7-1.6-2.8l3.3 2.4c.1.1.3.2.3.2 2.1.5 4.2-1.5 5.4-2.9l.3-.5c0 .2-.6-2.5-.5-1.8z" class="st2"/><path id="Path_7242" d="M152.9-204.8c-1-.8-1.9-1.3-2.2-2.7-2.1 2.8-9 8.7-11 2 2.4 8.2 11 8.1 13.4.8-.1 0-.1 0-.2-.1z" class="st2"/><path id="Path_7244" d="M147.9-199.1c-2.8.3-5.7-2.1-3.1-3.3 2.3-1.1 4.3-2.8 5.9-4.8.4 1.2 1.3 2.2 2.4 2.7.7.3.2.8.1 1.2-.7 1.8-3.9 4.1-5.3 4.2z" class="st2"/><path id="Path_7245" d="M156.1-206.6c-2.3 5.5-7.4-3.3-5.3-6.9 3.3-5.5 6.7 3.6 5.3 6.9z" class="st2"/><path id="Path_7246" d="M156.3-206.9c-2.1 4.9-6.9-3-4.9-6.3 3-5.1 6.2 3.2 4.9 6.3z" class="st2"/><path id="Path_7247" d="M154.2-205.5c-3.5-.2-4.5-9-.6-9 3.5.1 4.3 9.2.6 9z" class="st2"/><path id="Path_7248" d="M154.2-205.5c-2.9-.1-3.7-5.7-2.5-7.5 2.9-4.8 6.8 6.1 2.5 7.5z" class="st1"/><path id="Path_7249" d="M154.1-209.7c-.2-.2 1.2 1.4.7 1.4-.4 0-.9-.9-1.1-1.2l.4-.2z" class="st8"/><path id="Path_7250" d="M153.9-210.4c-.1.2.8-2.2.3-2.3s-.8 1.8-.9 2.1l.6.2z" class="st8"/><path id="Path_7251" d="M153.9-209.5c1.1-.1-.3-1.4-.3-1.2-.1-.2-1.1 1.9.3 1.2z" class="st8"/><path id="Path_7252" fill="#968b68" d="M154.1-209.7c-.6.2-.8 0-.6-.8.6-.2.8.1.6.8z"/><g id="Group_8382" transform="translate(151.137 132.109)"><g id="Group_8376" transform="translate(.834 .958)"><path id="Path_7253" d="M2.8-345.8c-.3.1-.4 0-.3-.4.3-.1.4 0 .3.4z" class="st8"/><path id="Path_7254" d="M.3-339.9c-.1-.1-.2-.3-.3-.5.1-.2.6.2.3.5z" class="st8"/></g><g id="Group_8377" transform="translate(.185 2.552)"><path id="Path_7255" d="M4.2-345.6c-.3-.1-.3-.3-.2-.6.3.1.4.3.2.6z" class="st8"/><path id="Path_7256" d="M.1-343.1c-.1-.2-.1-.4-.1-.6.2.1.3.3.1.6.1-.1.1 0 0 0z" class="st8"/></g><g id="Group_8378" transform="translate(0 3.145)"><path id="Path_7257" d="M4.5-344.2c-.2-.2-.2-.5 0-.6.3.2.3.4 0 .6z" class="st8"/><path id="Path_7258" d="M0-345.6v-.6c.2.1.2.4 0 .6 0-.1 0-.1 0 0 0-.1 0 0 0 0z" class="st8"/></g><g id="Group_8379" transform="translate(.16 1.329)"><path id="Path_7259" d="M3.9-340.7c-.2-.4-.1-.5.2-.5.2.4.2.6-.2.5z" class="st8"/><path id="Path_7260" d="M.1-345.7c-.1-.2-.1-.3.1-.5.2.1 0 .8-.1.5z" class="st8"/></g><g id="Group_8380" transform="translate(.988 .209)"><path id="Path_7261" d="M2.2-338.6c0-.5.1-.5.3-.2.1.5-.1.5-.3.2z" class="st8"/><path id="Path_7262" d="M0-345.8c0-.5.1-.5.3-.2.1.4 0 .5-.3.2z" class="st8"/></g><g id="Group_8381" transform="translate(1.983)"><path id="Path_7263" d="M0-338.4c.2-.4.3-.3.4.1-.2.5-.3.4-.4-.1z" class="st8"/><path id="Path_7264" d="M.1-346c.2-.4.3-.3.4.1-.2.4-.3.4-.4-.1z" class="st8"/></g></g></g></g></svg>