<svg xmlns="http://www.w3.org/2000/svg" viewBox="0 0 320.999 539.999"><defs><style>.cls-2{fill:#fff}.cls-4{fill:#260028}.cls-5{fill:#e33836}.cls-6{fill:#0078bf}.cls-7{fill:#0066a3}.cls-11{fill:#6e664c}</style></defs><g id="Group_8779" data-name="Group 8779" transform="translate(.5 -3050)"><path id="Subtraction_3" fill="#2bd69e" d="M-339.177 8881h-.034c-1.663 0-3.732 0-6.173-.07h-.027a65.069 65.069 0 0 0-1.962-.034c-11-.31-21.742-1.5-23.783-1.733l-.068-.007a231.959 231.959 0 0 1-30.42-5.653 175.018 175.018 0 0 1-27.515-9.522 135.928 135.928 0 0 1-12.278-6.279 111.289 111.289 0 0 1-11.091-7.287 134.244 134.244 0 0 1-12.626-10.812c-3.66-3.5-7.078-7.085-10.384-10.552l-.045-.047-.034-.036-.018-.021-.75-.784-.034-.036-.072-.07-.529-.559-.018-.018-.127-.134-.056-.059c-3.5-3.668-7.127-7.46-10.95-11.082a147.596 147.596 0 0 0-6.379-5.757 119.243 119.243 0 0 0-6.941-5.475 86.99 86.99 0 0 0-11.824-7.222 104.623 104.623 0 0 0-28.912-9.694 89.288 89.288 0 0 0-15.522-1.434 66.812 66.812 0 0 0-20.718 3.108 53.111 53.111 0 0 0-5.477 2.088 49.957 49.957 0 0 0-4.053 2.01v-384.613a137.057 137.057 0 0 0 12.068-7.355c4.839-2.622 10.4-5.641 15.171-8.266l.036-.034.1-.067 1.044-.572.07-.036.016-.009.018-.012.047-.025.022-.012c13.552-7.4 26.352-14.391 39.695-20.925 7.47-3.664 14.463-6.894 21.38-9.871a472.191 472.191 0 0 1 23.648-9.419 194.149 194.149 0 0 1 31.91-8.613 187.78 187.78 0 0 1 33.274-3h.57a162.064 162.064 0 0 1 30.123 2.825 135.634 135.634 0 0 1 28.7 8.786 99.536 99.536 0 0 1 7.29 3.6c1.966 1.061 4.03 2.285 6.7 3.971a113.507 113.507 0 0 1 11.894 8.863 254.386 254.386 0 0 1 20.3 19.839l.03.031.009.01.034.031.009.009.142.151.034.036.159.167.054.058c3.047 3.2 6.5 6.831 9.961 10.255a140.743 140.743 0 0 0 14.159 12.244 119.635 119.635 0 0 0 12.335 8.11v232.437c-.086-.029-.172-.061-.26-.093l-.061-.022-.03-.011-.031-.012-.016-.006c-.035-.012-.07-.023-.1-.037V8872a274.658 274.658 0 0 1-35.121 6.77 308.029 308.029 0 0 1-36.563 2.23z" data-name="Subtraction 3" opacity=".4" transform="translate(587.501 -5291.001)"/><g id="Group_8383" transform="translate(108.928 3398.227)"><g id="Group_8371" transform="translate(83.482)"><path id="Path_7212" d="M1355.68 487.311c-2.686 12.94-5.2 21.485-13.219 16.113-1.918-1.29-9.033-12.207-8.684-14.649 1.709-11.335 3.244-14.3 3.069-13.951 1.709-3.383 20.473-24.9 19.706-18.276-1.011 9.208-2.476 21.869-.872 30.763z" class="cls-2" transform="translate(-1327.573 -428.318)"/><path id="Path_7214" d="M1331.489 449.653c-.1-1.116-1.36.663-1.535.07-.942-3.244-5.964-3.558-6.417-7.359-.244-1.988 1.883-6.766 1.4-8.719-.453-1.849-3.662-.349-3.139-2.267.174-.7 3.453-9.556 3.627-10.568.628-3.732-.14-9.347 4.325-10.812 2.232-.732 6.592 1.221 8.685 1.814a98.156 98.156 0 0 1 11.789 3.662c8.405 3.523.174 17.578-2.511 23.438 0 0-1.116 5.092-1.465 6.452a20.785 20.785 0 0 0-.035 3.558 38.544 38.544 0 0 1-12.73 5.092c-.111-1.431-1.994-4.151-1.994-4.361z" class="cls-2" transform="translate(-1319.739 -398.717)"/><path id="Path_7215" d="M1355.922 418.953c-3.139 1.465-5.336.907-5.79-3.069-.1-.837.488-4.674-.279-5.092-1.081-.593-2.93 2.023-3.279 2.79a.108.108 0 0 0-.035.07c-2.686 5.336-3.906 10.254-8.754 14.125.628-1.6 1.116-3.278 1.569-4.848.907-3.488 2.058-8.894-.174-11.893a5.5 5.5 0 0 0 .663-.523 36.415 36.415 0 0 0 5.476-5.371 14.222 14.222 0 0 0 1.116-2.023c.558-1.256.976-2.651.488-3.453-3.244-5.406-17.09-2.686-17.753-10.463-.349-4.081 5.127-12.486 8.022-11.091 2.058.977 2.825 4.081 5.092 4.36 1.953.244 3.871-.837 5.824-.384 2.581.628 3.418 3.034 5.685 4.15 1.988 1.012 4.5-.279 6.208 1.012 2.511 1.918 4.674 3.976 4.569 7.952-.1 3.209-2.685 7.115-3.278 11.056-.492 2.79-2.441 11.335-5.37 12.695z" class="cls-4" transform="translate(-1324.571 -377.957)"/><path id="Path_7216" d="M1337.151 378.124c2.058.977 2.825 4.081 5.092 4.36 1.953.244 3.871-.837 5.825-.384 2.581.628 3.418 3.034 5.685 4.15 1.988 1.011 4.5-.279 6.208 1.011 3.767 2.895 8.929 5.546 1.709 15.242-.07-.07-.1-.174-.174-.244a35.9 35.9 0 0 0-11.4-10.5c-5.964-3.662-13.044-2.267-19.636-1.36a3.2 3.2 0 0 0-.976.314 5.468 5.468 0 0 1-.314-1.5c-.389-4.079 5.086-12.449 7.981-11.089z" class="cls-4" transform="translate(-1324.565 -377.97)"/><path id="Path_7217" d="M1316.5 486.367c.663-1.918 1.639-3.592 2.267-5.511.454-1.43.837-4.046 2.407-4.813 1.046-.488 3.034.488 4.22.209 1.849-.453 3.7-2.3 5.162-3.453 2.232 3.034 1.081 8.405.175 11.893a55.961 55.961 0 0 1-1.57 4.848 12.454 12.454 0 0 1-2.581 1.744c-4.747 2.059-12.595 2.478-10.08-4.917z" class="cls-4" transform="translate(-1316.012 -439.721)"/><path id="Path_7218" d="M1329.268 487.7c1.046-.035 4.953.419 4.953.419.628 3.279-6 4.325-5.476 1.6l.593-.314c0 .035-1.011-1.674-.07-1.705z" class="cls-2" transform="translate(-1324.285 -449.421)"/></g><path id="Path_7219" d="M1536.634 544.907c-.14-2.407-.663-5.2.907-5.79 4.639-1.814 13.358-.488 16.985 1.814 3.209 2.058 3.7 4.848 4.778 8.475.8 2.825 2.372 6.836 2.825 9.626 1.639-5.546 2.406-9.87 4.081-15.416a4.321 4.321 0 0 1 .732-1.57 4.01 4.01 0 0 1 1.674-1.046 16.565 16.565 0 0 1 6.383-1.151c4.918.07 4.255 10.917 4.185 14.125l11.649 120.014c-7.917-.279-14.265-.628-21.8-1.325-7.15-.628-16.916-2.72-22.6-3.732-.942-11.37-3.906-46.736-4.848-58.106-2.407-29.158-4.848-58.56-4.918-59.432v-6.487z" class="cls-5" transform="translate(-1459.592 -482.353)"/><g id="Group_8372" transform="translate(116.719 62.013)"><path id="Path_7220" d="M1341.479 479.933c.558-6.906 3.209-13.219 3.871-20.09.8-8.057-.837-16.706-2.093-24.659 6.662 10.08 14.056 18.346 24.031 23.926a85.774 85.774 0 0 0 26.821 9.8c-1.639-3.8-5.022-6.941-7.743-9.766-1.849-1.918-4.011-4.15-5.476-5.929-6.557-7.847-11.754-18.276-17.23-27.135a60.635 60.635 0 0 1-8.964-22.322c-1.081-5.79-1.779-12.975-6.836-16.079-8.51-5.232-19.462-8.3-29.3-9.591a1.543 1.543 0 0 0-1.116.1 1.79 1.79 0 0 0-.733 1.081 23.261 23.261 0 0 0-.733 7.289c.244 19.008.942 38.47 3.558 57.269 2.755 19.845 6.592 44.225 10.882 63.791 2.058 0 4.151.1 6.208.14 2.093 0 4.185-.07 6.278-.07-2.715-12.06-1.948-21.372-1.425-27.755z" class="cls-6" transform="translate(-1315.975 -378.031)"/><path id="Path_7221" d="M1327.132 573.011c4.953.907 10.289 2.093 14.648 4.674a4.829 4.829 0 0 1 1.081.8 9.9 9.9 0 0 1 1.081 2.2c.384.732.8 1.465 1.256 2.162.872 1.36 2.337 3.139 4.011 3.557l4.395-15.311L1324.9 557.7z" class="cls-7" transform="translate(-1321.787 -495.036)"/><path id="Path_7222" d="M1365.022 386.844a1.518 1.518 0 0 0-.139-.244c-.035.07.035.174.139.244z" class="cls-6" transform="translate(-1347.819 -383.611)"/></g><path id="Path_7223" d="M1704.053 685.912a17.828 17.828 0 0 0-1.953 6.906c3.209.174 7.15.279 10.428.279a10.032 10.032 0 0 0 .244-1.256l.279-1.291q.261-1.256.628-2.511a1.241 1.241 0 0 1 .14-.384v-.035a.034.034 0 0 0-.035-.035 7.378 7.378 0 0 0-3.139-.7 9.47 9.47 0 0 1-1.709-.174c-.558-.14-1.116-.453-1.709-.593-.523-.14-1.081-.174-1.569-.349a7.851 7.851 0 0 0-.837-.279.686.686 0 0 0-.767.419" class="cls-4" transform="translate(-1567.475 -578.227)"/><g id="Group_8373" transform="translate(1.423 61.125)"><path id="Path_7224" d="M1386.518 378.136c-4.255.942-9.766 2.651-14.125 3.627-4.29.977-13.672 2.128-16.741 6.836-3.034 4.674-4.115 10.707-6.313 15.869a149.125 149.125 0 0 1-6.383 13.986c-3.174 6.034-8.161 10.289-11.754 15.9-7.464 11.649-10.5 21.136-15.1 34.808.628-1.814 8.161-3.139 9.556-3.627 4.534-1.535 9.1-3 13.672-4.5 13.149-4.325 18.032-9.557 27.553-21.066.453 10.5.663 21.45 2.093 31.843a158.943 158.943 0 0 1 1.883 22.636s7.011 2.686 15.66 5.336a140.947 140.947 0 0 0 15.1 3.732c-1.325-11.335.7-22.426.663-33.831-.035-28.565-.1-36.273-4.534-70.383-.104.004-1.569-23.329-11.23-21.166z" class="cls-6" transform="translate(-1316.1 -377.994)"/><path id="Path_7225" d="M1497.122 574.468c0 .035-.07.453-.07.453a33.43 33.43 0 0 0-4.883-2.023 1.462 1.462 0 0 0-.558-.139 1.9 1.9 0 0 0-.767.174l-9.94 3.732a.831.831 0 0 0-.384.209 1.081 1.081 0 0 0-.209.453c-2.372 7.534-8.231 13.428-15.032 17.195-.314.174-.663.349-.977.523l-2.3-18.625 35.052-14.021v11.021a5.292 5.292 0 0 1 .068 1.048z" class="cls-7" transform="translate(-1411.113 -498.083)"/></g><g id="Group_8374" transform="translate(143.337 143.067)"><path id="Path_7227" d="M1331.14 398.7c.663-1.221-17.439-18.694-14.823-20.578 2.058-1.29 22.357 11.3 22.287 11.649-2.895 3.353-4.674 5.446-7.464 8.929z" class="cls-6" transform="translate(-1316.058 -378.034)"/></g><path id="Path_7228" d="M1768.029 754.162c-.488-.977-22.5-13.6-25.077-23.3s-6.452 24.449-6.452 24.449z" class="cls-7" transform="translate(-1589.877 -606.646)"/><path id="Path_7229" d="M1442.287 687.2c.349 3.034.628 6.034.907 9.033.07.7 1.221 6.662.7 7.045l-11.094 8.232c4.918-7.429 9.033-15.31 9.487-24.31z" class="cls-7" transform="translate(-1392.1 -579.34)"/><g id="Group_8375" transform="translate(34.448 84.299)"><path id="Path_7230" d="M1573.586 442.626c-2.93-1.639-23.577-20.055-35.47-38.5-6.173-9.522-9.522-17.23-20.02-19.078-10.394-1.849-12.033 15.555-12.068 15.555 3.348-.07 3.976-4.185 8.057-3 6.034 1.779 6.453 9.87 5.267 15.346-1.186 5.685-4.185 7.847-7.673 11.335-.418.419-11.161 10.149-7.15 11.091 1.884.453 7.6-2.616 9.87-3 4.743-.8 8.371.174 12.87.907 6.731 1.046 10.289 1.709 16.113 5.755 2.825 1.988 31.495 22.67 31.146 23.821-.384-6.734-.698-13.5-.942-20.232z" class="cls-2" transform="translate(-1438.18 -382.528)"/><path id="Path_7231" d="M1315.979 427.828c-.523-1.465 17.823-12.382 19.915-13.5 9.522-4.987 15.73-11.265 22.984-20.578 4.046-5.162 8.824-14.788 14.893-15.625 6.766-.977 15.451 16.811 9.7 18.764-1.849.628-4.953-5.022-7.952-4.743-3.976.384-5.266 2.965-6.452 6.871-2.406 7.847 1.814 14.056 6.313 19.357 1.849 2.162 10.777 8.2 7.568 12.556-.7.942-16.811-6.138-19.008-6.7-2.441-.628-47.817 18.346-46.527 23.263a1249.881 1249.881 0 0 1-1.434-19.665z" class="cls-2" transform="translate(-1315.969 -378.089)"/></g><path id="Path_7232" d="M1488.42 724.8a5.346 5.346 0 0 1 .663-.279c.035 2.79-10.6 14.893-11.44 11.719-.244.035-.628-19.776-.558-20.787.14-2.406-.349-6.278.976-8.3.628-.977 4.36-2.511 8.057-4.953.628.279-.732 8.2-.8 8.964-.349 3.523-1.011 7.15-.453 10.707.209 1.325.384 3.8 1.709 3.592a9.007 9.007 0 0 0 1.846-.663z" class="cls-5" transform="translate(-1420.934 -589.109)"/><path id="Path_7233" d="M1373.444 743.1c1.256-5.79-.07-26.3.349-28.6-2.441 1.221-24.519 15.172-31.878 18.276-.837.349-1.43.593-1.744.7-8.441 2.79-10.952-.942-17.962 6.976-5.267 6-6.8 11.893-5.824 21.9.419 1.256.663 4.5 1.36 5.685 3.8 6.8 14.684-3.906 20.717-5.685a63.108 63.108 0 0 0 9.243-3.871c3.871-1.849 7.638-3.732 11.545-5.546 3.871-1.814 7.848-3.313 11.858-4.778.767-.279 1.291-.384 1.6-1.151.352-1.221.457-2.651.736-3.906z" class="cls-6" transform="translate(-1316.107 -597.119)"/><path id="Path_7234" d="M1746.2 774.73c.732-4.081.977-11.893-.069-15.9-1.6-6.139-5.023-6.452-9.068-11.126 6.139 7.115 2.023 21.729-4.813 17.788a25.868 25.868 0 0 1-2.267-1.36 103.339 103.339 0 0 1-2.581-1.883c3.069 8.929 14.683 11.544 19.985 18.276 1.463-.877-1.432-4.818-1.187-5.795z" class="cls-5" transform="translate(-1583.951 -618.739)"/><path id="Path_7235" d="M1805.979 783.769A71.4 71.4 0 0 1 1771.1 766.4c2.3 6.592.767 13.114-.593 19.427-1.639 7.6-2.406 7.255 1.046 11.893 2.93 4.011 8.3 6.243 12.416 8.545 5.127 2.86 13.742 4.534 19.671 2.476 6.594-2.267 5.199-18.554 2.339-24.972z" class="cls-6" transform="translate(-1611.12 -630.917)"/><path id="Path_7236" d="M1762.861 757.6c.977.7.14 2.407-.453 2.965-.7-.663-.349-1.151-.244-1.918z" class="cls-4" transform="translate(-1606.473 -625.186)"/><path id="Path_7237" fill="#050505" d="M1734.124 739.2s4.325 10.359-6.871 17.439c-.977.628 7.464.977 7.5.8s4.674-13.253 4.185-14.265-4.814-3.974-4.814-3.974z" opacity=".06" transform="translate(-1583.804 -613.204)"/><path id="Path_7238" d="M1757.427 746.723a10.234 10.234 0 0 0-3.278-3.523c.662 1.151.976 2.441-.349 3.279.977 1.29 1.849 2.965 3.313 3.7a3.5 3.5 0 0 0 .488-2.476 3.027 3.027 0 0 0-.174-.98z" class="cls-4" transform="translate(-1601.143 -615.809)"/><path id="Path_7239" d="M1755.208 781.7c-1.465 3.627-3.383 1.744-1.221-.8z" class="cls-4" transform="translate(-1600.632 -640.36)"/><path id="Path_7240" fill="#2bd69e" d="M1752.193 783.279c-.418 1.5-1.6 2.895-2.093.837l.558-1.011.244-.1z" transform="translate(-1598.734 -641.727)"/><path id="Path_7241" d="M1725.294 751.172c-.663-2.267-.523-6.557 2.581-6.941a3.8 3.8 0 0 1 1.325-1.709l-1.988-2.965-.384-.558a12.686 12.686 0 0 1 3.732 2.093 3.3 3.3 0 0 1 .174 1.43c.209.314-.035.977-.244 1.639 2.023.767 2.755 3.523 2.86 5.406.174 3.313-3.627 7.987-6.836 4.116-1.709 2.337-5.65 5.232-8.475 2.965a5.944 5.944 0 0 1-1.639-2.825l3.313 2.407c.1.1.279.174.314.244 2.093.453 4.22-1.5 5.406-2.895l.349-.453c0 .034-.628-2.651-.488-1.954z" class="cls-4" transform="translate(-1576.787 -613.074)"/><path id="Path_7242" d="M1729.719 778.551c-1.046-.8-1.883-1.256-2.2-2.651-2.128 2.755-9.033 8.719-11.021 1.953 2.406 8.231 11.021 8.127 13.358.837.002-.035-.033-.104-.137-.139z" class="cls-4" transform="translate(-1576.852 -637.104)"/><path id="Path_7244" d="M1732.56 784.627c-2.79.279-5.65-2.058-3.1-3.348a16.564 16.564 0 0 0 5.859-4.778 4.693 4.693 0 0 0 2.406 2.72c.7.349.209.8.1 1.151-.662 1.883-3.835 4.115-5.265 4.255z" class="cls-4" transform="translate(-1584.646 -637.494)"/><path id="Path_7245" d="M1752.852 762.21c-2.337 5.476-7.429-3.279-5.3-6.906 3.243-5.58 6.73 3.558 5.3 6.906z" class="cls-4" transform="translate(-1596.742 -622.542)"/><path id="Path_7246" d="M1754.193 762.66c-2.128 4.918-6.871-3-4.883-6.348 3.035-5.057 6.209 3.209 4.883 6.348z" class="cls-4" transform="translate(-1597.909 -623.305)"/><path id="Path_7247" d="M1752.347 764.663c-3.488-.174-4.464-9.033-.558-8.964 3.522.101 4.29 9.173.558 8.964z" class="cls-4" transform="translate(-1598.19 -623.948)"/><path id="Path_7248" d="M1752.386 765.131c-2.86-.14-3.732-5.65-2.546-7.5 2.96-4.812 6.906 6.139 2.546 7.5z" class="cls-2" transform="translate(-1598.229 -624.416)"/><path id="Path_7249" d="M1757.219 769.466c-.174-.209 1.151 1.43.7 1.4-.384-.035-.907-.942-1.116-1.186z" class="cls-11" transform="translate(-1603.097 -632.901)"/><path id="Path_7250" d="M1756.458 763.059c-.07.174.767-2.162.349-2.267s-.837 1.814-.907 2.128z" class="cls-11" transform="translate(-1602.51 -627.262)"/><path id="Path_7251" d="M1755.963 767.9c1.081-.07-.349-1.36-.279-1.151-.104-.277-1.084 1.781.279 1.151z" class="cls-11" transform="translate(-1602.086 -631.129)"/><path id="Path_7252" fill="#968b68" d="M1756.809 767.906c-.558.209-.767-.035-.558-.767.558-.244.768.035.558.767z" transform="translate(-1602.688 -631.342)"/><g id="Group_8382" transform="translate(151.137 132.109)"><g id="Group_8376" transform="translate(.834 .958)"><path id="Path_7253" d="M1323.441 378.456c-.314.14-.418-.035-.314-.419q.473-.157.314.419z" class="cls-11" transform="translate(-1320.616 -378.004)"/><path id="Path_7254" d="M1316.279 395.19a3.191 3.191 0 0 1-.279-.453c.1-.279.558.174.279.453z" class="cls-11" transform="translate(-1316 -388.844)"/></g><g id="Group_8377" transform="translate(.185 2.552)"><path id="Path_7255" d="M1327.6 378.593c-.279-.1-.349-.314-.174-.593.274.1.345.314.174.593z" class="cls-11" transform="translate(-1323.377 -378)"/><path id="Path_7256" d="M1316.14 385.858a3.274 3.274 0 0 1-.139-.558.371.371 0 0 1 .139.558z" class="cls-11" transform="translate(-1316 -382.754)"/></g><g id="Group_8378" transform="translate(0 3.145)"><path id="Path_7257" d="M1328.666 382.528c-.244-.244-.244-.453.035-.628.244.244.244.453-.035.628z" class="cls-11" transform="translate(-1324.132 -380.54)"/><path id="Path_7258" d="M1316 378.593V378a.389.389 0 0 1 .035.558.034.034 0 0 1-.035.035z" class="cls-11" transform="translate(-1316 -378)"/></g><g id="Group_8379" transform="translate(.16 1.329)"><path id="Path_7259" d="M1327.08 392.979c-.209-.384-.139-.523.209-.488.211.383.14.523-.209.488z" class="cls-11" transform="translate(-1323.152 -387.433)"/><path id="Path_7260" d="M1316.093 378.523c-.1-.174-.07-.349.14-.523.209.14.035.8-.14.523z" class="cls-11" transform="translate(-1316.036 -378)"/></g><g id="Group_8380" transform="translate(.988 .209)"><path id="Path_7261" d="M1322.188 399.25c-.035-.453.07-.523.349-.209.035.453-.07.523-.349.209z" class="cls-11" transform="translate(-1320.019 -391.593)"/><path id="Path_7262" d="M1315.988 378.45c-.035-.453.07-.523.349-.209.035.453-.07.522-.349.209z" class="cls-11" transform="translate(-1315.981 -378.048)"/></g><g id="Group_8381" transform="translate(1.983)"><path id="Path_7263" d="M1316 400.007c.174-.384.279-.349.383.1-.174.424-.283.354-.383-.1z" class="cls-11" transform="translate(-1316 -392.14)"/><path id="Path_7264" d="M1316.4 378.208c.174-.384.279-.349.384.1-.175.392-.284.353-.384-.1z" class="cls-11" transform="translate(-1316.26 -377.944)"/></g></g></g></g></svg>