<svg xmlns="http://www.w3.org/2000/svg" viewBox="0 0 119.974 110.008"><defs><style>.a{fill:#e33836}.b{fill:#fff}</style></defs><path class="a" d="M119.602 63.191c3.6 30.6-18.9 54.7-67.2 44.4-48.4-10.3-63.2-41.6-44.7-76.1 13-24.3 40.2-37 76.6-29.2 36.5 7.7 31.7 30.3 35.3 60.9"/><path class="b" d="M90.702 51.191c-3.5-1.8-5.7-1.1-9.4-.5a74.526 74.526 0 0 1-11.6.6c-.1-3.2-.2-6.5-.3-9.7-.1-3.6.5-7.6-1.2-10.8-2-3.8-8.1-3.9-10 0-2.7 5.4-1.1 14.2-.2 20.8-6.2.1-12.6.5-18.3 2.4-4.4 1.4-3.9 8.4 1.1 8.2q9-.3 18-.3c.4 6.1 1 12.6 3.5 17.8 2.2 4.6 9.2 2.3 9.2-2.4 0-5-.6-10.1-1-15.1 7 .4 18.1 2.2 22-4.3a5.134 5.134 0 0 0-1.8-6.7zm0 0"/></svg>