<svg xmlns="http://www.w3.org/2000/svg" viewBox="0 0 43.62 40.02"><title>plus--black</title><path fill="#fff" d="M13.4 10.1h20.4v19.8H13.4z"/><path d="M43.48 23c-1.3-11.2.4-19.4-12.9-22.2S7.48 2.6 2.78 11.4c-6.7 12.6-1.3 24 16.2 27.7s25.8-4.98 24.5-16.1zm-9.9-2c-1.4 2.4-5.5 1.7-8 1.6a50.85 50.85 0 0 1 .4 5.5c0 1.7-2.5 2.5-3.3.9a20.88 20.88 0 0 1-1.3-6.5c-2.2 0-4.4 0-6.5.1-1.8.1-2-2.5-.4-3a25.17 25.17 0 0 1 6.7-.9c-.3-2.4-.9-5.6.1-7.6a2.11 2.11 0 0 1 2.8-.8 3 3 0 0 1 .8.8c.6 1.2.4 2.6.4 3.9s.1 2.4.1 3.5a29.54 29.54 0 0 0 4.2-.2c1.3-.2 2.2-.5 3.4.2a1.9 1.9 0 0 1 .6 2.5z" fill="#260028"/></svg>