<svg xmlns="http://www.w3.org/2000/svg" viewBox="0 0 210 490"><defs><style>.d{fill:#00a36b}.f{clip-path:url(#a)}.g{fill:none;stroke:#eae8e9;stroke-miterlimit:10;stroke-width:3.53px}</style><clipPath id="a"><path d="M84.5 466.1c16.2-1.2 38.9-5.4 44-12.5 0 0 28.5-74.2 27.5-122.5-22.7.5-120.5 2.5-148.4 3.1 1 49 30.4 121.3 30.4 121.3s30.3 11.8 46.5 10.6z"/></clipPath></defs><g transform="translate(-7.6 -.062)"><ellipse cx="104.2" cy="29.1" fill="#020202" opacity=".09" rx="104.2" ry="29.1" transform="translate(10.6 430.8)"/><path fill="#2bd69e" d="M106 3.3C96.3-2.6 81.6-.4 76.2 9.6c-5.4 9.9-1.8 23.2.9 33.4 2 7.7 3.3 16.5-.8 23.3-3.1 5.1-8.7 8.2-14.3 10.4s-11.5 3.8-16.5 7.2c-17 11.6-7.8 51.8-5.2 69q12.45 82.65 30.5 164.3l7.3 26.5c5.4-7.9 10-17.8 16.7-24.6 4.4-4.5 10.2-6.5 15.3-9.9 14.6-9.8 27.4-24 38.1-37.8a207.04 207.04 0 0 0 41.2-96.2c2-13.6-3.4-30.7-19.4-22.5-5.5 2.8-7.2 7.9-14.5 3.5-5.3-3.1-7-10.2-6.4-15.9 1.1-11.2 8.6-23 3-34.3-2.4-4.8-6.8-8.9-12.1-9.5-6.2-.7-12.3 3.4-18.4 2.3-6.4-1.1-10.7-7.8-11.3-14.3s1.6-12.9 3.7-19c3.6-10.8 7.1-21.8 6.8-33.2-.3-11.3-5.2-23.1-14.8-29z"/><path fill="#ffdc40" d="M146.1 183.2c-7.9-3.8-17.7-1-24.4 4.7-6.6 5.7-10.6 13.9-13.9 22-3.3 8.3-6.3 17.3-13.2 22.9-6.5 5.2-15.2 6.6-22.5 10.5-12.8 7-20.1 20.9-24.8 34.7a168.441 168.441 0 0 0-6 86.5l6.9 12.9c30.4-19.2 59.9-40.7 81.8-69.2s35.4-64.9 30.1-100.4c-1.4-9.8-5.1-20.4-14-24.6z"/><path d="M46 51.1c5.5 16.6 13.6 32.1 22.2 47.1 8.7 15.1 18 29.7 26 45a206.086 206.086 0 0 1 10.6 23.5c1.5 4 2.8 8.1 3.9 12.2a106.326 106.326 0 0 1 2.5 12.5 90.393 90.393 0 0 1 .9 12.7c.1 2.1-.1 4.2-.1 6.4-.2 2.1-.3 4.2-.6 6.3-.2 2.1-.6 4.2-1 6.3-.2 1-.4 2.1-.7 3.1l-.3 1.6-.4 1.5c-1 4.1-2.4 8.2-3.8 12.2a143.41 143.41 0 0 1-9.8 20.1c-3.8 6.5-7.8 12.9-11.4 19.3-.7 1.2.6 2.1 1.5 1.1 8.7-9.3 15.4-21.2 20.6-33a110.688 110.688 0 0 0 8-24.4 96.234 96.234 0 0 0 1.7-25.7 98.664 98.664 0 0 0-1.6-12 111.069 111.069 0 0 0-2.9-11.7c-.6-1.9-1.2-3.8-1.9-5.7s-1.4-3.8-2.1-5.6c-1.5-3.7-3.1-7.4-4.9-11-7-14.4-15.5-27.8-23.8-41.3-6-9.7-11.7-19.9-16.9-30.2s-10-20.8-14.4-31.2c-.4-1-1.7-.3-1.3.9z" class="d"/><path d="M106.3 247.8a2.767 2.767 0 0 0-.4-.7 19.016 19.016 0 0 1-1.1-2.1c-.9-1.8-2.1-4.2-3.4-7.2-.6-1.5-1.2-3-1.9-4.7-.6-1.7-1.2-3.4-1.7-5.2a26.806 26.806 0 0 1-.7-2.7c-.2-.9-.5-1.8-.7-2.8-.2-.9-.3-1.9-.5-2.8a28.505 28.505 0 0 1-.3-2.9 6.51 6.51 0 0 1 2.1.5 12.653 12.653 0 0 1 4.7 3.3 15.085 15.085 0 0 1 2.5 3.6 18.633 18.633 0 0 1 1.9 5.5c.9 4.4 1.1 10.4-.5 18.2zm8.7-38.6s-1.2-1-3.2-2.6c-2-1.7-4.7-4.1-7.7-6.8-3.1-2.8-6.4-5.9-9.7-9.3a65.88 65.88 0 0 1-9.1-11.5 11.611 11.611 0 0 1 2.7-.6 16.686 16.686 0 0 1 7.4 1 20.668 20.668 0 0 1 5 2.7 18.373 18.373 0 0 1 2.7 2.3c.9.9 1.8 1.9 2.8 3a32.894 32.894 0 0 1 2.7 3.9 44.748 44.748 0 0 1 2.5 4.9 42.5 42.5 0 0 1 3.9 13zm-6.4-38.9s-1.7-.5-4.4-1.5c-1.3-.5-3-1.1-4.8-1.8s-3.8-1.6-6-2.5a98.173 98.173 0 0 1-13.8-7.3 61.786 61.786 0 0 1-13.9-11.7 11.526 11.526 0 0 1 2.9-1.3 17.54 17.54 0 0 1 8.5-.3 34.237 34.237 0 0 1 13.9 6.3c1.4 1 2.7 2.1 4.2 3.4 1.4 1.3 2.9 2.7 4.4 4.3a68.642 68.642 0 0 1 9 12.4zm-17.1-35.6a79.389 79.389 0 0 1-14.6-3.2c-8.3-2.7-18.8-7.5-27.5-17.4a8.422 8.422 0 0 1 2.6-1.2 17.984 17.984 0 0 1 7.9-.2 36.168 36.168 0 0 1 13.2 5.6 87.26 87.26 0 0 1 18.4 16.4zm-19.6-32.2s-1.4-.1-3.6-.5a54.137 54.137 0 0 1-9.1-2.4 53.131 53.131 0 0 1-11.9-6 43.561 43.561 0 0 1-11.6-11.5 7.5 7.5 0 0 1 2.4-.8 14.705 14.705 0 0 1 6.9.6 38.185 38.185 0 0 1 11.2 5.9 109.186 109.186 0 0 1 15.7 14.7zM56.4 73.8s-1.2-.2-3.1-.7a51.126 51.126 0 0 1-7.7-3 37.427 37.427 0 0 1-9.7-6.8 38.529 38.529 0 0 1-8.7-11.8 6.836 6.836 0 0 1 2.2-.3 13.637 13.637 0 0 1 5.9 1.5 35.45 35.45 0 0 1 9 6.7 137.1 137.1 0 0 1 12.1 14.4zm37.4 192.4s1.2-.1 3.1-.4a33.4 33.4 0 0 0 3.5-.8l2.1-.6c.7-.2 1.5-.5 2.3-.8a43.762 43.762 0 0 0 5-2.3 47.441 47.441 0 0 0 5.2-3.5 56.137 56.137 0 0 0 5.1-4.8 23.721 23.721 0 0 0 2.3-3c.4-.5.7-1.1 1.1-1.6.3-.6.7-1.1 1-1.7a5.327 5.327 0 0 0-2.1-.5 13.694 13.694 0 0 0-5.9 1.1 21.379 21.379 0 0 0-4.2 2.2 45.985 45.985 0 0 0-5.1 3.7 128.855 128.855 0 0 0-13.4 13zM51.2 60.9s.5-.8 1.2-2.1a58.29 58.29 0 0 0 2.5-5.7 47.1 47.1 0 0 0 3.3-17.8 6.912 6.912 0 0 0-1.5.5 10.094 10.094 0 0 0-3.3 2.9 9.986 9.986 0 0 0-1.6 3.1 23.512 23.512 0 0 0-1.2 4.6 41.094 41.094 0 0 0 .6 14.5zm58.6 169.9a28.99 28.99 0 0 0 3.8-1.7 40.215 40.215 0 0 0 8.9-6.3 45.955 45.955 0 0 0 5.1-5.5 30.72 30.72 0 0 0 2.4-3.5c.4-.6.8-1.2 1.2-1.9s.7-1.3 1.1-2a47.259 47.259 0 0 0 5-20.1 7.454 7.454 0 0 0-2.7.7 11.765 11.765 0 0 0-2.8 1.8 20.678 20.678 0 0 0-3.4 3.3 64.5 64.5 0 0 0-7.9 12.8c-.7 1.4-1.4 3-2.3 4.6-.4.8-.8 1.7-1.2 2.6s-.9 1.8-1.3 2.7c-.2.5-.4.9-.6 1.4s-.5 1-.7 1.5c-.5 1-.9 2-1.4 3-1.1 2.1-2 4.3-3.2 6.6zm2.8-38.7l.9-.9a22.816 22.816 0 0 0 2.3-2.6 49.327 49.327 0 0 0 3.1-4.3 42.888 42.888 0 0 0 3.3-6.1 51.433 51.433 0 0 0 4.5-17.3 58.9 58.9 0 0 0-2.1-21.7 9.4 9.4 0 0 0-2.6 1.7 18.708 18.708 0 0 0-4.9 7.4c-1.6 3.8-2.7 8.9-3.3 16.1-.7 7.2-.6 16.2-1.2 27.7zm-11.4-37.4a34.485 34.485 0 0 0 1.9-3.8 50.428 50.428 0 0 0 3.3-10.5 56.755 56.755 0 0 0 1.3-15.4 55.326 55.326 0 0 0-3.6-17.8s-4 1.8-6.2 8.6c-1.1 3.4-1.7 8.1-1.3 14.4A103.612 103.612 0 0 0 98 141c.9 4 1.9 8.6 3.2 13.7zm-17.9-33.2a52.7 52.7 0 0 0 3.5-12.6 58.987 58.987 0 0 0-1.6-27.6 7.512 7.512 0 0 0-2 1.5 15.1 15.1 0 0 0-3.6 5.7 29.987 29.987 0 0 0-1.3 12.2c.4 5.4 1.9 12.2 5 20.8zm-16.9-28s.5-1.1 1.2-3a59.231 59.231 0 0 0 2.3-7.8 56.758 56.758 0 0 0 .8-23.5 5.5 5.5 0 0 0-1.9 1.1 12.4 12.4 0 0 0-3.7 4.6A24.262 24.262 0 0 0 63 75.3a58.182 58.182 0 0 0 3.4 18.2zM48.2 53.3s-.3-.2-.8-.6a24.528 24.528 0 0 1-2-1.8 50.355 50.355 0 0 1-6.2-7.2 54.237 54.237 0 0 1-6.3-11.8 41.688 41.688 0 0 1-2.6-15.1 7.1 7.1 0 0 1 2 1.4 25.285 25.285 0 0 1 4.6 5.4c.4.7.9 1.4 1.3 2.2s.9 1.6 1.4 2.5a47.617 47.617 0 0 1 2.7 6.3 177.918 177.918 0 0 1 5.9 18.7z" class="d"/><path fill="#0078bf" d="M84.5 466.1c16.2-1.2 38.9-5.4 44-12.5 0 0 28.5-74.2 27.5-122.5-22.7.5-120.5 2.5-148.4 3.1 1 49 30.4 121.3 30.4 121.3s30.3 11.8 46.5 10.6z"/><g class="f"><path d="M159.3 360.1c.2 9.6-34.9 18.2-78.4 19.1S2 372.9 1.8 363.3" class="g"/></g><g class="f"><path d="M159.6 374.5c.2 9.6-34.9 18.2-78.4 19.1s-78.9-6.2-79.1-15.8" class="g"/></g></g></svg>