<svg xmlns="http://www.w3.org/2000/svg" viewBox="0 0 452.748 649.553"><defs><style>.a{fill:#59335b}.a,.b,.c{fill-rule:evenodd}.b,.f{fill:#fff}.c{fill:#fa6142}.d{fill:#55deb1}.e{fill:#e8faf4}</style></defs><path class="a" d="M44.798 495.324s18.895 50.621 80.937 78.681 183.73 23.971 183.73 23.971 13.4-18.895 11.7-34.546c-89.958-11.845-179.778-32.15-276.367-68.106z"/><path class="b" d="M46.208 490.953c7.332-48.083 110.266-160.605 292.3-190.639-100.819 88.833-97.153 221.8-92.641 247.746-14.378-16.215-137.476-105.331-199.659-57.107z"/><path class="c" d="M188.905 349.525c29.611-.564 65.991 2.115 96.307 15.652a289.588 289.588 0 0 0-29.752 71.772c-23.125-16.644-67.683-33.278-152.145-28.344 22.279-20.444 50.9-41.031 85.59-59.08z"/><path class="d" d="M162.678 364.33c30.88.423 70.362 5.922 109.7 25.381-2.82 6.2-5.5 12.408-7.755 18.613-52.311-26.368-105.188-25.663-133.953-22.42 9.87-7.332 20.587-14.524 32.008-21.574z"/><path class="c" d="M340.628 300.455s8.037-15.37 28.342-21.292c-26.086-17.626-72.477-9.307-72.477-9.307 19.741 5.218 37.366 16.216 44.135 30.599z"/><path class="e" d="M54.95 585.568C36.478 598.399 3.624 606.719.099 632.946c-.846 6.627 3.807 14.806 9.729 16.357 2.82.705 5.781 0 8.742-3.1 6.345-6.627 5.217-17.2 9.447-24.817 4.23-7.473 14.383-17.908 23.971-15.793 2.679.564 4.794 3.1 2.961 5.64-2.82 3.948-9.447 3.525-13.4 5.5-6.2 2.961-4.089 11.28 3.384 9.165a32.205 32.205 0 0 0 11.421-6.2c9.165-7.191 7.332-20.023 14.1-28.765 4.089-5.358 10.716-9.165 17.485-9.306 4.653-.141 10.011 1.833 11.985 6.486 2.256 5.076-.987 9.306-4.512 12.549-4.089 3.807-9.588 7.614-11.421 13.114-1.551 4.653 1.128 10.293 6.2 7.473 7.473-3.948 11.985-13.819 16.5-20.446 9.306-13.537 25.945-15.37 41.174-15.088 32.431.564 57.107 16.216 83.475 33.7 24.535 16.216 51.326 31.867 81.924 25.945 9.447-1.833 19.741-6.063 26.368-13.254 4.653-5.217 1.833-10.575-5.217-9.729a11.372 11.372 0 0 0-4.653 1.551c-1.269.564-2.538 1.692-3.948 2.115-6.345 1.692-9.447-4.089-3.384-7.473 5.781-3.243 15.37-3.243 21.856-3.384a105.181 105.181 0 0 1 44.135 7.9c6.909 2.82 15.934 5.781 18.19-4.23 2.4-10.575-6.909-19.318-16.216-22.138-11.7-3.525-24.676-1.269-36.238 1.692-5.64 1.551-11.28 3.384-16.921 5.076-7.755 2.4-18.895 6.486-26.227.987-3.243-2.538-5.922-7.473-4.371-11.7 1.551-4.089 6.063-5.076 9.87-5.5 4.935-.423 10.152.141 14.524-2.538 4.935-3.1 6.486-12.126-.564-13.819-8.6-2.115-19.318 6.063-26.086 10.434-11.985 8.037-23.266 12.973-37.93 13.4-15.37.423-31.585-1.269-45.968-6.768-13.114-4.935-24.112-13.537-36.1-20.587-25.1-14.665-54.569-23.266-83.9-20.164a109.44 109.44 0 0 0-39.2 11.562 97.794 97.794 0 0 0-17.767 11.421c-2.538 2.256-16.357 17.908-5.358 15.511 3.807-.846 6.063-3.525 7.9-6.768a9.465 9.465 0 0 1 11.28-6.345.45.45 0 0 1 .423.423c3.525.705 3.666 4.794 2.256 7.614a14.19 14.19 0 0 1-5.068 4.919z"/><path class="f" d="M426.782 94.222c-28.3 4.077-58.952 2.111-87.4.528-15.633-.863-31.318-1.818-47.003-.718-9.641.672-19.619 3.166-29.26 1.439-11.177-1.92-18.036-11.657-15.11-22.69 4.125-15.493 22.833-21.921 36.695-24.655.336-.048.672-4.077.815-4.6a23.649 23.649 0 0 1 5.564-9.694c4.318-4.557 10.074-6.763 16.259-7.435 11.464-1.2 24.032 2.3 33.625-6.092 9.018-7.867 11.128-20.818 25.662-20.29 15.213.576 23.65 13.717 30.75 25.231 5.8 9.45 11.9 14.726 22.161 18.275 7.867 2.734 16.453 4.269 23.6 8.682 7.531 4.7 10.553 11.8 9.354 20.53-1.872 13.671-13.052 19.667-25.712 21.489M143.958 226.791c-16.318 2.351-33.992 1.217-50.394.3-9.017-.5-18.061-1.051-27.105-.415-5.559.387-11.312 1.825-16.872.83-6.444-1.105-10.399-6.715-8.712-13.081 2.379-8.934 13.165-12.64 21.159-14.216a15.375 15.375 0 0 0 .47-2.655 13.636 13.636 0 0 1 3.208-5.587 14.718 14.718 0 0 1 9.376-4.287c6.61-.691 13.857 1.328 19.389-3.513 5.2-4.536 6.417-12 14.8-11.7 8.768.332 13.636 7.91 17.729 14.548 3.347 5.449 6.859 8.491 12.778 10.538 4.536 1.577 9.487 2.462 13.608 5.006 4.342 2.711 6.085 6.8 5.393 11.838-1.079 7.883-7.523 11.34-14.825 12.391"/></svg>