<svg id="Layer_1" xmlns="http://www.w3.org/2000/svg" viewBox="0 0 410 386"><style>.st0{fill:#59335b}.st1{fill:#fff}.st2{fill:#fa6142}.st3{fill:#55deb1}.st4{fill:#e8faf4}</style><path class="st0" d="M2.9-37.3s18.8 50.7 80.7 78.8 183.3 24 183.3 24 13.4-18.9 11.7-34.6C188.8 19 99.2-1.3 2.9-37.3z" transform="translate(44.798 267.895)"/><path class="st1" d="M4.3-41.6c7.3-48.1 110-160.7 291.6-190.8-100.6 88.9-96.9 222-92.4 248C189.1-.7 66.3-89.9 4.3-41.6z" transform="translate(44.798 267.895)"/><path class="st2" d="M146.6-183.2c29.5-.6 65.8 2.1 96.1 15.7-13.1 22.5-23 46.7-29.7 71.8-23-16.6-67.5-33.3-151.7-28.4 22.2-20.4 50.7-41 85.3-59.1z" transform="translate(44.798 267.895)"/><path class="st3" d="M120.5-168.4c30.8.4 70.2 5.9 109.4 25.4-2.8 6.2-5.5 12.4-7.7 18.6-52.2-26.3-105-25.6-133.6-22.4 9.8-7.3 20.5-14.5 31.9-21.6z" transform="translate(44.798 267.895)"/><path class="st2" d="M298-232.3s8-15.4 28.3-21.3c-26-17.6-72.3-9.3-72.3-9.3 19.7 5.2 37.2 16.2 44 30.6z" transform="translate(44.798 267.895)"/><path class="st4" d="M57.8-225.6c-18.4 12.8-51.2 21.2-54.7 47.4-.8 6.6 3.8 14.8 9.7 16.4 2.8.7 5.8 0 8.7-3.1 6.3-6.6 5.2-17.2 9.4-24.8 4.2-7.5 14.3-17.9 23.9-15.8 2.7.6 4.8 3.1 3 5.6-2.8 4-9.4 3.5-13.4 5.5-6.2 3-4.1 11.3 3.4 9.2 4.2-1.3 8.1-3.4 11.4-6.2 9.1-7.2 7.3-20 14.1-28.8 4.1-5.4 10.7-9.2 17.4-9.3 4.6-.1 10 1.8 12 6.5 2.3 5.1-1 9.3-4.5 12.6-4.1 3.8-9.6 7.6-11.4 13.1-1.5 4.7 1.1 10.3 6.2 7.5 7.5-4 12-13.8 16.5-20.5 9.3-13.5 25.9-15.4 41.1-15.1 32.4.6 57 16.2 83.3 33.7 24.5 16.2 51.2 31.9 81.7 26 9.4-1.8 19.7-6.1 26.3-13.3 4.6-5.2 1.8-10.6-5.2-9.7-1.6.2-3.2.7-4.6 1.6-1.3.6-2.5 1.7-3.9 2.1-6.3 1.7-9.4-4.1-3.4-7.5 5.8-3.2 15.3-3.2 21.8-3.4 15.1-.6 30.1 2.1 44 7.9 6.9 2.8 15.9 5.8 18.1-4.2 2.4-10.6-6.9-19.3-16.2-22.2-11.7-3.5-24.6-1.3-36.1 1.7-5.6 1.6-11.3 3.4-16.9 5.1-7.7 2.4-18.8 6.5-26.2 1-3.2-2.5-5.9-7.5-4.4-11.7 1.5-4.1 6-5.1 9.8-5.5 4.9-.4 10.1.1 14.5-2.5 4.9-3.1 6.5-12.1-.6-13.8-8.6-2.1-19.3 6.1-26 10.4-12 8-23.2 13-37.8 13.4-15.3.4-31.5-1.3-45.9-6.8-13.1-4.9-24.1-13.5-36-20.6-25-14.7-54.4-23.3-83.7-20.2-13.6 1.4-26.9 5.3-39.1 11.6-6.3 3.2-12.2 7-17.7 11.4-2.5 2.3-16.3 17.9-5.3 15.5 3.8-.8 6-3.5 7.9-6.8 1.5-4.8 6.4-7.5 11.3-6.4.2 0 .4.2.4.4 3.5.7 3.7 4.8 2.3 7.6-1.4 2.1-3.1 3.8-5.2 5z" transform="translate(-.001 546.584)"/></svg>