<svg xmlns="http://www.w3.org/2000/svg" viewBox="0 0 327.936 187.032"><defs><style>.a{fill:#fff}.b{fill:#ebebeb}.c{fill:#d7dbdb}.d{fill:#ff4a00}.e{fill:#e6eced}</style></defs><path class="a" d="M271.923 140.683a70.985 70.985 0 0 1 12.72-2.839c4.094-.491 7.807-.6 10.318-.655a4.131 4.131 0 0 0 .819-.055c4.04-.109 10.591-.055 16.978-1.365a58.35 58.35 0 0 1-9.226 3.33c-3.6 1.037-6.824 2.02-8.9 2.675l-.491.164c-5.186.764-13.593 2.238-20.417 6.169a34.286 34.286 0 0 0-6.06-2.129 43.61 43.61 0 0 0-5.241-1.31 87.394 87.394 0 0 1 9.5-3.985zm-89.75-9.935c5.841 21.946 58.3 12.119 69.441 24.239.819-.546 13.921-4.477 14.958-4.586-19.871-25.221-42.418-2.839-84.399-19.653z"/><path class="b" d="M327.77 125.889s2.347 9.062-10.591 14.139c-14.085 5.514-36.194 2.948-40.016 8.735l-18.07-1.2s6.551-11.683 26.259-11.683c19.707-.055 33.901-1.748 42.418-9.991z"/><path class="c" d="M311.611 133.75c6.66-1.474 12.065-3.931 16.159-7.861 0 0 2.347 9.062-10.591 14.139a62.818 62.818 0 0 1-14.849 3.33c5.677-3.169 8.243-6.605 9.281-9.608z"/><path class="d" d="M283.059 149.582l-1.365 4.094 1.2 1.692s10.318-1.037 14.958.6c0 0-2.238-4.64-4.64-4.8-2.51-.33-8.843-.658-10.153-1.586z"/><path class="a" d="M240.204 155.096c4.094-4.75 14.849-14.085 31.609-9.281a10.645 10.645 0 0 1 13.593 4.64s-4.04 24.02-40.507 13.648l-8.516 6.715a28.576 28.576 0 0 1-14.849-10.317c2.457-.819 16.651-4.695 18.67-5.405z"/><path class="c" d="M221.534 160.5c.71-.218 2.347-.71 4.422-1.31 2.457 4.258 9.226 6.606 15.177 7.861l-4.749 3.767a29 29 0 0 1-14.85-10.318zm-39.361-29.752a95.454 95.454 0 0 0 19.326 5.514c3.275 3.057 8.844 6.715 18.015 10.809-16.76-1.802-34.12-4.258-37.341-16.323z"/><g transform="translate(0 45.966)"><path class="d" d="M78.558 58.362s11.519 2.129 14.358 6.66c0 0 1.2-1.146-1.037-4.094-2.184-2.948-6.06-4.477-6.879-9.663z"/><path class="e" d="M70.751 63.327c8.3 17.306 22.437 12.556 27.3 18.343 6.278 7.534 19.653 59.4 19.653 59.4-14.849-8.516-31.445-36.358-31.991-37.013s-33.9-21.4-33.9-21.4 15.995-25.441 18.938-19.33z"/><path class="c" d="M117.646 141.065a137.622 137.622 0 0 0-6.333-23.092c-5.3-.819-13.047-2.893-25.658-13.921.546.71 17.142 28.5 31.991 37.013z"/><path class="e" d="M68.076 60.106c-15.559-11.3-8.3-24.293-13.157-30.135C48.587 22.437 0 0 0 0c5.732 16.159 30.135 37.45 30.681 38.105s14.958 37.177 14.958 37.177S73.59 64.091 68.076 60.106z"/><path class="c" d="M0 0a140.521 140.521 0 0 1 21.564 10.372c-.109 5.35.491 13.32 9.062 27.733C30.135 37.5 5.732 16.159 0 0z"/><path class="a" d="M19.981 78.121l19.708-1.638 9.827 10.755-7.371 18.945c-5.513-2.4-20.635-10.593-22.164-28.062z"/><path class="a" d="M25.604 77.684l14.085-1.146 9.827 10.755-4.2 10.809c-5.9-2.621-13.871-8.244-19.712-20.418z"/><path class="c" d="M19.981 78.121l5.623-.491c5.841 12.174 13.812 17.852 19.708 20.417l-3.166 8.08c-5.514-2.347-20.636-10.536-22.165-28.006z"/><ellipse class="a" cx="20.909" cy="13.32" rx="20.909" ry="13.32" transform="rotate(-39.836 120.272 -6.727)"/><path class="a" d="M69.332 78.667l17.087-23.966s1.419-5.514-4.695-8.735c-4.64-2.4-17.306 8.516-20.035 9.226a72.716 72.716 0 0 0-8.844 3.712l2.784 18.561z"/><path class="d" d="M46.076 84.181s-10.427 10.045-13.7 11.956.764-3.6.764-3.6 4.531-1.911 6.169-3.548c1.583-1.638 6.223-5.3 6.223-5.3s.653-.054.544.492z"/><path class="d" d="M39.47 90.077s-3.276 5.459-5.186 6.169-1.8-.437-2.784-.109 5.682-4.86 5.682-4.86zm2.839-10.591s-10.427 10.045-13.7 11.956.764-3.6.764-3.6 4.531-1.911 6.169-3.548c1.583-1.638 6.223-5.3 6.223-5.3s.653-.054.544.492z"/><path class="d" d="M35.703 85.382s-3.276 5.459-5.186 6.169-1.8-.437-2.784-.109 5.682-4.86 5.682-4.86z"/></g><path class="a" d="M171.637 72.225c5.568-1.911 11.846-4.094 12.01-4.149.273-.109 5.459 7.152 5.459 7.152l-9.171 8.025a11.715 11.715 0 0 1-8.298-11.028z"/><path class="a" d="M184.681 49.079c-2.07-1.911-26.2-11.792-26.2-11.792a55.038 55.038 0 0 0 17.852 23.693s6.551 10.482 13.375 13.593c0 0 13.866-4.968 11.082-6.606-10.809-6.441-14.14-17.087-16.109-18.888z"/><path class="c" d="M147.125 37.887l6.333 1.2-7.588-2.784a59.068 59.068 0 0 1-4.968-7.642l17.524 8.626c1.856 3 3.767 5.841 5.678 8.462 1.146 1.638 2.293 3.112 3.33 4.531 4.968 6.551 8.844 10.755 8.844 10.755a82.069 82.069 0 0 1-18.776-12.174 55.814 55.814 0 0 1-3.166-2.948l6.114.218-9.062-3.221c-1.642-1.802-3.061-3.44-4.263-5.023zm17.906 40.234a25.439 25.439 0 0 1-2.074-2.951s4.094-1.419 8.626-3a11.876 11.876 0 0 0 8.243 11.028l-3.385 2.948a13 13 0 0 1-2.784-1.037l.382-1.419-2.347.328a22.1 22.1 0 0 1-3-2.129l2.675-2.347-3.767 1.419c-.6-.6-1.256-1.256-1.856-1.965l1.583-1.365z"/><path class="b" d="M203.737 70.314l-12.392-3.439c-2.511-7.042.6-19.053.6-19.053l11.028-6.878z"/><path class="b" d="M202.863 38.324l.055 2.62-11.028 6.933a173.553 173.553 0 0 1 4.749-29.261z"/><path class="c" d="M187.687 20.8c.055-3.112.273-5.951.546-8.462l3.712 4.094-2.839-9.717A50.641 50.641 0 0 1 190.799 0l5.841 18.616a174.934 174.934 0 0 0-2.184 9.881q-.573 2.948-.983 5.568c-1.256 8.08-1.638 13.812-1.638 13.812a82.281 82.281 0 0 1-3.6-15.668l2.238-.055-2.511-2.184c-.109-1.365-.218-2.73-.328-4.04-.055-1.092-.055-2.129-.109-3.166l3.276 1.365z"/><path class="d" d="M215.911 71.897s7.588-2.457 10.755-.71c0 0 .328-1.037-1.911-2.129-2.293-1.037-5.077-.71-7.261-3.548z"/><path class="a" d="M189.762 62.339c-8.844 1.692-7.7 16.814-7.7 16.814 15.941 8.789 28.988-5.35 27.9-11.028-1.038-5.563-11.357-7.474-20.2-5.786z"/><path class="a" d="M199.372 79.104s13.32-4.531 17.469-6.769c1.092-.6 2.566-4.913-.273-8.68-2.566-3.385-12.119-.6-13.976-1.092a47.329 47.329 0 0 0-6.5-.71l-4.42 11.956z"/></svg>