<svg xmlns="http://www.w3.org/2000/svg" viewBox="0 0 325.16 184.04"><title>seagulls</title><path d="M269.92 138.68a72 72 0 0 1 12.72-2.84c4.1-.49 7.81-.6 10.32-.65a3.73 3.73 0 0 0 .82-.06c4-.1 10.59 0 17-1.36a58.07 58.07 0 0 1-9.23 3.33c-3.6 1-6.82 2-8.9 2.67l-.49.17c-5.19.76-13.59 2.24-20.42 6.17a33.77 33.77 0 0 0-6.06-2.13 42.25 42.25 0 0 0-5.24-1.31 86.72 86.72 0 0 1 9.48-3.99zm-89.75-9.93c5.84 21.94 58.3 12.12 69.44 24.24.82-.55 13.93-4.48 15-4.59-19.91-25.22-42.46-2.84-84.44-19.65z" fill="#fff"/><path d="M324.77 123.89s3.35 9.06-9.59 14.14c-14.09 5.51-36.2 2.95-40 8.73l-18.07-1.2s6.55-11.68 26.26-11.68 32.88-1.75 41.4-9.99z" fill="#ebebeb"/><path d="M309.61 131.75a29.43 29.43 0 0 0 15.16-7.86s3.35 9.06-9.59 14.14a63 63 0 0 1-14.85 3.33c5.67-3.17 8.24-6.61 9.28-9.61z" fill="#d7dbdb"/><path d="M281.06 147.58l-1.37 4.1 1.2 1.69s10.32-1 15 .6c0 0-2.24-4.64-4.64-4.8-2.55-.33-8.88-.66-10.19-1.59z" fill="#ff4a00"/><path d="M238.2 153.1c4.1-4.75 14.85-14.09 31.61-9.28a10.64 10.64 0 0 1 13.6 4.64s-4 24-40.51 13.64l-8.52 6.72a28.6 28.6 0 0 1-14.85-10.32c2.47-.82 16.65-4.69 18.67-5.4z" fill="#fff"/><path d="M219.53 158.5c.71-.22 2.35-.71 4.43-1.31 2.45 4.26 9.22 6.61 15.17 7.86l-4.75 3.77a29.07 29.07 0 0 1-14.85-10.32zm-39.36-29.75a95.45 95.45 0 0 0 19.33 5.51c3.27 3.06 8.84 6.72 18 10.81-16.75-1.8-34.11-4.26-37.33-16.32z" fill="#d7dbdb"/><path d="M76.56 102.33s11.52 2.13 14.36 6.66c0 0 1.2-1.15-1-4.1s-6.06-4.47-6.88-9.66z" fill="#ff4a00"/><path d="M68.75 107.29c8.3 17.31 22.44 12.56 27.3 18.35 6.28 7.53 19.65 58.4 19.65 58.4-14.84-8.52-31.44-35.36-32-36s-33.9-21.4-33.9-21.4 16.01-25.46 18.95-19.35z" fill="#e6eced"/><path d="M115.65 184a126.91 126.91 0 0 0-6.34-22.09c-5.3-.82-13-2.89-25.65-13.92.54.74 17.14 27.53 31.99 36.01z" fill="#d7dbdb"/><path d="M66.08 104.07c-15.56-11.3-8.3-24.29-13.16-30.13C46.59 66.4 0 44 0 44c5.73 16.15 28.14 37.45 28.68 38.1s15 37.18 15 37.18 27.91-11.22 22.4-15.21z" fill="#e6eced"/><path d="M0 44c7.47 2.83 12.68 6.3 19.56 10.37-.11 5.35.49 13.32 9.07 27.73C28.14 81.47 5.73 60.13 0 44z" fill="#d7dbdb"/><path d="M18 122.09l19.71-1.64 9.83 10.75-7.37 19c-5.54-2.45-20.66-10.64-22.17-28.11z" fill="#fff"/><path d="M23.6 121.65l14.09-1.15 9.83 10.76-4.2 10.81c-5.9-2.62-13.87-8.25-19.72-20.42z" fill="#fff"/><path d="M18 122.09l5.62-.49c5.85 12.17 13.82 17.85 19.71 20.41l-3.16 8.08c-5.54-2.34-20.66-10.53-22.17-28z" fill="#d7dbdb"/><ellipse cx="56.82" cy="118.28" rx="20.91" ry="13.32" transform="rotate(-39.84 53.046 120.028)" fill="#fff"/><path d="M67.33 122.63l17.09-24s1.42-5.52-4.7-8.74c-4.64-2.4-17.3 8.52-20 9.23a72.1 72.1 0 0 0-8.84 3.71l2.78 18.56z" fill="#fff"/><path d="M44.08 128.15s-10.43 10-13.7 11.95.76-3.6.76-3.6 4.53-1.91 6.17-3.55 6.22-5.3 6.22-5.3.65-.05.55.5z" fill="#ff4a00"/><path d="M37.47 134s-3.28 5.46-5.19 6.17-1.8-.43-2.78-.11 5.68-4.86 5.68-4.86zm2.84-10.55s-10.43 10-13.7 12 .76-3.6.76-3.6 4.53-1.91 6.17-3.55 6.23-5.3 6.23-5.3.65-.09.54.45z" fill="#ff4a00"/><path d="M33.7 129.35s-3.27 5.46-5.18 6.17-1.8-.44-2.79-.11 5.69-4.86 5.69-4.86z" fill="#ff4a00"/><path d="M169.64 70.23l12-4.15c.27-.11 5.46 7.15 5.46 7.15l-9.17 8a11.7 11.7 0 0 1-8.29-11z" fill="#fff"/><path d="M182.68 47.08c-2.07-1.91-26.2-11.79-26.2-11.79A55.07 55.07 0 0 0 174.33 59s6.55 10.48 13.38 13.59c0 0 13.86-5 11.08-6.6-10.79-6.46-14.14-17.11-16.11-18.91z" fill="#fff"/><path d="M145.12 35.89l6.34 1.2-7.59-2.79a59.17 59.17 0 0 1-5-7.64l17.53 8.63c1.85 3 3.76 5.84 5.67 8.46 1.15 1.64 2.3 3.11 3.33 4.53 5 6.55 8.85 10.75 8.85 10.75a81.93 81.93 0 0 1-18.75-12.17c-1.14-1-2.18-2-3.16-3l6.11.22-9.06-3.22c-1.64-1.75-3.06-3.39-4.27-4.97zM163 76.12a25.2 25.2 0 0 1-2.07-3l8.62-3a11.88 11.88 0 0 0 8.25 11l-3.39 3a13.11 13.11 0 0 1-2.78-1l.38-1.42-2.35.33a22.61 22.61 0 0 1-3-2.13l2.68-2.35L165.6 79c-.6-.6-1.26-1.25-1.86-2l1.59-1.37z" fill="#d7dbdb"/><path d="M201.74 68.31l-12.4-3.43c-2.51-7 .6-19.06.6-19.06l11-6.88z" fill="#ebebeb"/><path d="M200.86 36.32l.06 2.62-11 6.94a173.46 173.46 0 0 1 4.75-29.26z" fill="#ebebeb"/><path d="M185.69 18.8c.05-3.11.27-6 .54-8.46l3.71 4.09-2.83-9.72c.41-2.27 1-2.51 1.69-4.71l5.84 16.62c-.87 3.43-1.58 6.76-2.18 9.88-.39 2-.71 3.82-1 5.56-1.25 8.08-1.63 13.82-1.63 13.82a82.63 82.63 0 0 1-3.61-15.67l2.24-.06L186 28c-.11-1.37-.22-2.73-.33-4 0-1.09 0-2.13-.1-3.17l3.27 1.37z" fill="#d7dbdb"/><path d="M213.91 69.9s7.59-2.46 10.76-.71c0 0 .32-1-1.92-2.13s-5.07-.71-7.26-3.55z" fill="#ff4a00"/><path d="M187.76 60.34c-8.84 1.69-7.7 16.81-7.7 16.81 15.94 8.79 29-5.35 27.9-11s-11.36-7.5-20.2-5.81z" fill="#fff"/><path d="M197.37 77.1s13.32-4.53 17.47-6.77c1.09-.59 2.57-4.91-.27-8.68-2.57-3.38-12.12-.59-14-1.09a48.94 48.94 0 0 0-6.5-.71l-4.42 12z" fill="#fff"/></svg>