<svg xmlns="http://www.w3.org/2000/svg" viewBox="0 0 460 285.697"><defs><style>.a{opacity:.1}.b{fill:#fff}.c{fill:#a9eed7}.d{fill:#78ceff}.e{fill:#0078bf}.f{fill:#ffdc40}.g{fill:#ffab3b}.h{fill:#fa6142}.i{fill:#ffc170}.j{fill:#59335b}.k{fill:#4c2538}.l{fill:#e85f5e}.m{fill:#ee8786}.n{fill:#e33836}.o{fill:#ef7b6b}</style></defs><g transform="translate(154.075 86.792)"><ellipse class="a" cx="143.911" cy="13.8" rx="143.911" ry="13.8" transform="translate(0 126.849)"/><path class="b" d="M249.863 139.178c45.648-1.711 73.269-41.859 44-64.531-13.505-10.511-24.627-33.488-42.1-43.632-30.31-17.66-54.631 3.117-63.8-6.844S174.58 4.983 161.014 7.794c-21.2 4.461-34.649 27.682-43.632 16.377C103.51 6.633 104.916-11.7 80.717-12.189c-24.2-.428-31.1 25.849-48.4 28.049s-51.087 1.711-55.487 18.7c-6.539 25.055 24.932 23.038 12.833 56.709s18.149 35.626 18.149 35.626l29.638 12.65s80.175-1.222 87.08 0 82.5 4.033 82.5 4.033l40.943-4.033z"/><path class="c" d="M87.924 140.705c-19.939-7.041-49.172 12.9-47.989-7.435s-2.647-65.844 24.783-75.307c27.43-9.406 23.882 17.461 37.907 2.084s12.786-27.6 27.261-18.813c14.532 8.787.394 58.015 27.937 49.96s36.668-34.865 61.9-34.865c25.177 0 34.865 8.843 44.328 25.4s11.434 38.189 5.745 39.54c-5.633 1.352-31.092 17.573-36.33 19.376s-61.676 4.9-64.549 4.675c-2.926-.278-80.993-4.615-80.993-4.615z"/><path class="d" d="M62.294 144.141c-1.971-.394-48.665 6.928-54.354-10.814s18.925-43.652 30.078-36.33c0 0-8.392-32.556 27.261-38.076s17.236 18.024 17.236 18.024 17.911-19.827 30.81 5.8-20.9 40.442-20.9 40.442 23.995 4.957 11.547 16.109c-12.556 11.097-41.678 4.845-41.678 4.845z"/><path class="d" d="M99.47 98.068c-1.014.056-22.417.9-33.176 11.828a142.814 142.814 0 0 1 8.787-27.994 1.184 1.184 0 1 0-2.14-1.014c-.113.169-6.421 13.631-9.857 33.176a1.241 1.241 0 0 0-.056.451c-.451 2.478-.789 5.069-1.127 7.717-9.632-12.955-25.741-15.433-26.417-15.546a1.195 1.195 0 1 0-.338 2.366c.169 0 17.63 2.76 26.417 16.785a138.551 138.551 0 0 0-.451 18.249c.62-.056 1.014-.056 1.183-.056a10.182 10.182 0 0 0 1.126.225c0-.113.056-.169 0-.282a133.242 133.242 0 0 1 1.915-29.176c8.337-13.463 33.91-14.479 34.19-14.479a1.125 1.125 0 0 0 1.127-1.239 1.171 1.171 0 0 0-1.183-1.011z"/><path class="e" d="M157.035 142.339c-7.548.676-18.925 4.45-16.222 11.6 2.647 7.153 31.486 5.52 32.894-3.38 1.409-8.948-10.758-8.783-16.672-8.22zm-24.445 13.352c4.45.113 9.012 1.69 9.125 3.943.113 4.844-18.249 2.478-17.686-1.464.281-1.918 5.125-2.538 8.561-2.479z"/><path class="f" d="M233.807 103.925a5.323 5.323 0 0 0 .169-.507c2.028-6.59 8.561-38.808 28.557-32.331 20.615 6.646-1.352 39.766-1.352 39.766s16.053-10.814 21.347 1.126-10.814 22.079-10.814 22.079 13.293-2.535 11.885 4.393-31.035 2.985-31.035 2.985-7.21-16.053-7.21-16.729-16.391-10.42-16.278-10.7c.113-.225 4.788-10.477 4.788-10.477z"/><path class="g" d="M242.931 119.471a.757.757 0 0 1-.732-.789c0-.169 3.323-21.347 12.391-35.034a.775.775 0 0 1 1.3.845c-8.843 13.405-12.11 34.077-12.11 34.246a.89.89 0 0 1-.849.732z"/><path class="g" d="M247.211 102.123a.612.612 0 0 1-.507-.225.732.732 0 0 1 0-1.07c3.549-3.661 14.588-8 15.1-8.167a.785.785 0 0 1 .563 1.464c-.113.056-11.209 4.393-14.532 7.829a2.539 2.539 0 0 1-.624.169z"/><path class="h" d="M222.263 145.719c1.3-.282 31.767 4.506 35.485-7.041s-12.335-28.444-19.6-23.657c0 0 5.464-21.235-17.742-24.839-23.262-3.6-11.209 11.716-11.209 11.716s-11.659-12.9-20.108 3.774c-8.392 16.672 13.631 26.36 13.631 26.36s-15.6 3.211-7.491 10.477c8.049 7.322 27.034 3.21 27.034 3.21z"/><path class="i" d="M223.048 145.719a95.225 95.225 0 0 0-7.773-41.23.756.756 0 1 0-1.352.676 93.406 93.406 0 0 1 7.6 40.5v.169c.451-.113.732-.169.732-.169a7.758 7.758 0 0 0 .793.054z"/><path class="i" d="M221.922 134.397a1.044 1.044 0 0 1-.394-.113.865.865 0 0 1-.282-1.07c6.083-9.97 17.911-11.828 18.418-11.885a.769.769 0 0 1 .225 1.521c-.113 0-11.659 1.8-17.348 11.152a.568.568 0 0 1-.619.395zm-.958-7.21a.657.657 0 0 1-.62-.394c-5.351-8.9-22.192-9.575-22.361-9.575a.761.761 0 1 1 .056-1.521c.732 0 17.855.676 23.657 10.307a.767.767 0 0 1-.282 1.07 1.326 1.326 0 0 1-.45.113z"/></g><g transform="translate(0 -.282)"><ellipse class="a" cx="87.135" cy="15.94" rx="87.135" ry="15.94" transform="translate(22.949 234.482)"/><path class="j" d="M36.355 196.462c-.282.563-.563 1.07-.845 1.633-.507 1.07-1.07 2.084-1.577 3.154a234.217 234.217 0 0 0-1.859 3.774c0-.62 0-1.3-.056-1.915-.056-1.127-.113-2.253-.113-3.436a13.727 13.727 0 0 1 .056-1.521 5.782 5.782 0 0 1-.789.225 20.424 20.424 0 0 1-2.535.62c-.225.056-.394.056-.62.113a22.925 22.925 0 0 1-2.309.225c.056.845.169 1.69.225 2.535.282 2.478.451 5.013.563 7.491.056 1.07.056 2.084.056 3.154-.225-.451-.394-.9-.62-1.408-.507-1.183-1.07-2.309-1.633-3.492-1.07-2.253-2.14-4.45-3.267-6.7-.225-.507-.507-1.014-.732-1.464a3.209 3.209 0 0 1-.732-.056h-.394a30.885 30.885 0 0 1-3.209-.287c.282.507.507 1.07.789 1.577 1.127 2.309 2.253 4.562 3.323 6.872a91.382 91.382 0 0 1 1.577 3.38c.507 1.07.958 2.14 1.408 3.154.225.507.507 1.014.789 1.521a9.8 9.8 0 0 0 .62 1.014c.056.113.169.225.225.338l.169.169a3.937 3.937 0 0 0 .958.732 1.9 1.9 0 0 0 .676.225h.113c.056 2.084.056 4.224.113 6.308.056 2.478.338 4.9.507 7.379.113 1.127.169 2.2.225 3.323-.056 1.69-.113 3.379-.056 5.069 0 .282.056.62.056.9 0 .169.056.394.056.563 0 .113.056.225.056.338a.426.426 0 0 1-.056.225 2.283 2.283 0 0 0 0 .62 1.778 1.778 0 0 0 .732 1.239c.113.056.282.169.394.225a2.86 2.86 0 0 0 .958.169 3 3 0 0 0 1.577-.789l.507-.169c.113-.056.282-.056.394-.113a1.874 1.874 0 0 0 .563-.338 3.191 3.191 0 0 0 .676-.845 3.3 3.3 0 0 0 .225-1.633v-.845c-.056-1.127-.056-2.309-.169-3.436-.282-2.422-.507-4.788-.62-7.21-.056-1.183-.056-2.366-.113-3.6a95.797 95.797 0 0 0-.225-4c-.056-1.183-.169-2.366-.282-3.548-.113-1.3-.169-2.647-.225-3.943a2.112 2.112 0 0 0-.056-.62v-.394a74.027 74.027 0 0 0 1.633-2.873c.62-1.183 1.239-2.309 1.8-3.492l3.211-6.421c.9-1.746 1.8-3.492 2.76-5.238l1.69-2.535c-.62.451-1.239.789-1.746 1.127a21.131 21.131 0 0 1-4.842 2.93z"/><path class="f" d="M53.421 78.799c-8.111-4.844-14.532-4.168-23.262-1.408a44.081 44.081 0 0 0-15.828 9.07c-6.815 6.308-10.195 14.87-2.478 23.544l.056.056.056.056a17.913 17.913 0 0 0-3.774 3.492 32.192 32.192 0 0 0-3.042 4.619 46.9 46.9 0 0 0-2.028 4.562l-.277.671c-.169.394-.282.789-.394 1.126v.056a2.746 2.746 0 0 1-.225.62 17.571 17.571 0 0 0-.563 1.8l-.338 1.126-.338 1.127a40.74 40.74 0 0 0-.338 1.633l-.056.169c-.169.845-.282 1.746-.394 2.76a18.193 18.193 0 0 0-.169 2.591v.169c0 .676-.056 1.408 0 2.14l.056 1.07.056 1.3a29.765 29.765 0 0 0 1.69 8.9 20.122 20.122 0 0 0 2.7 4.788 37.864 37.864 0 0 0 3.886 4.225 16.8 16.8 0 0 0 1.971 1.633c.394.282.789.563 1.239.845q-.929.76-1.859 1.69a48.89 48.89 0 0 0-3.717 4 18.7 18.7 0 0 0-2.591 4.732 25.017 25.017 0 0 0-.845 2.478 50.081 50.081 0 0 0-.845 2.929 18.911 18.911 0 0 0-.451 5.52 18.487 18.487 0 0 0 1.239 5.52 18.107 18.107 0 0 0 2.816 4.788 20.989 20.989 0 0 0 1.915 1.971 20.156 20.156 0 0 0 2.422 1.633c.789.451 1.464.845 2.14 1.183a14.3 14.3 0 0 0 2.76.958 10.5 10.5 0 0 0 1.521.282 31.965 31.965 0 0 0 3.267.282h.394a3.213 3.213 0 0 1 .732.056c1.521.056 3.154 0 4.957-.113h.338a22.942 22.942 0 0 0 2.309-.225 2.394 2.394 0 0 0 .62-.113 23.153 23.153 0 0 0 2.535-.62c.225-.056.507-.169.789-.225.62-.225 1.183-.394 1.69-.62h.113a36.082 36.082 0 0 0 2.647-1.07 33.846 33.846 0 0 0 5.013-2.816c.507-.338 1.127-.732 1.746-1.127a4.7 4.7 0 0 1 .676-.451l.056-.056 3.943-2.816c.676-.507 1.352-1.014 2.028-1.577l.056-.056.225-.225.394-.338a38.528 38.528 0 0 0 1.971-1.633 32.368 32.368 0 0 0 3.774-4 17.9 17.9 0 0 0 1.464-1.971 15.13 15.13 0 0 0 1.352-2.7 25.7 25.7 0 0 0 1.464-5.295 16.258 16.258 0 0 0 .338-2.535 12.733 12.733 0 0 0-.169-2.985 14.4 14.4 0 0 0-2.309-5.407 24.168 24.168 0 0 0-3.717-4.168c-.225-.169-.394-.338-.62-.507a30.523 30.523 0 0 0 7.829-7.379 34.27 34.27 0 0 0 2.816-4.675 27.124 27.124 0 0 0 1.859-5.126 22.181 22.181 0 0 0 .732-5.238 22.975 22.975 0 0 0-.507-5.745 20.64 20.64 0 0 0-2.028-5.295 30.49 30.49 0 0 0-1.521-2.422 27.26 27.26 0 0 0-1.8-2.14c-.676-.732-1.352-1.408-1.971-2.028-.563-.507-1.183-1.07-2.028-1.746a46.952 46.952 0 0 0-4.619-3.042c-.394-.225-.732-.394-1.127-.62 1.3-1.3 2.647-2.816 4.168-4.675 8.45-10.704 10.759-18.984-2.59-26.982z"/><path class="b" d="M230.282 33.965a39.459 39.459 0 0 0-1.8-5.52 33.6 33.6 0 0 0-4.337-7.21c-.394-.563-.789-1.07-1.183-1.633a32.96 32.96 0 0 0-1.183-1.464c-.338-.451-.676-.9-1.07-1.352-.451-.507-.9-1.07-1.352-1.577-.394-.451-.732-.9-1.183-1.352-.451-.507-.9-.958-1.352-1.408-.451-.507-.958-1.014-1.408-1.521a41.16 41.16 0 0 0-1.577-1.521c-.732-.732-1.521-1.352-2.309-2.028a28.25 28.25 0 0 0-4.337-2.985c-.845-.451-1.69-.845-2.535-1.239s-1.69-.789-2.535-1.127a26.364 26.364 0 0 0-5.465-1.577 14.426 14.426 0 0 0-2.2-.169h-.338c-.958 0-1.915.056-2.816.113a25.913 25.913 0 0 0-2.929.338c-.958.169-1.915.451-2.816.676-1.8.451-3.6.9-5.351 1.464a43.057 43.057 0 0 0-5.295 2.084 38.963 38.963 0 0 0-4.45 2.7 28.724 28.724 0 0 0-4.337 3.492c-.563.563-1.126 1.239-1.633 1.8l-1.855 2.033c-1.239 1.408-2.478 2.816-3.661 4.281a33.484 33.484 0 0 0-2.985 4.393c-.451.845-.845 1.69-1.239 2.535s-.789 1.69-1.127 2.535a27.755 27.755 0 0 0-1.352 5.576 34.767 34.767 0 0 0-.451 3.492 14.787 14.787 0 0 0-2.873-1.352 20.669 20.669 0 0 0-5.576-.958c-.62-.056-1.239-.056-1.8-.056a22 22 0 0 0-3.83.338 14.32 14.32 0 0 0-2.647.789c-.845.338-1.633.732-2.422 1.127a53.213 53.213 0 0 0-4.844 2.985c-1.464 1.014-2.873 2.14-4.224 3.267l-1.859 1.69a24.535 24.535 0 0 0-1.971 2.253 30.788 30.788 0 0 0-1.633 2.14c-1.014 1.408-2.028 2.76-2.929 4.224-.958 1.521-1.859 3.042-2.7 4.675a32.359 32.359 0 0 0-2.309 5.126c-.62 1.69-1.127 3.436-1.633 5.182a47.456 47.456 0 0 0-1.126 5.633c-.282 1.8-.451 3.661-.563 5.52-.056 1.859 0 3.717.113 5.576.113 1.633.282 3.323.394 4.957l.169 1.859c.056.394.113.789.169 1.239l.338 2.7c.056.451.113.9.169 1.3.225 1.183.451 2.422.732 3.6.169.845.394 1.633.563 2.478a31.189 31.189 0 0 0 .958 3.267 24.485 24.485 0 0 0 2.028 4.45c.394.62.789 1.3 1.239 1.915.338.563.789 1.127 1.126 1.69.451.676.958 1.352 1.464 2.028.056.056.056.113.113.169a1.684 1.684 0 0 0 1.3.62 1.919 1.919 0 0 0 1.352-.507 1.684 1.684 0 0 0 .62-1.3v-.113a6.122 6.122 0 0 0 1.014.056c.451 0 .9-.056 1.3-.056.62-.056 1.3-.113 1.915-.225 1.183-.169 2.366-.282 3.6-.451s2.422-.338 3.661-.62a9.634 9.634 0 0 0 1.69-.507 31.059 31.059 0 0 0 2.084-.789c1.183-.507 2.309-1.07 3.492-1.69 1.126-.62 2.2-1.239 3.267-1.859l3.211-1.859c1.07-.62 2.14-1.183 3.211-1.8a26.953 26.953 0 0 0 5.97-4.731 47.62 47.62 0 0 0 2.76-3.042 67.54 67.54 0 0 0 2.478-3.154 47.878 47.878 0 0 0 3.774-6.308c.676-1.239 1.239-2.591 1.859-3.886.225-.507.451-1.014.62-1.464l.676-1.69c.225-.676.507-1.352.732-2.028l.169-.676a11.351 11.351 0 0 1 .394-1.3 3.6 3.6 0 0 0 .113-.394c.507.676.958 1.352 1.464 2.028.563.732 1.07 1.521 1.69 2.2a11.81 11.81 0 0 0 4.168 3.154 27.356 27.356 0 0 0 5.069 1.859 22.977 22.977 0 0 0 14.25-1.239c.563-.225 1.07-.394 1.577-.62a14.357 14.357 0 0 0 1.633-.732c.62-.338 1.3-.676 1.915-1.014a4.952 4.952 0 0 1 .563-.338 13.48 13.48 0 0 0 1.183-.732c.451-.282.9-.563 1.3-.845a20.379 20.379 0 0 0 1.8-1.239c.62-.451 1.3-.958 1.915-1.408.451-.338.845-.676 1.239-1.014a11.883 11.883 0 0 0 1.3-1.07c.957-.845 1.971-1.69 2.873-2.591.451-.451.958-.9 1.408-1.352l1.521-1.521 2.7-2.873c.958-1.014 1.8-2.084 2.7-3.154.789-.958 1.577-1.971 2.366-2.929.282-.394.563-.732.845-1.127.451-.62.9-1.3 1.408-1.915.845-1.183 1.577-2.422 2.309-3.661a38.881 38.881 0 0 0 2.422-5.126 30.059 30.059 0 0 0 1.464-5.464 25.408 25.408 0 0 0 .282-5.464 40.584 40.584 0 0 0-.801-5.68zm-112.65 78.911l.056-.056a.055.055 0 0 1-.056.056zm41.059-86.346c0-.056.056-.113.113-.169-.055 0-.113.056-.113.169z"/><path class="k" d="M113.52 118.677h-.282a9.548 9.548 0 0 0 1.239.225 9.1 9.1 0 0 0 1.239 0 11.863 11.863 0 0 0 1.408-.113c-.282 0-.563-.056-.845-.056-.957-.056-1.858-.056-2.759-.056z"/><path class="l" d="M174.07 202.883c-.169-2.366-.394-4.731-.394-7.1 0-1.127 0-2.2.056-3.323l-1.352.169c-1.3.113-2.535.225-3.83.338-2.535.169-5.069.394-7.6.563-1.8.169-3.548.338-5.351.563-1.971.225-3.886.451-5.858.62-1.521.113-2.985.225-4.506.451-1.633.169-3.267.394-4.9.563s-3.267.394-4.9.451c-1.464.113-2.929.169-4.393.282-1.859.169-3.774.394-5.633.563-3.1.338-6.252.789-9.35 1.239-1.633.225-3.267.451-4.9.62-.732.056-1.464.169-2.2.225a13.965 13.965 0 0 0-1.521.169 7.979 7.979 0 0 0-1.239.394h-.056a14.144 14.144 0 0 0-.225 1.521l-.169 2.366c-.113 1.521-.282 3.1-.451 4.619-.282 3.042-.338 6.139-.394 9.181 0 3.1-.056 6.2.056 9.294.113 3.042.113 6.027 0 9.068a26.523 26.523 0 0 1-.169 2.985c-.113.9-.169 1.8-.225 2.76s-.056 1.915-.056 2.873c0 .845.056 1.69 0 2.591a1.1 1.1 0 0 0 .056.451 1.458 1.458 0 0 0-.394.62 1.875 1.875 0 0 0-.056.789c1.521-.169 3.042-.394 4.619-.507 1.633-.169 3.267-.282 4.9-.507l3.886-.507c.958-.113 1.971-.282 2.929-.394 1.577-.169 3.211-.338 4.788-.507 1.464-.169 2.929-.394 4.45-.62 1.69-.282 3.436-.507 5.126-.732.9-.113 1.746-.225 2.647-.282.451-.056.9-.169 1.408-.225 4.337-.676 8.674-1.3 13.011-1.971 2.253-.338 4.45-.845 6.7-1.239 2.366-.394 4.675-.789 7.041-1.183 2.2-.394 4.393-.9 6.534-1.408a152.34 152.34 0 0 0 2.309-.507l.169-7.717c.113-4.562.169-9.181.169-13.743 0-2.309-.056-4.619-.113-6.928-.225-2.309-.45-4.618-.619-6.928z"/><path class="m" d="M170.691 180.579c-.62-2.084-1.183-4.112-1.859-6.139-1.464-4.393-2.816-8.787-4.506-13.067-.845-2.084-1.746-4.168-2.478-6.308-.676-2.028-1.577-4-2.253-6.027-.789-2.253-1.521-4.506-2.366-6.759-.394-1.014-.789-2.084-1.183-3.1-.394-1.07-.732-2.2-1.07-3.323s-.676-2.253-1.07-3.38c-.338-1.126-.732-2.2-1.127-3.323-.394-1.07-.676-2.2-.958-3.267a37.27 37.27 0 0 1-.338-1.239 31.842 31.842 0 0 1-3.323.225c-2.309.113-4.562.113-6.872.225-2.253.113-4.506.282-6.815.507-2.366.282-4.675.62-7.041.732-2.366.169-4.731.225-7.1.394-4.844.338-9.632.845-14.476 1.352-2.309.225-4.619.451-6.872.676-2.422.282-4.844.62-7.266.9a246.34 246.34 0 0 1-9.012 1.014c-.113.225-.225.394-.338.62a4.7 4.7 0 0 1-.451.676.2.2 0 0 1 .113.056 1.119 1.119 0 0 0 .62.056 2.394 2.394 0 0 1 .113.62c.169.789.451 1.577.676 2.366.451 1.521.958 3.042 1.408 4.562.394 1.408.789 2.873 1.239 4.281.507 1.69 1.014 3.323 1.633 4.957.394 1.127.845 2.2 1.3 3.323s.845 2.2 1.239 3.323c1.014 2.873 2.028 5.745 3.042 8.674 1.014 2.985 2.084 5.914 3.1 8.843.507 1.408 1.014 2.873 1.464 4.281s.9 2.873 1.352 4.281.9 2.873 1.408 4.281c.507 1.464 1.014 2.985 1.577 4.45.507 1.352 1.07 2.7 1.577 4 .225.62.394 1.3.62 1.915.056.225.169.451.225.676a.562.562 0 0 0-.225.282 1.586 1.586 0 0 0-.225 1.126 1.329 1.329 0 0 0 .62.9 1.349 1.349 0 0 0 1.126.225 10.515 10.515 0 0 1 1.239-.394 6.992 6.992 0 0 1 1.521-.169 29.488 29.488 0 0 0 2.2-.225c1.633-.169 3.267-.394 4.9-.62 3.1-.394 6.252-.845 9.35-1.239 1.859-.225 3.774-.394 5.633-.563 1.464-.113 2.929-.225 4.393-.282 1.633-.113 3.267-.282 4.9-.451s3.267-.394 4.9-.563c1.521-.169 2.985-.282 4.506-.451 1.971-.169 3.943-.394 5.858-.62 1.8-.225 3.548-.394 5.351-.563 2.535-.169 5.069-.394 7.6-.563 1.3-.113 2.535-.225 3.83-.338l1.352-.169c0-.507.056-1.07.056-1.577-.563-1.521-1.07-3.1-1.633-4.619-.34-1.631-.677-3.602-1.184-5.461zm-84.657-48.778a.207.207 0 0 0 .056.169c0-.056-.056-.112-.056-.169zm17.688 50.524a.055.055 0 0 0 .056.056.055.055 0 0 1-.056-.056v-.056a2.355 2.355 0 0 0 .225.563 2 2 0 0 1-.225-.507zm5.013 13.856zm63.76-6.928a.207.207 0 0 0-.056-.169.207.207 0 0 0 .054.169z"/><path class="n" d="M105.804 199.729c-.056-.113-.056-.169-.113-.282a1.284 1.284 0 0 0-.169-.62c0-.056-.056-.056-.056-.113a59.71 59.71 0 0 0-1.07-2.873 8.753 8.753 0 0 0-.451-1.3c-.507-1.352-1.07-2.7-1.577-4-.563-1.464-1.07-2.985-1.577-4.45-.507-1.408-.958-2.873-1.408-4.281s-.9-2.873-1.352-4.281c-.451-1.464-1.014-2.873-1.464-4.281-1.014-2.985-2.084-5.914-3.1-8.843-1.014-2.873-1.971-5.745-3.042-8.674-.394-1.127-.789-2.2-1.239-3.323s-.9-2.2-1.3-3.323c-.62-1.633-1.127-3.267-1.633-4.957-.394-1.408-.789-2.873-1.239-4.281-.451-1.521-.958-3.042-1.408-4.562-.225-.789-.507-1.577-.676-2.366-.056-.225-.056-1.859-.113-2.028-.225 0-.732 1.352-.789 1.3a20.374 20.374 0 0 1-1.239 1.8c-.451.563-.845 1.183-1.3 1.746-.845 1.464-1.746 2.873-2.478 4.393-.845 1.69-1.521 3.492-2.309 5.182-.845 1.8-1.8 3.548-2.76 5.238-1.127 2.028-2.253 4-3.492 5.914-1.3 2.028-2.7 4.055-4 6.083-1.183 1.859-2.366 3.717-3.492 5.633s-2.309 3.774-3.38 5.633c-2.309 3.886-4.675 7.717-7.041 11.6-.507.789-1.014 1.633-1.521 2.422-.507.9-1.014 1.8-1.521 2.76-.451.9-.958 1.8-1.464 2.647a29.324 29.324 0 0 0-1.577 2.929l-.169.338c0 .056-.056.169-.056.225v.113a.714.714 0 0 0-.056.338c-.225 1.408-.338 2.929-.451 4.619-.056 1.577-.056 3.211-.056 4.788v.113c0 1.971.056 4 .056 5.97 0 1.239.056 2.422.056 3.661 0 2.929.056 5.914.056 8.787v.563c0 2.591 0 5.238-.056 7.773v1.971c0 2.253 0 4.562.056 7.1v3.38c0 .507-.056 1.07-.056 1.577 0 .282-.056.563-.056.789a.714.714 0 0 1-.056.338v.282a1.611 1.611 0 0 0 1.577 1.633.714.714 0 0 0 .338-.056 1.132 1.132 0 0 0 .451.225c.9.225 1.69.394 2.422.563a15.5 15.5 0 0 0 2.478.338l3.042.169c.62.056 1.3.056 1.915.113.732.056 1.521.056 2.309.113h.282c.563 0 1.07-.056 1.633-.056l.507-.056c1.07-.056 2.084-.169 3.154-.282a11.856 11.856 0 0 1 1.408-.113c1.464-.113 2.929-.169 4.393-.225 1.8-.056 3.6-.169 5.295-.338 1.014-.113 2.084-.225 3.1-.394.507-.056 1.014-.169 1.521-.225 1.521-.169 3.1-.338 4.619-.507 1.014-.113 1.971-.225 2.929-.282 1.352-.113 2.76-.113 4.112-.169h.282c.958 0 1.915-.056 2.873-.113.563-.056 1.126-.056 1.69-.056 1.69-.056 3.211-.113 4.562-.113h.958c.451-.056.958-.113 1.408-.169.338-.056.732-.056 1.07-.113a1.267 1.267 0 0 1 .056-.789 1.458 1.458 0 0 1 .394-.62 1.24 1.24 0 0 1-.056-.451c.056-.845 0-1.69 0-2.591 0-.958 0-1.915.056-2.873.056-.9.169-1.859.225-2.76a25.79 25.79 0 0 0 .169-2.985c.056-3.042.113-6.027 0-9.068-.113-3.1-.113-6.2-.056-9.294a83.429 83.429 0 0 1 .394-9.181c.169-1.521.338-3.1.451-4.619l.169-2.366c0-.169.056-.282.056-.451a2.441 2.441 0 0 1 .056-.282c.056-.282.056-.507.113-.789-.044.065-.105.065-.217.065z"/><path class="j" d="M125.011 119.466v-.62h-.507c-1.915-.113-3.83 0-5.689 0-.845 0-1.69-.056-2.535-.113-.789-.056-1.577-.056-2.366-.056h-1.52v16.109a147.68 147.68 0 0 1 2.76 3.492c.958 1.3 1.915 2.647 2.873 4l3.042 4.055c.9 1.183 1.746 2.422 2.647 3.6.338.394.62.789.958 1.239v-2.535c0-1.408.169-2.76.282-4.168v-6.192c-.056-1.352-.056-2.76-.113-4.168v-3.322c0-.338.056-.676.056-1.014 0-.282.056-.507.056-.789v-.169c0-.225.056-.507.056-.732 0-.169.056-.394.056-.563v-.225c0-.282.056-.507.056-.789 0-.563.056-1.183.056-1.746l-.169-5.295z"/><path class="c" d="M82.708 253.069c-3.83 0-6.083-7.66-3.211-8.9s8.956 5.407 13.011 2.253c2.873-2.253 2.76-19.827 16.447-15.6 12.448 3.83 11.6 14.983 22.417 13.743 10.758-1.239 33.176-43.033 48.383-32.387 19.32 13.462 11.378 40.723.845 40.723-8.445-.113-94.059.168-97.892.168z"/></g><g transform="rotate(-3 4279.991 -4019.386)"><ellipse class="a" cx="9.857" cy="102.794" rx="9.857" ry="102.794" transform="rotate(-87.23 35.318 33.65)"/><path class="e" d="M5.93 44.656S4.804 22.633 10.211 19.31c5.407-3.267 33.626 1.352 33.626 1.352S58.031 3.089 65.466 1.004c7.435-2.028 51.312-.845 57.057 2.309s27.825 21.347 27.825 21.347 48.609.9 50.242 3.83c1.633 2.985-.732 18.418-.732 18.418l-10.026 1.07s-1.634-10.589-14.25-10.251-15.264 14.926-15.264 14.926L71.38 49.104s.451-18.137-18.249-18.925c-17.236-.676-16.165 15.433-16.165 15.433z"/><path class="o" d="M68.901 50.119c.169-5.126-2.422-10.251-6.139-13.687-3.436-3.211-8.336-4.844-12.9-3.323-4.844 1.633-8.054 6.308-9.35 11.04a18.977 18.977 0 0 0 .958 12.223 8.471 8.471 0 0 0 1.69 3.042 13.489 13.489 0 0 0 21.8.451c2.589-2.311 3.885-6.141 3.941-9.746zm-4.731 5.069a7.568 7.568 0 0 1-2.7 3.267 10.13 10.13 0 0 1-12.673-1.239c-3.042-3.042-3.943-7.773-3.436-11.885v-.113c1.915-4.619 5.858-7.942 11.209-6.59 5.576 1.408 9.406 8.843 8.223 14.588a20.159 20.159 0 0 1-.623 1.972zm123.747 1.24c.507-7.717-6.083-16-14.757-14.138-6.477 1.352-10.589 7.829-10.758 14.194a8.853 8.853 0 0 0 .62 4.562c.056.113.056.282.113.394a9.339 9.339 0 0 0 5.295 6.477 13.547 13.547 0 0 0 17.8-4.562 12.669 12.669 0 0 0 1.687-6.927zm-21.742 4a10.155 10.155 0 0 1-.563-2.253 13.736 13.736 0 0 1 1.69-5.8 9.915 9.915 0 0 1 .789-1.3 12.277 12.277 0 0 1 7.885-4.675 9.1 9.1 0 0 1 3.6.563 9.261 9.261 0 0 1 4.168 5.407c.62 4.393-1.69 10.026-4.788 12.166-3.6 2.535-8.336.845-11.265-1.971a7.5 7.5 0 0 1-1.516-2.138z"/><path class="e" d="M61.073 43.247a6.44 6.44 0 0 0-1.352-1.408c-1.971-2.084-4.731-3.1-7.66-1.69a6.5 6.5 0 0 0-1.633 1.126 13.208 13.208 0 0 0-1.521 1.127c-2.985 2.873-3.1 8.167-.732 11.434a8.429 8.429 0 0 0 11.885 1.746 6.852 6.852 0 0 0 2.14-2.816c1.802-2.534.506-7.266-1.127-9.519zm-6.2 10.927a5.539 5.539 0 0 1-2.76-.9 5.7 5.7 0 0 1-.788-1.126 8.725 8.725 0 0 1-.394-5.858 8.385 8.385 0 0 1 1.07-2.422 4.989 4.989 0 0 1 5.295.056 3.615 3.615 0 0 1 .732.563 8.56 8.56 0 0 1 1.577 2.985c.961 3.267-1.18 6.871-4.728 6.702zm124.482-4.336c-5.407-3.6-12.279 1.07-12.392 7.21a7.081 7.081 0 0 0 8.956 6.872h.056c6.478-.395 8.618-10.534 3.38-14.082zm-9.35 8c-.958-3.83 3.887-7.66 7.266-5.745 2.253 1.239 2.366 4 1.408 6.083a9.235 9.235 0 0 1-1.464 2.084 4.29 4.29 0 0 1-7.21-2.424z"/><path class="b" d="M102.528 38.854c-.394-4-.845-8.055-1.239-12.054-.845-7.6-1.633-15.377-3.83-22.7a.256.256 0 0 0-.507.056c.282 7.379 1.239 14.7 1.971 22.079.338 3.661.676 7.322 1.014 11.04.282 3.323-.113 7.942 1.577 10.871a.828.828 0 0 0 1.464-.113c.846-2.873-.112-6.363-.45-9.179zM93.403 15.31c.056-2.2.169-4.731-.563-6.815a6.9 6.9 0 0 0-1.577-2.535c-7.66-2.028-16.954-2.929-24.5-.225-6.252 2.253-10.139 9.294-13.349 15.1 6.984.056 14.081 1.3 21.122 1.464 4.337.056 8.618.338 12.955.451 1.633.056 3.211.113 4.844.056a72.621 72.621 0 0 0 1.068-7.496zm11.884-9.575a4.828 4.828 0 0 0-.394 2.028c.056 1.521.282 2.985.451 4.45.507 3.492.732 7.153 1.859 10.533a7.972 7.972 0 0 0 .451 1.014 23.039 23.039 0 0 0 5.633.789c4.168.282 8.336.451 12.5.62 4.619.169 9.237.056 13.856 0h.845a4.547 4.547 0 0 0 .789-.676 1.251 1.251 0 0 0 .282-.62c-10.08-8.619-21.965-20.617-36.272-18.138zm39.541 24.445c-.394-.789-1.464-1.521-2.309-1.127a.821.821 0 0 0-.338.507 4.177 4.177 0 0 0 .451 1.577c.056.225.056.451.113.676a3.076 3.076 0 0 0 .338 1.014.9.9 0 0 0 1.464.225c.957-.675.788-1.913.281-2.872zm7.717-2.704c-2.253 3.211-3.774 7.041-5.52 10.533-1.746 3.548-4.112 6.872-5.633 10.533-.225.507.451.789.789.507 2.985-2.535 4.731-6.646 6.365-10.082a88.746 88.746 0 0 0 4.675-11.209.373.373 0 0 0-.676-.282zm-58.86-.619a.859.859 0 0 0-1.464.507 6.217 6.217 0 0 0 .451 3.211c.338.9 1.521.563 1.8-.169a3.474 3.474 0 0 0-.787-3.549z"/><path class="o" d="M201.322 31.87c0-1.915-.563-4.168-2.929-4.112a1.039 1.039 0 0 0-.732.225.679.679 0 0 0-.676.225 6.52 6.52 0 0 0-.789 3.267 28.638 28.638 0 0 0-.225 3.1c0 2.2 1.746 2.816 3.6 2.478 2.033-.339 1.807-3.775 1.751-5.183z"/><path class="b" d="M67.831 34.404c-3.774-4-9.35-5.97-14.7-6.139-5.126-.169-10.533 1.69-13.518 6.027a21.545 21.545 0 0 0-2.591 6.083 25.305 25.305 0 0 0-1.464 7.041c0 .563.845.845 1.126.394a15.639 15.639 0 0 0 1.69-4.788 34.735 34.735 0 0 1 2.084-6.027c2.14-4.45 6.421-6.308 11.152-6.646a19.365 19.365 0 0 1 13.631 4.45 17.251 17.251 0 0 1 5.689 14.588 1.034 1.034 0 0 0 2.028.394c1.351-5.238-1.578-11.603-5.127-15.377zm117.945 5.577a19.867 19.867 0 0 0-11.885-2.7 17.016 17.016 0 0 0-10.7 5.238c-2.76 2.816-4.9 7.491-3.943 11.434a.649.649 0 0 0 1.239-.113c.62-3.717 1.239-6.759 3.83-9.688a14.7 14.7 0 0 1 9.688-4.9 17.861 17.861 0 0 1 9.913 2.084 12.105 12.105 0 0 1 4.112 3.436c1.014 1.352 1.127 2.929 1.971 4.337.338.62 1.239.282 1.408-.282 1.07-3.551-2.982-7.212-5.633-8.846zm14.532-11.434c-.282-.225-.789-.056-.732.338a15.157 15.157 0 0 1 .394 4.224c-.113 1.014-.676 2.14.225 2.929a.541.541 0 0 0 .507.113c1.239-.507 1.014-2.253 1.07-3.38.113-1.464-.169-3.267-1.464-4.224zm8.506-1.296c-1.859-.394-4.055.9-5.464 2.028a.322.322 0 0 0 .282.563 15.647 15.647 0 0 0 2.7-1.014 20.857 20.857 0 0 0 2.591-1.07c.226-.113.116-.451-.109-.507zm1.854 3.323c-1.464-.62-3.492 0-4.957.169-.394.056-.451.62-.056.676a12.712 12.712 0 0 0 2.535.056 9.078 9.078 0 0 0 2.478-.338.342.342 0 0 0 0-.563zm-2.812 4.563c-.676-.451-1.859-1.239-2.7-.9-.169.056-.282.282-.169.394a12.374 12.374 0 0 0 2.14 1.577c.789.563 1.577 1.465 2.535 1.633a.446.446 0 0 0 .507-.563c-.341-.958-1.468-1.634-2.313-2.141zm-2.929 1.69c-.282-.282-.789.169-.507.451a16.9 16.9 0 0 0 2.14 2.816c.169.169.451 0 .451-.225a7.379 7.379 0 0 0-2.084-3.042z"/></g></svg>