<svg xmlns="http://www.w3.org/2000/svg" viewBox="0 0 80 88.052"><defs><style>.a{fill:#98c8e5}.b{fill:#ffdc40}.c{fill:#fff}.d{fill:#300833}.e{fill:#fa6142}</style></defs><g transform="translate(-.018 .04)"><path class="a" d="M45.942.232c22.329-2.641 39.776 13.926 32.333 49.38S48.022 95.95 22.893 82.344C5.286 72.821-4 52.893 1.684 26.162 7.286-.568 23.693 2.953 45.942.232"/><path class="b" d="M60.348 53.93c-1.841-5.922-5.2-9.764-9.364-11.445a15.654 15.654 0 0 0 4.4-7.763 15.539 15.539 0 0 0 .48-6.483 4.421 4.421 0 0 0 1.441-5.6c-1.361-3.281-4.242-4.642-7.523-2.8a6.1 6.1 0 0 0-1.354 1.041 14.856 14.856 0 0 0-5.042-.24c-3.842.32-7.2.32-9.924.96a1.749 1.749 0 0 0-.24-.4 4.461 4.461 0 0 0-6-2.081c-3.281 1.361-4.642 4.242-2.8 7.523a4.862 4.862 0 0 0 2.4 2.241c-1.361 5.922.64 10.644 4.8 13.685a23.619 23.619 0 0 0-5.362 4.4c-7.523 8.083-6 15.286-.16 18.567-.96-3.521.48-7.363 3.6-8.323 6.8-2.081 9.124 3.281 8.4 8.8a4.562 4.562 0 0 1-1.281 2.641h9.044a15.3 15.3 0 0 1-1.12-1.681c-1.921-3.761-.48-8.723 3.041-9.764 6.483-2 8.884 2.8 8.483 8.083 3.761-2.714 5.922-5.275 4.081-11.361z"/><path class="c" d="M53.065 21.44a2.236 2.236 0 0 1 .56 4.4 18.456 18.456 0 0 0-2.721-2.879 2.291 2.291 0 0 1 2.161-1.521zm-26.171 2.321a2.249 2.249 0 0 1 4.4-.641 11.653 11.653 0 0 0-2.721 2.881 2.4 2.4 0 0 1-1.679-2.24zm22.569 18.087c.16-2.881-3.281-5.282-7.683-5.442a9.679 9.679 0 0 0-5.682 1.361 4.952 4.952 0 0 0-3.04 3.921c-.16 2.961 3.441 5.522 7.923 5.682 4.322.16 8-1.921 8.323-4.722a2.843 2.843 0 0 0 .159-.8z"/><circle class="d" cx="1.12" cy="1.12" r="1.12" transform="translate(46.182 32.805)"/><circle class="d" cx="1.12" cy="1.12" r="1.12" transform="translate(34.097 32.805)"/><path class="d" d="M44.261 39.928c0-1.361-1.361-1.521-3.041-1.521s-3.041.16-3.041 1.521a3.041 3.041 0 0 0 6.082 0z"/><path class="c" d="M47.942 57.055c-3.521 1.12-4.962 6-3.041 9.764 3.681 7.283 10.964 3.041 11.445-.96.719-5.523-1.602-10.89-8.404-8.804z"/><path class="e" d="M48.907 61.217c-1.361.64-1.6 2.641-.64 4a2.445 2.445 0 0 0 4.562-1.12c-.005-2.16-1.286-4.081-3.922-2.88z"/><path class="c" d="M29.855 57.055c-3.521 1.12-4.962 6-3.041 9.764 3.681 7.283 10.964 3.041 11.445-.96.719-5.523-1.602-10.89-8.404-8.804z"/><path class="e" d="M30.82 61.217c-1.361.64-1.6 2.641-.64 4a2.445 2.445 0 0 0 4.562-1.12c-.085-2.16-1.286-4.081-3.922-2.88z"/></g></svg>