<svg xmlns="http://www.w3.org/2000/svg" viewBox="0 0 254 282"><defs><style>.b{clip-path:url(#a)}.g{fill:#55deb1}</style><clipPath id="a"><path id="svg_1" d="M0 27.33h199.198v28.3H0z" transform="rotate(-7.886 0 27.33)"/></clipPath></defs><path id="canvas_background" fill="none" d="M-1-1h256v284H-1z"/><g id="svg_2"><g id="svg_3"><g id="svg_4" opacity=".1"><g id="svg_5" class="b"><g id="svg_6" class="b"><path id="svg_7" d="M209.768 272.513c.147 3.886-35.118 8.211-78.667 9.6s-121.85-2.859-122-6.818c-.147-3.886 78.008-5.939 121.557-7.332s78.96.66 79.107 4.546"/></g></g></g><path id="svg_8" fill="#a9eed7" d="M67.097 276.546a21.145 21.145 0 0 1-20.822-9.824c-3.08-4.766-6.305-10.7-4.765-11.8 2.419-1.833 5.572 5.059 14.59 9.384-3.446-8.8-10.411-28.666-9.458-29.986 1.246-1.76 14.077 15.543 17.522 23.168-1.54-8.651-.147-28.74 1.686-29.033 2.346-.44 6.892 23.974 6.452 32.405-.806-7.625 5.939-20.308 7.478-20.382 1.613-.073 1.906 16.569-3.08 22.8.954-3.153 11.95-9.091 13.93-6.232 2.347 3.666-9.09 17.376-23.533 19.5"/><path id="svg_9" fill="#2bd69e" d="M15.629 58.726v-.293c.073-.367.147-.806.22-1.173 2.2-8.871 14.956-16.5 33.432-21.115a34.223 34.223 0 0 1 21.042-22.362c.073 0 .073 0 .147-.073a24.437 24.437 0 0 1 2.126-.733h.073c.733-.22 1.466-.367 2.2-.513h.147a21.489 21.489 0 0 1 2.126-.367.661.661 0 0 0 .367-.073c.733-.073 1.393-.147 2.126-.22h.367c.733-.073 1.466-.073 2.273-.073a33.808 33.808 0 0 1 18.109 5.279A40.246 40.246 0 0 1 133.3 0a15.946 15.946 0 0 1 1.906.073 2.03 2.03 0 0 1 .66.073c.44 0 .806.073 1.246.073.22 0 .513.073.733.073.367.073.733.073 1.1.147.293.073.513.073.806.147.367.073.733.147 1.026.22s.513.073.806.147c.367.073.66.147 1.026.22a17.118 17.118 0 0 1 1.833.513c.22.073.367.073.587.147.367.147.733.22 1.1.367a5.051 5.051 0 0 0 .587.22c.367.147.806.293 1.173.44a1.042 1.042 0 0 0 .44.147c.44.147.806.367 1.246.513.073.073.147.073.22.147a40.22 40.22 0 0 1 8.21 68.183c-11.434 10.117-37.681 17.082-68.25 17.008-41.422-.147-74.267-10.411-74.2-28.813 0-.513.074-.88.074-1.32"/><path id="svg_10" fill="#163955" d="M30.146 92.671s3.812 4.839 16.789 8.725 19.355 13.2 30.573 10.337c7.845-2.053 19.429-4.912 25.734-6.452a3.891 3.891 0 0 0 2.126-1.393c.44-7.918-28.666-21.7-28.666-21.7l4.472-3.3s6.818 7.918 11.437 6.452-1.466-8.651-1.466-8.651l6.305 1.173a10.8 10.8 0 0 0 4.326 9.018c.587.367 1.246.806 1.906 1.246l.44.22.073.147c4.326 2.933 10.337 7.478 13.563 10.264.367.22.66.44 1.026.66 5.865 4.472 13.27 4.032 16.569 3.592 11.584-4.032 32.772-11.657 35.925-12.684l1.833 3.886a133.75 133.75 0 0 1-15.763 7.918c-6.818 2.639-11.877 4.326-12.61 7.771-1.906 8.8-5.792 22.361-6.818 39.517a894.269 894.269 0 0 0 11.73 117.451l-58.652-2.346s19.722-35.925 26.833-125c-.073-5.865-3.006-18.842-28.006-16.716-32.04 2.786-37.244-11.584-45.53-14.59s-18.62-14.228-18.62-14.228l4.472-1.317z"/><path id="svg_11" fill="#7fe6c4" d="M94.37 59.527c.073-.44.22-.806.293-1.173 0-.073.073-.147.073-.22 2.713-7.991 14.443-13.27 31.012-15.1h.073c.953-.073 1.833-.22 2.786-.293a.93.93 0 0 0 .44-.073l2.859-.22a34.229 34.229 0 0 1 53.814-9.091 40.134 40.134 0 0 1 35.559-10.41c.513.073.953.22 1.466.293a40.2 40.2 0 0 1 30.866 35.851v.22c0 .44.073.88.073 1.32v3.296a2.5 2.5 0 0 1-.073.733c0 .367-.073.733-.073 1.173 0 .22-.073.44-.073.733-.073.44-.073.806-.147 1.246 0 .22-.073.367-.073.587-.073.587-.22 1.246-.293 1.833a40.026 40.026 0 0 1-21.042 27.933c-13.2 7.771-40.25 9.6-70.236 3.739-40.177-7.918-70.383-26.833-67.3-42.376"/><path id="svg_12" d="M.087 90.397c.806-4.032 6.892-6.525 15.4-6.965a14.051 14.051 0 0 1 22.068-3.812 16.337 16.337 0 0 1 14.59-4.252 11.72 11.72 0 0 1 1.54.367 1.06 1.06 0 0 0 .513.147c.367.147.66.22.953.367.22.073.367.147.587.22a8.6 8.6 0 0 1 .806.367c.22.073.367.22.587.293.22.147.513.293.733.44s.367.22.587.367.44.367.66.513c.147.147.367.293.513.44.22.22.44.367.66.587l.44.44c.293.367.66.66.953 1.026a16.957 16.957 0 0 1 3.079 5.792 5.492 5.492 0 0 1 .293 1.173 1.248 1.248 0 0 1 .073.513c.073.44.147.806.22 1.246v.367c0 .367.073.733.073 1.173v.367a8.873 8.873 0 0 1-.073 1.393v.293a67.527 67.527 0 0 1-.22 1.466 16.648 16.648 0 0 1-8.8 11.584c-5.425 3.079-16.5 3.886-28.666 1.466-16.423-3.226-28.813-11-27.567-17.376" class="g"/><path id="svg_13" d="M113.579 263.496a24.467 24.467 0 1 1 46.189-12.977 18.867 18.867 0 0 1 7.332-1.32 19.76 19.76 0 0 1 7.77 1.76c6.893 3.153 4.473 13.49-3.152 13.417l-58.14-.88z" class="g"/><path id="svg_14" fill="#eddd80" d="M63.284 277.132s12.9-31.526 33.8-32.185c20.822-.66 25.66 19.942 43.183 17.669s27.86-12.977 39.59-8.138 18.18 18.474 18.18 18.474l-134.753 4.18z"/></g></g></svg>