<svg id="Layer_1" xmlns="http://www.w3.org/2000/svg" viewBox="0 0 1921 385.2"><style>.st0{fill:#fff}.st1{fill:#fa6142}</style><path class="st0" d="M54.5 27.8c15.6 10.1 29.5 21 43 31.8 10.2 8 20.7 16.3 32 24.2 11.8 8.4 24.2 15.9 37.1 22.6 15.1 7.8 30.9 14.2 47.2 19.3 9.2 2.9 18.9 5.6 29 7.9 10.5 2.4 21.7 4.6 33.4 6.4 12.1 1.9 24.1 3.4 35.5 4.3 10.8.9 21.5 1.3 31.8 1.3 13.1.1 26.1-.7 39.1-2.2 11.6-1.4 23-3.3 34.4-5.9 21.7-4.8 41.7-11.4 61.1-17.8h.1c19.4-6.4 39.4-13 61.3-17.9 11.4-2.6 22.9-4.5 34.5-5.9 13-1.5 26.1-2.2 39.2-2.2 10.3 0 21.1.4 32 1.3 11.4.9 23.5 2.4 35.8 4.3 11.6 1.8 22.8 4 33.2 6.4 10 2.3 19.7 4.9 28.8 7.8 16.2 5.1 31.9 11.5 47 19.2 12.8 6.6 25.2 14.1 37 22.5 11.2 7.8 21.7 16 31.8 24l.2.1c10.2 8 20.7 16.3 32 24.2 11.8 8.4 24.2 15.9 37.1 22.6 15.1 7.8 30.9 14.2 47.2 19.3 9.2 2.9 18.9 5.6 29 7.9 10.6 2.4 21.8 4.6 33.4 6.4 12.2 1.9 24.1 3.4 35.5 4.3 10.8.9 21.5 1.3 31.8 1.3 13.1 0 26.1-.7 39.1-2.2 11.6-1.4 23-3.3 34.4-5.9 21.8-4.8 41.8-11.4 61.2-17.8h.1c19.4-6.3 39.4-12.9 61.3-17.8 11.4-2.6 22.9-4.5 34.5-5.9 13-1.5 26.1-2.2 39.2-2.2 10.3 0 21.1.4 32 1.3 11.5.9 23.5 2.4 35.8 4.3 11.6 1.8 22.7 4 33.2 6.4 10 2.3 19.7 4.9 28.8 7.8 16.2 5.1 31.9 11.5 47 19.2 12.8 6.6 25.2 14.1 37 22.5 11.3 7.9 21.8 16.2 32 24.2s20.8 16.3 32 24.2c11.8 8.4 24.2 15.9 37.1 22.6 15.1 7.8 30.9 14.2 47.2 19.3 9.2 2.9 18.9 5.6 29 7.9 10.5 2.4 21.8 4.6 33.4 6.4 12.3 1.9 24.3 3.4 35.8 4.3 11 .8 21.7 1.3 32 1.3 13.1.1 26.1-.7 39.1-2.2 4.9-.6 9.9-1.3 14.8-2.1V0H0c10.1 3.8 19.9 8.2 29.4 13.2 8.5 4.4 16.7 9.2 25.1 14.6z"/></svg>