<svg xmlns="http://www.w3.org/2000/svg" viewBox="0 0 40.01 40.04"><title>wheelchair--black</title><path d="M39.11 25.22a27 27 0 0 0 .9-6.5c.2-7.7-4.2-13.5-11.4-16.5-12.61-5.3-24-1.1-27.7 12.6a22.67 22.67 0 0 0-.9 6.5c-.2 7.7 4.2 13.5 11.4 16.5 12.59 5.3 24 1.1 27.7-12.6z" fill="#260028"/><path d="M15.11 17.82L14 13.52a1 1 0 0 1 .73-1.27H15a1.2 1.2 0 0 1 1 .7l1.6 4.2m2.61.17a7.29 7.29 0 1 1-2.6-.3" fill="#fff"/><path d="M20.21 19.12a5.65 5.65 0 0 1 3.8 5.5 5.8 5.8 0 1 1-11.6 0 5.65 5.65 0 0 1 5.1-5.7" fill="#260028"/><path d="M18.91 22.62a2 2 0 0 1 1.4 1.9 2 2 0 0 1-4 0 2 2 0 0 1 1.8-2zm9.2-2.62a1.36 1.36 0 0 1 1.2 1.5l-.6 4.9h-2.2l.4-3.6h-1.4a7.38 7.38 0 0 0-1.7-3.1z" fill="#fff"/><path d="M30 27.92h.3v-1.7h-4.7a6 6 0 0 1-.6 1.7h1.6a2.4 2.4 0 0 1 3.4 0z" fill="#fff"/><path d="M30 27.92a2.39 2.39 0 1 0 .7 1.7 2.87 2.87 0 0 0-.7-1.7z" fill="#fff"/><path d="M19.91 13.72s-.1.1-.7.1a.94.94 0 0 1-1-.8.9.9 0 0 1 0-.4 1 1 0 0 0 .73 1.17 1.18 1.18 0 0 0 .27 0c.6.1.7-.1.7-.1a.1.1 0 0 0-.1-.1.1.1 0 0 1 .1.1zm1.4-3.9a.35.35 0 0 1 .1.2.35.35 0 0 0-.1-.2z" fill="none"/><path d="M18.11 12.12l.1.4zm2.1.6l-.2.2.2-.2.1-.1z" fill="#ffcaa0"/><path d="M21.11 9.92c-.2.2-.5.1-.8 0 0 .2-.1.3-.3.4s-.4.2-.4.3V11c0 .1-.1.3-.2.2s-.1-.3-.2-.4-.4-.2-.6 0 0 .4 0 .5a.64.64 0 0 1 0 .6c-.1.2-.4.3-.5.1l.1.4v.2a1 1 0 0 0 .73 1.17 1.18 1.18 0 0 0 .27 0c.6 0 .7-.1.7-.1a.1.1 0 0 0-.1-.1 1.09 1.09 0 0 1-.3-.7c0-.3.1-.7.5-.5.1 0 .1.1.2.1a.62.62 0 0 0 .4.1h.6v-1.1a.34.34 0 0 1 .3-.1c.2 0 0-.2 0-.2s-.2-.4-.2-.5V10c0-.1 0-.1-.1-.2h-.1c.1.02.1.12 0 .12z" fill="#fff"/><path d="M21.71 11.12s.2.2 0 .2c.1.1 0-.2 0-.2s-.2-.4-.2-.5c0 .1.1.5.2.5zm-.3-.8V10zm-.1 1.2a.34.34 0 0 1 .3-.1.34.34 0 0 0-.3.1zm0 .9v-.1c-.1 0-.1 0 0 .1zm-.1-.6v-.2c.1.1.1.1 0 .2z" fill="#ffcaa0"/><path d="M19.91 13.62a.45.45 0 0 1 0-.5c0-.1.1-.1.1-.2 0 .1-.1.1-.1.2a.45.45 0 0 0 0 .5z" fill="#e6b690"/><path d="M20.21 12.52c-.1 0-.1-.1-.2-.1-.4-.1-.5.2-.5.5a.9.9 0 0 0 .3.7.45.45 0 0 1 0-.5c0-.1.1-.1.1-.2l.2-.2.1-.1h.4c-.1 0-.3-.1-.4-.1z" fill="#fff"/><path d="M17.61 23c.1.5.1.8.2 1.2a.7.7 0 0 0 .1.4l.6.6c0-.2-.1-.3 0-.5s0-.4.2-.3a.22.22 0 0 1 .2.2c.1.2.1.3.2.1s-.4-.8-.6-1.6a2.47 2.47 0 0 1-.9-.1z" fill="#260028"/><path d="M18.51 22.82h-.2a2.7 2.7 0 0 1-.8-.1c-.1 0-.3-.1-.4-.1s.1.2.2.3.1.1.2.1a2.41 2.41 0 0 0 .8.1h.1zm3.3-14.7c0-.1-.1-.1-.2-.1a5 5 0 0 0-2.1-.2c-.2.1-.5.5-.7.4s-.4-.2-.6-.2-.2.1-.3.2-.6.5-.7.8.2.6.1.7-.2.1-.2.2v.2a13.92 13.92 0 0 1 .8 1.7c0 .1 0 .1.1.2a.34.34 0 0 0 .48-.08.64.64 0 0 0 0-.6c0-.2-.1-.4 0-.5a.37.37 0 0 1 .52-.08.3.3 0 0 1 .08.08c.1.1 0 .4.2.4a.22.22 0 0 0 .2-.2v-.4c.1-.2.3-.2.4-.3a1.68 1.68 0 0 0 .3-.4c.3 0 .6.1.8 0a.11.11 0 0 0 .1-.1c.1-.1.1-.3.2-.4a5.11 5.11 0 0 0 .3-1.1c.22-.12.22-.12.22-.22z" fill="#fff"/><path d="M22.81 18.62l-2.9-4.9h-.7c-.6 0-.5.1-.8-.2v-.2l-.3-.6v.6l-.3 1.2a2.77 2.77 0 0 0-.1.5c-.3 1-.8 3.3-.8 3.5 0 1.2.1 3 .1 4.2h.1c.1 0 .3.1.4.1a2.7 2.7 0 0 0 .8.1h.3a14.54 14.54 0 0 1 .2-5.5 7.14 7.14 0 0 1 4 1.2z" fill="#fff"/></svg>