<svg xmlns="http://www.w3.org/2000/svg" viewBox="0 0 125.009 124.94"><defs><style>.a{fill:#55deb1}.b{fill:#fff}.c{fill:#b3b3b3}.d{fill:#163955}.e{fill:none}.f{fill:#ffcaa0}.g{fill:#e6b690}.h{fill:#260028}.i{fill:#e33836}</style></defs><path class="a" d="M122.251 78.598a71.53 71.53 0 0 0 2.726-20.218c.795-24.082-12.948-42.026-35.666-51.567C50.01-9.543 14.458 3.519 2.759 46.341a71.53 71.53 0 0 0-2.73 20.218c-.8 24.08 12.949 42.027 35.666 51.568 39.304 16.356 74.856 3.293 86.556-39.529z"/><path class="b" d="M47.053 55.655l-3.294-13.4a3.209 3.209 0 0 1 3.071-3.979 3.074 3.074 0 0 1 2.953 2.045l5.111 13.175"/><path d="M63.073 54.178a23.415 23.415 0 1 1-8.179-.682"/><path class="c" d="M63.073 59.743a17.939 17.939 0 1 1-8.178-1.022"/><path d="M59.211 70.875a6.287 6.287 0 0 1 4.2 6.02 6.361 6.361 0 1 1-12.722 0 6.282 6.282 0 0 1 5.569-6.247z"/><path class="d" d="M87.721 62.47a4.024 4.024 0 0 1 3.635 4.543L89.538 82.12h-6.929l1.136-11.359h-4.316a24.706 24.706 0 0 0-5.225-9.768z"/><path class="b" d="M93.739 87.345h1.022v-5.111H79.77a19.788 19.788 0 0 1-1.931 5.111h5.111a7.559 7.559 0 0 1 5.339-2.158 7.832 7.832 0 0 1 5.45 2.158z"/><path d="M93.741 87.345a7.682 7.682 0 0 0-10.677 0 7.661 7.661 0 0 0-2.272 5.342 7.5 7.5 0 0 0 14.993 0 6.856 6.856 0 0 0-2.044-5.342z"/><path class="e" d="M62.277 42.933s-.341.454-2.158.454a3.069 3.069 0 0 1-3.294-3.748v-.568l.114.454a3.069 3.069 0 0 0 3.294 3.746c1.7.114 2.045-.341 2.045-.341-.114-.114-.114-.227-.227-.341.113.117.113.23.226.344zm4.203-6.928zm-.113 2.384zm0 .795v-.454c0 .114.114.227 0 .454zm.227-8.404l-.114-.114zm0-.001a.868.868 0 0 1 .227.568c-.113-.227-.113-.454-.227-.568zm.34 1.704a.851.851 0 0 0 .114.568 1.235 1.235 0 0 1-.114-.568z"/><path class="f" d="M56.598 38.049l.227 1.022zm6.475 1.817a3.012 3.012 0 0 0-.568.682 1.163 1.163 0 0 1 .568-.682l.341-.341c.114 0 .114 0 .227-.114-.114 0-.114 0-.227.114zm.795-.454z"/><path class="f" d="M65.912 31.006a3.783 3.783 0 0 1-2.5.114 1.862 1.862 0 0 1-.8 1.249c-.454.227-1.136.454-1.363 1.022-.114.341 0 .8-.114 1.136 0 .341-.341.8-.682.8-.454-.114-.454-.8-.568-1.249a.967.967 0 0 0-1.7-.114c-.341.454-.114 1.136 0 1.7a2.291 2.291 0 0 1 0 1.931c-.341.568-1.136.909-1.59.454l.227 1.136.114.454a3.069 3.069 0 0 0 3.294 3.748c1.817 0 2.158-.454 2.158-.454-.114-.114-.114-.227-.227-.341a3.267 3.267 0 0 1-1.022-2.272c-.114-.909.227-2.045 1.477-1.59a2.483 2.483 0 0 1 .568.341 2.589 2.589 0 0 0 1.249.341h.909c.227 0 .568.114.8 0 .114 0 .114 0 .227-.114l.114-.114v-2.953c0-.114 0-.114.114-.227v-.114a.883.883 0 0 1 .909-.227h.114c.568 0 .114-.682.114-.682-.114-.227-.568-1.363-.682-1.59v-.227a4.92 4.92 0 0 0-.114-.568v-1.135a.868.868 0 0 0-.227-.568.4.4 0 0 0-.227-.114c-.231 0-.345.114-.572.227z"/><path class="f" d="M67.73 34.868s.454.682-.114.682c.568.114.114-.682.114-.682-.114-.227-.568-1.363-.682-1.59a11.076 11.076 0 0 0 .682 1.59zm-.909-2.612v.227a.157.157 0 0 0 0-.227zm-.341 3.635a1.224 1.224 0 0 1 .909-.227 1.224 1.224 0 0 0-.909.227zm-.113 2.84zm-.228.681c-.227.114-.568 0-.8 0h-.222a1.576 1.576 0 0 0 1.022 0c.114 0 .114 0 .227-.114l.114-.114c0 .114 0 .114-.114.114-.113.114-.113.114-.227.114zm.228-2.494v-.568c0-.114 0-.114.114-.227 0 .114-.114.114-.114.227z"/><path class="g" d="M62.05 42.592a1.936 1.936 0 0 1 0-1.59c.114-.227.227-.341.341-.568-.114.227-.227.341-.341.568a1.936 1.936 0 0 0 0 1.59zm1.705-3.18zm.113 0zm.227 0z"/><path class="g" d="M63.073 38.957c-.227-.114-.341-.227-.568-.341-1.136-.454-1.477.8-1.477 1.59a3.832 3.832 0 0 0 1.022 2.272 1.936 1.936 0 0 1 0-1.59c.114-.227.227-.341.341-.568.227-.227.341-.454.568-.682l.341-.341c.114 0 .114 0 .227-.114h.8a1.577 1.577 0 0 1-1.254-.226z"/><path class="f" d="M55.008 71.897c.227 1.59.341 2.5.454 3.635a4.125 4.125 0 0 0 .341 1.249 13.819 13.819 0 0 1 1.931 1.7 3.27 3.27 0 0 1-.114-1.477c.114-.8.114-1.136.568-1.022.341.114.454.341.682.682.341.568.341.909.568.454s-1.249-2.5-1.931-5a6.064 6.064 0 0 1-2.499-.221z"/><path class="b" d="M57.845 71.216h-.568a9.784 9.784 0 0 1-2.385-.227c-.454-.114-.8-.227-1.249-.341a1.766 1.766 0 0 0 .682.909l.682.341a6.247 6.247 0 0 0 2.5.227h.454z"/><path class="i" d="M71.363 58.27l-9.086-15.337c-1.477.909.114.454-1.7.454-2.272 0-2.045-.454-3.748-1.817l-.909 3.635-.345 1.365a88.532 88.532 0 0 0-2.612 11.016c0 3.748.454 9.428.454 13.062.114 0 .114 0 .227.114.454.114.909.227 1.249.341a9.784 9.784 0 0 0 2.385.227h.909a43.333 43.333 0 0 1 .909-17.833 27.007 27.007 0 0 1 12.267 4.773z"/><path class="h" d="M68.07 25.554a.625.625 0 0 0-.568-.341c-1.7-.454-4.771-1.136-6.474-.568-.568.227-1.477 1.477-2.045 1.363s-1.136-.8-1.817-.682c-.454 0-.682.454-1.022.682-.568.682-1.817 1.7-2.045 2.5-.114.568.682 1.931.227 2.272-.227.227-.568.454-.682.682a.751.751 0 0 0 .114.682c.568 1.59 2.045 3.635 2.612 5.225.114.227.114.454.341.568a1.068 1.068 0 0 0 1.59-.454 2.3 2.3 0 0 0 0-1.931 2.215 2.215 0 0 1 0-1.7 1.01 1.01 0 0 1 1.7.114c.227.454.114 1.136.568 1.249.341.114.682-.341.682-.8a1.964 1.964 0 0 1 .114-1.136 2.116 2.116 0 0 1 1.363-1.022 1.862 1.862 0 0 0 .8-1.249 3.748 3.748 0 0 0 2.5-.114c.114-.114.341-.227.454-.454a4.2 4.2 0 0 0 .568-1.249c.227-.682.8-2.84 1.022-3.408z"/></svg>