<svg id="Layer_1" xmlns="http://www.w3.org/2000/svg" viewBox="0 0 1424.8 951.8"><style>.st0{fill:#ffdb40}.st1{opacity:.5;fill:#fff;enable-background:new}.st2{fill:#d98d6d}.st3{fill:#c98067}.st4{fill:#ffb2c2}.st5{fill:#0078bf}.st6{fill:#fef3e9}.st7{fill:#fff}.st8{fill:#fcfcfc}.st9{fill:none;stroke:#fff;stroke-width:1.25;stroke-miterlimit:10}.st10{opacity:.85;fill:#fff}.st11{fill:#00a36b}.st12{fill:#2bd69e}</style><path class="st0" d="M1165.8 908.8c.6-1.7 1-3.4 1.1-5.2.4-6-2.4-11.7-5.9-16.6-8.1-11.3-20.1-19.1-32.3-26-31.8-18-65.9-31.4-100-44.4-121.9-46.5-247.3-88.9-377.4-97.3-18.7-1.2-37.9-1.6-56.3 3-4.5 1.1-8.9 2.6-13.2 4.4-2.1.9-4.2 1.9-6.3 3-1.4.7-4.9 1.9-4.8 3.6.1 1.9 2.2 4.9 3.1 6.6 1.1 2.2 2.3 4.4 3.5 6.5 2.4 4.3 5.1 8.4 8 12.4 3 4.2 6.4 8.3 9.9 12.1 2.8 3 5.8 6 9.6 7.4 3.9 1.4 8.1.9 12.2.5 43.4-4.4 88.1-1.6 129.1 13.4s78 43 99.1 81.2c2.3 4.2 4.6 8.7 8.7 11.4 2.8 1.6 5.8 2.6 9 3.1 68 14.8 136.1 29.6 205.3 37.7 22.3 2.6 44.9 4.5 67.1 1.4 12.3-1.7 26.4-7.4 30.5-18.2z"/><path class="st1" d="M390.5 205c-19 2.7-39.1 2-54.2 2.6-29.5 1.1-59 1.5-88.5.7-58.5-1.5-115.1-9.2-173.6-1.3C44 211.1 1.7 212.5.1 169.9c0 0-5.2-48.2 81.2-65.3 0 0 1.6-9.4 1.8-10 2.3-7.9 6.5-15.1 12.1-21.1 30.3-31.9 72.9-3.6 104.7-26.3 18.7-13.3 22-39.5 46.9-45.9 21-5.4 43.3 6.6 58 21.7 16.6 17.1 23 42 41.5 57.5 32.3 27.2 112.6 16.8 99.1 82.7-5.5 28.1-29.1 38.1-54.9 41.8"/><path class="st2" d="M1218.3 669.9c-8.2-6.9-16.9-12.6-25.4-19.2-10.1-7.9-37.7-28.8-47.2-37.5-6.3-5.7-29.5-29.7-37.1-17.6-3.1 5-2.9 11.5.2 17.2 3 5.6 12.8 10.3 18 13.4 10.4 6 39.6 23.7 49.1 31.1 5.2 4.1 10 9.4 16 12.3 9.6 4.5 18.7 8.5 28 13.5 2.8 1.5 5.3 4.4 7.4 7.3 1.7-2.8 3.3-5.6 5.2-8.3-4.9-3.9-9.6-8.3-14.2-12.2"/><path class="st0" d="M1065 524.9c-.4-10.3 5.4-18.8 14-24.1 7.2-4.4 15.4-6.8 22.8-10.6 4.4-2.2 8.5-4.9 13.2-6.3s10.2-1.2 13.9 2.1c5.8 5 5.2 15.5 11.9 19.2 8.6 4.9 20.6-6.1 28.7-.5 5.7 4 4.9 13.5 10.4 17.8 4 3.2 9.7 2.4 14.7 2 5.1-.4 11.2.3 13.5 4.9 1.4 2.8.8 6.3 2.3 9 1.6 3 5.1 4.4 8.1 6s6.2 4.3 5.9 7.7c-.3 3.7-4.6 5.8-8.3 6.3-5.6.7-11.4-.4-16.3-3.2-4.1-2.4-8.4-6-12.9-4.8-4.7 1.2-6.7 6.8-10.4 9.9-5.2 4.4-14.2 3.1-17.8-2.7-2.1-3.4-3.5-8.6-7.5-8.7-3 0-5 3-6.7 5.5-8.6 12.3-25.9 16.6-40.4 12.6-9.4-2.7-19.8-10.2-26.5-17.3-7.4-8-10.5-10.1-12.6-24.8"/><path class="st2" d="M1107.8 583.5c-2.9-.3-4.8-3.5-4.7-6.5.1-3.7 2.4-7.4 4.9-10.1 8.6-3.3 11.6-19.4 11.6-19.4.7-5.2 2.3-7.6-2.5-8.7-.5 2.7-6.9 3.2-9.3 4.6-3.3 1.8-7 .3-10 2.7-4.4 3.4-7.3 11.1-8.4 16.4-1 5-1.9 9.8-4 14.5 5.9 4.9 15 5.7 22.4 6.5"/><path class="st3" d="M1026.3 708.8s-81.8-12.9-105.2 1.3c-7.5 4.6-5 56.1 8.2 135.1-.2-1-5.9-3.1-6.8-3.5-1.1-.4-5.4-1.9-5.3.1-1-.4-2.2-.7-3.3-.7-.2.5-.3 1.1-.1 1.7-.7-.2-1.4-.5-2.1-.8h-1.8c0 .2-.1.3-.1.5.8.2 1.5.8 1.1 1.6-1 0-2.6-1.2-3.5-.5-3 2.4 12.5 8.8 13.9 9.4 3.5 1.5 7 3 10.3 4.7 2.1 1.1 4.8 2.4 6 4.3 2.8 4.6 11.3 2.4 10.6-.9s-3.4-6.8-3.2-22.2c.2-17.1 2-86.7.7-97.3-1.4-10.6 83.2-18.2 83.2-18.2l-2.6-14.6z"/><path class="st2" d="M1124.7 596.1c-4.8-4-8.5-6.9-10.3-8.4-1-.8-3.6-2-4.3-3.1-10.9-4.8-5.2-6.3-20.8-8.4-1.1-.2-2.2-.5-3.3-.7-1.2-.2-2.5-.3-3.7-.3h-.3c-.1 0-.2-.1-.3-.1-4.2-2.2-8.7-3.8-13.3-4.6-4.3-1-8.8-1.2-13.2-.5-3.2.5-6.2 2.1-8.4 4.5-3.2 3.8 7.7 22.3 8.7 33.2-.4 18 .5 36.2-.1 54.1-.4 11.7-8.1 23.3-14.2 32.9l-9.7 14c-10.9 3.4-31.5 7.2-42.6 10.7-17 5.4-35.2 8.2-51.9 14.5-15.8 6-47.4 21.7-61.1 31.2-13.3 9.2-26.6 18.4-40 27.5-7.3 4.9-15.8 8.7-24.7 8.3-5.6-.2-10.7-2.2-15.7-4.6-1.4-.7-2.9-1.2-4.5-1.3-.6 1.9 1.5 1.9.8 3.9-1.6-.6-.9 1.5-1.1 2.3-.4 1.5-1.5 2.1-.4 3.6 1.3 1.5 3 2.6 4.9 3.3 9.8 4 16 12.4 18.6 15.8 2.5 3.4 7.8-.5 7.9-.6 1.1-.8 2.7-6.5 4-7.8 5.9-6 26.9-13.6 35.1-17.6 26.5-12.9 52.3-23.9 80.2-32.6 4.9-1.5 12.2-3.9 17.2-4.7 5.5-.9 17.4-2.6 22.9-2.1 26.7 2.5 47.4 4.6 74 1.4 9.5-1.1 35.1-2.5 36.6-15.8 17.5-24.4 9.9-75.3 9.9-75.3l1.2-4.5s10.9-24.7 12.8-28.8c4.5-9.7-.1-24.4 5.4-35.4.7-1.7 2-3.1 3.7-4"/><path class="st4" d="M1081.5 574.9s-6.7 7.6 6.2 11.7c15.1 4.8 22.3-2.1 22.3-2.1l4.4 3.3c-4.6 9.5-7.3 16.8-7 23.6.3 6.4 3.1 12.3 9.5 19.1 1.4 1.5-1.3 6.4-1.3 6.4l-1.4 2.1c-8.8 3.3-18.2 4.1-27.1.7-4.5-1.7-8.7-4.3-13.4-4.8-3.5-.3-7 .6-10.5.2-1.2-.1-2.4-.5-3.5-1-6.1-2.9-8.6-12.9-7.5-19.3 1.1-6.5 4.2-9 8.7-13.1 3.2-3 5.5-7 7.6-10.9 3.2-5.9 6.5-11.6 8.9-17.9 1.5.3 2.9 1 4.1 2zm21.6 136.5c-5.5 37.8-17.4 40.9-17.4 40.9s-10 7.2-27.6 7.7c-5.2.1-10.4.8-15.6 1-2-9.3-4.4-18.5-7.3-27.6-2.4-7.7-8-16.6-8.8-24.5 0 0 5-.7 6.1-1.8l4.5-6.3c7.8.5 15.6 1.5 23.3 3.2 6.6 1.9 13.5 3.2 20.4 3.6 0-.1 13.8-.2 22.4 3.8z"/><path class="st5" d="M1079.3 526.6c-.6 2.5 0 6.4 3.4 6.3.9 0 1.8-.4 2.6-.4.2.9-1 1.2-1.4 1.8-1 1.5-.1 3.9 1 4.9 1.8 1.9 5 2.4 6.7.3.9-.8 1.4-1.9 1.6-3.1.1-.5.1-1.4.6-1.7.9-.6 1.5.6 2.3.7.6.1 1.7-.7 2.2-1 1.6-.7 2.9-2 3.7-3.6.7-1.5.8-3.3.1-4.9-.5-.7-1.2-1.3-2-1.6-.8-.2-1.7-.4-2.6-.4-1.3-.3-1.1-1.5-2-2.4-1.3-1.3-2.8-2.4-4.4-3.2-1-.3-3.5.2-4 1.1-.8 1.2 1.1 1.8.7 3.3-.6 1.7-4.5-.2-6.1.7-1.3.7-2.2 1.8-2.4 3.2"/><path class="st6" d="M1091.3 526.7c-1.3-.2-5.2-1-4.4 1.7.1.3.3.5.4.8.2.6.4 1.2.7 1.8.8.8 1.8 1.3 2.9 1.4.7.2 1.4 0 2-.4.6-.4.4-.5.6-1.1.3-1.3.9-1.5.1-2.6-.6-.7-1.8-1.8-2.8-1.8"/><path class="st2" d="M1220.1 683.2c3 2.3 5.1 4 5.8 5 .4.3.7.7 1 1.1.4 1.1.8 2.3 1.2 3.6 1.5.3 3 .9 4.3 1.8 0-.4.1-.9.1-1.3 1.3.8 2.5 1.7 3.7 2.7 2 1.7 1.5 4.2.2 7.2-.9 2.1.4 1.7 2.2.4 6.7-8.1 5.2-13.7-1.5-18.6-2-1.4-4.2-3.1-6.5-4.7-1-.8-2.2-1.6-3.2-2.4-2.6 1.6-5 3.3-7.3 5.2m-103-144.4s1.3 11.7 3.9 13.7 1.7 2.9-.8 4.2-2.6 3.2-2.9 5.3c-.2 1 .7 3.5-1.4 4.9-2.3 1.6-14.8 2-16.6-.4-18.3-25 17.8-27.7 17.8-27.7"/><path class="st0" d="M860.9 583.1c-.9-.1-1.8-.7-2.2-1.6-.7-1.4-.1-3.1 1.3-3.8l106.2-51.2c1.4-.7 3.1-.1 3.8 1.3.7 1.4.1 3.1-1.3 3.8l-106.2 51.2c-.5.3-1.1.4-1.6.3"/><path class="st2" d="M1026.9 570.7c-9.4-.3-39.6-1.9-49-3.1-6.6-.8-12.2-2.3-18.7-3.7-16.8-3.4-44.1-3.4-48.8-7.5-1.2 2-.6 5.9-4.8 8.9.2-.1 4 .2 4.2.2 12.2 2 26.1 6.9 38 10.2 20.4 5.6 30.5 6.3 48.5 9.3 11.5 1.9 44.4 5.4 55.9 7.6l9.2-23.1c-12.7.1-21.8 1.5-34.5 1.2"/><path class="st2" d="M912.1 562.2c-2.8 2.7-6.6 3.8-10.4 3.1-6.6-1.1 3.2-4.1 3.2-4.1l7.2 1z"/><path class="st7" d="M690 685.6c-2.8 1.1-3.9 4.8-2.6 8.3 1.4 3.5 4.7 5.4 7.5 4.3s3.9-4.8 2.6-8.3c-1.4-3.5-4.7-5.4-7.5-4.3"/><path class="st2" d="M904.3 560.5c.8 1.1 2.4 3 1.1 4 1.4-.8 3.4-1 4.3-2.1 1.1-1.3 5.1-1.8 5-3-.1-1.1-2.4-2.9-2.4-2.9-4.2-3.1-10.4-8.9-21.6 4.9-.3.4.1 1 .2 1.4 2.1-.9 4.8-2.3 7-3.4 2.4-1.1 4.6-1.4 6.4 1.1"/><path class="st7" d="M501.3 739.8c-.3-2.5-9.1-4.6-10.4-5-3.9-1.4-7.6-3.1-11.2-5.1-3.4-1.9-6.5-4.8-10.3-5.8-1.8-.6-3.8-.2-5.4.9-3.1 2.6-1.8 7.3.4 10.1 7.3 9.1 25.1 12.8 35.4 6.9 1.2-.7 1.6-1.4 1.5-2m20-44.8c-1.7-2.2-3.3-4.4-4.8-6.8-2.5-4.4-3.9-9.4-4-14.5-.2-4.5.6-10.2-3.7-13.2-2.4-1.7-5.7-1.7-8.1 0-5.1 3.8-2.3 11.5.3 16 1.4 2.5 3 4.9 4.8 7.1 4 5.2 9.3 9.1 15.4 11.4h.1zm72.4 7.8c-.5-2.1-1.1-4.5-1.3-6.1-.3-3.8.2-7.7 1.7-11.2 1.2-3.2 3.5-6.9 1.5-10.2-1.2-1.9-3.4-2.8-5.6-2.5-4.7 1-5.1 7.2-4.7 11.1.2 2.2.6 4.3 1.2 6.4 1.1 4.8 3.6 9.2 7.2 12.5zm66.4 98.9c-1.2 0-2.5 0-3.4-.1-2.1-.3-4.1-1.1-5.8-2.3-1.5-1.1-3.2-2.7-5.2-2.1-1.1.4-1.9 1.4-2 2.6 0 2.6 3.2 3.6 5.3 3.9 1.2.2 2.3.2 3.5.2 2.7 0 5.3-.7 7.6-2.2zM548.5 665.8c-.2-.6-.5-1.2-.7-1.9-1-2.8-2-6.3-4.9-7.7-3-1.5-5.4.7-6.3 3.5-2.7 9 10.7 17.2 16.7 21.7 4.3 3.3 8.7 6.5 13.2 9.5 2.7 1.8 9.4 5.2 9.4 5.2s-7.4-5.9-9.6-7.7c-5.2-4.5-10.2-9.3-13.9-15-1.6-2.4-2.9-4.9-3.9-7.6m-74.6 6.8s-.2.3-.3.5-.2.5-.3.7c-.2.5-.4 1-.5 1.5-.3 1.1-.4 2.2-.5 3.3-.1 2.3.1 4.5.8 6.7 1.5 4.6 4.1 8.8 7.5 12.2 3.5 3.6 7.4 6.7 11.7 9.4 4.3 2.7 8.8 5.1 13.4 7.3-4.9-1.7-9.6-3.7-14.2-6s-9-5.2-13-8.5c-4.2-3.5-7.5-7.9-9.6-12.9-1.1-2.6-1.7-5.4-1.8-8.3 0-1.4.1-2.9.3-4.3.1-.7.3-1.5.5-2.2.1-.4.2-.7.3-1.1.1-.4.3-.8.5-1.2l.2-.4c.8-1.5 2.6-2 4.1-1.2 1.4.7 1.9 2.4 1.3 3.8-.1.3-.3.5-.4.7"/><path class="st8" d="M511.5 758.1c0 .1-.1.2-.1.3-.1.1-.1.3-.1.4 0 .3-.1.6-.1.9s.1.6.1 1c.1.3.2.7.3 1 .6 1.4 1.5 2.6 2.7 3.5.6.5 1.2 1 1.9 1.4l2.1 1.2c.8.3 1.5.7 2.3 1l2.4.9-2.5-.5c-.8-.2-1.6-.4-2.5-.6-.8-.2-1.6-.6-2.4-.8-.8-.4-1.6-.7-2.4-1.2-1.6-.9-3-2.2-4.1-3.8-.3-.4-.5-.8-.7-1.3-.2-.5-.4-1-.4-1.5-.1-.5-.2-1.1-.2-1.6v-.8c0-.3 0-.6.2-.9.4-.9 1.4-1.4 2.3-1.1 1 .4 1.5 1.5 1.2 2.5"/><path class="st7" d="M572.4 711.4c1.1.6 1.9 1 2.8 1.6.9.5 1.7 1.1 2.6 1.6 1.7 1.1 3.3 2.3 4.9 3.4 3.2 2.4 6.3 4.9 9.2 7.6 5.9 5.3 11.1 11.3 15.7 17.8 2.3 3.2 4.3 6.6 6.2 10.1 1.8 3.5 3.5 7.1 4.9 10.7 2.7 7.3 4.6 14.9 5.4 22.7-1.5-7.6-3.9-15-7.3-21.9-1.7-3.5-3.6-6.8-5.7-10s-4.4-6.2-6.8-9.1c-4.9-5.8-10.4-11-16.5-15.5-3-2.3-6.1-4.4-9.3-6.3-1.6-1-3.2-1.9-4.9-2.8-.8-.4-1.6-.9-2.5-1.3-.8-.4-1.7-.8-2.4-1.1-2.1-.9-3.2-3.3-2.3-5.5.9-2.1 3.3-3.2 5.4-2.3h.1c.3.2.4.2.5.3"/><path class="st7" d="M1014.8 917.5c28.5-9.2 73.6-7.4 88-39.4 3.6-8.1.8-20.4-6.2-24.7-3.3-2-7.5-2.2-12.4.5-10.7 6-13.2 19.9-21.6 28.1-8.2 8-25.2 17.4-36.6 11.1-3.2-1.8-4.8-5.8-1.5-8.4 5-3.9 13.4-.9 19.2-1.9 9.1-1.5 9.5-12.8-.8-13-5.8.1-11.6 1.2-17 3.5-14.5 5.7-17 22.7-28.9 31.3-7.4 5.3-17.1 7.6-25.9 5.3-6-1.6-12-6.1-12.8-12.8-.8-7.4 4.8-11.5 10.6-14.3 6.6-3.3 15.2-6 19.6-12.3 3.7-5.3 2.4-13.5-5.1-12-11 2.2-20.5 13.1-28.9 19.8-17.1 13.7-38.9 9.7-58.2 3.6-41.1-13.1-66.6-42.4-93.7-74.9-25.1-30.2-53.3-60.3-94.6-64.4-12.7-1.3-27.5.1-38.7 6.9-8 4.8-6.3 12.9 2.9 14.4 2.1.3 4.3.3 6.4-.2 1.9-.3 3.9-1.2 5.8-1.2 8.7.2 10.4 8.8 1.5 10.8-8.6 1.9-20.8-1.8-29.2-4-19.5-5.1-41.8-22.9-57.4-35.6-7.8-6.3-18.1-13.5-24.8-1.6-10.4 18.5 10 34.3 24.4 42.1 15.9 8.5 33.6 13 51.6 13.2 14.2.2 34.6-5.6 44.7 8.1 3.3 4.4 4.8 11.9 1.2 16.6-3.5 4.6-9.8 4.2-14.8 3.2-6.4-1.3-13-4.1-19.5-2.3-7.5 2.1-12.9 13-4.6 17.9 10.3 5.9 27-.3 37.3-3.4 18.4-5.6 34.7-7.7 53.5-2.6 19.8 5.3 39.8 13.7 56.2 26.2 14.8 11.3 25.5 26.6 38.1 40.1 26.5 28.4 60.8 50.5 99.4 57.9 18 3.5 36.4 3.6 54.4.2 9.2-1.8 18.4-4 27-7.9 4.1-1.9 27.7-16.5 12.9-17.8-5.1-.4-9.2 2.3-12.6 5.7-4 5.4-10.7 7.2-16.8 3.7-.3-.2-.4-.4-.5-.7-4.3-2.2-2.9-7.6.1-10.5 2.4-2 5.2-3.5 8.3-4.3"/><path class="st7" d="M644.1 811.1c-1.4-2.7-12.1-1.4-13.7-1.4-4.9.1-9.9-.3-14.7-1.2-4.6-.8-9.3-2.7-14-2.3-2.3.1-4.4 1.3-5.7 3.2-2.5 4.2 1 9 4.6 11.1 11.9 7.2 33.5 4 42.6-6.8 1-1 1.2-1.9.9-2.6m2.8-60.1c-2.7-1.7-5.7-3.7-7.6-5.2-4.3-3.7-7.6-8.3-9.7-13.6-1.9-4.6-3.3-10.9-8.8-12.3-3.2-.8-6.5.4-8.4 3.1-3.9 5.9 1.9 12.8 6.4 16.5 2.4 2 5 3.9 7.7 5.6 6 3.9 13.1 5.9 20.4 5.9zm77.3-17.5c-1.3-1.9-2.5-3.9-3.6-5.9-1.8-3.8-2.7-8.1-2.5-12.3.1-3.7 1-8.5-2.4-11.2-1.9-1.5-4.6-1.6-6.7-.4-4.5 2.9-2.6 9.4-.6 13.3 1.1 2.1 2.3 4.2 3.6 6.2 2.9 4.6 7.1 8.2 12.2 10.3zm247 167.4c2.1-1 4.1-2.2 6-3.5 3.4-2.5 6.2-5.8 8.1-9.6 1.7-3.3 3.1-8 7.4-8.7 2.4-.4 4.8.7 6.1 2.8 2.6 4.6-2.2 9.5-5.8 12-2 1.4-4 2.6-6.2 3.7-4.8 2.7-10.2 3.9-15.6 3.3zm80.8 30.4c2.3-.1 4.6-.3 6.9-.7 4.2-.8 8.1-2.7 11.4-5.4 2.9-2.3 6.2-6 10.3-4.8 2.4.6 4.1 2.7 4.4 5.1.4 5.3-6 7.7-10.3 8.5-2.3.4-4.7.7-7.1.8-5.5.5-10.9-.8-15.6-3.5zM663.1 712.2c-.5-.5-1-1.1-1.4-1.7-2.1-2.5-4.5-5.8-8-6.2-3.7-.4-5.4 2.8-5.2 6 .6 10.4 17.6 13.8 25.6 16.3 5.7 1.8 11.5 3.5 17.4 4.9 3.5.9 11.7 1.9 11.7 1.9s-10-3.3-12.9-4.4c-7.1-2.7-14.1-5.8-20.2-10.3-2.6-1.9-4.9-4.1-7-6.5"/><path class="st2" d="M1228.1 692.8c1 3.2 2 6.3 2.2 7 .2.4 1.7 1.5 1.7-.6.1-1.1.3-2.9.4-4.6-1.3-.9-2.8-1.5-4.3-1.8"/><path class="st7" d="M585.8 787.9s56.4 35.2 51.6 1.4c-11.9-33.4-26.4-67.7-60.2-84-10.4-5-23.3-8.4-34.9-6.2-8.3 1.6-9.4 8.9-2 13.1 1.7.9 3.6 1.6 5.5 1.9 1.7.3 3.7.2 5.3.8 7.3 2.9 6.1 10.7-2.1 9.6-7.9-1-17.1-8-23.5-12.4-15-10.4-27.6-23.9-36.9-39.5-4.6-7.7-11.1-17-20.5-9-10 8.5-7.2 23.6-.3 33 8.7 11.9 22.9 19.1 36.2 24.4 6.6 2.6 13.3 4.9 20 7.3 9.3 3.3 22.8 7.3 26 18 1.4 4.8.3 11.6-4.2 14.4-4.4 2.8-9.6.5-13.5-1.8-5-3.1-9.7-7.5-15.9-8-7-.5-15 7-9.4 13.7 6.9 8.2 23 8.1 32.6 8.7 17.3 1.1 31.7 4.4 46.2 14.6"/><path class="st9" d="M359.4 226.3l528.5 338.5M370 211.5l577.9 323.3"/><path class="st10" d="M293.3 256.9c-.2 0-.3-.1-.4-.2L201 110.4c-.1-.2-.1-.4 0-.6.1-.2.3-.3.5-.2l177 27.8c.2 0 .4.2.4.4s0 .4-.2.5l-41.1 32.3 41.4 27.6c.2.2.3.5.1.7l-28.9 40.2c-.1.1-.2.2-.3.2h-.2c-.1 0-.2 0-.2-.1L308.6 212l-14.7 44.5c-.1.2-.2.3-.4.4h-.2"/><path class="st11" d="M684.5 886.3c3 .2 4.7.5 9.5.9 4.4.4-4.8-5.3-6.1-5.9-2.2-1-4.5-2-7-1.9-4.2.2-7.4 3.5-11.2 5.1 5 1.5 9.6 1.5 14.8 1.8z"/><path class="st12" d="M714.9 913.5l.7-.5c8.6-7.4-20.3-23.9-25-26.1-5.3-2.5-10.8-4.5-16.7-4.9-5.8-.5-11.8.6-16.7 3.9-2.2 1.5-4.3 3.9-3.9 6.5.2 2.1 1.8 3.6 3.5 4.8 8.2 5.7 19.1 4.9 28.9 6.5 7.7 1.2 15.2 3.9 21.8 8 2.3 1.4 5.1 3 7.4 1.8z"/><path class="st11" d="M712.9 909c-2.3-3-5.1-5.6-8.3-7.7-.8-.6-1.6-1.1-2.4-1.5-.8-.5-1.6-1-2.5-1.5l-2.5-1.3-2.6-1.2c-.9-.4-1.8-.7-2.7-1-.9-.3-1.8-.6-2.7-.8l-2.8-.7c-.9-.2-1.8-.4-2.8-.5-1.9-.3-3.7-.5-5.6-.6-.5 0-.9-.1-1.4-.1h-1.4c-.9 0-1.9 0-2.8.1.9.2 1.8.4 2.8.6s1.8.3 2.8.5c1.8.5 3.6.8 5.4 1.3 3.6 1 7.1 2.1 10.5 3.5 3.4 1.4 6.7 3 9.9 4.8 3.1 1.9 6.1 3.9 9.1 6.1z"/><path class="st7" d="M723.2 921.4c2.7-5.7.8-6.5-.5-12.8-.5-2.1-1.5-5.9-4.4-5.5-2.8.4-3.2 3.8-2 5.8.2.5.8.9.8 1.5.2 1-.8 1.4-1.5 1.2-1-.2-1.5-1.2-2-2.1-.8-1.4-1.7-2.7-2.7-3.9-1.9-2.3-4.3-4.3-6.9-5.8-2.7-1.5-5.6-2.5-8.6-2.8-2.8-.3-6.2.1-7.8 2.8-1 2-.9 4.4.2 6.4 1.2 2 3.3 3.3 5.7 3.2 2.7.2 5.3-.7 7.8-1.2s6.5-.8 7.9 1.9c.3.6.6 1.6.1 2.2-.6.7-1.6.2-2.3 0-.8-.3-1.8-.8-2.7-.2-.7.5-.9 1.5-.5 2.3.4 1.1 1.5 1.8 2.6 1.9 1.6.2 3.1.5 4.6.8 2.5.8 5.6 1.6 6.3 4.5 0 .3.1.6.2.9.9 1.8 4.2.2 5.1-.5"/><path class="st7" d="M720.3 890.4c.4 1.1 1 2.2 1.6 3.2 3.9 8.2 2.8 18.2.3 26.5-.2.8-1.2 2.5.2 2 .5-.3.9-.8 1.3-1.2 1.3-1.3 2.5-2.8 3.7-4.2 1.9-2.4 3.9-4.7 5.8-7.2.7-.9 2-4.3-.2-4.4-2.5-.1-.5 5.1-3.5 4.8-1.1-.2-2-.6-1.9-1.8.1-.7.3-1.3.8-1.8 2.2-3.1 4-6.6 3.9-10.5.1-2.8-1.1-5.5-3.2-7.4-1.7-1.5-4-2.1-6.2-1.7-1.6.1-2.8 1.4-2.8 3 .2.3.2.5.2.7z"/><path class="st7" d="M712.4 894.7c-1.8 3.5 4.3 1 9.8 8.1.4-3-2.1-6-4.3-7.8-1.4-1.2-4.3-2.6-5.5-.3zm4.2-4.3c-.8-.9-.7-2.2-1.2-3.3-.3-1-1.3-1.5-2.3-1.3-.3.1-.6.3-.8.5-1.5 1.5 1 5.4 5.2 4.9-.2-.1-.6-.4-.9-.8z"/><path class="st11" d="M1274.2 739.8c2.6.2 4.1.5 8.3.8 3.9.3-4.2-4.7-5.3-5.1-1.9-1-3.9-1.6-6-1.7-3.6.2-6.5 3.1-9.8 4.4 4.3 1.4 8.2 1.3 12.8 1.6z"/><path class="st12" d="M1300.5 763.6c.2-.1.4-.2.6-.5 7.5-6.5-17.7-20.9-21.8-22.7-4.6-2.3-9.5-3.7-14.5-4.3-5.1-.6-10.2.6-14.5 3.4-1.9 1.4-3.7 3.4-3.4 5.7.4 1.8 1.5 3.3 3.1 4.2 7.1 5 16.6 4.3 25.2 5.6 6.8 1 13.3 3.4 19.1 7 1.8 1.2 4.4 2.5 6.2 1.6z"/><path class="st11" d="M1298.8 759.7c-2-2.6-4.5-4.9-7.3-6.7l-2-1.4c-.7-.5-1.4-.9-2.2-1.2l-2.3-1.1-2.3-1-2.4-.9c-.8-.2-1.6-.6-2.4-.8l-2.4-.7c-.8-.2-1.7-.4-2.5-.5-1.6-.3-3.2-.5-4.9-.6h-2.5c-.8 0-1.7 0-2.5.1.8.2 1.6.3 2.4.6s1.6.2 2.4.5c1.6.3 3.2.7 4.7 1.1 3.1.9 6.1 1.9 9.1 3.1 3 1.2 5.9 2.6 8.6 4.2 3 1.5 5.9 3.3 8.5 5.3z"/><path class="st7" d="M1307.9 770.4c2.4-4.9.7-5.7-.5-11.1-.3-1.8-1.2-5.2-3.7-4.8-2.5.3-2.7 3.3-1.8 5.1.3.4.6.8.8 1.2 0 .6-.4 1.1-1 1.2h-.3c-.9-.1-1.4-1.1-1.7-1.8-.7-1.2-1.4-2.3-2.3-3.4-1.7-2-3.7-3.7-6-5-2.3-1.3-4.9-2.1-7.5-2.5-2.4-.2-5.4.1-6.8 2.4-.9 1.8-.9 3.9.2 5.6 1.1 1.7 2.9 2.8 5 2.8 2.3.1 4.5-.6 6.8-1 2.2-.3 5.7-.7 6.9 1.7.3.6.6 1.5 0 1.9-.6.6-1.5.2-2 0-.7-.5-1.6-.6-2.4-.2-.6.5-.8 1.3-.5 2 .4.9 1.3 1.6 2.3 1.7 1.4.3 2.7.2 4 .8 2.2.8 4.9 1.4 5.4 4 .1.2.1.6.2.8.8 1.6 3.6.1 4.4-.5"/><path class="st7" d="M1305.4 743.4c.3 1 .8 1.9 1.4 2.8 3.4 7 2.5 15.8.2 23.1-.2.7-1 2.3.2 1.7.5-.2.8-.8 1.1-1 1.1-1.1 2.2-2.4 3.2-3.6 1.7-2 3.4-4.1 5-6.2.6-.8 1.8-3.7-.2-3.9-2.2-.1-.5 4.4-3.1 4.1-.9-.1-1.8-.6-1.7-1.6.1-.6.3-1.1.7-1.6 1.8-2.6 3.5-5.8 3.4-9.2 0-2.4-.9-4.8-2.7-6.5-1.4-1.3-3.4-1.9-5.3-1.5-1.5.3-2.4 1.7-2.2 3.1-.1.1 0 .2 0 .3z"/><path class="st7" d="M1298.4 747.1c-1.6 3.1 3.7.9 8.5 7 .3-2.6-1.8-5.2-3.7-6.8-1.2-1-3.7-2.1-4.8-.2zm3.7-3.7c-.7-.8-.6-1.9-1-2.8-.2-.9-1.1-1.4-2-1.1-.3.1-.5.2-.7.4-1.4 1.4.9 4.7 4.5 4.3l-.8-.8z"/><path class="st11" d="M1392.9 801.3c-3.1.2-4.8.5-9.7.9-4.5.4 4.9-5.4 6.2-6 2.3-1 4.6-2.1 7.1-1.9 4.2.2 7.5 3.6 11.5 5.2-5.1 1.5-9.8 1.4-15.1 1.8z"/><path class="st12" d="M1361.9 829.1c-.3-.1-.5-.3-.7-.5-8.8-7.6 20.7-24.4 25.6-26.7 5.3-2.6 11.1-4.3 17-5 5.9-.5 12.1.6 17 4 2.3 1.6 4.4 4 4 6.7-.3 2.1-1.9 3.7-3.6 4.9-8.4 5.8-19.5 5-29.5 6.6-7.9 1.2-15.5 4-22.3 8.2-2.3 1.4-5.3 2.9-7.5 1.8z"/><path class="st11" d="M1363.9 824.5c2.4-3.1 5.3-5.8 8.5-7.9.8-.6 1.6-1.1 2.4-1.6s1.7-1 2.5-1.5l2.6-1.3 2.7-1.2c.9-.4 1.8-.7 2.7-1 .9-.4 1.8-.7 2.8-.9l2.8-.7c1-.2 1.9-.4 2.9-.5 1.9-.3 3.9-.6 5.8-.7.5 0 1-.1 1.4-.1h1.4c1 0 1.9 0 2.9.1-.9.2-1.9.4-2.8.6-.9.2-1.9.4-2.8.6-1.8.5-3.7.8-5.5 1.4-3.6 1-7.2 2.2-10.7 3.6-3.5 1.4-6.8 3.1-10.1 4.9-3.3 1.9-6.5 3.9-9.5 6.2z"/><path class="st7" d="M1353.3 837.1c-2.8-5.8-.8-6.7.6-13.1.5-2.2 1.5-6.1 4.5-5.6 2.9.4 3.2 3.9 2.1 6-.2.5-.8 1-.9 1.5-.2 1 .8 1.4 1.5 1.3 1-.2 1.6-1.3 2-2.1.8-1.4 1.7-2.7 2.7-4 2-2.4 4.4-4.4 7.1-5.9 2.7-1.6 5.7-2.5 8.8-2.9 2.9-.3 6.4.1 8 2.8 1 2.1 1 4.5-.2 6.5-1.2 2.1-3.4 3.3-5.8 3.3-2.7.1-5.4-.7-8-1.1-2.5-.4-6.6-.8-8.1 1.9-.5.7-.5 1.6-.1 2.3.6.7 1.7.3 2.4 0 .8-.3 1.9-.8 2.7-.3.7.6 1 1.6.6 2.4-.5 1.1-1.4 1.8-2.6 2-1.6.1-3.2.4-4.7.9-2.5.9-5.8 1.6-6.4 4.7-.1.3-.1.7-.3.9-.9 1.9-4.2.2-5.2-.6"/><path class="st7" d="M1356.3 805.5c-.4 1.1-1 2.3-1.6 3.3-4 8.3-2.9 18.6-.3 27.1.2.8 1.2 2.6-.2 2-.5-.3-1-.8-1.3-1.3-1.3-1.4-2.6-2.8-3.8-4.3-2-2.4-4-4.8-5.9-7.3-.7-.9-2.1-4.4.2-4.5 2.6-.1.5 5.2 3.5 4.8 1.1-.1 2.1-.6 2-1.9-.1-.7-.3-1.3-.8-1.8-2.2-3.1-4.1-6.8-4-10.7 0-2.9 1.1-5.6 3.2-7.6 1.7-1.5 4-2.1 6.3-1.8 1.8.4 3 2.1 2.7 4z"/><path class="st7" d="M1364.4 809.8c1.9 3.6-4.4 1-10 8.2-.4-3.1 2.1-6.2 4.4-7.9 1.4-1.2 4.4-2.6 5.6-.3zm-4.3-4.3c.8-.9.7-2.3 1.2-3.4.3-1 1.3-1.6 2.3-1.3.3.1.6.3.8.5 1.5 1.5-1 5.5-5.3 5 .3-.2.7-.5 1-.8z"/></svg>