<svg xmlns="http://www.w3.org/2000/svg" viewBox="0 0 1424.809 951.807"><defs><style>.a{fill:#ffdb40}.c{fill:#d98d6d}.f{fill:#ffb2c2}.j{fill:#fff}.l{fill:none;stroke:#fff;stroke-miterlimit:10;stroke-width:1.25px}.m{fill:#00a36b}.n{fill:#2bd69e}</style></defs><path d="M1165.76 908.816a17.845 17.845 0 0 0 1.1-5.2c.4-6-2.4-11.7-5.9-16.6-8.1-11.3-20.1-19.1-32.3-26-31.8-18-65.9-31.4-100-44.4-121.9-46.5-247.3-88.9-377.4-97.3-18.7-1.2-37.9-1.6-56.3 3a88.855 88.855 0 0 0-13.2 4.4q-3.15 1.35-6.3 3c-1.4.7-4.9 1.9-4.8 3.6.1 1.9 2.2 4.9 3.1 6.6 1.1 2.2 2.3 4.4 3.5 6.5a124.662 124.662 0 0 0 8 12.4 127.355 127.355 0 0 0 9.9 12.1c2.8 3 5.8 6 9.6 7.4 3.9 1.4 8.1.9 12.2.5 43.4-4.4 88.1-1.6 129.1 13.4s78 43 99.1 81.2c2.3 4.2 4.6 8.7 8.7 11.4a26.027 26.027 0 0 0 9 3.1c68 14.8 136.1 29.6 205.3 37.7 22.3 2.6 44.9 4.5 67.1 1.4 12.3-1.7 26.4-7.4 30.5-18.2z" class="a"/><path fill="#fff" d="M390.46 205.016c-19 2.7-39.1 2-54.2 2.6-29.5 1.1-59 1.5-88.5.7-58.5-1.5-115.1-9.2-173.6-1.3-30.2 4.1-72.5 5.5-74.1-37.1 0 0-5.2-48.2 81.2-65.3 0 0 1.6-9.4 1.8-10a51.844 51.844 0 0 1 12.1-21.1c30.3-31.9 72.9-3.6 104.7-26.3 18.7-13.3 22-39.5 46.9-45.9 21-5.4 43.3 6.6 58 21.7 16.6 17.1 23 42 41.5 57.5 32.3 27.2 112.6 16.8 99.1 82.7-5.5 28.1-29.1 38.1-54.9 41.8" opacity=".5"/><path d="M1218.26 669.916c-8.2-6.9-16.9-12.6-25.4-19.2-10.1-7.9-37.7-28.8-47.2-37.5-6.3-5.7-29.5-29.7-37.1-17.6-3.1 5-2.9 11.5.2 17.2 3 5.6 12.8 10.3 18 13.4 10.4 6 39.6 23.7 49.1 31.1 5.2 4.1 10 9.4 16 12.3 9.6 4.5 18.7 8.5 28 13.5 2.8 1.5 5.3 4.4 7.4 7.3 1.7-2.8 3.3-5.6 5.2-8.3-4.9-3.9-9.6-8.3-14.2-12.2" class="c"/><path fill="#ffdb40" fill-rule="evenodd" d="M1064.96 524.916c-.4-10.3 5.4-18.8 14-24.1 7.2-4.4 15.4-6.8 22.8-10.6 4.4-2.2 8.5-4.9 13.2-6.3s10.2-1.2 13.9 2.1c5.8 5 5.2 15.5 11.9 19.2 8.6 4.9 20.6-6.1 28.7-.5 5.7 4 4.9 13.5 10.4 17.8 4 3.2 9.7 2.4 14.7 2 5.1-.4 11.2.3 13.5 4.9 1.4 2.8.8 6.3 2.3 9 1.6 3 5.1 4.4 8.1 6s6.2 4.3 5.9 7.7c-.3 3.7-4.6 5.8-8.3 6.3a26.438 26.438 0 0 1-16.3-3.2c-4.1-2.4-8.4-6-12.9-4.8-4.7 1.2-6.7 6.8-10.4 9.9-5.2 4.4-14.2 3.1-17.8-2.7-2.1-3.4-3.5-8.6-7.5-8.7-3 0-5 3-6.7 5.5-8.6 12.3-25.9 16.6-40.4 12.6-9.4-2.7-19.8-10.2-26.5-17.3-7.4-8-10.5-10.1-12.6-24.8"/><path d="M1107.76 583.516c-2.9-.3-4.8-3.5-4.7-6.5.1-3.7 2.4-7.4 4.9-10.1 8.6-3.3 11.6-19.4 11.6-19.4.7-5.2 2.3-7.6-2.5-8.7-.5 2.7-6.9 3.2-9.3 4.6-3.3 1.8-7 .3-10 2.7-4.4 3.4-7.3 11.1-8.4 16.4-1 5-1.9 9.8-4 14.5 5.9 4.9 15 5.7 22.4 6.5" class="c"/><path fill="#c98067" d="M1026.26 708.816s-81.8-12.9-105.2 1.3c-7.5 4.6-5 56.1 8.2 135.1-.2-1-5.9-3.1-6.8-3.5-1.1-.4-5.4-1.9-5.3.1a9.284 9.284 0 0 0-3.3-.7 2.5 2.5 0 0 0-.1 1.7 10.228 10.228 0 0 1-2.1-.8 10.822 10.822 0 0 0-1.8 0c0 .2-.1.3-.1.5.8.2 1.5.8 1.1 1.6-1 0-2.6-1.2-3.5-.5-3 2.4 12.5 8.8 13.9 9.4 3.5 1.5 7 3 10.3 4.7 2.1 1.1 4.8 2.4 6 4.3 2.8 4.6 11.3 2.4 10.6-.9s-3.4-6.8-3.2-22.2c.2-17.1 2-86.7.7-97.3-1.4-10.6 83.2-18.2 83.2-18.2z"/><path d="M1124.66 596.116c-4.8-4-8.5-6.9-10.3-8.4-1-.8-3.6-2-4.3-3.1-10.9-4.8-5.2-6.3-20.8-8.4-1.1-.2-2.2-.5-3.3-.7a23.077 23.077 0 0 0-3.7-.3h-.3c-.1 0-.2-.1-.3-.1a44.687 44.687 0 0 0-13.3-4.6 34.481 34.481 0 0 0-13.2-.5 14.206 14.206 0 0 0-8.4 4.5c-3.2 3.8 7.7 22.3 8.7 33.2-.4 18 .5 36.2-.1 54.1-.4 11.7-8.1 23.3-14.2 32.9l-9.7 14c-10.9 3.4-31.5 7.2-42.6 10.7-17 5.4-35.2 8.2-51.9 14.5-15.8 6-47.4 21.7-61.1 31.2q-19.95 13.8-40 27.5c-7.3 4.9-15.8 8.7-24.7 8.3-5.6-.2-10.7-2.2-15.7-4.6a11.205 11.205 0 0 0-4.5-1.3c-.6 1.9 1.5 1.9.8 3.9-1.6-.6-.9 1.5-1.1 2.3-.4 1.5-1.5 2.1-.4 3.6a11.835 11.835 0 0 0 4.9 3.3c9.8 4 16 12.4 18.6 15.8 2.5 3.4 7.8-.5 7.9-.6 1.1-.8 2.7-6.5 4-7.8 5.9-6 26.9-13.6 35.1-17.6 26.5-12.9 52.3-23.9 80.2-32.6 4.9-1.5 12.2-3.9 17.2-4.7 5.5-.9 17.4-2.6 22.9-2.1 26.7 2.5 47.4 4.6 74 1.4 9.5-1.1 35.1-2.5 36.6-15.8 17.5-24.4 9.9-75.3 9.9-75.3l1.2-4.5s10.9-24.7 12.8-28.8c4.5-9.7-.1-24.4 5.4-35.4a8.569 8.569 0 0 1 3.7-4" class="c"/><path d="M1081.46 574.916s-6.7 7.6 6.2 11.7c15.1 4.8 22.3-2.1 22.3-2.1l4.4 3.3c-4.6 9.5-7.3 16.8-7 23.6.3 6.4 3.1 12.3 9.5 19.1 1.4 1.5-1.3 6.4-1.3 6.4l-1.4 2.1c-8.8 3.3-18.2 4.1-27.1.7-4.5-1.7-8.7-4.3-13.4-4.8-3.5-.3-7 .6-10.5.2a10.8 10.8 0 0 1-3.5-1c-6.1-2.9-8.6-12.9-7.5-19.3 1.1-6.5 4.2-9 8.7-13.1 3.2-3 5.5-7 7.6-10.9 3.2-5.9 6.5-11.6 8.9-17.9a9.113 9.113 0 0 1 4.1 2zm21.6 136.5c-5.5 37.8-17.4 40.9-17.4 40.9s-10 7.2-27.6 7.7c-5.2.1-10.4.8-15.6 1-2-9.3-4.4-18.5-7.3-27.6-2.4-7.7-8-16.6-8.8-24.5 0 0 5-.7 6.1-1.8l4.5-6.3a153.272 153.272 0 0 1 23.3 3.2 93.758 93.758 0 0 0 20.4 3.6c0-.1 13.8-.2 22.4 3.8z" class="f"/><path fill="#0078bf" d="M1079.26 526.616c-.6 2.5 0 6.4 3.4 6.3.9 0 1.8-.4 2.6-.4.2.9-1 1.2-1.4 1.8-1 1.5-.1 3.9 1 4.9 1.8 1.9 5 2.4 6.7.3a5.482 5.482 0 0 0 1.6-3.1c.1-.5.1-1.4.6-1.7.9-.6 1.5.6 2.3.7.6.1 1.7-.7 2.2-1a7.62 7.62 0 0 0 3.7-3.6 5.983 5.983 0 0 0 .1-4.9 3.993 3.993 0 0 0-2-1.6 11.7 11.7 0 0 0-2.6-.4c-1.3-.3-1.1-1.5-2-2.4a15.546 15.546 0 0 0-4.4-3.2c-1-.3-3.5.2-4 1.1-.8 1.2 1.1 1.8.7 3.3-.6 1.7-4.5-.2-6.1.7a4.53 4.53 0 0 0-2.4 3.2"/><path fill="#fef3e9" d="M1091.26 526.716c-1.3-.2-5.2-1-4.4 1.7.1.3.3.5.4.8a7.516 7.516 0 0 0 .7 1.8 4.448 4.448 0 0 0 2.9 1.4 2.4 2.4 0 0 0 2-.4c.6-.4.4-.5.6-1.1.3-1.3.9-1.5.1-2.6-.6-.7-1.8-1.8-2.8-1.8"/><path d="M1220.06 683.216c3 2.3 5.1 4 5.8 5a12.03 12.03 0 0 1 1 1.1q.6 1.65 1.2 3.6a11.318 11.318 0 0 1 4.3 1.8c0-.4.1-.9.1-1.3a35.223 35.223 0 0 1 3.7 2.7c2 1.7 1.5 4.2.2 7.2-.9 2.1.4 1.7 2.2.4 6.7-8.1 5.2-13.7-1.5-18.6-2-1.4-4.2-3.1-6.5-4.7-1-.8-2.2-1.6-3.2-2.4a60.7 60.7 0 0 0-7.3 5.2" class="c"/><path fill="#d98d6d" fill-rule="evenodd" d="M1117.06 538.816s1.3 11.7 3.9 13.7 1.7 2.9-.8 4.2-2.6 3.2-2.9 5.3c-.2 1 .7 3.5-1.4 4.9-2.3 1.6-14.8 2-16.6-.4-18.3-25 17.8-27.7 17.8-27.7"/><path d="M860.86 583.116a2.957 2.957 0 0 1-2.2-1.6 2.844 2.844 0 0 1 1.3-3.8l106.2-51.2a2.84 2.84 0 1 1 2.5 5.1l-106.2 51.2a2.318 2.318 0 0 1-1.6.3" class="a"/><path d="M1026.86 570.716c-9.4-.3-39.6-1.9-49-3.1-6.6-.8-12.2-2.3-18.7-3.7-16.8-3.4-44.1-3.4-48.8-7.5-1.2 2-.6 5.9-4.8 8.9.2-.1 4 .2 4.2.2 12.2 2 26.1 6.9 38 10.2 20.4 5.6 30.5 6.3 48.5 9.3 11.5 1.9 44.4 5.4 55.9 7.6l9.2-23.1c-12.7.1-21.8 1.5-34.5 1.2" class="c"/><path d="M912.06 562.216a11.818 11.818 0 0 1-10.4 3.1c-6.6-1.1 3.2-4.1 3.2-4.1z" class="c"/><path d="M689.96 685.616c-2.8 1.1-3.9 4.8-2.6 8.3 1.4 3.5 4.7 5.4 7.5 4.3s3.9-4.8 2.6-8.3c-1.4-3.5-4.7-5.4-7.5-4.3" class="j"/><path d="M904.26 560.516c.8 1.1 2.4 3 1.1 4 1.4-.8 3.4-1 4.3-2.1 1.1-1.3 5.1-1.8 5-3-.1-1.1-2.4-2.9-2.4-2.9-4.2-3.1-10.4-8.9-21.6 4.9-.3.4.1 1 .2 1.4 2.1-.9 4.8-2.3 7-3.4 2.4-1.1 4.6-1.4 6.4 1.1" class="c"/><path d="M501.26 739.816c-.3-2.5-9.1-4.6-10.4-5a75.434 75.434 0 0 1-11.2-5.1c-3.4-1.9-6.5-4.8-10.3-5.8a6.111 6.111 0 0 0-5.4.9c-3.1 2.6-1.8 7.3.4 10.1 7.3 9.1 25.1 12.8 35.4 6.9 1.2-.7 1.6-1.4 1.5-2m20-44.8a67.454 67.454 0 0 1-4.8-6.8 30.958 30.958 0 0 1-4-14.5c-.2-4.5.6-10.2-3.7-13.2a7.246 7.246 0 0 0-8.1 0c-5.1 3.8-2.3 11.5.3 16a58.848 58.848 0 0 0 4.8 7.1 34.851 34.851 0 0 0 15.4 11.4zm72.4 7.8c-.5-2.1-1.1-4.5-1.3-6.1a23.785 23.785 0 0 1 1.7-11.2c1.2-3.2 3.5-6.9 1.5-10.2a5.641 5.641 0 0 0-5.6-2.5c-4.7 1-5.1 7.2-4.7 11.1a34.415 34.415 0 0 0 1.2 6.4 24.851 24.851 0 0 0 7.2 12.5zm66.4 98.9c-1.2 0-2.5 0-3.4-.1a13.877 13.877 0 0 1-5.8-2.3c-1.5-1.1-3.2-2.7-5.2-2.1a3 3 0 0 0-2 2.6c0 2.6 3.2 3.6 5.3 3.9a21.144 21.144 0 0 0 3.5.2 13.974 13.974 0 0 0 7.6-2.2zm-111.6-135.9c-.2-.6-.5-1.2-.7-1.9-1-2.8-2-6.3-4.9-7.7-3-1.5-5.4.7-6.3 3.5-2.7 9 10.7 17.2 16.7 21.7 4.3 3.3 8.7 6.5 13.2 9.5 2.7 1.8 9.4 5.2 9.4 5.2s-7.4-5.9-9.6-7.7c-5.2-4.5-10.2-9.3-13.9-15a45.467 45.467 0 0 1-3.9-7.6m-74.6 6.8s-.2.3-.3.5-.2.5-.3.7a8.8 8.8 0 0 0-.5 1.5 18.814 18.814 0 0 0-.5 3.3 19.253 19.253 0 0 0 .8 6.7 30.66 30.66 0 0 0 7.5 12.2 62.658 62.658 0 0 0 11.7 9.4 133.331 133.331 0 0 0 13.4 7.3 109.751 109.751 0 0 1-14.2-6 69.227 69.227 0 0 1-13-8.5 33.645 33.645 0 0 1-9.6-12.9 23.293 23.293 0 0 1-1.8-8.3 20.751 20.751 0 0 1 .3-4.3 22.483 22.483 0 0 1 .5-2.2c.1-.4.2-.7.3-1.1a3.845 3.845 0 0 1 .5-1.2l.2-.4a3 3 0 0 1 5.4 2.6 2.508 2.508 0 0 1-.4.7" class="j"/><path fill="#fcfcfc" d="M511.46 758.116a1.008 1.008 0 0 0-.1.3.6.6 0 0 0-.1.4c0 .3-.1.6-.1.9s.1.6.1 1c.1.3.2.7.3 1a8.961 8.961 0 0 0 2.7 3.5 23.065 23.065 0 0 0 1.9 1.4 22.47 22.47 0 0 0 2.1 1.2c.8.3 1.5.7 2.3 1l2.4.9-2.5-.5c-.8-.2-1.6-.4-2.5-.6-.8-.2-1.6-.6-2.4-.8-.8-.4-1.6-.7-2.4-1.2a12.279 12.279 0 0 1-4.1-3.8 8.27 8.27 0 0 1-.7-1.3 4.191 4.191 0 0 1-.4-1.5 7.774 7.774 0 0 1-.2-1.6v-.8a1.645 1.645 0 0 1 .2-.9 1.867 1.867 0 0 1 2.3-1.1 1.994 1.994 0 0 1 1.2 2.5"/><path d="M572.36 711.416c1.1.6 1.9 1 2.8 1.6.9.5 1.7 1.1 2.6 1.6 1.7 1.1 3.3 2.3 4.9 3.4a112.482 112.482 0 0 1 9.2 7.6 110.038 110.038 0 0 1 15.7 17.8 105.17 105.17 0 0 1 6.2 10.1 113.982 113.982 0 0 1 4.9 10.7 93.866 93.866 0 0 1 5.4 22.7 88.151 88.151 0 0 0-7.3-21.9 89.115 89.115 0 0 0-5.7-10 102.518 102.518 0 0 0-6.8-9.1 100.772 100.772 0 0 0-16.5-15.5 94.947 94.947 0 0 0-9.3-6.3c-1.6-1-3.2-1.9-4.9-2.8-.8-.4-1.6-.9-2.5-1.3-.8-.4-1.7-.8-2.4-1.1a4.273 4.273 0 0 1-2.3-5.5 4.188 4.188 0 0 1 5.5-2.3c.3.2.4.2.5.3" class="j"/><path d="M1014.76 917.516c28.5-9.2 73.6-7.4 88-39.4 3.6-8.1.8-20.4-6.2-24.7-3.3-2-7.5-2.2-12.4.5-10.7 6-13.2 19.9-21.6 28.1-8.2 8-25.2 17.4-36.6 11.1-3.2-1.8-4.8-5.8-1.5-8.4 5-3.9 13.4-.9 19.2-1.9 9.1-1.5 9.5-12.8-.8-13a45.34 45.34 0 0 0-17 3.5c-14.5 5.7-17 22.7-28.9 31.3-7.4 5.3-17.1 7.6-25.9 5.3-6-1.6-12-6.1-12.8-12.8-.8-7.4 4.8-11.5 10.6-14.3 6.6-3.3 15.2-6 19.6-12.3 3.7-5.3 2.4-13.5-5.1-12-11 2.2-20.5 13.1-28.9 19.8-17.1 13.7-38.9 9.7-58.2 3.6-41.1-13.1-66.6-42.4-93.7-74.9-25.1-30.2-53.3-60.3-94.6-64.4-12.7-1.3-27.5.1-38.7 6.9-8 4.8-6.3 12.9 2.9 14.4a17.241 17.241 0 0 0 6.4-.2c1.9-.3 3.9-1.2 5.8-1.2 8.7.2 10.4 8.8 1.5 10.8-8.6 1.9-20.8-1.8-29.2-4-19.5-5.1-41.8-22.9-57.4-35.6-7.8-6.3-18.1-13.5-24.8-1.6-10.4 18.5 10 34.3 24.4 42.1a111.739 111.739 0 0 0 51.6 13.2c14.2.2 34.6-5.6 44.7 8.1 3.3 4.4 4.8 11.9 1.2 16.6-3.5 4.6-9.8 4.2-14.8 3.2-6.4-1.3-13-4.1-19.5-2.3-7.5 2.1-12.9 13-4.6 17.9 10.3 5.9 27-.3 37.3-3.4 18.4-5.6 34.7-7.7 53.5-2.6 19.8 5.3 39.8 13.7 56.2 26.2 14.8 11.3 25.5 26.6 38.1 40.1 26.5 28.4 60.8 50.5 99.4 57.9a144.261 144.261 0 0 0 54.4.2c9.2-1.8 18.4-4 27-7.9 4.1-1.9 27.7-16.5 12.9-17.8-5.1-.4-9.2 2.3-12.6 5.7-4 5.4-10.7 7.2-16.8 3.7a1.157 1.157 0 0 1-.5-.7c-4.3-2.2-2.9-7.6.1-10.5a20.587 20.587 0 0 1 8.3-4.3" class="j"/><path d="M644.06 811.116c-1.4-2.7-12.1-1.4-13.7-1.4a72.937 72.937 0 0 1-14.7-1.2c-4.6-.8-9.3-2.7-14-2.3a7.426 7.426 0 0 0-5.7 3.2c-2.5 4.2 1 9 4.6 11.1 11.9 7.2 33.5 4 42.6-6.8 1-1 1.2-1.9.9-2.6m2.8-60.1c-2.7-1.7-5.7-3.7-7.6-5.2a34.705 34.705 0 0 1-9.7-13.6c-1.9-4.6-3.3-10.9-8.8-12.3a7.858 7.858 0 0 0-8.4 3.1c-3.9 5.9 1.9 12.8 6.4 16.5a72.175 72.175 0 0 0 7.7 5.6 37.523 37.523 0 0 0 20.3 5.9zm77.3-17.5a52.192 52.192 0 0 1-3.6-5.9 26.129 26.129 0 0 1-2.5-12.3c.1-3.7 1-8.5-2.4-11.2a6.055 6.055 0 0 0-6.7-.4c-4.5 2.9-2.6 9.4-.6 13.3a62.715 62.715 0 0 0 3.6 6.2 26.731 26.731 0 0 0 12.2 10.3zm247 167.4a53.092 53.092 0 0 0 6-3.5 26.869 26.869 0 0 0 8.1-9.6c1.7-3.3 3.1-8 7.4-8.7a5.936 5.936 0 0 1 6.1 2.8c2.6 4.6-2.2 9.5-5.8 12a48.326 48.326 0 0 1-6.2 3.7 26.328 26.328 0 0 1-15.6 3.3zm80.8 30.4a44.552 44.552 0 0 0 6.9-.7 26.139 26.139 0 0 0 11.4-5.4c2.9-2.3 6.2-6 10.3-4.8a5.987 5.987 0 0 1 4.4 5.1c.4 5.3-6 7.7-10.3 8.5a57.127 57.127 0 0 1-7.1.8 26.967 26.967 0 0 1-15.6-3.5zm-388.9-219.1a11.511 11.511 0 0 1-1.4-1.7c-2.1-2.5-4.5-5.8-8-6.2-3.7-.4-5.4 2.8-5.2 6 .6 10.4 17.6 13.8 25.6 16.3 5.7 1.8 11.5 3.5 17.4 4.9 3.5.9 11.7 1.9 11.7 1.9s-10-3.3-12.9-4.4c-7.1-2.7-14.1-5.8-20.2-10.3a48.143 48.143 0 0 1-7-6.5" class="j"/><path d="M1228.06 692.816c1 3.2 2 6.3 2.2 7 .2.4 1.7 1.5 1.7-.6.1-1.1.3-2.9.4-4.6a12 12 0 0 0-4.3-1.8" class="c"/><path d="M585.76 787.916s56.4 35.2 51.6 1.4c-11.9-33.4-26.4-67.7-60.2-84-10.4-5-23.3-8.4-34.9-6.2-8.3 1.6-9.4 8.9-2 13.1a17.966 17.966 0 0 0 5.5 1.9c1.7.3 3.7.2 5.3.8 7.3 2.9 6.1 10.7-2.1 9.6-7.9-1-17.1-8-23.5-12.4a127.766 127.766 0 0 1-36.9-39.5c-4.6-7.7-11.1-17-20.5-9-10 8.5-7.2 23.6-.3 33 8.7 11.9 22.9 19.1 36.2 24.4 6.6 2.6 13.3 4.9 20 7.3 9.3 3.3 22.8 7.3 26 18 1.4 4.8.3 11.6-4.2 14.4-4.4 2.8-9.6.5-13.5-1.8-5-3.1-9.7-7.5-15.9-8-7-.5-15 7-9.4 13.7 6.9 8.2 23 8.1 32.6 8.7 17.3 1.1 31.7 4.4 46.2 14.6" class="j"/><path d="M292.16 183.216l595.7 381.6m-573.3-384.3l633.3 354.3" class="l"/><path d="M293.26 256.916a.758.758 0 0 1-.4-.2l-91.9-146.3a.637.637 0 0 1 0-.6.365.365 0 0 1 .5-.2l177 27.8a.43.43 0 0 1 .4.4c0 .2 0 .4-.2.5l-41.1 32.3 41.4 27.6a.494.494 0 0 1 .1.7l-28.9 40.2c-.1.1-.2.2-.3.2h-.2c-.1 0-.2 0-.2-.1l-40.9-27.2-14.7 44.5a.781.781 0 0 1-.4.4h-.2" class="j"/><path d="M684.476 886.347c3 .231 4.693.539 9.462.923 4.385.385-4.77-5.308-6.077-5.924-2.231-1-4.539-2-7-1.923-4.154.231-7.385 3.539-11.232 5.077 5.077 1.54 9.693 1.463 14.847 1.847z" class="m"/><path d="M714.867 913.504l.692-.462c8.616-7.385-20.309-23.925-25-26.079-5.308-2.462-10.847-4.462-16.694-4.923-5.77-.462-11.847.615-16.694 3.923-2.231 1.539-4.308 3.923-3.923 6.539.231 2.077 1.846 3.616 3.539 4.847 8.155 5.693 19.079 4.924 28.926 6.462a58.505 58.505 0 0 1 21.848 8c2.225 1.308 5.071 2.847 7.306 1.693z" class="n"/><path d="M712.863 909.041a35.961 35.961 0 0 0-8.308-7.693 25.269 25.269 0 0 0-2.385-1.539c-.846-.462-1.615-1-2.462-1.462l-2.539-1.308-2.616-1.154a27.813 27.813 0 0 0-2.693-1c-.923-.308-1.769-.615-2.693-.846l-2.769-.692c-.923-.231-1.846-.385-2.769-.539a46.407 46.407 0 0 0-5.616-.615c-.462 0-.923-.077-1.385-.077h-1.385c-.923 0-1.923 0-2.846.077.923.231 1.846.385 2.769.615s1.846.308 2.769.539c1.769.462 3.616.769 5.385 1.308a88.109 88.109 0 0 1 10.462 3.539 97.827 97.827 0 0 1 9.924 4.77 94.3 94.3 0 0 1 9.157 6.077z" class="m"/><path d="M723.249 921.351c2.693-5.693.769-6.539-.539-12.77-.462-2.077-1.462-5.924-4.385-5.539-2.846.385-3.154 3.77-2 5.847.231.462.769.923.846 1.462.154 1-.769 1.385-1.539 1.231-1-.154-1.539-1.231-2-2.077a22.207 22.207 0 0 0-2.693-3.923 24.969 24.969 0 0 0-6.924-5.77 22.793 22.793 0 0 0-8.616-2.846c-2.769-.308-6.231.077-7.77 2.769a6.725 6.725 0 0 0 .231 6.385 6.457 6.457 0 0 0 5.693 3.231c2.693.154 5.308-.692 7.847-1.154 2.462-.462 6.462-.769 7.924 1.923.308.615.615 1.616.077 2.231-.615.693-1.616.231-2.308 0-.846-.308-1.846-.846-2.693-.231a1.883 1.883 0 0 0-.539 2.308 3.153 3.153 0 0 0 2.616 1.923 32.388 32.388 0 0 1 4.616.846c2.462.846 5.616 1.616 6.308 4.539a4.055 4.055 0 0 0 .231.923c.923 1.846 4.154.154 5.077-.538" class="j"/><path d="M720.325 890.425a18.112 18.112 0 0 0 1.615 3.231c3.923 8.154 2.769 18.155.308 26.541-.231.846-1.154 2.539.231 2a6.554 6.554 0 0 0 1.308-1.231c1.308-1.308 2.462-2.769 3.693-4.154 1.923-2.385 3.923-4.693 5.77-7.154.692-.923 2-4.308-.231-4.385-2.539-.077-.462 5.077-3.462 4.77-1.077-.154-2-.615-1.923-1.846a3.074 3.074 0 0 1 .769-1.769c2.154-3.077 4-6.616 3.923-10.462a9.5 9.5 0 0 0-3.154-7.385 7.174 7.174 0 0 0-6.154-1.693 2.869 2.869 0 0 0-2.693 3.537z" class="j"/><path d="M712.401 894.656c-1.846 3.462 4.308 1 9.77 8.078.385-3-2.077-6-4.308-7.77-1.384-1.152-4.308-2.539-5.462-.308zm4.231-4.231c-.769-.923-.692-2.231-1.154-3.308a1.834 1.834 0 0 0-3.077-.769c-1.539 1.539 1 5.385 5.231 4.924a3.642 3.642 0 0 1-1-.847z" class="j"/><path d="M1274.164 739.839c2.61.227 4.085.454 8.283.794 3.858.34-4.2-4.652-5.333-5.106a14.563 14.563 0 0 0-6.013-1.7c-3.631.227-6.467 3.063-9.758 4.425 4.315 1.36 8.283 1.247 12.821 1.587z" class="m"/><path d="M1300.487 763.552a1.133 1.133 0 0 0 .567-.454c7.488-6.467-17.7-20.877-21.784-22.692a43.777 43.777 0 0 0-14.523-4.311 22.385 22.385 0 0 0-14.523 3.4c-1.929 1.362-3.744 3.4-3.4 5.673a6.374 6.374 0 0 0 3.063 4.2c7.148 4.992 16.565 4.311 25.188 5.56a50.33 50.33 0 0 1 19.061 7.034c1.926 1.25 4.536 2.498 6.351 1.59z" class="n"/><path d="M1298.784 759.695a29.181 29.181 0 0 0-7.261-6.694l-2.042-1.362a13.364 13.364 0 0 0-2.156-1.248l-2.269-1.135-2.269-1.021c-.794-.34-1.589-.567-2.383-.908-.794-.227-1.588-.567-2.383-.794l-2.383-.681a16.276 16.276 0 0 0-2.5-.454 35.707 35.707 0 0 0-4.879-.567h-2.5a19.24 19.24 0 0 0-2.5.113c.794.227 1.588.34 2.383.567s1.589.227 2.383.454c1.588.34 3.177.681 4.652 1.135a85.344 85.344 0 0 1 9.077 3.063 67.065 67.065 0 0 1 8.623 4.2 52.748 52.748 0 0 1 8.407 5.332z" class="m"/><path d="M1307.862 770.36c2.383-4.879.681-5.673-.454-11.119-.34-1.815-1.248-5.219-3.744-4.765-2.5.34-2.723 3.29-1.815 5.106a4.689 4.689 0 0 1 .794 1.248 1.094 1.094 0 0 1-1.361 1.135c-.908-.113-1.361-1.135-1.7-1.815a25.376 25.376 0 0 0-2.269-3.4 21.1 21.1 0 0 0-6.013-4.992 21.621 21.621 0 0 0-7.488-2.5c-2.383-.227-5.446.113-6.807 2.383a5.439 5.439 0 0 0 .227 5.56 5.91 5.91 0 0 0 4.992 2.836c2.269.113 4.538-.567 6.808-1.021 2.156-.34 5.673-.681 6.921 1.7.34.567.567 1.475 0 1.929-.567.567-1.475.227-2.042 0a2.533 2.533 0 0 0-2.383-.227 1.736 1.736 0 0 0-.454 2.042 2.764 2.764 0 0 0 2.269 1.7c1.361.34 2.723.227 3.971.794 2.156.794 4.879 1.362 5.446 3.971.113.227.113.567.227.794.794 1.588 3.631.113 4.425-.454" class="j"/><path d="M1305.365 743.356a13.054 13.054 0 0 0 1.361 2.836c3.4 7.034 2.5 15.771.227 23.146-.227.681-1.021 2.269.227 1.7.454-.227.794-.794 1.135-1.021 1.135-1.135 2.156-2.383 3.177-3.631 1.7-2.042 3.4-4.085 4.992-6.24.567-.794 1.815-3.744-.227-3.858-2.156-.113-.454 4.425-3.063 4.084-.908-.113-1.815-.567-1.7-1.588a2.852 2.852 0 0 1 .681-1.588c1.815-2.61 3.517-5.786 3.4-9.19a8.656 8.656 0 0 0-2.723-6.467 6.124 6.124 0 0 0-5.333-1.475 2.7 2.7 0 0 0-2.154 3.292z" class="j"/><path d="M1298.445 747.1c-1.588 3.063 3.744.908 8.509 7.034.34-2.61-1.815-5.219-3.744-6.808-1.248-1.02-3.744-2.15-4.765-.226zm3.631-3.744c-.681-.794-.567-1.929-1.021-2.836a1.622 1.622 0 0 0-2.723-.681c-1.361 1.362.908 4.652 4.538 4.311a5.241 5.241 0 0 1-.794-.794z" class="j"/><path d="M1392.86 801.316c-3.1.2-4.8.5-9.7.9-4.5.4 4.9-5.4 6.2-6 2.3-1 4.6-2.1 7.1-1.9 4.2.2 7.5 3.6 11.5 5.2-5.1 1.5-9.8 1.4-15.1 1.8z" class="m"/><path d="M1361.86 829.116a3.038 3.038 0 0 1-.7-.5c-8.8-7.6 20.7-24.4 25.6-26.7a51.2 51.2 0 0 1 17-5c5.9-.5 12.1.6 17 4 2.3 1.6 4.4 4 4 6.7-.3 2.1-1.9 3.7-3.6 4.9-8.4 5.8-19.5 5-29.5 6.6a59.491 59.491 0 0 0-22.3 8.2c-2.3 1.4-5.3 2.9-7.5 1.8z" class="n"/><path d="M1363.86 824.516a35.531 35.531 0 0 1 8.5-7.9c.8-.6 1.6-1.1 2.4-1.6s1.7-1 2.5-1.5l2.6-1.3 2.7-1.2c.9-.4 1.8-.7 2.7-1a22.943 22.943 0 0 1 2.8-.9l2.8-.7a24.989 24.989 0 0 1 2.9-.5 54.068 54.068 0 0 1 5.8-.7c.5 0 1-.1 1.4-.1h1.4a28.109 28.109 0 0 1 2.9.1c-.9.2-1.9.4-2.8.6a27.979 27.979 0 0 0-2.8.6c-1.8.5-3.7.8-5.5 1.4a84.1 84.1 0 0 0-10.7 3.6 94.009 94.009 0 0 0-10.1 4.9 81.328 81.328 0 0 0-9.5 6.2z" class="m"/><path d="M1353.26 837.116c-2.8-5.8-.8-6.7.6-13.1.5-2.2 1.5-6.1 4.5-5.6 2.9.4 3.2 3.9 2.1 6-.2.5-.8 1-.9 1.5-.2 1 .8 1.4 1.5 1.3 1-.2 1.6-1.3 2-2.1a28.013 28.013 0 0 1 2.7-4 25.141 25.141 0 0 1 7.1-5.9 22.861 22.861 0 0 1 8.8-2.9c2.9-.3 6.4.1 8 2.8a6.815 6.815 0 0 1-.2 6.5 6.59 6.59 0 0 1-5.8 3.3c-2.7.1-5.4-.7-8-1.1-2.5-.4-6.6-.8-8.1 1.9a2.139 2.139 0 0 0-.1 2.3c.6.7 1.7.3 2.4 0 .8-.3 1.9-.8 2.7-.3a2 2 0 0 1 .6 2.4 3.36 3.36 0 0 1-2.6 2 24.406 24.406 0 0 0-4.7.9c-2.5.9-5.8 1.6-6.4 4.7-.1.3-.1.7-.3.9-.9 1.9-4.2.2-5.2-.6" class="j"/><path d="M1356.26 805.516a20.1 20.1 0 0 1-1.6 3.3c-4 8.3-2.9 18.6-.3 27.1.2.8 1.2 2.6-.2 2a4.037 4.037 0 0 1-1.3-1.3c-1.3-1.4-2.6-2.8-3.8-4.3-2-2.4-4-4.8-5.9-7.3-.7-.9-2.1-4.4.2-4.5 2.6-.1.5 5.2 3.5 4.8 1.1-.1 2.1-.6 2-1.9a2.978 2.978 0 0 0-.8-1.8c-2.2-3.1-4.1-6.8-4-10.7a10.349 10.349 0 0 1 3.2-7.6 7.9 7.9 0 0 1 6.3-1.8 3.39 3.39 0 0 1 2.7 4z" class="j"/><path d="M1364.36 809.816c1.9 3.6-4.4 1-10 8.2-.4-3.1 2.1-6.2 4.4-7.9 1.4-1.2 4.4-2.6 5.6-.3zm-4.3-4.3c.8-.9.7-2.3 1.2-3.4a1.845 1.845 0 0 1 3.1-.8c1.5 1.5-1 5.5-5.3 5a7 7 0 0 0 1-.8z" class="j"/></svg>