<svg xmlns="http://www.w3.org/2000/svg" preserveAspectRatio="none" viewBox="0 0 131.971 85.267"><defs><style>.a{fill:#fff}</style></defs><path d="M18.33 68.92c5.263.732 10.794.444 14.993.582 8.086.225 16.309.262 24.39-.146 16.13-.61 31.73-3.201 47.832-.968 8.368 1.115 20.031 1.38 20.257-11.348 0 0 1.236-14.467-22.696-19.206 0 0-.503-2.822-.573-3.044a16.732 16.732 0 0 0-3.442-6.241c-8.523-9.472-20.112-.865-28.977-7.543-5.184-3.882-6.258-11.752-13.146-13.582-5.87-1.562-11.938 2.118-15.927 6.655-4.514 5.192-6.115 12.639-11.182 17.32-8.792 8.207-31.03 5.423-26.963 25.054 1.816 8.515 8.312 11.441 15.43 12.468" class="a"/></svg>