<svg xmlns="http://www.w3.org/2000/svg" preserveAspectRatio="none" viewBox="0 0 113.676 74.592"><path fill="#fff" d="M98.082 59.044a109.968 109.968 0 0 1-12.794.725c-6.94.266-13.898.44-20.92.242-13.842-.334-27.188-2.193-40.994-.144-7.086 1.061-17.156 1.497-17.553-9.44 0 0-1.216-12.326 19.152-16.781 0 0 .333-2.452.41-2.561a12.626 12.626 0 0 1 2.88-5.386c7.176-8.157 17.238-1.03 24.731-6.85 4.369-3.45 5.206-10.106 11.032-11.805 4.931-1.348 10.24 1.64 13.705 5.528 3.932 4.384 5.432 10.72 9.871 14.724 7.644 6.978 26.587 4.214 23.538 21.12-1.437 7.049-7.006 9.663-13.058 10.628"/></svg>