<svg xmlns="http://www.w3.org/2000/svg" viewBox="0 0 1920 924.967"><defs><style>.cls-1{fill:#e5fcf4}</style></defs><path id="Subtraction_4" data-name="Subtraction 4" class="cls-1" d="M13087.439 9491.094a783.973 783.973 0 0 1-91.858-5.312 655.773 655.773 0 0 1-87.17-16.153 498.932 498.932 0 0 1-78.889-27.327 388.429 388.429 0 0 1-35.214-17.963 326.6 326.6 0 0 1-31.792-20.878 383.246 383.246 0 0 1-36.169-30.974c-11.18-10.73-21.855-21.927-32.182-32.755l-.057-.057-.027-.028c-10.764-11.288-21.894-22.96-33.675-34.185-6.3-6.009-12.277-11.4-18.259-16.468-6.7-5.689-13.224-10.825-19.941-15.7a248.158 248.158 0 0 0-33.88-20.7 300.359 300.359 0 0 0-82.854-27.851 255.139 255.139 0 0 0-44.5-4.063c-21.322 0-41.308 2.991-59.4 8.892a162.225 162.225 0 0 0-15.678 6.008 154.672 154.672 0 0 0-14.037 7.12 162.826 162.826 0 0 0-24.088 16.958 240.059 240.059 0 0 0-20.373 19.55c-6.351 6.779-12.5 13.9-18.451 20.778l-.112.13-.047.054-.012.013c-9.088 10.514-18.485 21.384-28.894 31.431a204.393 204.393 0 0 1-16.641 14.507 168.111 168.111 0 0 1-19.19 12.961 189.488 189.488 0 0 1-27.162 12.838 220.227 220.227 0 0 1-29.31 8.8 286.6 286.6 0 0 1-63.355 6.683 409.075 409.075 0 0 1-72.935-6.953 532.1 532.1 0 0 1-72.653-18.8 579.967 579.967 0 0 1-67.962-27.55 498.862 498.862 0 0 1-58.862-33.2c-8.026-5.325-16.047-10.812-23.8-16.118l-.414-.283-.032-.022-.027-.019c-19.956-13.656-40.593-27.777-62.621-40.19a375.592 375.592 0 0 0-34.5-17.288 312.737 312.737 0 0 0-38.211-13.842 244.935 244.935 0 0 0-34.771-7.09 282.255 282.255 0 0 0-36.8-2.408c-24.843 0-48.3 3.293-67.827 9.521a122.312 122.312 0 0 0-27.22 12.181 70.675 70.675 0 0 0-19.6 17.382 55.234 55.234 0 0 0-7.72 13.932 65.571 65.571 0 0 0-3.614 14.63c-1.343 9.949-.851 20.353-.374 30.413v.006c.49 10.318 1 20.988-.483 31.184a63.868 63.868 0 0 1-3.941 14.958 55.294 55.294 0 0 1-8.379 14.2 73.536 73.536 0 0 1-12.215 11.786 97.93 97.93 0 0 1-15.127 9.462c-10.335 5.282-22.571 9.622-37.405 13.269a417.45 417.45 0 0 1-44.228 7.963v-732.493c21.547 5.307 42.724 11.417 62.941 18.161 23.251 7.757 46.07 16.625 67.824 26.359a692.771 692.771 0 0 1 63.229 32.278c13.651 7.854 25.22 14.111 36.406 19.69 13.271 6.617 25.737 12.133 38.116 16.861a328.693 328.693 0 0 0 86.652 20.53 312 312 0 0 0 31.552 1.605c9.894 0 19.942-.479 29.867-1.422a328.557 328.557 0 0 0 28.993-4.069 355.768 355.768 0 0 0 55.022-14.987 420.621 420.621 0 0 0 95.624-49.529 808.738 808.738 0 0 1 66.06-40.835c21.129-11.706 43.163-22.715 67.362-33.656 21.22-9.594 44.76-19.413 71.963-30.02 25.961-10.124 53.718-20.366 79.847-29.926 15.683-5.737 32.13-10.929 48.884-15.43a636.004 636.004 0 0 1 51.955-11.631 634.106 634.106 0 0 1 53.725-7.333c18.285-1.7 36.518-2.556 54.192-2.556a484.4 484.4 0 0 1 85.4 7.247c28.322 5.1 54.479 12.879 77.743 23.126a289.416 289.416 0 0 1 40.033 21.633 330.082 330.082 0 0 1 34.133 25.418c21.217 17.921 40.067 37.792 58.3 57.008l.029.032.021.023.08.084.03.032c9.585 10.1 19.5 20.546 29.6 30.54a392.813 392.813 0 0 0 40.537 35.061 335.718 335.718 0 0 0 48.655 30.474 297.72 297.72 0 0 0 27.277 12.23 280.21 280.21 0 0 0 29.2 9.548 266.578 266.578 0 0 0 64.008 9 280.313 280.313 0 0 0 28.023-1.022c7.623-.662 15.45-1.66 23.265-2.969a355.229 355.229 0 0 0 44.575-10.606c13.011-3.94 27.02-8.861 42.826-15.043 14.1-5.517 28.241-11.479 41.916-17.245l.126-.053.05-.021.029-.013.021-.009c18.04-7.609 36.694-15.479 55.554-22.468 10.179-3.772 19.563-6.981 28.69-9.812 10.255-3.181 19.959-5.815 29.667-8.057v724.886a777.118 777.118 0 0 1-100.658 19.381 836.771 836.771 0 0 1-104.406 6.565z" transform="translate(-11372.501 -8566.127)"/></svg>