<svg xmlns="http://www.w3.org/2000/svg" preserveAspectRatio="none" viewBox="0 0 1923 563.8"><path fill="#aaefd8" d="M1922 0l1 538a798.5 798.5 0 0 1-101.7 19.4 878.2 878.2 0 0 1-104.8 6.4h-.1c-4.7 0-10.7 0-17.7-.2 0 0-2.9-.1-5.7-.1-35.2-1-68.4-5-68.4-5a656.73 656.73 0 0 1-87.2-16.2 500 500 0 0 1-78.9-27.3 387.3 387.3 0 0 1-35.2-18 315.56 315.56 0 0 1-31.8-20.9 381.61 381.61 0 0 1-36.2-31c-11.3-10.8-21.9-22-32.2-32.8l-.1-.1-.2-.2c-10.7-11.2-21.8-22.9-33.5-34-6.3-6-12.3-11.4-18.3-16.5-6.7-5.7-13.2-10.8-19.9-15.7a249.7 249.7 0 0 0-33.9-20.7 300.29 300.29 0 0 0-82.9-27.8 256.5 256.5 0 0 0-44.5-4.1c-21.3 0-41.3 3-59.4 8.9a151.91 151.91 0 0 0-15.7 6 143.59 143.59 0 0 0-14 7.1 161.35 161.35 0 0 0-24.1 17 223.43 223.43 0 0 0-20.4 19.6c-6.5 6.9-12.9 14.3-18.5 20.9-9.1 10.5-18.5 21.4-28.9 31.5a204.11 204.11 0 0 1-16.6 14.5 165 165 0 0 1-19.2 13 182.29 182.29 0 0 1-27.2 12.8 217 217 0 0 1-29.3 8.8 286.93 286.93 0 0 1-63.4 6.7 406.41 406.41 0 0 1-73-7 523.58 523.58 0 0 1-72.7-18.8 577.51 577.51 0 0 1-68-27.5 493.77 493.77 0 0 1-58.9-33.2c-8.5-5.6-17.2-11.6-24.2-16.4h-.1c-20-13.7-40.6-27.8-62.7-40.2a372.81 372.81 0 0 0-34.5-17.3 305.81 305.81 0 0 0-38.2-13.8 241.23 241.23 0 0 0-34.8-7.1 283 283 0 0 0-36.8-2.4c-24.9 0-48.3 3.3-67.9 9.5a119.07 119.07 0 0 0-27.2 12.2 69.55 69.55 0 0 0-19.6 17.4 55.59 55.59 0 0 0-7.7 13.9 61.65 61.65 0 0 0-3.6 14.6c-1.3 10-.9 20.4-.4 30.4v.1c.5 10.3 1 21-.5 31.1a66.38 66.38 0 0 1-3.9 15 56.52 56.52 0 0 1-8.4 14.2 75.26 75.26 0 0 1-12.2 11.8 97.75 97.75 0 0 1-15.1 9.5c-10.3 5.3-22.6 9.6-37.4 13.3-14.62 3.42-30.41 6.09-45.3 8V0z" style="isolation:isolate"/><path fill="#fff" d="M1636.76 183.1c-7.69 37.1-14.9 61.6-37.9 46.2-5.5-3.7-25.9-35-24.9-42 4.9-32.5 9.3-41 8.8-40 4.9-9.7 58.7-71.4 56.5-52.4-2.9 26.4-7.1 62.7-2.5 88.2z"/><path fill="#fff" d="M1589.86 160c-.3-3.2-3.9 1.9-4.4.2-2.7-9.3-17.1-10.2-18.4-21.1-.7-5.7 5.4-19.4 4-25-1.3-5.3-10.5-1-9-6.5.5-2 9.9-27.4 10.4-30.3 1.8-10.7-.4-26.8 12.4-31 6.4-2.1 18.9 3.5 24.9 5.2 11.2 3.1 23.1 6 33.81 10.5 24.09 10.1.5 50.4-7.2 67.2 0 0-3.2 14.6-4.2 18.5-.3 1.2-.3 5.2-.1 10.2-13 7.6-21.1 11.1-36.5 14.6-.3-4.1-5.7-11.9-5.7-12.5z"/><path fill="#260028" d="M1646.07 131.5c-9 4.2-15.31 2.6-16.6-8.8-.31-2.4 1.4-13.4-.81-14.6-3.09-1.7-8.4 5.8-9.4 8a.38.38 0 0 0-.1.2c-7.69 15.3-11.19 29.4-25.09 40.5 1.8-4.6 3.19-9.4 4.5-13.9 2.59-10 5.9-25.5-.5-34.1a15.28 15.28 0 0 0 1.9-1.5c4.4-3.4 13-11.5 15.69-15.4a39 39 0 0 0 3.2-5.8c1.6-3.6 2.8-7.6 1.4-9.9-9.3-15.5-49-7.7-50.9-30-1-11.7 14.7-35.8 23-31.8 5.9 2.8 8.1 11.7 14.6 12.5 5.6.7 11.1-2.4 16.7-1.1 7.4 1.8 9.8 8.7 16.3 11.9 5.7 2.9 12.9-.8 17.8 2.9 7.2 5.5 13.4 11.4 13.1 22.8-.3 9.2-7.7 20.4-9.4 31.7-1.4 8-7 32.5-15.4 36.4z"/><path fill="#260028" d="M1592.26 14.4c5.9 2.8 8.1 11.7 14.6 12.5 5.6.7 11.1-2.4 16.7-1.1 7.4 1.8 9.8 8.7 16.3 11.9 5.7 2.9 12.9-.8 17.8 2.9 10.81 8.3 25.6 15.9 4.91 43.7-.2-.2-.31-.5-.5-.7a103 103 0 0 0-32.7-30.1c-17.1-10.5-37.4-6.5-56.3-3.9a9.24 9.24 0 0 0-2.81.9 15.77 15.77 0 0 1-.9-4.3c-1.1-11.7 14.64-35.7 22.9-31.8zm-34.69 133.3c1.9-5.5 4.69-10.3 6.5-15.8 1.3-4.1 2.4-11.6 6.9-13.8 3-1.4 8.69 1.4 12.1.6 5.3-1.3 10.59-6.6 14.8-9.9 6.4 8.7 3.1 24.1.5 34.1-1.3 4.7-2.8 9.4-4.5 13.9a35.64 35.64 0 0 1-7.4 5c-13.6 5.9-36.1 7.1-28.9-14.1z"/><path fill="#fff" d="M1570.47 123.7c3-.1 14.19 1.2 14.19 1.2 1.81 9.4-17.19 12.4-15.69 4.6l1.69-.9c0 .1-2.9-4.8-.19-4.9z"/><path fill="#e33836" d="M1537.71 193.31c-.4-6.9-1.9-14.9 2.6-16.6 13.3-5.2 38.3-1.4 48.7 5.2 9.2 5.9 10.6 13.9 13.7 24.3 2.3 8.1 6.8 19.6 8.1 27.6 4.7-15.9 6.9-28.3 11.7-44.2a12.62 12.62 0 0 1 2.1-4.5 11.66 11.66 0 0 1 4.8-3 47.7 47.7 0 0 1 18.3-3.3c14.1.2 12.2 31.3 12 40.5l33.4 344.1c-22.7-.8-40.9-1.8-62.5-3.8-20.5-1.8-48.5-7.8-64.8-10.7-2.7-32.6-11.2-134-13.9-166.6-6.9-83.6-13.9-167.9-14.1-170.4v-18.6z"/><path fill="#0078bf" d="M1724.6 483.93c1.6-19.8 9.2-37.9 11.1-57.6 2.3-23.1-2.4-47.9-6-70.7 19.1 28.9 40.3 52.6 68.9 68.6 25.9 14.6 48.7 22.4 76.9 28.1-4.7-10.9-14.4-19.9-22.2-28-5.3-5.5-11.5-11.9-15.7-17-18.8-22.5-33.7-52.4-49.4-77.8-12.8-20.5-21.3-39.7-25.7-64-3.1-16.6-5.1-37.2-19.6-46.1-24.4-15-55.8-23.8-84-27.5a4.43 4.43 0 0 0-3.2.3 5.09 5.09 0 0 0-2.1 3.1c-2.1 6.7-2.2 13.9-2.1 20.9.7 54.5 2.7 110.3 10.2 164.2 7.9 56.9 18.9 126.8 31.2 182.9 5.9 0 11.9.3 17.8.4s12-.2 18-.2c-7.8-34.6-5.6-61.3-4.1-79.6z"/><path fill="#0066a3" d="M1666.8 415.33c14.2 2.6 29.5 6 42 13.4a13.71 13.71 0 0 1 3.1 2.3c1.6 1.8 2 4.2 3.1 6.3s2.3 4.2 3.6 6.2c2.5 3.9 6.7 9 11.5 10.2l12.6-43.9-82.3-38.4z"/><path fill="#0078bf" d="M1700.8 201a4.86 4.86 0 0 0-.4-.7c-.1.23.1.53.4.7z"/><path fill="#260028" d="M1708.41 322.71c-2.1 3.3-5.1 12.1-5.6 19.8 9.2.5 20.5.8 29.9.8a27.57 27.57 0 0 0 .7-3.6l.8-3.7q.75-3.6 1.8-7.2a3.92 3.92 0 0 1 .4-1.1v-.1a.09.09 0 0 0-.1-.1c-2.8-1.5-5.8-1.8-9-2a26.88 26.88 0 0 1-4.9-.5c-1.6-.4-3.2-1.3-4.9-1.7-1.5-.4-3.1-.5-4.5-1a22.51 22.51 0 0 0-2.4-.8 2 2 0 0 0-2.2 1.2"/><path fill="#0078bf" d="M1522.8 189.62c-12.2 2.7-28 7.6-40.5 10.4-12.3 2.8-39.2 6.1-48 19.6s-11.8 30.7-18.1 45.5c-7.4 17.3-9.6 23.6-18.3 40.1-9.1 17.3-23.4 29.5-33.7 45.6-21.4 33.4-30.1 60.6-43.3 99.8 1.8-5.2 23.4-9 27.4-10.4 13-4.4 26.1-8.6 39.2-12.9 37.7-12.4 51.7-27.4 79-60.4 1.3 30.1 1.9 61.5 6 91.3 3.9 28.7 4.6 36 5.4 64.9 0 0 20.1 7.7 44.9 15.3a405.36 405.36 0 0 0 43.3 10.7c-3.8-32.5 2-64.3 1.9-97-.1-81.9-.3-104-13-201.8-.3 0-4.5-66.9-32.2-60.7z"/><path fill="#0066a3" d="M1567.5 408.22c0 .1-.2 1.3-.2 1.3-4.5-2.5-9.1-4-14-5.8a4.24 4.24 0 0 0-1.6-.4 5.4 5.4 0 0 0-2.2.5l-28.5 10.7a2.48 2.48 0 0 0-1.1.6 3 3 0 0 0-.6 1.3c-6.8 21.6-23.6 38.5-43.1 49.3-.9.5-1.9 1-2.8 1.5l-6.6-53.4 100.5-40.2v31.6a15.09 15.09 0 0 1 .2 3z"/><path fill="#0078bf" d="M1771 483.42c1.9-3.5-50-53.6-42.5-59 5.9-3.7 64.1 32.4 63.9 33.4-8.27 9.6-13.4 15.6-21.4 25.6z"/><path fill="#0066a3" d="M1827.61 436.91c-1.4-2.8-64.5-39-71.9-66.8s-18.5 70.1-18.5 70.1zm-366.9-113.7c1 8.7 1.8 17.3 2.6 25.9.2 2 3.5 19.1 2 20.2l-31.8 23.6c14.1-21.3 25.9-43.9 27.2-69.7z"/><path fill="#fff" d="M1803.82 428c-8.4-4.7-67.6-57.5-101.7-110.4-17.7-27.3-27.3-49.4-57.4-54.7-29.8-5.3-34.5 44.6-34.6 44.6 9.6-.2 11.4-12 23.1-8.6 17.3 5.1 18.5 28.3 15.1 44-3.4 16.3-12 22.5-22 32.5-1.2 1.2-32 29.1-20.5 31.8 5.4 1.3 21.8-7.5 28.3-8.6 13.6-2.3 24 .5 36.9 2.6 19.3 3 29.5 4.9 46.2 16.5 8.1 5.7 90.3 65 89.3 68.3-1.1-19.3-2-38.7-2.7-58z"/><path fill="#fff" d="M1415.62 398.27c-1.5-4.2 51.1-35.5 57.1-38.7 27.3-14.3 45.1-32.3 65.9-59 11.6-14.8 25.3-42.4 42.7-44.8 19.4-2.8 44.3 48.2 27.8 53.8-5.3 1.8-14.2-14.4-22.8-13.6-11.4 1.1-15.1 8.5-18.5 19.7-6.9 22.5 5.2 40.3 18.1 55.5 5.3 6.2 30.9 23.5 21.7 36-2 2.7-48.2-17.6-54.5-19.2-7-1.8-137.1 52.6-133.4 66.7-1.5-18.5-2.9-38-4.1-56.4z"/><path fill="#e33836" d="M1510.31 403a16.61 16.61 0 0 1 1.9-.8c.1 8-30.4 42.7-32.8 33.6-.7.1-1.8-56.7-1.6-59.6.4-6.9-1-18 2.8-23.8 1.8-2.8 12.5-7.2 23.1-14.2 1.8.8-2.1 23.5-2.3 25.7-1 10.1-2.9 20.5-1.3 30.7.6 3.8 1.1 10.9 4.9 10.3a25.58 25.58 0 0 0 5.3-1.9z"/><path fill="#0078bf" d="M1481.21 432.51c3.6-16.6-.2-75.4 1-82-7 3.5-70.3 43.5-91.4 52.4-2.4 1-4.1 1.7-5 2-24.2 8-31.4-2.7-51.5 20-15.1 17.2-19.5 34.1-16.7 62.8 1.2 3.6 1.9 12.9 3.9 16.3 10.9 19.5 42.1-11.2 59.4-16.3 9.2-2.7 17.9-7 26.5-11.1 11.1-5.3 21.9-10.7 33.1-15.9s22.5-9.5 34-13.7c2.2-.8 3.7-1.1 4.6-3.3 1-3.5 1.3-7.6 2.1-11.2z"/><path fill="#e33836" d="M1782 461.21c2.1-11.7 2.8-34.1-.2-45.6-4.6-17.6-14.4-18.5-26-31.9 17.6 20.4 5.8 62.3-13.8 51a75 75 0 0 1-6.5-3.9c-2.4-1.7-4.2-3-7.4-5.4 8.8 25.6 42.1 33.1 57.3 52.4 4.21-2.5-4.09-13.81-3.4-16.6z"/><path fill="#0078bf" d="M1875.51 452.21c-36.5-7.2-70.8-23.1-100-49.8 6.6 18.9 2.2 37.6-1.7 55.7-4.7 21.8-6.9 20.8 3 34.1 8.4 11.5 23.8 17.9 35.6 24.5 14.7 8.2 39.4 13 56.4 7.1 18.9-6.5 14.9-53.2 6.7-71.6z"/><path fill="#260028" d="M1765.21 393.61c2.8 2 .4 6.9-1.3 8.5-2-1.9-1-3.3-.7-5.5z"/><path fill="#050505" d="M1747.81 375.21s12.4 29.7-19.7 50c-2.8 1.8 21.4 2.8 21.5 2.3s13.4-38 12-40.9-13.8-11.4-13.8-11.4z" opacity=".06" style="isolation:isolate"/><path fill="#260028" d="M1764.91 389.31a29.35 29.35 0 0 0-9.4-10.1c1.9 3.3 2.8 7-1 9.4 2.8 3.7 5.3 8.5 9.5 10.6 0 0 1.8-2.1 1.4-7.1a8.65 8.65 0 0 0-.5-2.8zm-4.91 29.9c-4.2 10.4-9.7 5-3.5-2.3z"/><path fill="#2bd69e" d="M1756.81 419.81c-1.2 4.3-4.6 8.3-6 2.4l1.6-2.9.7-.3z"/><path fill="#260028" d="M1742.61 409.91c-1.9-6.5-1.5-18.8 7.4-19.9.7-1.5 2.2-4.2 3.8-4.9l-5.7-8.5L1747 375a36.4 36.4 0 0 1 10.7 6 9.36 9.36 0 0 1 .5 4.1c.6.9-.1 2.8-.7 4.7 5.8 2.2 7.9 10.1 8.2 15.5.5 9.5-10.4 22.9-19.6 11.8-4.9 6.7-16.2 15-24.3 8.5a17.05 17.05 0 0 1-4.7-8.1l9.5 6.9c.3.3.8.5.9.7 6 1.3 12.1-4.3 15.5-8.3l1-1.3c0 .1-1.8-7.6-1.4-5.6z"/><path fill="#260028" d="M1755.11 419.51c-3-2.3-5.4-3.6-6.3-7.6-6.1 7.9-25.9 25-31.6 5.6 6.9 23.6 31.6 23.3 38.3 2.4 0-.1-.1-.3-.4-.4z"/><path fill="#260028" d="M1740.91 435.81c-8 .8-16.2-5.9-8.9-9.6a47.52 47.52 0 0 0 16.8-13.7c.8 3.7 4.5 6.5 6.9 7.8 2 1 .6 2.3.3 3.3-1.9 5.4-11 11.8-15.1 12.2z"/><path fill="#260028" d="M1764.41 414.41c-6.7 15.7-21.3-9.4-15.2-19.8 9.3-16 19.3 10.2 15.2 19.8z"/><path fill="#260028" d="M1764.91 413.51c-6.1 14.1-19.7-8.6-14-18.2 8.7-14.5 17.8 9.2 14 18.2z"/><path fill="#260028" d="M1758.81 417.41c-10-.5-12.8-25.9-1.6-25.7 10.1.29 12.3 26.29 1.6 25.7z"/><path fill="#fff" d="M1758.81 417.41c-8.2-.4-10.7-16.2-7.3-21.5 8.49-13.8 19.8 17.6 7.3 21.5z"/><path fill="#6e664c" d="M1758.71 405.51c-.5-.6 3.3 4.1 2 4-1.1-.1-2.6-2.7-3.2-3.4zm-.5-2.2c-.2.5 2.2-6.2 1-6.5s-2.4 5.2-2.6 6.1z"/><path fill="#6e664c" d="M1758 406.11c3.1-.2-1-3.9-.8-3.3-.29-.81-3.09 5.1.8 3.3z"/><path fill="#968b68" d="M1758.71 405.51c-1.6.6-2.2-.1-1.6-2.2 1.6-.7 2.2.1 1.6 2.2z"/><path fill="#6e664c" d="M1760.64 396.78c-.9.4-1.19-.1-.9-1.2q1.35-.45.9 1.2zm-7.29 16.9a7.57 7.57 0 0 1-.8-1.3c.3-.8 1.59.5.8 1.3zm9.43-11.92c-.8-.3-1-.9-.5-1.7.81.3 1 .94.5 1.7zm-11.69 7.24a8 8 0 0 1-.4-1.6 1 1 0 0 1 .55 1.3.37.37 0 0 1 0 .11 1.14 1.14 0 0 1-.15.19zm12.06-1.54c-.7-.7-.7-1.3.1-1.8.75.7.75 1.34-.1 1.8zm-13-4v-1.7a1.11 1.11 0 0 1 .14 1.56.1.1 0 0 1-.06.13.09.09 0 0 1-.08.01zm11.73 8.99c-.6-1.1-.4-1.5.6-1.4.6 1.1.4 1.5-.6 1.4zm-11.1-14.4c-.3-.5-.2-1 .4-1.5.6.45.1 2.3-.4 1.5zm8.42 17.24c-.1-1.3.2-1.5 1-.6.1 1.31-.2 1.5-1 .6zm-6.2-20.8c-.1-1.3.2-1.5 1-.6.1 1.3-.2 1.5-1 .6zm2.84 20.8c.5-1.1.8-1 1.1.3-.5 1.2-.8 1-1.1-.3zm.4-21.79c.5-1.11.8-1 1.1.29-.5 1.1-.8 1-1.1-.29z"/></svg>