<svg xmlns="http://www.w3.org/2000/svg" preserveAspectRatio="none" viewBox="0 0 1925 275.3"><path fill="#fff" d="M1925 0H0v119.6c21.6 5.3 44.7 11.4 65 18.2 23.3 7.8 46.1 16.6 67.9 26.4a701.4 701.4 0 0 1 63.3 32.3c13.6 7.8 25.2 14.1 36.4 19.7 13.3 6.6 25.8 12.1 38.1 16.9a330.75 330.75 0 0 0 86.7 20.5 312.91 312.91 0 0 0 32.1 1.6 347.69 347.69 0 0 0 61.1-5.5 399.63 399.63 0 0 0 58.2-14.9 429.26 429.26 0 0 0 53.4-22.2 390.9 390.9 0 0 0 46.4-27.2c15.5-8.4 30.4-16.5 43.5-23.7l.1-.1.3-.2c40.1-21.9 77.9-42.6 117.3-61.9 21-10.3 41.1-19.6 61.3-28.3 22.4-9.6 44.6-18.5 67.8-27a554.75 554.75 0 0 1 91.5-24.7 535.49 535.49 0 0 1 95.4-8.6 464.82 464.82 0 0 1 88 8.1 387.67 387.67 0 0 1 82.3 25.2c7 3.1 14.1 6.6 20.9 10.3 6.5 3.5 12.9 7.4 19.2 11.4a324.7 324.7 0 0 1 34.1 25.4c21.3 18 40.1 37.8 58.3 57l.1.1c9.6 10.1 19.5 20.5 29.7 30.6a397.58 397.58 0 0 0 40.6 35.1 338.5 338.5 0 0 0 48.7 30.5 264.42 264.42 0 0 0 27.3 12.2 274.76 274.76 0 0 0 29.2 9.5 294.13 294.13 0 0 0 31.1 6.4 257 257 0 0 0 32.9 2.6h3.9c7.9 0 16-.4 24.1-1 7.7-.7 15.5-1.7 23.3-3a355.18 355.18 0 0 0 44.6-10.6c13-3.9 27-8.9 42.8-15 14.2-5.6 28.4-11.5 42.1-17.3l.3-.1c18-7.6 36.6-15.4 55.3-22.4 10.2-3.8 19.6-7 28.7-9.8 10.3-3.2 22-5.8 31.7-8.1z"/></svg>