<svg xmlns="http://www.w3.org/2000/svg" preserveAspectRatio="none" viewBox="0 0 1920 101"><path fill="#fff" d="M1631.1.3c-12.2-.2-24.7-.3-37.1-.3-22.2 0-45 .4-67.9 1.1-21.8.7-44.4 1.8-67.2 3.1-42 2.5-85.3 6.2-132.5 11.2-39.3 4.2-82.1 9.3-130.7 15.8-43.4 5.8-87.4 12.1-129.9 18.2C999 59 929.9 68.8 861.3 77c-36.9 4.4-70.8 8-103.5 11-36.7 3.4-71 5.9-104.8 7.7-16 1.4-32.5 2.4-49 3.1-16.1.6-32.6 1-49.3 1h-.1c-23.2 0-47.3-.6-71.6-1.9-23.2-1.2-47.3-3-71.6-5.4-23-2.2-47-5-71.3-8.3-22.8-3.1-46.5-6.7-70.7-10.8C175.5 57.7 84.4 36.8 0 16.7V101h1920V13c-43.1-3.1-88.1-5.8-133.8-7.8-50.1-2.3-102.2-3.9-155.1-4.9zm922.2-728.2h1920v291h-1920z"/></svg>