<svg xmlns="http://www.w3.org/2000/svg" preserveAspectRatio="none" viewBox="0 0 1923 266.75"><path fill="#fff" d="M1923 266.75v-31.88a871.32 871.32 0 0 1-101.71 17.41 932.48 932.48 0 0 1-104.46 5.9h-.13a870.87 870.87 0 0 1-91.77-4.77 724.79 724.79 0 0 1-87.22-14.5 539 539 0 0 1-78.93-24.55c-12.35-5-24.2-10.41-35.23-16.13a334.85 334.85 0 0 1-31.81-18.75 378.18 378.18 0 0 1-36.19-27.82c-11.26-9.7-21.9-19.73-32.2-29.43l-.21-.2c-10.73-10.1-21.83-20.55-33.5-30.52-6.32-5.41-12.3-10.25-18.27-14.79-6.68-5.1-13.21-9.71-19.94-14.1A256.34 256.34 0 0 0 1217.46 44a317.89 317.89 0 0 0-39.68-15 324.71 324.71 0 0 0-43.22-10 283.76 283.76 0 0 0-44.56-3.69c-21.34 0-41.34 2.68-59.42 8-5.4 1.58-10.68 3.39-15.69 5.4-4.82 1.92-9.54 4.07-14 6.39a163.93 163.93 0 0 0-24.1 15.23A230.43 230.43 0 0 0 956.4 67.9c-6.48 6.21-12.88 12.86-18.53 18.73-9.1 9.45-18.5 19.22-28.93 28.25a197.79 197.79 0 0 1-16.65 13A171.11 171.11 0 0 1 873 139.61a199.74 199.74 0 0 1-27.17 11.54 239.44 239.44 0 0 1-29.33 7.9 318.79 318.79 0 0 1-63.39 6 455.23 455.23 0 0 1-73-6.25 582.53 582.53 0 0 1-72.69-16.89 619.77 619.77 0 0 1-68-24.74 519.33 519.33 0 0 1-58.89-29.82c-8.49-5.06-17.2-10.41-24.19-14.71h-.05c-20-12.26-40.6-24.94-62.68-36.12-11.88-6-23.18-11.09-34.52-15.53a337.76 337.76 0 0 0-38.22-12.46 270.08 270.08 0 0 0-34.79-6.37A314.52 314.52 0 0 0 249.27 0c-24.87 0-48.34 3-67.87 8.55a130.21 130.21 0 0 0-27.23 10.94 68.85 68.85 0 0 0-19.61 15.61 48.44 48.44 0 0 0-7.72 12.51 54.07 54.07 0 0 0-3.62 13.14c-1.34 9-.85 18.29-.37 27.33v.06c.48 9.26 1 18.83-.49 27.94a53 53 0 0 1-3.94 13.44 49.16 49.16 0 0 1-8.42 12.75 70.11 70.11 0 0 1-12.22 10.59 100.73 100.73 0 0 1-15.13 8.5C72.34 166.1 60.1 170 45.26 173.27 32.91 176 17.44 178.34 0 180.43v86.32z" style="isolation:isolate"/></svg>