<svg xmlns="http://www.w3.org/2000/svg" viewBox="0 0 1923 249.49" preserveAspectRatio="none"><path d="M0 0v109.76c21.56 4.77 43.74 10.26 64 16.31 23.27 7 46.1 14.94 67.86 23.68s43 18.47 63.26 29c13.61 7 25.19 12.65 36.43 17.69 13.31 5.95 25.78 10.91 38.13 15.14A360.71 360.71 0 0 0 356.35 230c10.5 1 21.3 1.45 32.09 1.45a392.27 392.27 0 0 0 61.12-4.91 438.69 438.69 0 0 0 58.24-13.41 448.16 448.16 0 0 0 53.35-19.92 402.92 402.92 0 0 0 46.43-24.47c15.46-7.51 30.36-14.83 43.5-21.28l.13-.07.28-.13c40-19.67 77.87-38.25 117.28-55.64 21-9.28 41.07-17.6 61.29-25.45 22.36-8.66 44.55-16.6 67.85-24.25A606.36 606.36 0 0 1 1084.77 12a520.8 520.8 0 0 1 88 7.25A415.33 415.33 0 0 1 1255 41.92c7 2.8 14.08 5.9 20.89 9.21 6.48 3.17 12.93 6.6 19.16 10.21a331.24 331.24 0 0 1 34.15 22.84c21.3 16.15 40.13 34 58.34 51.21 9.58 9.07 19.49 18.45 29.7 27.51a384.91 384.91 0 0 0 40.56 31.5 345 345 0 0 0 48.67 27.37c9 4.09 18.13 7.78 27.3 11a303.32 303.32 0 0 0 29.21 8.58 295.67 295.67 0 0 0 31.1 5.7 297.61 297.61 0 0 0 32.95 2.38h3.94c7.93 0 16-.31 24.1-.94 7.66-.6 15.49-1.5 23.27-2.67a390 390 0 0 0 44.6-9.52c13-3.55 27-8 42.85-13.52 14.21-5 28.4-10.36 42.11-15.56l.26-.1c18-6.8 36.56-13.84 55.33-20.08 10.2-3.39 19.59-6.28 28.71-8.82 10.3-2.86 21-5.23 30.68-7.23V0z" fill="#fff"/></svg>