<svg xmlns="http://www.w3.org/2000/svg" preserveAspectRatio="none" viewBox="0 0 1920 170"><path fill="#fff" d="M209.4 167c-14.9-2.1-29.6-5.2-44.1-9.3-12.8-3.7-25.4-8.1-37.8-13.1-11.8-4.8-23.2-9.9-34.3-14.9l-.2-.1-.1-.1C79 123.2 64.7 116.8 49.5 111c-8.1-3.1-15.9-5.7-23.6-8.1-8.7-2.6-17.2-4.8-25.9-6.7v74.3h262.9c-9.6 0-19.1-.3-28.1-.9-8.6-.6-17.2-1.5-25.4-2.6zm1697.8-93.8c-9.2 2-18.8 3.7-28.6 5.1-10.3 1.5-21.2 2.6-32.4 3.4-2.2.2-4.6.4-7.1.5-9.6.5-19.2.8-28.3.8-9.6 0-19-.3-28.1-.9-8.7-.6-17.2-1.5-25.4-2.6-14.9-2.1-29.6-5.2-44.1-9.3-27-7.7-50.1-18.1-72.4-28.2l-.1-.1c-18-8.1-36.7-16.6-57.3-23.5-10.8-3.6-21.7-6.7-32.8-9.2-.2 0-.3-.1-.5-.1-.9-.2-1.8-.5-2.8-.7-67.7-16.8-140.9-4.5-173.3 2.7h-.3c-3.7.8-7.4 1.7-11.1 2.7-3.6.9-5.6 1.5-5.6 1.5-6.6 1.9-13.1 3.9-19.6 6.2-10.5 3.7-20.8 8-30.9 12.8-19.2 9.2-36.2 19.6-52.6 29.7l-.1.1c-11.3 6.9-23 14.1-35.3 20.8-12.9 7.1-26.3 13.4-40.1 18.7-16.1 6.1-32.6 11-49.5 14.4-9.5 1.9-19.5 3.6-29.8 4.9-10.8 1.4-22.2 2.4-33.9 3.1-9.7.5-19.2.8-28.3.8-9.6 0-19.1-.3-28.1-.9-8.6-.6-17.2-1.5-25.4-2.6-14.9-2.1-29.6-5.2-44.1-9.3-26.9-7.7-50-18.1-72.3-28.2l-.1-.1c-17.7-7.9-36-16.2-56-23-10.5-3.5-21.1-6.6-31.9-9.1-12-2.8-24.2-4.9-36.5-6.3h-.1c-34.7-4.1-93.2-6.2-153.9 10.2-2.1.5-4 1.1-5.6 1.6-7.3 2-14.5 4.3-21.6 6.9-10.2 3.7-20.1 7.9-29.9 12.6-18.7 9.1-35.3 19.3-51.4 29.1l-.2.1c-11 6.7-22.4 13.7-34.4 20.3-12.5 6.9-25.5 13-38.8 18.3-15.5 6.1-31.4 10.9-47.6 14.4-9.1 2-18.6 3.7-28.4 5.1-10.3 1.5-21.2 2.6-32.3 3.4-2.1.1-4.4.2-7.1.4-9.6.5-19.1.8-28.3.8H1921V69.9c-4.5 1.2-9.1 2.3-13.8 3.3z"/></svg>