<svg xmlns="http://www.w3.org/2000/svg" id="Group_8731" data-name="Group 8731" viewBox="0 0 1758 1324"><defs><style>.cls-6{fill:#fff}.cls-10,.cls-20,.cls-4{fill:none}.cls-5{fill:#ffdc40}.cls-7{fill:#ebebeb}.cls-8{fill:#d7dbdb}.cls-9{fill:#ff4a00}.cls-10{stroke:#fff}.cls-10,.cls-20{stroke-linecap:round;stroke-miterlimit:10;stroke-width:3px}.cls-11{fill:#0078bf}.cls-12{fill:#757575}.cls-13{fill:#260028}.cls-15{fill:#0c8}.cls-17{fill:#fa6142}.cls-20{stroke:#260028}.cls-21{opacity:.22}.cls-22{fill:#f9f9f9}</style><clipPath id="clip-path"><path id="Rectangle_2211" fill="#fff" stroke="#707070" d="M0 0h1758v1324H0z" data-name="Rectangle 2211" transform="translate(-843 1760)"/></clipPath><clipPath id="clip-path-2"><path id="Path_7666" d="M529.916 976.31h-2.006c-24.856.262-49.8.349-74.657.174-5.233 0-10.815-.262-14.914-3.489-4.71-3.837-5.756-10.553-6.454-16.571-2.791-24.682-4.535-57.3-7.326-81.983-1.308-11.861-3.4-20.932 10.2-21.281 13.867-.262 27.822-.174 41.689-.262 6.89 0 81.634.872 81.634.174-2.529 32.619-6.8 73.087-10.815 105.618-.611 5.146-1.57 10.815-5.495 14.216-3.222 2.794-7.583 3.317-11.856 3.404z" data-name="Path 7666" transform="translate(-423.6 -852.9)"/></clipPath></defs><g id="BACKGOROUND_CLOUD_BLUE" clip-path="url(#clip-path)" transform="translate(843 -1760)"><g id="Group_8017" data-name="Group 8017" transform="translate(-843.151 1760.022)"><path id="Path_6409" fill="#a6d6ff" d="M1513.974 1055.788c-73.557 13.767-151.653 9.387-210.226 11.89-114.421 5.006-228.842 6.258-343.263 1.877-226.572-8.761-446.333-50.062-673.359-10.638C169.981 1078.941 6.068 1085.2.165 866.805c0 0-19.524-247.805 316.02-332.91 0 0 6.357-48.184 6.811-51.313 9.081-40.675 25.427-78.221 47.221-108.258 118.053-162.7 282.874-16.9 406.376-132.663 73.1-68.835 86.27-202.75 182.983-235.29 81.729-26.908 168 35.043 224.756 112.639 64.021 88.234 88.54 215.891 160.28 295.989 124.864 140.173 436.344 88.859 383.22 427.4-22.7 144.553-113.967 195.24-213.858 213.388" data-name="Path 6409"/></g></g><g id="SEAGULl_TWO" transform="translate(1372.918 954.709)"><g id="Group_8003" data-name="Group 8003"><path id="Path_6383" d="M1093.243 766.046a44.529 44.529 0 0 1 8.49-1.915 58 58 0 0 1 6.909-.416h.583a60.653 60.653 0 0 0 11.32-.916 33.9 33.9 0 0 1-6.16 2.164 185.14 185.14 0 0 0-5.91 1.748c-.083 0-.25.083-.333.083-3.5.5-9.073 1.5-13.651 4.162a27.055 27.055 0 0 0-4-1.415 23.617 23.617 0 0 0-3.5-.832 50.228 50.228 0 0 1 6.252-2.663z" class="cls-6" data-name="Path 6383" transform="translate(-1033.394 -756.141)"/><path id="Path_6384" d="M1022.6 758.7c3.912 14.65 38.873 8.074 46.281 16.148.5-.333 9.323-3 9.989-3.08-13.236-16.731-28.302-1.831-56.27-13.068z" class="cls-6" data-name="Path 6384" transform="translate(-1022.6 -755.454)"/><path id="Path_6385" d="M1129.981 754.8s1.582 6.076-7.075 9.406c-9.406 3.662-24.139 2-26.636 5.827l-12.07-.833s4.328-7.824 17.48-7.824c13.152.083 22.641-1.082 28.301-6.576z" class="cls-7" data-name="Path 6385" transform="translate(-1032.925 -754.8)"/><g id="Group_8001" data-name="Group 8001" transform="translate(80.075)"><path id="Path_6386" d="M1125.043 760.044c4.495-1 8.074-2.58 10.738-5.244 0 0 1.581 6.076-7.075 9.406a45.367 45.367 0 0 1-9.905 2.247c3.828-2.081 5.493-4.411 6.242-6.409z" class="cls-8" data-name="Path 6386" transform="translate(-1118.8 -754.8)"/></g><path id="Path_6387" d="M1103.216 773.8l-.916 2.747.833 1.082s6.909-.666 9.989.416c0 0-1.5-3.08-3.08-3.246-1.749-.167-5.994-.333-6.826-.999z" class="cls-9" data-name="Path 6387" transform="translate(-1035.959 -757.985)"/><path id="Path_6388" d="M1066.486 776.776a19.725 19.725 0 0 1 21.06-6.16 7.171 7.171 0 0 1 9.073 3.08s-2.663 16.065-27.052 9.073l-5.66 4.495a18.787 18.787 0 0 1-9.906-6.909c1.747-.499 11.153-3.079 12.485-3.579z" class="cls-6" data-name="Path 6388" transform="translate(-1027.863 -757.299)"/><g id="Group_8002" data-name="Group 8002" transform="translate(26.22 22.225)"><path id="Path_6389" d="M1054.1 782.416c.5-.166 1.582-.5 2.914-.916 1.665 2.83 6.16 4.412 10.155 5.244l-3.163 2.5a19.049 19.049 0 0 1-9.906-6.828z" class="cls-8" data-name="Path 6389" transform="translate(-1054.1 -781.5)"/></g></g><g id="Group_8004" data-name="Group 8004" transform="translate(0 3.246)"><path id="Path_6390" d="M1022.6 758.7a63.827 63.827 0 0 0 12.9 3.662c2.164 2.081 5.91 4.5 11.986 7.242-11.235-1.165-22.722-2.83-24.886-10.904z" class="cls-8" data-name="Path 6390" transform="translate(-1022.6 -758.7)"/></g></g><g id="SEAGULL_THREE" transform="translate(1219.676 825.773)"><path id="Path_6399" d="M867.8 668.329c4.412-1.5 9.406-3.246 9.573-3.33.25-.083 4.328 5.66 4.328 5.66l-7.325 6.409a9.319 9.319 0 0 1-6.576-8.739z" class="cls-6" data-name="Path 6399" transform="translate(-843.411 -610.811)"/><g id="Group_8012" data-name="Group 8012" transform="translate(0 22.891)"><path id="Path_6400" d="M876.093 645.006c-1.665-1.5-20.893-9.406-20.893-9.406a44.256 44.256 0 0 0 14.234 18.9s5.244 8.407 10.655 10.821c0 0 11.071-3.912 8.823-5.244-8.574-5.249-11.238-13.656-12.819-15.071z" class="cls-6" data-name="Path 6400" transform="translate(-841.299 -628.774)"/><g id="Group_8011" data-name="Group 8011"><path id="Path_6401" d="M843.411 634.725l5.078 1-5.993-2.247a42.194 42.194 0 0 1-4-6.076l13.984 6.909q2.247 3.621 4.495 6.742c.916 1.249 1.831 2.5 2.664 3.579 4 5.244 7.075 8.574 7.075 8.574a64.745 64.745 0 0 1-14.983-9.739c-.916-.749-1.748-1.582-2.5-2.331l4.828.166-7.242-2.58c-1.325-1.417-2.407-2.748-3.406-3.997z" class="cls-8" data-name="Path 6401" transform="translate(-838.5 -627.4)"/></g></g><path id="Path_6402" d="M861.165 673.745a28.211 28.211 0 0 1-1.665-2.331s3.246-1.165 6.909-2.414a9.319 9.319 0 0 0 6.576 8.74l-2.664 2.331a9.34 9.34 0 0 1-2.247-.832l.333-1.082-1.915.25a18.088 18.088 0 0 1-2.414-1.665l2.164-1.831-3 1.082c-.5-.5-1-1-1.5-1.582l1.258-1.083z" class="cls-8" data-name="Path 6402" transform="translate(-842.02 -611.482)"/><g id="Group_8014" data-name="Group 8014" transform="translate(37.124)"><path id="Path_6403" d="M896.449 662.49l-9.905-2.747c-2-5.66.5-15.149.5-15.149l8.823-5.494z" class="cls-7" data-name="Path 6403" transform="translate(-883.547 -606.471)"/><path id="Path_6404" d="M896.04 633.432l.083 2.081-8.823 5.494a137.64 137.64 0 0 1 3.829-23.307z" class="cls-7" data-name="Path 6404" transform="translate(-883.804 -602.883)"/><g id="Group_8013" data-name="Group 8013"><path id="Path_6405" d="M883.183 616.465a54.216 54.216 0 0 1 .416-6.743l3 3.247-2.247-7.741a42.927 42.927 0 0 1 1.332-5.327l4.661 14.817a199.884 199.884 0 0 0-1.748 7.908c-.333 1.582-.583 3-.749 4.412-1 6.493-1.332 10.988-1.332 10.988a62.011 62.011 0 0 1-2.83-12.486h1.748l-2-1.748-.25-3.246c0-.832-.083-1.665-.083-2.5l2.58 1.082z" class="cls-8" data-name="Path 6405" transform="translate(-883.1 -599.9)"/></g></g><path id="Path_6406" d="M910.2 667.677s5.993-1.915 8.573-.583c0 0 .25-.832-1.5-1.665-1.831-.832-4-.583-5.744-2.83z" class="cls-9" data-name="Path 6406" transform="translate(-850.518 -610.409)"/><path id="Path_6407" d="M883.966 659.5c-7.075 1.332-6.076 13.4-6.076 13.4 12.652 6.992 23.057-4.245 22.225-8.74-.915-4.573-9.073-5.988-16.149-4.66z" class="cls-6" data-name="Path 6407" transform="translate(-845.094 -609.81)"/><path id="Path_6408" d="M893.143 672.834s10.654-3.662 13.9-5.41c.832-.5 2-3.912-.25-6.909-2-2.664-9.656-.5-11.154-.832s-5.161-.583-5.161-.583l-3.579 9.572z" class="cls-6" data-name="Path 6408" transform="translate(-846.613 -609.823)"/></g><g id="SIMPLE_ILLUSTRATION_REPLACE_WITH_ANIMATION" data-name="SIMPLE_ILLUSTRATION_REPLACE WITH ANIMATION" transform="translate(594.822 286.872)"><path id="Line_391" d="M0 320.169L71.691 0" class="cls-10" data-name="Line 391" transform="translate(499.748 437.03)"/><path id="Line_392" d="M0 320.169L58.696 0" class="cls-10" data-name="Line 392" transform="translate(495.3 437.03)"/><path id="Line_393" d="M0 0l79.017 311.098" class="cls-10" data-name="Line 393" transform="translate(292.698 423.337)"/><path id="Line_394" d="M65.412 297.754L0 0" class="cls-10" data-name="Line 394" transform="translate(314.24 436.943)"/><g id="Group_8728" data-name="Group 8728" transform="translate(392.722 655.664)"><path id="Path_7643" d="M536.908 821.818c-1.832.785-3.663 1.483-5.495 2.355-15.873 7.762-23.287 6.018-38.113 8.373 4.535-4.971 27.037-9.245 32.967-11.948 2.442-1.134 3.925-1.221 5.669-2.442 1.57-2.18 7.937-2.442 10.553-9.855.7-4.448 2.006-19.623 4.535-23.2.523 2.965 4.535 18.751 4.1 22.589-.174 1.4-2.18 1.221-3.14 1.308-1.832.262-2.529 1.047-3.489 2.616-.872 1.483-1.744 2.878-2.616 4.448a18.32 18.32 0 0 0-1.134 2.268 7.289 7.289 0 0 1-1.047 2.006 4.121 4.121 0 0 1-1.047.611 10.848 10.848 0 0 1-1.743.871z" class="cls-11" data-name="Path 7643" transform="translate(-455.785 -756.042)"/><path id="Path_7644" d="M542.234 778.489c-4.186 5.146-6.716 8.9-2.006 10.553 1.134.349 7.762-.087 8.634-1.047a38.529 38.529 0 0 0 4.535-5.669c.785-1.744 3.053-16.309.7-13.867-3.403 3.315-7.851 7.941-11.863 10.03z" class="cls-6" data-name="Path 7644" transform="translate(-461.46 -753.879)"/><g id="Group_8725" data-name="Group 8725" transform="translate(84.389)"><path id="Path_7645" d="M557.97 781.3c.262-.611.7.611.872.262 1.047-1.657 3.925-1.047 4.8-3.14.436-1.047 0-4.1.611-5.146.523-.959 2.093.436 2.093-.785 0-.436-.436-5.931-.349-6.541.262-2.18 1.57-5.233-.7-6.716-1.134-.785-3.925-.349-5.146-.349a66.878 66.878 0 0 0-7.239.174c-5.233.611-2.878 9.855-2.355 13.518 0 0-.174 3.053-.174 3.838a17.278 17.278 0 0 1-.523 2.006c2.093 2.18 1.308 4.884 4.1 6.454.259-.7 4.01-3.491 4.01-3.575z" class="cls-6" data-name="Path 7645" transform="translate(-547.369 -752.674)"/><path id="Path_7646" d="M556.425 762.351c2.617-2.18 10.03 1.221 11.6-3.053.872-2.268-.872-7.849-2.7-7.5-1.308.174-2.268 1.831-3.576 1.657-1.134-.174-2.006-1.134-3.227-1.134-1.57-.087-2.442 1.134-3.838 1.4-1.308.262-2.442-.872-3.663-.436-1.744.7-3.227 1.483-3.837 3.75-.436 1.832.349 4.361.087 6.716-.174 1.57-.436 6.716.959 7.937 1.57 1.308 3.227 0 3.75-.785a6.957 6.957 0 0 0 .959-2.791 9.31 9.31 0 0 1 3.486-5.761z" class="cls-12" data-name="Path 7646" transform="translate(-547.045 -751.782)"/><path id="Path_7647" d="M557.3 763.9a2.618 2.618 0 0 0-.262 2.006 4.721 4.721 0 0 0 .349 1.308 36.035 36.035 0 0 0 2.18 3.925 1.905 1.905 0 0 1 .262.436c-1.744 1.308-1.919 4.535-2.006 6.628 0 .959 0 2.006.087 2.965-2.093-2.965-2.006-5.931-2.616-9.332v-.087c-.087-.436-.523-1.832-1.4-2.093a8.135 8.135 0 0 1 3.406-5.756z" class="cls-12" data-name="Path 7647" transform="translate(-547.922 -753.331)"/><path id="Path_7648" d="M566.162 782.455c-.087-1.221-.349-2.268-.436-3.489 0-.872.174-2.442-.611-3.053-.523-.436-1.744-.174-2.355-.523-.959-.523-1.657-1.919-2.355-2.791-1.744 1.308-1.919 4.535-2.006 6.628 0 .959 0 2.006.087 2.965a6.9 6.9 0 0 0 1.221 1.4c2.269 1.916 6.63 3.399 6.455-1.137z" class="cls-12" data-name="Path 7648" transform="translate(-548.497 -754.444)"/><path id="Path_7649" d="M565.458 777.623c-.611-.174-2.878-.523-2.878-.523-.872 1.744 2.7 3.4 2.791 1.744l-.262-.262s.872-.782.349-.959z" class="cls-6" data-name="Path 7649" transform="translate(-549.014 -755.019)"/></g><path id="Path_7650" d="M517.617 812.957v-.174c.872-13.78 16.658-2.616 15.7-16.309a15.452 15.452 0 0 0-.785-4.535c-.174-.436-.436-.959-.872-1.047a1.719 1.719 0 0 0-1.308.262 21.98 21.98 0 0 0-6.279 4.71c-1.744 2.006-1.657 4.71-1.657 7.239.174 12.559-15.088.174-14.914 12.733a17.1 17.1 0 0 0 .785 5.931 10.2 10.2 0 0 0 9.943 6.628 15.379 15.379 0 0 1 4.8-9.681c-1.483-1.134-3.663-1.047-4.8-2.529a5.8 5.8 0 0 1-.613-3.228z" class="cls-11" data-name="Path 7650" transform="translate(-457.601 -756.775)"/><path id="Path_7651" d="M465.086 860.069s3.925 33.752 3.925 34.973-1.047 25.554-1.047 25.554l-1.919 41.079 17.53 2.529L486.8 916.5l1.57-24.42-.611-33.4s-24.505-24.34-22.673 1.389z" class="cls-13" data-name="Path 7651" transform="translate(-452.166 -764.116)"/><path id="Path_7652" d="M497.231 854.791c4.361 10.466 9.419 22.676 13.78 33.055 3.4 8.111 7.849 14.914-1.483 19.8-11.6 6.018-25.99 13.867-37.5 19.972-.785.436-8.46 5.669-8.722 5.669-2.616-.262-8.285-8.983-10.2-11.076 6.367-5.32 31.572-20.06 35.5-22.763 3.053-2.093 4.274-3.663 2.18-7.588-1.832-3.489-18.141-20.844-22.153-26.339-4.622-6.192-9.419-12.123-8.722-20.234.523-5.582 3.837-13.693 10.2-11.512 2.616.872 9.943-2.616 12.21-1.221 2.878 1.831 6.192 8.285 9.245 9.855 5.403 2.876 2.525 7.411 5.665 12.382z" class="cls-13" data-name="Path 7652" transform="translate(-450.646 -762.065)"/><path id="Path_7653" fill="#1a1938" d="M452.424 826.34c-3.663 3.314 13.257 4.448 13.257 4.448l3.4-2.006 6.716-3.838-17.006-1.744z" data-name="Path 7653" transform="translate(-450.493 -760.912)"/><path id="Path_7655" d="M497.508 847.786a4.345 4.345 0 0 0 2.442-1.919c6.977-8.722 16.571-22.851 26.95-27.124 3.663-1.483 7.675-2.791 10.466-5.669a20.289 20.289 0 0 0 3.75-6.192c.872-2.093 2.093-4.1 2.791-6.192 1.134-3.14.7-6.28.174-9.507-.349-2.442-1.657-4.622-3.925-8.983-.262 1.221-6.105 8.46-7.5 9.07-4.012 1.744-8.111 3.4-12.123 5.233-7.762 3.489-15.873 6.454-23.112 10.989-7.152 4.535-13.78 8.983-21.891 13.257-3.227 1.657-19.885 9.332-10.728 13.082 1.919.785 4.186.7 6.28.872 8.983.872 15.873 8.285 23.984 12.3a2.888 2.888 0 0 0 2.442.783z" class="cls-15" data-name="Path 7655" transform="translate(-451.795 -755.671)"/><path id="Path_7656" d="M552.7 791.973a67.04 67.04 0 0 0-.174-4.71c-.262-3.576-3.489-8.024-5.669-11.164a8.61 8.61 0 0 0-4.361 3.314c2.795 3.577 9.423 8.287 10.204 12.56z" class="cls-15" data-name="Path 7656" transform="translate(-462.075 -754.891)"/><path id="Path_7657" d="M507.424 825.206c-7.588-.785-15.176.349-22.763-1.4A51.4 51.4 0 0 1 465.3 815c-3.663-2.7-7.152-5.931-11.6-6.716a3.02 3.02 0 0 0-2.965.7c-.785.872-.436 2.355.262 3.314a34.6 34.6 0 0 0 2.529 2.529 6.826 6.826 0 0 1-1.221 9.594c1.134-.785 6.454.611 7.937.785 2.616.262 5.32.436 7.937.7 6.018.523 11.949 1.047 17.966 1.57" class="cls-11" data-name="Path 7657" transform="translate(-450.286 -758.994)"/><path id="Path_7658" d="M573.055 834.9l1.221.262s4.012.872 7.064 1.657c4.971 1.308 7.239 9.855 5.407 8.547-1.832-1.4-4.535-5.146-6.192-4.1-1.57 1.047 3.663 3.227 1.744 3.925-2.18.785-11.6-7.937-11.6-7.937z" class="cls-6" data-name="Path 7658" transform="translate(-465.68 -762.408)"/><g id="Group_8726" data-name="Group 8726" transform="translate(23.124 21.682)"><path id="Path_7659" d="M519.623 786.374c1.744-2.529 8.9-7.675 11.164-9.158 1.483-.959 1.744-.872 5.146 1.483a20.133 20.133 0 0 1 5.146 5.931c1.657 2.616.959 11.687-.959 16.048-.262.523-2.18 7.413-3.663 8.111-2.006.959-8.809 4.012-10.466 4.884-4.8 2.616-10.2 7.152-15.437 8.634a15.145 15.145 0 0 1-3.4.436c-9.855.349-20.583-1.134-30.351-2.442 0 0 15-8.285 26.339-17.356 7.058-5.757 11.248-9.071 16.481-16.571z" class="cls-11" data-name="Path 7659" transform="translate(-476.8 -776.643)"/></g><g id="Group_8727" data-name="Group 8727" transform="translate(71.529 29.931)"><path id="Path_7660" d="M543.289 810.869a25.3 25.3 0 0 0 5.146-4.1 17.61 17.61 0 0 0 2.791-4.884c-.087.174-.262.349-.349.523.087-.174.262-.349.349-.523.349-.785.611-1.657.872-2.442.611-3.75-2.18-9.855-3.925-13.344-1.57.523-1.134 3.053-1.919 5.407-1.134 3.227-3.576 6.105-4.71 9.332-1.832 5.233-6.367 9.594-9.245 14.3" class="cls-11" data-name="Path 7660" transform="translate(-532.3 -786.1)"/></g><path id="Path_7661" d="M568.106 834.082l-32.27-5.582c-2.616 3.14-4.448 4.8-3.663 8.722 6.454-.174 13.431.872 20.583.872 7.675.087 12.385.174 16.92.611-1.483-1.222-1.047-2.705-1.57-4.623z" class="cls-6" data-name="Path 7661" transform="translate(-460.732 -761.59)"/><path id="Path_7662" d="M552.363 827.735l-27.473-3.75 7.762-17.094-12.646-2.791-9.506 20.845c-3.227 9.507 6.018 10.117 6.018 10.117l33.4.087c1.657-1.134.7-1.134 2.791-4.884.003 0 1.398-2.181-.346-2.53z" class="cls-11" data-name="Path 7662" transform="translate(-457.897 -758.471)"/></g><g id="Group_8730" data-name="Group 8730" transform="translate(369.448 743.854)"><path id="Path_7664" d="M529.916 976.31h-2.006c-24.856.262-49.8.349-74.657.174-5.233 0-10.815-.262-14.914-3.489-4.71-3.837-5.756-10.553-6.454-16.571-2.791-24.682-4.535-57.3-7.326-81.983-1.308-11.861-3.4-20.932 10.2-21.281 13.867-.262 27.822-.174 41.689-.262 6.89 0 81.634.872 81.634.174-2.529 32.619-6.8 73.087-10.815 105.618-.611 5.146-1.57 10.815-5.495 14.216-3.222 2.794-7.583 3.317-11.856 3.404z" class="cls-17" data-name="Path 7664" transform="translate(-423.6 -852.9)"/><g id="Group_8729" clip-path="url(#clip-path-2)" data-name="Group 8729"><path id="Path_7665" fill="#d95438" d="M556.775 871.217c-4.622 1.831-9.855 1.57-14.914 1.4-23.2-1.134-46.05-.872-69.162-.611-14.391.174-28.868.262-43.259.436-5.233.087-10.9 0-15-3.314-8.285-6.628-1.657-15.524 6.105-16.658 13.78-2.006 29.217-.087 43.085-.087h87.477c4.274 0 9.07.262 11.861 3.489 3.75 4.361.785 11.687-4.186 14.478a19.933 19.933 0 0 1-2.007.867z" data-name="Path 7665" transform="translate(-421.94 -852.728)"/></g></g><path id="Path_7667" d="M466.929 950.779a7.7 7.7 0 0 0-.262 9.681 8.777 8.777 0 0 0 10.291 3.14c3.576-1.483 5.669-5.146 7.064-8.722a48.561 48.561 0 0 0 3.314-14.478c-5.057.959-15.959 4.622-20.407 10.379z" class="cls-13" data-name="Path 7667" transform="translate(-59.456 -120.232)"/><path id="Path_7668" d="M396.135 920.238a7.47 7.47 0 0 0-4.448 8.286 8.521 8.521 0 0 0 7.588 7.239c3.75.262 7.152-2.093 9.943-4.535a48.873 48.873 0 0 0 9.158-11.164c-4.797-1.396-15.961-2.879-22.241.174z" class="cls-13" data-name="Path 7668" transform="translate(-50.062 -117.426)"/><path id="Path_7669" d="M556.775 858.417c-4.622 1.831-9.855 1.57-14.914 1.4-23.025-1.134-46.137-.872-69.162-.61-14.391.174-28.868.262-43.259.436-5.233.087-10.9 0-15-3.314-8.285-6.628-1.657-15.524 6.105-16.658 13.78-2.006 29.217-.087 43.085-.087h87.477c4.274 0 9.07.262 11.861 3.489 3.75 4.361.785 11.687-4.186 14.478a19.96 19.96 0 0 1-2.007.866z" class="cls-17" data-name="Path 7669" transform="translate(-52.492 -107.237)"/><path id="Path_7671" d="M558.084 865.4c-19.362 8.722-40.468 1.919-60.789.611-13.17-.872-26.339.087-39.334 1.744-12.123 1.483-22.85.872-35.061-1.047" class="cls-20" data-name="Path 7671" transform="translate(-54.063 -110.644)"/><path id="Path_7672" d="M428.2 869.1c9.158 15.437 23.461 12.821 33.142.087" class="cls-20" data-name="Path 7672" transform="translate(-54.74 -111.117)"/><path id="Path_7673" d="M534 870.242c10.291 14.74 24.42 10.989 33.055-2.442" class="cls-20" data-name="Path 7673" transform="translate(-68.266 -110.95)"/><path id="Path_7674" d="M467.9 870.3c15.437 26.514 39.6 21.978 55.992.087" class="cls-20" data-name="Path 7674" transform="translate(-59.816 -111.27)"/><path id="Path_7675" d="M460.8 871.5s-15.175 33.4-43 44.044" class="cls-20" data-name="Path 7675" transform="translate(-53.411 -111.423)"/><path id="Path_7676" d="M527.321 870.8s-13.606 38.113-39.422 62.882" class="cls-20" data-name="Path 7676" transform="translate(-62.373 -111.334)"/><path id="Path_7677" d="M775.349 437.466c-37.59 6.367-77.535 5.32-107.45 6.89-58.435 3.053-116.956 4.71-175.478 3.925-116-1.657-228.592-16.745-344.327 1.744C88.352 459.531 4.363 463.718.177 372.141c0 0-11.425-103.612 159.6-142.51-.087 0 2.965-20.321 3.314-21.629a114.225 114.225 0 0 1 23.548-45.7c59.307-69.336 144.6-9.768 207.137-59.394 36.718-29.13 42.561-85.471 91.838-99.862 41.6-12.123 86.169 13 115.561 45.178 33.316 36.456 46.66 89.658 83.64 122.625 64.8 57.65 223.708 33.142 198.677 175.3-10.64 60.528-57.126 82.68-108.147 91.315" class="cls-6" data-name="Path 7677"/></g><g id="SEAGULL_ONE" transform="translate(909.067 247.67)"><g id="Group_8022" data-name="Group 8022"><g id="Group_8008" data-name="Group 8008"><path id="Path_6391" d="M345.991 746.729a54.1 54.1 0 0 1 10.155-2.247 66.027 66.027 0 0 1 8.241-.5h.666a71.192 71.192 0 0 0 13.485-1.082 51.816 51.816 0 0 1-7.325 2.664 524.986 524.986 0 0 0-7.075 2.081 3.606 3.606 0 0 1-.416.083c-4.162.583-10.821 1.831-16.232 4.911a32.616 32.616 0 0 0-4.828-1.748 29.776 29.776 0 0 0-4.162-1 57.964 57.964 0 0 1 7.491-3.162z" class="cls-6" data-name="Path 6391" transform="translate(-274.573 -734.909)"/><path id="Path_6392" d="M261.7 738c4.661 17.48 46.447 9.655 55.27 19.311.666-.416 11.071-3.579 11.9-3.663-15.812-20.06-33.791-2.248-67.17-15.648z" class="cls-6" data-name="Path 6392" transform="translate(-261.7 -734.088)"/><path id="Path_6393" d="M389.888 733.3s1.831 7.242-8.407 11.237c-11.237 4.412-28.8 2.331-31.88 6.992l-14.4-1s5.244-9.323 20.893-9.323c15.731.085 27.051-1.33 33.794-7.906z" class="cls-7" data-name="Path 6393" transform="translate(-274.02 -733.3)"/><g id="Group_8006" data-name="Group 8006" transform="translate(95.724 .083)"><path id="Path_6394" d="M384.025 739.643c5.327-1.165 9.656-3.163 12.9-6.243 0 0 1.831 7.242-8.407 11.237A47.231 47.231 0 0 1 376.7 747.3c4.412-2.58 6.493-5.327 7.325-7.657z" class="cls-8" data-name="Path 6394" transform="translate(-376.7 -733.4)"/></g><path id="Path_6395" d="M357.982 756l-1.082 3.246 1 1.332s8.241-.832 11.9.5c0 0-1.748-3.663-3.746-3.829-1.995-.249-7.073-.5-8.072-1.249z" class="cls-9" data-name="Path 6395" transform="translate(-277.657 -737.105)"/><path id="Path_6396" d="M314.1 759.594a23.654 23.654 0 0 1 25.138-7.408 8.44 8.44 0 0 1 10.821 3.746s-3.163 19.145-32.3 10.821l-6.742 5.327a22.441 22.441 0 0 1-11.82-8.241c2.084-.665 13.321-3.662 14.903-4.245z" class="cls-6" data-name="Path 6396" transform="translate(-267.986 -736.288)"/><g id="Group_8007" data-name="Group 8007" transform="translate(31.298 26.553)"><path id="Path_6397" d="M299.3 766.282a203.54 203.54 0 0 0 3.5-1.082c2 3.413 7.325 5.244 12.07 6.243l-3.746 3a23.018 23.018 0 0 1-11.824-8.161z" class="cls-8" data-name="Path 6397" transform="translate(-299.3 -765.2)"/></g></g><g id="Group_8009" data-name="Group 8009" transform="translate(0 3.912)"><path id="Path_6398" d="M261.7 738a74.138 74.138 0 0 0 15.4 4.412c2.58 2.414 7.075 5.327 14.317 8.573C278.015 749.57 264.2 747.572 261.7 738z" class="cls-8" data-name="Path 6398" transform="translate(-261.7 -738)"/></g></g></g><g id="Cloud" class="cls-21" transform="translate(1398.17 771.75)"><path id="Path_6344" d="M1066.153 606.705c-6.323.848-13.038.587-18.058.717-9.779.326-19.623.391-29.4.13-19.427-.587-38.268-3.129-57.76-.652-10.039 1.239-24.121 1.63-24.643-12 0 0-1.695-15.451 27.12-20.731 0 0 .521-3 .587-3.194a16.878 16.878 0 0 1 4.042-6.715c10.1-10.1 24.252-1.043 34.878-8.279 6.259-4.238 7.367-12.582 15.646-14.6 6.975-1.7 14.407 2.151 19.3 7.041 5.476 5.476 7.627 13.43 13.755 18.45 10.691 8.736 37.42 5.541 32.857 26.6-1.891 8.931-9.779 12.126-18.319 13.234" class="cls-22" data-name="Path 6344" transform="translate(-936.271 -540.976)"/></g><g id="Clouds" class="cls-21" transform="translate(818.909 853.353)"><path id="Path_6343" d="M157.712 668.156c-7.664 1.041-15.8.71-21.905.9-11.923.378-23.845.473-35.768.142-23.609-.662-46.507-3.785-70.163-.8C17.67 669.906.59 670.38-.025 653.868c0 0-2.034-18.735 32.929-25.17 0 0 .662-3.643.71-3.88a19.907 19.907 0 0 1 4.92-8.185c12.3-12.3 29.475-1.277 42.344-10.03 7.57-5.157 8.942-15.282 19.019-17.742 8.516-2.034 17.505 2.649 23.419 8.516 6.671 6.671 9.226 16.323 16.7 22.379 13.011 10.6 45.467 6.718 39.931 32.314-2.318 10.882-11.828 14.714-22.236 16.086" class="cls-22" data-name="Path 6343" transform="translate(.047 -588.378)"/></g></svg>