<svg width="1920" height="1180" xmlns="http://www.w3.org/2000/svg"><title>background</title><path fill="none" id="canvas_background" d="M-1-1h1922v1182H-1z"/><title>Layer 1</title><path id="svg_1" d="M554.763 1180h-.056c-23.17 0-47.253-.645-71.581-1.913-23.172-1.208-47.265-3.019-71.61-5.384-23.035-2.237-47.024-5.039-71.3-8.33-22.766-3.086-46.54-6.7-70.662-10.753-94.076-15.793-185.15-36.617-269.554-56.767V-1.224h1920v1094.327c-43.058-3.128-88.076-5.754-133.8-7.8-50.07-2.245-102.24-3.856-155.061-4.787-12.229-.23-24.724-.347-37.137-.347-22.173 0-45.024.373-67.921 1.109-21.827.7-44.42 1.756-67.151 3.134-41.958 2.544-85.283 6.2-132.45 11.19-39.309 4.155-82.073 9.331-130.738 15.826-43.391 5.791-87.38 12.074-129.921 18.15h-.015l-.044.006c-66.8 9.541-135.876 19.406-204.467 27.63-36.933 4.429-70.772 8.04-103.453 11.041-36.687 3.369-70.979 5.887-104.839 7.7a1108.125 1108.125 0 0 1-48.975 3.065c-16.07.649-32.643.98-49.265.98z" fill="#fb795f"/></svg>