<svg xmlns="http://www.w3.org/2000/svg" viewBox="0 0 100 24.284"><path fill="#87199d" d="M0 1.92A1.807 1.807 0 0 1 .582.554 1.939 1.939 0 0 1 1.966 0a1.939 1.939 0 0 1 1.385.554 1.807 1.807 0 0 1 .581 1.366 1.821 1.821 0 0 1-.582 1.366 1.939 1.939 0 0 1-1.385.554 1.923 1.923 0 0 1-1.383-.554A1.821 1.821 0 0 1 0 1.92zM3.471 17.1H.462V5.9h3v11.2zm3 0V5.9h2.888v.9a5.274 5.274 0 0 1 1.431-.831 4.758 4.758 0 0 1 1.735-.3 5.025 5.025 0 0 1 3.886 1.809 4.862 4.862 0 0 1 .858 1.569 7.508 7.508 0 0 1 .3 2.354v5.7h-3v-5.932a3.776 3.776 0 0 0-.175-1.3 2.117 2.117 0 0 0-.5-.794 2.285 2.285 0 0 0-1.689-.628 2.959 2.959 0 0 0-.914.138 3.73 3.73 0 0 0-.775.351 3.481 3.481 0 0 0-.609.452 3.657 3.657 0 0 0-.425.452v7.283H6.47zm21.839 0a3.624 3.624 0 0 1-.868.175c-.378.037-.711.055-1.006.055a5.738 5.738 0 0 1-2.336-.42 3.885 3.885 0 0 1-1.551-1.191 3.658 3.658 0 0 1-.637-1.366 8.522 8.522 0 0 1-.194-1.984V8.436H18.6V5.9h3.12V0h3v5.9h3.711v2.536h-3.7v4.274a3.162 3.162 0 0 0 .092.858 1.732 1.732 0 0 0 .277.554 1.679 1.679 0 0 0 .6.406 2.449 2.449 0 0 0 .923.148 6.231 6.231 0 0 0 .692-.037 3.117 3.117 0 0 0 .535-.083zm11.74-1.778A5.163 5.163 0 0 1 38 16.808a6.647 6.647 0 0 1-4.883.1 5.387 5.387 0 0 1-3.1-3.018 6.064 6.064 0 0 1-.452-2.391 6.638 6.638 0 0 1 .378-2.234 5.821 5.821 0 0 1 1.1-1.865 5.179 5.179 0 0 1 3.978-1.754 4.928 4.928 0 0 1 2.123.462 5.328 5.328 0 0 1 1.68 1.237 5.478 5.478 0 0 1 1.1 1.818 6.287 6.287 0 0 1 .4 2.215 4.723 4.723 0 0 1-.074.858h-7.76a3.186 3.186 0 0 0 .323 1.089 2.752 2.752 0 0 0 .655.831 3.087 3.087 0 0 0 .923.545 3.192 3.192 0 0 0 1.117.194 3.292 3.292 0 0 0 1.7-.425 4.468 4.468 0 0 0 1.117-.868zm-2.8-5.27a2.144 2.144 0 0 0-.222-.729 2.252 2.252 0 0 0-.462-.637 2.182 2.182 0 0 0-.683-.443 2.157 2.157 0 0 0-.858-.166 2.35 2.35 0 0 0-1.615.6 2.271 2.271 0 0 0-.785 1.366h4.624zm16.134 6.424a25.18 25.18 0 0 1-.258 3.886 5.1 5.1 0 0 1-.766 1.68 5.025 5.025 0 0 1-2.06 1.652 6.908 6.908 0 0 1-2.908.591 7.16 7.16 0 0 1-1.615-.175 7.492 7.492 0 0 1-1.477-.49 7.607 7.607 0 0 1-1.283-.738 5.714 5.714 0 0 1-1.006-.914L43.908 20a7.565 7.565 0 0 0 .545.535 4.171 4.171 0 0 0 .738.517 4.633 4.633 0 0 0 .969.406 4.223 4.223 0 0 0 1.237.166 3.7 3.7 0 0 0 1.32-.222 2.268 2.268 0 0 0 .969-.683 2.44 2.44 0 0 0 .517-.969 22.513 22.513 0 0 0 .175-3.064v-.369a4.809 4.809 0 0 1-3 1.015A5.722 5.722 0 0 1 45 16.827a5.283 5.283 0 0 1-1.874-1.385 5.654 5.654 0 0 1-1.046-1.772 6.174 6.174 0 0 1-.369-2.16 6.074 6.074 0 0 1 .425-2.31 5.662 5.662 0 0 1 2.926-3.08A5.374 5.374 0 0 1 49 5.972a5.447 5.447 0 0 1 1.486.831V5.9h2.889v10.576zm-3.006-6.655A3.485 3.485 0 0 0 49.2 8.815a3.291 3.291 0 0 0-1.6-.378 2.664 2.664 0 0 0-1.2.258 2.758 2.758 0 0 0-.9.683 3.163 3.163 0 0 0-.582.978 3.376 3.376 0 0 0 .009 2.381 2.709 2.709 0 0 0 .628.96 2.966 2.966 0 0 0 .951.637 2.876 2.876 0 0 0 1.163.231 3.276 3.276 0 0 0 1.56-.378 3.356 3.356 0 0 0 1.145-1.006v-3.36zM90.687 5.9v6.849a3.035 3.035 0 0 1-.212.425 2.5 2.5 0 0 1-.406.526 2.952 2.952 0 0 1-1.708.84 1.943 1.943 0 0 1-.231.018c-.065 0-.12.009-.185.009a3.276 3.276 0 0 1-1.56-.378 3.356 3.356 0 0 1-1.145-1.006V5.9h-3.008v7.209a1.063 1.063 0 0 0 .1.434c.037.111.083.222.129.332a5.512 5.512 0 0 0 4.6 3.434c.286.028.572.037.868.037a6.408 6.408 0 0 0 2.7-.517l.055-.028a23.673 23.673 0 0 1-.175 2.917 2.562 2.562 0 0 1-.517.969 2.35 2.35 0 0 1-.969.683 3.664 3.664 0 0 1-1.32.222 4.223 4.223 0 0 1-1.237-.166 4.633 4.633 0 0 1-.969-.406 4.317 4.317 0 0 1-.738-.517 6.025 6.025 0 0 1-.545-.535l-1.892 1.966a5.713 5.713 0 0 0 1.006.914 7.028 7.028 0 0 0 1.283.738 7.493 7.493 0 0 0 1.477.489 7.219 7.219 0 0 0 1.615.175 6.849 6.849 0 0 0 2.908-.591A5.086 5.086 0 0 0 92.662 22a5.2 5.2 0 0 0 .766-1.68 25.855 25.855 0 0 0 .258-3.849V5.9zM63.208 8.547a4.391 4.391 0 0 0-.462-.083 4.59 4.59 0 0 0-.628-.037 2.6 2.6 0 0 0-.923.166A3.378 3.378 0 0 0 60.4 9a3.445 3.445 0 0 0-.609.517 2.751 2.751 0 0 0-.4.535V17.1h-3V5.9h2.889v1.133a3.573 3.573 0 0 1 1.366-1 4.677 4.677 0 0 1 1.892-.369 4.533 4.533 0 0 1 .545.028c.148.018.3.037.471.074zm1.726-6.627a1.821 1.821 0 0 1 .582-1.366 2.008 2.008 0 0 1 2.769 0 1.807 1.807 0 0 1 .582 1.366 1.821 1.821 0 0 1-.582 1.366 2.008 2.008 0 0 1-2.769 0 1.821 1.821 0 0 1-.582-1.366zm3.471 15.18h-3V5.9h3zm11.436 0a3.624 3.624 0 0 1-.868.175c-.378.037-.711.055-1.006.055a5.737 5.737 0 0 1-2.335-.425 3.885 3.885 0 0 1-1.551-1.191 3.658 3.658 0 0 1-.637-1.366 8.521 8.521 0 0 1-.194-1.984V8.436h-3.12V5.9h3.12V0h3v5.9h3.7v2.536h-3.7v4.274a3.163 3.163 0 0 0 .092.858 1.732 1.732 0 0 0 .277.554 1.679 1.679 0 0 0 .6.406 2.449 2.449 0 0 0 .923.148 6.231 6.231 0 0 0 .692-.037 3.116 3.116 0 0 0 .535-.083zm16.659-.246a2.1 2.1 0 0 0 2.9 0 1.877 1.877 0 0 0 .6-1.421 1.91 1.91 0 0 0-.6-1.421 2.1 2.1 0 0 0-2.9 0 1.877 1.877 0 0 0-.6 1.421 1.831 1.831 0 0 0 .6 1.421z" data-name="Path 4132"/></svg>