<svg xmlns="http://www.w3.org/2000/svg" viewBox="0 0 275 275"><title>person__overlay--bahamas</title><path d="M0 0v275h275V0zm177.6 255.16c-25.43 13.23-49 19.54-70.21 19.54-46.61 0-81.25-30.49-97.06-84.13-1-3.3-1.82-6.72-2.63-10.13C-5 151.92-2 117.92 16.71 82.37 30.49 56 51.77 35.86 79.12 24.08c2-1.45 4.06-2.79 6.08-4.13C106.48 6 123.7.21 139.1.21c17.33 0 32.12 7.33 47.11 18.29 41.14 9.61 56.94 28.73 64 54.88 28 30.48 34.35 71.72 8.21 112.75-7 36.17-34 63.56-80.85 69z" fill="#fff"/><path d="M107.59 273.59c-11.14.11-22.08-.86-32.62-4.58a87.7 87.7 0 0 1-27.46-16.33 105.66 105.66 0 0 1-21.68-26.35 154.48 154.48 0 0 1-15.3-35.76c-1-3.3-1.82-6.72-2.63-10a92.57 92.57 0 0 0 14.79 23 114.74 114.74 0 0 0 22.59 19.74c18.14 12.3 41.14 21.5 68.59 27.49a222.32 222.32 0 0 0 46 5.38 147.56 147.56 0 0 0 17.93-1 181 181 0 0 1-36.67 14.68c-11 3.1-22.29 3.65-33.54 3.75zm151-87.46a109.71 109.71 0 0 0 1-33.59c-1.21-10.44-1.92-20.46-2.73-30.07-.71-9.2-1.32-17.78-2.33-25.94a148.19 148.19 0 0 0-4.26-23A97 97 0 0 1 267 98.18c4.15 8.68 5.69 18.09 6.6 27.7.91 9.92 1.1 20.05-1.53 29.66a103.1 103.1 0 0 1-13.48 30.59zM79.22 24.18c2-1.44 4.06-2.79 6.08-4.13a150.15 150.15 0 0 1 15.1-9A97.26 97.26 0 0 1 114.28 5 77.27 77.27 0 0 1 127 1.45c4-.73 7.91-.14 12-.14 8.41 0 16.72.76 24.42 4.06a111.43 111.43 0 0 1 22.69 13.23c-1-.2-2-.51-3.24-.72a208.89 208.89 0 0 0-44.68-5.06c-21.28-.11-41.24 3.72-59 11.36z" fill="#0078bf"/></svg>