<svg xmlns="http://www.w3.org/2000/svg" viewBox="0 0 275 275"><title>person__overlay--daisy</title><path d="M196.83 20.44c-3.48-.7-7.07-1.59-11.09-2.58 8.77 6.05 17.64 13.19 27 20.83 7.61 6.15 15.42 12.5 24 18.85a107.28 107.28 0 0 1 24.19 24.4 78.44 78.44 0 0 1 12.56 28.28C274.34 83.63 264.83 61.9 248 46a95.23 95.23 0 0 0-19.11-13.79 121.12 121.12 0 0 0-32.1-11.8zm5 207c-17.26 10.51-34.2 18.62-50.49 23.92-15.77 5.11-31 7.71-45.28 7.71a102.26 102.26 0 0 1-33.44-5.31 91.94 91.94 0 0 1-28.23-15.51 104.84 104.84 0 0 1-22.37-25.12A147.19 147.19 0 0 1 6.28 179 118.26 118.26 0 0 1 11 93.16 146.24 146.24 0 0 1 38.13 53a214.18 214.18 0 0 1 44.64-35.59A172.3 172.3 0 0 1 102.05 7.2a113.84 113.84 0 0 1 17.25-6c-4.58-.6-9 .1-13.63.1-6.5 0-13-.2-19.28 1.31A68.3 68.3 0 0 0 68 10.2c-12.72 7.51-24.33 19.42-35.62 36.53-2.77 4-5.32 8.2-7.77 12.41v.16A205.07 205.07 0 0 0 6.77 99.48c-.33 1.21-.77 2.32-1.08 3.52a154.43 154.43 0 0 0-5.37 27.78v2.81c-2.56 37.33 10.33 71.06 35.79 97.78C63.38 260.09 94.38 275 125.8 275a103.8 103.8 0 0 0 37.5-7.21c.42-.1.74-.3 1.17-.4s.74-.3 1.17-.5c1-.4 1.81-.8 2.77-1.2.74-.3 1.49-.7 2.13-1A10 10 0 0 0 172 264a130.35 130.35 0 0 0 14.38-8.1 2.25 2.25 0 0 0 .64-.4c3.83-2.51 7.67-5.21 11.4-8.21a4.22 4.22 0 0 1 1.06-.8c.85-.7 1.81-1.4 2.67-2.1s1.49-1.3 2.23-2a15.67 15.67 0 0 1 1.39-1.21c1.06-1 2.23-2 3.3-3l.21-.2A231.75 231.75 0 0 0 244 196c0-.1.1-.1.1-.2a7.53 7.53 0 0 0 .64-1l1-1.5a232 232 0 0 1-43.88 34.12z" fill="#ffec66"/><path d="M0 0v275h275V0zm243.61 192.76c-.32.59-.64 1.09-1 1.58a11.43 11.43 0 0 0-.64 1c0 .1-.1.1-.1.2a229.57 229.57 0 0 1-34.43 41.57l-.21.2c-1.05 1-2.21 2-3.27 3a13.78 13.78 0 0 1-1.37 1.19c-.74.7-1.48 1.29-2.22 2s-1.69 1.39-2.64 2.08a4.05 4.05 0 0 1-1.06.8c-3.9 3.07-7.92 5.95-11.82 8.53a129.78 129.78 0 0 1-14.26 8c-.53.2-.95.5-1.48.7-.73.3-1.37.69-2.11 1-1 .4-1.79.79-2.74 1.19-.43.2-.74.3-1.16.5a6 6 0 0 1-1.17.39 103 103 0 0 1-37.17 7.15c-31.15 0-61.87-14.79-88.91-43.26-25.23-26.49-38-59.92-35.48-96.92v-.4c.11-.79.11-1.59.22-2.48v-.59a141.7 141.7 0 0 1 5.28-27.28A188 188 0 0 1 24.5 60v-.1c2.43-4.17 5-8.23 7.71-12.4C55.44 12.3 78.67 1.59 105 1.59a104.71 104.71 0 0 1 13.52.89A64.82 64.82 0 0 1 136.54 0c18 0 33.15 7.14 48.78 17.86 3.59.89 7.29 1.78 11.09 2.58C217 25 234.63 33.73 247.83 46.13c.64.6 1.27 1.19 1.9 1.89 15.63 15.67 24.39 36.8 23.55 62.3v.1c3.72 24.58-2.85 54.46-29.67 82.34z" fill="#fff"/></svg>