<svg xmlns="http://www.w3.org/2000/svg" viewBox="0 0 275 275"><title>person__overlay--turquoise</title><path d="M109.45 268.05a140.87 140.87 0 0 1-35.51-5.15 105.54 105.54 0 0 1-29.63-13.44 87.26 87.26 0 0 1-22.52-21.84 100 100 0 0 1-14.41-30.14 125 125 0 0 1-5-19.15 154.85 154.85 0 0 1-2.2-22.74c-.81-26.44 4-50.41 14-71.35a126.65 126.65 0 0 1 18.16-27.9 133.38 133.38 0 0 1 24.45-22.29 133.22 133.22 0 0 0-19.58 29.46 192.93 192.93 0 0 0-13.8 38.54 202.08 202.08 0 0 0-4.36 23.52 162.28 162.28 0 0 0-1.12 21.06A131.06 131.06 0 0 0 22 183.82a112.32 112.32 0 0 0 13.9 31.59 116.37 116.37 0 0 0 22.73 25.65 135.77 135.77 0 0 0 30.43 19.15c6.7 2.92 13.5 5.6 20.4 7.84zm141.22-62.39a190.36 190.36 0 0 0 11.06-32.59 202.24 202.24 0 0 0 4.36-23.53 160.44 160.44 0 0 0 1.12-21.06 130.74 130.74 0 0 0-4.06-37.19 112.32 112.32 0 0 0-13.9-31.59 116.58 116.58 0 0 0-22.72-25.65 136.19 136.19 0 0 0-30.44-19.15 183 183 0 0 0-30-10.76 146.08 146.08 0 0 1 35.31 5.38A104.45 104.45 0 0 1 230.79 23a88.42 88.42 0 0 1 22.42 21.73 96.77 96.77 0 0 1 14.3 30 125.5 125.5 0 0 1 5 19.16 154.71 154.71 0 0 1 2.23 22.74 161.59 161.59 0 0 1-5.58 48.84 127.06 127.06 0 0 1-18.47 40.21z" fill="#55deb1"/><path d="M0 0l.09 275H275V0zm151.75 274c-14.3-.11-28.51-1.46-42.3-6.06-50.94-1.34-88.78-24.75-102.07-70.57-4.16-11.65-5.8-25.54-6.3-41.89-1.53-54.11 19.08-95.66 55.81-121.43 20.29-22.74 46.77-33 76.5-33 10.55 0 21.41.46 32.67 3.26 50.63 1.45 88.37 24.86 101.56 70.57 4.16 11.65 5.79 25.54 6.3 41.89 1 35.29-6.81 65.31-23.25 88.94C230 251.92 194.16 274 151.75 274z" fill="#fff"/></svg>